<svg width="251" height="250" viewBox="0 0 251 250" fill="none" xmlns="http://www.w3.org/2000/svg">
<rect x="125.682" y="69.018" width="56.1011" height="56.1011" rx="7.85928" stroke="#8EA0A5" stroke-width="0.434443"/>
<g clip-path="url(#clip0_922_16961)">
<path d="M155.508 95.0698L151.51 99.0673" stroke="#99A7AB" stroke-width="0.571066" stroke-linecap="round" stroke-linejoin="round"/>
<path d="M151.938 96.2119C152.333 96.2119 152.652 95.8923 152.652 95.4981C152.652 95.1038 152.333 94.7842 151.938 94.7842C151.544 94.7842 151.225 95.1038 151.225 95.4981C151.225 95.8923 151.544 96.2119 151.938 96.2119Z" stroke="#99A7AB" stroke-width="0.571066" stroke-linecap="round" stroke-linejoin="round"/>
<path d="M155.079 99.3528C155.474 99.3528 155.793 99.0332 155.793 98.6389C155.793 98.2447 155.474 97.9251 155.079 97.9251C154.685 97.9251 154.365 98.2447 154.365 98.6389C154.365 99.0332 154.685 99.3528 155.079 99.3528Z" stroke="#99A7AB" stroke-width="0.571066" stroke-linecap="round" stroke-linejoin="round"/>
</g>
<g clip-path="url(#clip1_922_16961)">
<path opacity="0.26" d="M181.777 145.961L55 145.961" stroke="#8EA0A5" stroke-width="0.432231"/>
<path opacity="0.26" d="M181.777 154.61L55 154.61" stroke="#8EA0A5" stroke-width="0.432231"/>
<path opacity="0.26" d="M181.777 163.258L55 163.258" stroke="#8EA0A5" stroke-width="0.432231"/>
<path opacity="0.26" d="M181.777 171.907L55 171.907" stroke="#8EA0A5" stroke-width="0.432231"/>
<path opacity="0.26" d="M181.777 180.556L55 180.556" stroke="#8EA0A5" stroke-width="0.432231"/>
<path opacity="0.26" d="M181.777 197.853L55 197.853" stroke="#8EA0A5" stroke-width="0.432231"/>
<path opacity="0.26" d="M181.777 189.205L55 189.205" stroke="#8EA0A5" stroke-width="0.432231"/>
<path d="M63.9971 149.141H68.9046V204.884H63.9971V149.141Z" fill="url(#paint0_linear_922_16961)"/>
<path d="M85.2629 155.921H90.1704V204.884H85.2629V155.921Z" fill="url(#paint1_linear_922_16961)"/>
<path d="M127.794 155.921H132.702V204.884H127.794V155.921Z" fill="url(#paint2_linear_922_16961)"/>
<path d="M95.8958 187.559H100.803V204.884H95.8958V187.559Z" fill="url(#paint3_linear_922_16961)"/>
<path d="M138.427 187.559H143.335V204.884H138.427V187.559Z" fill="url(#paint4_linear_922_16961)"/>
<path d="M106.529 165.714H111.436V204.884H106.529V165.714Z" fill="url(#paint5_linear_922_16961)"/>
<path d="M149.06 165.714H153.968V204.884H149.06V165.714Z" fill="url(#paint6_linear_922_16961)"/>
<path d="M117.161 165.714H122.069V204.884H117.161V165.714Z" fill="url(#paint7_linear_922_16961)"/>
<path d="M159.693 146.128H164.6V204.884H159.693V146.128Z" fill="url(#paint8_linear_922_16961)"/>
<path d="M170.326 165.714H175.233V204.884H170.326V165.714Z" fill="url(#paint9_linear_922_16961)"/>
<path d="M74.6299 171.74H79.5374V204.884H74.6299V171.74Z" fill="url(#paint10_linear_922_16961)"/>
</g>
<rect x="55.2172" y="69.018" width="56.1011" height="56.1011" rx="7.85928" stroke="#8EA0A5" stroke-width="0.434443"/>
<path d="M77.1966 97.0674C77.1408 96.9553 77.116 96.8307 77.116 96.7062V85.9633H72.301V96.7062C72.301 97.5469 72.4869 98.3877 72.8464 99.1412L77.4507 108.919H82.78L77.2028 97.0736L77.1966 97.0674Z" fill="#8EA0A5"/>
<path d="M88.8839 85.9633V96.7062C88.8839 96.8307 88.8592 96.949 88.8034 97.0611L83.22 108.913H88.5493L93.1536 99.1288C93.5068 98.3752 93.6927 97.5407 93.6927 96.7062V85.9633H88.8777H88.8839Z" fill="#8EA0A5"/>
<rect x="55.2849" y="135.9" width="126.207" height="68.8147" rx="8.83166" stroke="#8EA0A5" stroke-width="0.569785"/>
<path d="M168.837 103.637C167.317 107.24 164.563 110.183 161.069 111.939C157.575 113.695 153.57 114.149 149.772 113.219C145.974 112.29 142.631 110.037 140.343 106.866C138.055 103.695 136.972 99.8128 137.287 95.9153L142 96.2967C141.776 99.0738 142.548 101.84 144.178 104.099C145.808 106.359 148.19 107.964 150.896 108.626C153.602 109.288 156.456 108.965 158.945 107.714C161.435 106.463 163.397 104.366 164.48 101.799L168.837 103.637Z" fill="url(#paint11_linear_922_16961)"/>
<path d="M137.495 94.3176C138.197 90.4359 140.27 86.9355 143.336 84.4544C146.403 81.9733 150.259 80.6769 154.201 80.8013L154.052 85.5278C151.243 85.4391 148.495 86.3629 146.311 88.1307C144.126 89.8985 142.649 92.3926 142.149 95.1583L137.495 94.3176Z" fill="url(#paint12_linear_922_16961)"/>
<path d="M155.891 80.9421C158.228 81.2588 160.47 82.0746 162.465 83.3339C164.459 84.5933 166.159 86.2669 167.45 88.2411C168.741 90.2154 169.592 92.4441 169.945 94.7762C170.299 97.1083 170.147 99.4891 169.499 101.757L164.952 100.459C165.413 98.8431 165.522 97.1467 165.27 95.4851C165.018 93.8235 164.412 92.2354 163.492 90.8288C162.572 89.4221 161.361 88.2296 159.94 87.3323C158.519 86.435 156.921 85.8538 155.256 85.6281L155.891 80.9421Z" fill="url(#paint13_linear_922_16961)"/>
<defs>
<linearGradient id="paint0_linear_922_16961" x1="66.4508" y1="149.141" x2="66.4508" y2="204.884" gradientUnits="userSpaceOnUse">
<stop stop-color="#77EB3D" stop-opacity="0.5"/>
<stop offset="1" stop-color="#737373" stop-opacity="0"/>
</linearGradient>
<linearGradient id="paint1_linear_922_16961" x1="87.7167" y1="155.921" x2="87.7167" y2="204.884" gradientUnits="userSpaceOnUse">
<stop stop-color="#77EB3D" stop-opacity="0.5"/>
<stop offset="1" stop-color="#737373" stop-opacity="0"/>
</linearGradient>
<linearGradient id="paint2_linear_922_16961" x1="130.248" y1="155.921" x2="130.248" y2="204.884" gradientUnits="userSpaceOnUse">
<stop stop-color="#77EB3D" stop-opacity="0.5"/>
<stop offset="1" stop-color="#737373" stop-opacity="0"/>
</linearGradient>
<linearGradient id="paint3_linear_922_16961" x1="98.3495" y1="187.559" x2="98.3495" y2="204.884" gradientUnits="userSpaceOnUse">
<stop stop-color="#77EB3D" stop-opacity="0.5"/>
<stop offset="1" stop-color="#737373" stop-opacity="0"/>
</linearGradient>
<linearGradient id="paint4_linear_922_16961" x1="140.881" y1="187.559" x2="140.881" y2="204.884" gradientUnits="userSpaceOnUse">
<stop stop-color="#77EB3D" stop-opacity="0.5"/>
<stop offset="1" stop-color="#737373" stop-opacity="0"/>
</linearGradient>
<linearGradient id="paint5_linear_922_16961" x1="108.982" y1="165.714" x2="108.982" y2="204.884" gradientUnits="userSpaceOnUse">
<stop stop-color="#77EB3D" stop-opacity="0.5"/>
<stop offset="1" stop-color="#737373" stop-opacity="0"/>
</linearGradient>
<linearGradient id="paint6_linear_922_16961" x1="151.514" y1="165.714" x2="151.514" y2="204.884" gradientUnits="userSpaceOnUse">
<stop stop-color="#77EB3D" stop-opacity="0.5"/>
<stop offset="1" stop-color="#737373" stop-opacity="0"/>
</linearGradient>
<linearGradient id="paint7_linear_922_16961" x1="119.615" y1="165.714" x2="119.615" y2="204.884" gradientUnits="userSpaceOnUse">
<stop stop-color="#77EB3D" stop-opacity="0.5"/>
<stop offset="1" stop-color="#737373" stop-opacity="0"/>
</linearGradient>
<linearGradient id="paint8_linear_922_16961" x1="162.147" y1="146.128" x2="162.147" y2="204.884" gradientUnits="userSpaceOnUse">
<stop stop-color="#77EB3D" stop-opacity="0.5"/>
<stop offset="1" stop-color="#737373" stop-opacity="0"/>
</linearGradient>
<linearGradient id="paint9_linear_922_16961" x1="172.78" y1="165.714" x2="172.78" y2="204.884" gradientUnits="userSpaceOnUse">
<stop stop-color="#77EB3D" stop-opacity="0.5"/>
<stop offset="1" stop-color="#737373" stop-opacity="0"/>
</linearGradient>
<linearGradient id="paint10_linear_922_16961" x1="77.0836" y1="171.74" x2="77.0836" y2="204.884" gradientUnits="userSpaceOnUse">
<stop stop-color="#77EB3D" stop-opacity="0.5"/>
<stop offset="1" stop-color="#737373" stop-opacity="0"/>
</linearGradient>
<linearGradient id="paint11_linear_922_16961" x1="153.682" y1="80.7932" x2="153.682" y2="113.691" gradientUnits="userSpaceOnUse">
<stop stop-color="#57696E"/>
<stop offset="1" stop-color="#737373" stop-opacity="0"/>
</linearGradient>
<linearGradient id="paint12_linear_922_16961" x1="153.682" y1="80.7932" x2="153.682" y2="113.691" gradientUnits="userSpaceOnUse">
<stop stop-color="#57696E"/>
<stop offset="1" stop-color="#737373" stop-opacity="0"/>
</linearGradient>
<linearGradient id="paint13_linear_922_16961" x1="153.682" y1="80.7932" x2="153.682" y2="113.691" gradientUnits="userSpaceOnUse">
<stop stop-color="#57696E"/>
<stop offset="1" stop-color="#737373" stop-opacity="0"/>
</linearGradient>
<clipPath id="clip0_922_16961">
<rect width="6.85279" height="6.85279" fill="white" transform="translate(150.083 93.6422)"/>
</clipPath>
<clipPath id="clip1_922_16961">
<rect width="126.777" height="65.9581" fill="white" transform="translate(55 139.042)"/>
</clipPath>
</defs>
</svg>
