<svg width="307" height="146" viewBox="0 0 307 146" fill="none" xmlns="http://www.w3.org/2000/svg">
<path d="M214 25H281" stroke="#183B46" stroke-width="8" stroke-miterlimit="10" stroke-linecap="square"/>
<rect x="172.33" y="0.32956" width="134.341" height="39.3409" rx="10.2164" fill="#01242D" stroke="white" stroke-width="0.65912"/>
<g clip-path="url(#clip0_865_10321)">
<path opacity="0.26" d="M307 77L172 77" stroke="white" stroke-width="0.5"/>
<path opacity="0.26" d="M307 87L172 87" stroke="white" stroke-width="0.5"/>
<path opacity="0.26" d="M307 97L172 97" stroke="white" stroke-width="0.5"/>
<path opacity="0.26" d="M307 107L172 107" stroke="white" stroke-width="0.5"/>
<path opacity="0.26" d="M307 117L172 117" stroke="white" stroke-width="0.5"/>
<path opacity="0.26" d="M307 137L172 137" stroke="white" stroke-width="0.5"/>
<path opacity="0.26" d="M307 127L172 127" stroke="white" stroke-width="0.5"/>
<path d="M68.2632 124.545C70.0499 114.752 71.8362 104.958 73.6228 107.103C75.4095 109.248 77.1958 123.333 78.9825 122.365C80.7692 121.397 82.5555 105.377 84.3422 103.833C86.1288 102.289 87.9152 115.22 89.7018 121.274C91.4885 127.329 93.2748 126.507 95.0615 126.725C96.8478 126.943 98.6345 128.202 100.421 124.545C102.207 120.888 103.994 112.314 105.781 106.013C107.567 99.7118 109.354 95.6825 111.14 100.563C112.927 105.442 114.713 119.232 116.5 125.635C118.286 132.038 120.073 131.055 121.86 128.905C123.646 126.756 125.433 123.439 127.219 123.455C129.006 123.471 130.792 126.82 132.579 126.725C134.365 126.631 136.152 123.094 137.939 120.185C139.725 117.275 141.512 114.994 143.298 113.644C145.085 112.294 146.871 111.875 148.658 118.004C150.444 124.134 152.231 136.812 154.017 131.085C155.804 125.36 157.591 101.229 159.377 99.4725C161.164 97.7159 162.95 118.332 164.737 125.635C166.523 132.938 168.31 126.929 170.096 119.094C171.883 111.259 173.67 101.599 175.456 103.833C177.243 106.068 179.029 120.198 180.816 121.274C182.602 122.352 184.389 110.376 186.175 111.463C187.962 112.552 189.748 126.704 191.535 124.545C193.322 122.386 195.108 103.917 196.895 99.4725C198.681 95.0278 200.468 104.609 202.254 102.743C204.041 100.877 205.827 87.5657 207.614 88.5712C209.401 89.5775 211.187 104.902 212.974 112.554C214.76 120.206 216.547 120.186 218.333 122.365C220.12 124.543 221.906 128.92 223.693 125.635C225.48 122.35 227.266 111.402 229.053 109.283C230.839 107.165 232.626 113.874 234.412 115.824C236.199 117.774 237.985 114.965 239.772 119.094C241.558 123.224 243.345 134.292 245.132 127.815C246.918 121.338 248.705 97.3177 250.491 91.8415C252.278 86.3661 254.064 99.4359 255.851 103.833C257.637 108.23 259.424 103.955 261.211 101.652C262.997 99.351 264.784 99.0233 266.57 99.4725C268.357 99.9217 270.143 101.149 271.93 107.103C273.716 113.058 275.503 123.739 277.29 125.635C279.076 127.531 280.863 120.641 282.649 120.185C284.436 119.728 286.222 125.703 288.009 129.996C289.795 134.287 291.582 136.896 293.368 132.176C295.155 127.456 296.942 115.407 298.728 113.644C300.515 111.88 302.301 120.403 304.088 121.274C305.874 122.147 307.661 115.369 309.447 118.004C311.234 120.639 313.021 132.686 314.807 126.725C316.594 120.764 318.38 96.7944 320.167 95.1119C321.953 93.4293 323.74 114.034 325.526 124.545C327.313 135.056 329.1 135.475 330.886 131.085C332.673 126.697 334.459 117.499 336.246 114.734C338.032 111.969 339.819 115.636 341.605 120.185C343.392 124.734 345.178 130.165 346.965 123.455C348.752 116.746 350.538 97.8956 352.325 100.563C354.111 103.23 355.898 127.414 357.684 127.815C359.471 128.216 361.257 104.834 363.044 103.833C364.831 102.832 366.617 124.213 368.404 129.996C370.19 135.778 371.977 125.963 373.763 118.004C375.55 110.045 377.336 103.94 379.123 104.923C380.91 105.905 382.696 113.975 384.483 110.374C386.269 106.772 388.056 91.5008 389.842 92.9319C391.629 94.3629 393.415 112.496 395.202 123.455C396.988 134.414 398.775 138.199 400.561 128.905C402.348 119.612 404.134 97.2401 405.921 99.4725C407.707 101.705 409.494 128.542 411.281 131.085C413.067 133.628 414.854 111.877 416.641 103.833C418.427 95.7882 420.214 101.451 422 107.103C423.786 112.756 425.573 118.399 427.36 111.463C429.146 104.529 430.933 85.0163 432.719 88.5712C434.506 92.1269 436.292 118.749 438.079 126.725C439.865 134.701 441.652 124.03 443.438 113.644C445.225 103.258 447.012 93.1576 448.798 96.2022C450.585 99.2468 452.371 115.438 454.158 122.365C455.944 129.291 457.731 126.955 459.517 115.824C461.304 104.694 463.091 84.769 464.877 87.4816C466.664 90.1934 468.45 115.542 470.237 125.635C472.023 135.728 473.81 130.565 475.596 124.545C477.383 118.525 479.169 111.648 480.956 103.833C482.743 96.0175 484.529 87.2631 486.316 91.8415C488.102 96.42 489.889 114.331 491.675 123.455C493.462 132.578 495.248 132.914 497.035 127.815C498.822 122.717 500.608 112.185 502.395 101.652V145.257C500.608 145.257 498.822 145.257 497.035 145.257C495.248 145.257 493.462 145.257 491.675 145.257C489.889 145.257 488.102 145.257 486.316 145.257C484.529 145.257 482.743 145.257 480.956 145.257C479.169 145.257 477.383 145.257 475.596 145.257C473.81 145.257 472.023 145.257 470.237 145.257C468.45 145.257 466.664 145.257 464.877 145.257C463.091 145.257 461.304 145.257 459.517 145.257C457.731 145.257 455.944 145.257 454.158 145.257C452.371 145.257 450.585 145.257 448.798 145.257C447.012 145.257 445.225 145.257 443.438 145.257C441.652 145.257 439.865 145.257 438.079 145.257C436.292 145.257 434.506 145.257 432.719 145.257C430.933 145.257 429.146 145.257 427.36 145.257C425.573 145.257 423.786 145.257 422 145.257C420.214 145.257 418.427 145.257 416.641 145.257C414.854 145.257 413.067 145.257 411.281 145.257C409.494 145.257 407.707 145.257 405.921 145.257C404.134 145.257 402.348 145.257 400.561 145.257C398.775 145.257 396.988 145.257 395.202 145.257C393.415 145.257 391.629 145.257 389.842 145.257C388.056 145.257 386.269 145.257 384.483 145.257C382.696 145.257 380.91 145.257 379.123 145.257C377.336 145.257 375.55 145.257 373.763 145.257C371.977 145.257 370.19 145.257 368.404 145.257C366.617 145.257 364.831 145.257 363.044 145.257C361.257 145.257 359.471 145.257 357.684 145.257C355.898 145.257 354.111 145.257 352.325 145.257C350.538 145.257 348.752 145.257 346.965 145.257C345.178 145.257 343.392 145.257 341.605 145.257C339.819 145.257 338.032 145.257 336.246 145.257C334.459 145.257 332.673 145.257 330.886 145.257C329.1 145.257 327.313 145.257 325.526 145.257C323.74 145.257 321.953 145.257 320.167 145.257C318.38 145.257 316.594 145.257 314.807 145.257C313.021 145.257 311.234 145.257 309.447 145.257C307.661 145.257 305.874 145.257 304.088 145.257C302.301 145.257 300.515 145.257 298.728 145.257C296.942 145.257 295.155 145.257 293.368 145.257C291.582 145.257 289.795 145.257 288.009 145.257C286.222 145.257 284.436 145.257 282.649 145.257C280.863 145.257 279.076 145.257 277.29 145.257C275.503 145.257 273.716 145.257 271.93 145.257C270.143 145.257 268.357 145.257 266.57 145.257C264.784 145.257 262.997 145.257 261.211 145.257C259.424 145.257 257.637 145.257 255.851 145.257C254.064 145.257 252.278 145.257 250.491 145.257C248.705 145.257 246.918 145.257 245.132 145.257C243.345 145.257 241.558 145.257 239.772 145.257C237.985 145.257 236.199 145.257 234.412 145.257C232.626 145.257 230.839 145.257 229.053 145.257C227.266 145.257 225.48 145.257 223.693 145.257C221.906 145.257 220.12 145.257 218.333 145.257C216.547 145.257 214.76 145.257 212.974 145.257C211.187 145.257 209.401 145.257 207.614 145.257C205.827 145.257 204.041 145.257 202.254 145.257C200.468 145.257 198.681 145.257 196.895 145.257C195.108 145.257 193.322 145.257 191.535 145.257C189.748 145.257 187.962 145.257 186.175 145.257C184.389 145.257 182.602 145.257 180.816 145.257C179.029 145.257 177.243 145.257 175.456 145.257C173.67 145.257 171.883 145.257 170.096 145.257C168.31 145.257 166.523 145.257 164.737 145.257C162.95 145.257 161.164 145.257 159.377 145.257C157.591 145.257 155.804 145.257 154.017 145.257C152.231 145.257 150.444 145.257 148.658 145.257C146.871 145.257 145.085 145.257 143.298 145.257C141.512 145.257 139.725 145.257 137.939 145.257C136.152 145.257 134.365 145.257 132.579 145.257C130.792 145.257 129.006 145.257 127.219 145.257C125.433 145.257 123.646 145.257 121.86 145.257C120.073 145.257 118.286 145.257 116.5 145.257C114.713 145.257 112.927 145.257 111.14 145.257C109.354 145.257 107.567 145.257 105.781 145.257C103.994 145.257 102.207 145.257 100.421 145.257C98.6345 145.257 96.8478 145.257 95.0615 145.257C93.2748 145.257 91.4885 145.257 89.7018 145.257C87.9152 145.257 86.1288 145.257 84.3422 145.257C82.5555 145.257 80.7692 145.257 78.9825 145.257C77.1958 145.257 75.4095 145.257 73.6228 145.257C71.8362 145.257 70.0499 145.257 68.2632 145.257V124.545Z" fill="url(#paint0_linear_865_10321)" fill-opacity="0.6"/>
<path d="M68.2632 124.935C70.0499 114.917 71.8362 104.898 73.6228 107.093C75.4095 109.287 77.1958 123.696 78.9825 122.705C80.7692 121.715 82.5555 105.327 84.3422 103.748C86.1288 102.167 87.9152 115.397 89.7018 121.59C91.4885 127.784 93.2748 126.943 95.0615 127.166C96.8478 127.389 98.6345 128.677 100.421 124.935C102.207 121.194 103.994 112.424 105.781 105.978C107.567 99.5314 109.354 95.4094 111.14 100.402C112.927 105.394 114.713 119.5 116.5 126.051C118.286 132.601 120.073 131.595 121.86 129.396C123.646 127.197 125.433 123.804 127.219 123.821C129.006 123.837 130.792 127.262 132.579 127.166C134.365 127.07 136.152 123.451 137.939 120.475C139.725 117.499 141.512 115.165 143.298 113.784C145.085 112.402 146.871 111.974 148.658 118.244C150.444 124.515 152.231 137.484 154.017 131.626C155.804 125.769 157.591 101.084 159.377 99.2866C161.164 97.4896 162.95 118.58 164.737 126.051C166.523 133.522 168.31 127.375 170.096 119.36C171.883 111.344 173.67 101.462 175.456 103.748C177.243 106.034 179.029 120.488 180.816 121.59C182.602 122.692 184.389 110.441 186.175 111.553C187.962 112.666 189.748 127.144 191.535 124.935C193.322 122.727 195.108 103.834 196.895 99.2866C198.681 94.7396 200.468 104.541 202.254 102.632C204.041 100.723 205.827 87.1059 207.614 88.1346C209.401 89.164 211.187 104.841 212.974 112.669C214.76 120.496 216.547 120.477 218.333 122.705C220.12 124.934 221.906 129.412 223.693 126.051C225.48 122.69 227.266 111.491 229.053 109.323C230.839 107.156 232.626 114.019 234.412 116.014C236.199 118.009 237.985 115.136 239.772 119.36C241.558 123.584 243.345 134.906 245.132 128.281C246.918 121.655 248.705 97.0822 250.491 91.4801C252.278 85.8788 254.064 99.2491 255.851 103.748C257.637 108.245 259.424 103.872 261.211 101.517C262.997 99.1623 264.784 98.827 266.57 99.2866C268.357 99.7461 270.143 101.001 271.93 107.093C273.716 113.184 275.503 124.111 277.29 126.051C279.076 127.99 280.863 120.942 282.649 120.475C284.436 120.007 286.222 126.121 288.009 130.512C289.795 134.902 291.582 137.57 293.368 132.742C295.155 127.913 296.942 115.588 298.728 113.784C300.515 111.98 302.301 120.698 304.088 121.59C305.874 122.482 307.661 115.549 309.447 118.244C311.234 120.94 313.021 133.264 314.807 127.166C316.594 121.068 318.38 96.5469 320.167 94.8256C321.953 93.1043 323.74 114.183 325.526 124.935C327.313 135.689 329.1 136.117 330.886 131.626C332.673 127.137 334.459 117.728 336.246 114.899C338.032 112.07 339.819 115.822 341.605 120.475C343.392 125.129 345.178 130.684 346.965 123.821C348.752 116.957 350.538 97.6734 352.325 100.402C354.111 103.131 355.898 127.871 357.684 128.281C359.471 128.691 361.257 104.771 363.044 103.748C364.831 102.723 366.617 124.596 368.404 130.512C370.19 136.427 371.977 126.387 373.763 118.244C375.55 110.102 377.336 103.857 379.123 104.862C380.91 105.867 382.696 114.122 384.483 110.439C386.269 106.754 388.056 91.1316 389.842 92.5955C391.629 94.0595 393.415 112.609 395.202 123.821C396.988 135.031 398.775 138.903 400.562 129.396C402.348 119.889 404.135 97.0028 405.921 99.2866C407.707 101.57 409.494 129.025 411.281 131.626C413.067 134.228 414.854 111.977 416.641 103.748C418.427 95.5175 420.214 101.31 422 107.093C423.786 112.875 425.573 118.648 427.36 111.553C429.146 104.459 430.933 84.4979 432.719 88.1346C434.506 91.772 436.292 119.007 438.079 127.166C439.865 135.325 441.652 124.409 443.438 113.784C445.225 103.159 447.012 92.8264 448.798 95.9411C450.585 99.0557 452.371 115.619 454.158 122.705C455.944 129.791 457.731 127.401 459.517 116.014C461.304 104.628 463.091 84.245 464.877 87.0199C466.664 89.7941 468.45 115.726 470.237 126.051C472.023 136.376 473.81 131.094 475.596 124.935C477.383 118.777 479.169 111.742 480.956 103.748C482.743 95.7521 484.529 86.7964 486.316 91.4801C488.102 96.1638 489.889 114.487 491.675 123.821C493.462 133.154 495.248 133.497 497.035 128.281C498.822 123.066 500.608 112.291 502.395 101.517" stroke="#77EB3D" stroke-width="0.236842"/>
</g>
<path d="M97.8238 74H40" stroke="white" stroke-width="0.5" stroke-dasharray="4.65 4.65"/>
<path d="M69.0021 40.0006L69.0015 50.7608C69.0008 63.5954 79.4051 74.0002 92.2396 74.0002L123 74.0002" stroke="white" stroke-width="0.5" stroke-dasharray="4.65 4.65"/>
<path d="M124.742 73.9949V73.9949C137.165 73.995 147.087 64.6289 147.087 52.9025L147.087 44.124C147.087 31.8699 157.456 22.0823 170.438 22.0823L172.587 22.0823" stroke="#77EB3D" stroke-width="0.5" stroke-dasharray="4.65 4.65"/>
<path d="M124.742 74.3531V74.3531C137.165 74.353 147.087 83.7191 147.087 95.4456L147.087 104.224C147.087 116.478 157.456 126.266 170.438 126.266L172.587 126.266" stroke="#77EB3D" stroke-width="0.5" stroke-dasharray="4.65 4.65"/>
<path d="M69.0013 105.632L68.8736 97.7015C68.6672 84.8819 78.8824 74.3174 91.7017 74.0928L96.9997 74" stroke="white" stroke-width="0.5" stroke-dasharray="4.65 4.65"/>
<path d="M189.89 19.8243C189.846 19.7352 189.826 19.6363 189.826 19.5373V11H186V19.5373C186 20.2054 186.148 20.8736 186.433 21.4724L190.092 29.2426H194.328L189.895 19.8293L189.89 19.8243Z" fill="white"/>
<path d="M199.178 11V19.5373C199.178 19.6363 199.159 19.7303 199.114 19.8194L194.677 29.2376H198.912L202.571 21.4625C202.852 20.8637 203 20.2005 203 19.5373V11H199.173H199.178Z" fill="white"/>
<rect x="51.3296" y="0.32956" width="38.8881" height="38.8881" rx="10.2164" stroke="white" stroke-width="0.65912"/>
<rect x="172.33" y="65.3296" width="134.341" height="79.3409" rx="10.2164" stroke="white" stroke-width="0.65912"/>
<rect x="51.3296" y="105.33" width="38.8881" height="38.8881" rx="10.2164" stroke="white" stroke-width="0.65912"/>
<rect x="0.32956" y="53.3296" width="38.8881" height="38.8881" rx="10.2164" stroke="white" stroke-width="0.65912"/>
<path d="M79 28C79.5304 28 80.0391 27.7893 80.4142 27.4142C80.7893 27.0391 81 26.5304 81 26V16C81 15.4696 80.7893 14.9609 80.4142 14.5858C80.0391 14.2107 79.5304 14 79 14H71.1C70.7655 14.0033 70.4355 13.9226 70.1403 13.7654C69.8451 13.6081 69.594 13.3794 69.41 13.1L68.6 11.9C68.4179 11.6235 68.17 11.3965 67.8785 11.2394C67.587 11.0823 67.2611 11.0001 66.93 11H63C62.4696 11 61.9609 11.2107 61.5858 11.5858C61.2107 11.9609 61 12.4696 61 13V26C61 26.5304 61.2107 27.0391 61.5858 27.4142C61.9609 27.7893 62.4696 28 63 28H79Z" stroke="white" stroke-width="1.33" stroke-linecap="round" stroke-linejoin="round"/>
<path d="M28 83C28.5304 83 29.0391 82.7893 29.4142 82.4142C29.7893 82.0391 30 81.5304 30 81V71C30 70.4696 29.7893 69.9609 29.4142 69.5858C29.0391 69.2107 28.5304 69 28 69H20.1C19.7655 69.0033 19.4355 68.9226 19.1403 68.7654C18.8451 68.6081 18.594 68.3794 18.41 68.1L17.6 66.9C17.4179 66.6235 17.17 66.3965 16.8785 66.2394C16.587 66.0823 16.2611 66.0001 15.93 66H12C11.4696 66 10.9609 66.2107 10.5858 66.5858C10.2107 66.9609 10 67.4696 10 68V81C10 81.5304 10.2107 82.0391 10.5858 82.4142C10.9609 82.7893 11.4696 83 12 83H28Z" stroke="white" stroke-width="1.33" stroke-linecap="round" stroke-linejoin="round"/>
<path d="M79 133C79.5304 133 80.0391 132.789 80.4142 132.414C80.7893 132.039 81 131.53 81 131V121C81 120.47 80.7893 119.961 80.4142 119.586C80.0391 119.211 79.5304 119 79 119H71.1C70.7655 119.003 70.4355 118.923 70.1403 118.765C69.8451 118.608 69.594 118.379 69.41 118.1L68.6 116.9C68.4179 116.623 68.17 116.396 67.8785 116.239C67.587 116.082 67.2611 116 66.93 116H63C62.4696 116 61.9609 116.211 61.5858 116.586C61.2107 116.961 61 117.47 61 118V131C61 131.53 61.2107 132.039 61.5858 132.414C61.9609 132.789 62.4696 133 63 133H79Z" stroke="white" stroke-width="1.33" stroke-linecap="round" stroke-linejoin="round"/>
<path d="M212 14H294" stroke="#183B46" stroke-width="6" stroke-miterlimit="10" stroke-linecap="square"/>
<path d="M212 29H271" stroke="#183B46" stroke-width="6" stroke-miterlimit="10" stroke-linecap="square"/>
<rect x="283.233" y="20.2326" width="11.5347" height="11.5347" rx="5.76737" fill="#183B46" stroke="white" stroke-width="0.465261"/>
<path d="M286.724 26.2918L288.878 24.1379L291.032 26.2918" stroke="white" stroke-width="0.615385" stroke-linecap="round" stroke-linejoin="round"/>
<path d="M288.878 28.4456V24.1379" stroke="white" stroke-width="0.615385" stroke-linecap="round" stroke-linejoin="round"/>
<defs>
<linearGradient id="paint0_linear_865_10321" x1="68.2632" y1="87.2306" x2="68.2632" y2="145.257" gradientUnits="userSpaceOnUse">
<stop offset="0.05" stop-color="#77EB3D"/>
<stop offset="0.95" stop-opacity="0.1"/>
</linearGradient>
<clipPath id="clip0_865_10321">
<rect width="135" height="76.2632" fill="white" transform="translate(172 69)"/>
</clipPath>
</defs>
</svg>
