<svg width="251" height="250" viewBox="0 0 251 250" fill="none" xmlns="http://www.w3.org/2000/svg">
<rect x="127.967" y="73.2937" width="119.739" height="35.0647" rx="9.10588" stroke="#8EA0A5" stroke-width="0.587476"/>
<g clip-path="url(#clip0_922_16925)">
<path opacity="0.26" d="M248 141.63L127.674 141.63" stroke="#8EA0A5" stroke-width="0.445652"/>
<path opacity="0.26" d="M248 150.543L127.674 150.543" stroke="#8EA0A5" stroke-width="0.445652"/>
<path opacity="0.26" d="M248 159.457L127.674 159.457" stroke="#8EA0A5" stroke-width="0.445652"/>
<path opacity="0.26" d="M248 168.37L127.674 168.37" stroke="#8EA0A5" stroke-width="0.445652"/>
<path opacity="0.26" d="M248 177.283L127.674 177.283" stroke="#8EA0A5" stroke-width="0.445652"/>
<path opacity="0.26" d="M248 195.109L127.674 195.109" stroke="#8EA0A5" stroke-width="0.445652"/>
<path opacity="0.26" d="M248 186.196L127.674 186.196" stroke="#8EA0A5" stroke-width="0.445652"/>
<path d="M35.2126 184.007C36.8051 175.279 38.3973 166.55 39.9897 168.462C41.5822 170.373 43.1744 182.927 44.7668 182.064C46.3593 181.201 47.9514 166.923 49.5439 165.547C51.1364 164.17 52.7285 175.696 54.321 181.092C55.9135 186.489 57.5056 185.756 59.0981 185.951C60.6902 186.145 62.2827 187.267 63.8752 184.007C65.4673 180.748 67.0598 173.106 68.6523 167.49C70.2444 161.874 71.8369 158.282 73.4294 162.632C75.0215 166.981 76.614 179.272 78.2065 184.979C79.7986 190.686 81.3911 189.81 82.9836 187.894C84.5757 185.978 86.1682 183.021 87.7606 183.036C89.3528 183.05 90.9453 186.035 92.5377 185.951C94.1299 185.867 95.7223 182.714 97.3148 180.121C98.907 177.528 100.499 175.495 102.092 174.292C103.684 173.088 105.277 172.714 106.869 178.178C108.461 183.641 110.054 194.941 111.646 189.837C113.238 184.734 114.831 163.226 116.423 161.66C118.015 160.095 119.608 178.47 121.2 184.979C122.792 191.488 124.385 186.133 125.977 179.149C127.57 172.166 129.162 163.555 130.754 165.547C132.347 167.539 133.939 180.133 135.531 181.092C137.124 182.053 138.716 171.379 140.308 172.348C141.901 173.318 143.493 185.932 145.085 184.007C146.678 182.083 148.27 165.622 149.862 161.66C151.455 157.699 153.047 166.238 154.64 164.575C156.232 162.912 157.824 151.048 159.417 151.944C161.009 152.841 162.601 166.5 164.194 173.32C165.786 180.14 167.378 180.122 168.971 182.064C170.563 184.006 172.155 187.907 173.748 184.979C175.34 182.051 176.933 172.293 178.525 170.405C180.118 168.516 181.71 174.497 183.302 176.235C184.895 177.973 186.487 175.469 188.079 179.149C189.671 182.83 191.264 192.695 192.856 186.922C194.448 181.149 196.041 159.74 197.633 154.859C199.226 149.978 200.818 161.628 202.41 165.547C204.003 169.466 205.595 165.655 207.188 163.603C208.78 161.552 210.372 161.26 211.965 161.66C213.557 162.061 215.149 163.154 216.742 168.462C218.334 173.769 219.926 183.289 221.519 184.979C223.111 186.669 224.703 180.528 226.296 180.121C227.888 179.714 229.481 185.04 231.073 188.866C232.665 192.691 234.258 195.016 235.85 190.809C237.442 186.602 239.035 175.863 240.627 174.292C242.219 172.719 243.812 180.315 245.404 181.092C246.996 181.87 248.589 175.829 250.181 178.178C251.774 180.526 253.366 191.264 254.958 185.951C256.551 180.638 258.143 159.273 259.735 157.774C261.328 156.274 262.92 174.639 264.512 184.007C266.105 193.376 267.697 193.749 269.289 189.837C270.882 185.925 272.474 177.728 274.067 175.263C275.659 172.798 277.251 176.067 278.844 180.121C280.436 184.176 282.028 189.016 283.621 183.036C285.213 177.056 286.805 160.255 288.398 162.632C289.99 165.009 291.582 186.565 293.175 186.922C294.767 187.28 296.359 166.439 297.952 165.547C299.544 164.655 301.137 183.711 302.729 188.866C304.322 194.02 305.914 185.272 307.506 178.178C309.099 171.083 310.691 165.642 312.283 166.518C313.876 167.394 315.468 174.586 317.06 171.377C318.652 168.166 320.245 154.555 321.837 155.831C323.43 157.106 325.022 173.268 326.615 183.036C328.207 192.804 329.799 196.177 331.392 187.894C332.984 179.611 334.576 159.671 336.169 161.66C337.761 163.65 339.353 187.57 340.946 189.837C342.538 192.103 344.13 172.717 345.723 165.547C347.315 158.376 348.908 163.423 350.5 168.462C352.092 173.5 353.685 178.529 355.277 172.348C356.869 166.167 358.462 148.775 360.054 151.944C361.646 155.113 363.239 178.842 364.831 185.951C366.423 193.059 368.016 183.549 369.608 174.292C371.2 165.034 372.793 156.032 374.385 158.745C375.978 161.459 377.57 175.891 379.162 182.064C380.755 188.238 382.347 186.155 383.939 176.235C385.532 166.314 387.124 148.555 388.716 150.973C390.309 153.39 391.901 175.983 393.493 184.979C395.086 193.975 396.678 189.373 398.271 184.007C399.863 178.642 401.455 172.512 403.048 165.547C404.64 158.581 406.232 150.778 407.825 154.859C409.417 158.94 411.009 174.904 412.602 183.036C414.194 191.168 415.786 191.467 417.379 186.922C418.971 182.378 420.564 172.991 422.156 163.603V202.468C420.564 202.468 418.971 202.468 417.379 202.468C415.786 202.468 414.194 202.468 412.602 202.468C411.009 202.468 409.417 202.468 407.825 202.468C406.232 202.468 404.64 202.468 403.048 202.468C401.455 202.468 399.863 202.468 398.271 202.468C396.678 202.468 395.086 202.468 393.493 202.468C391.901 202.468 390.309 202.468 388.716 202.468C387.124 202.468 385.532 202.468 383.939 202.468C382.347 202.468 380.755 202.468 379.162 202.468C377.57 202.468 375.978 202.468 374.385 202.468C372.793 202.468 371.2 202.468 369.608 202.468C368.016 202.468 366.423 202.468 364.831 202.468C363.239 202.468 361.646 202.468 360.054 202.468C358.462 202.468 356.869 202.468 355.277 202.468C353.685 202.468 352.092 202.468 350.5 202.468C348.908 202.468 347.315 202.468 345.723 202.468C344.13 202.468 342.538 202.468 340.946 202.468C339.353 202.468 337.761 202.468 336.169 202.468C334.576 202.468 332.984 202.468 331.392 202.468C329.799 202.468 328.207 202.468 326.615 202.468C325.022 202.468 323.43 202.468 321.837 202.468C320.245 202.468 318.652 202.468 317.06 202.468C315.468 202.468 313.876 202.468 312.283 202.468C310.691 202.468 309.099 202.468 307.506 202.468C305.914 202.468 304.322 202.468 302.729 202.468C301.137 202.468 299.544 202.468 297.952 202.468C296.359 202.468 294.767 202.468 293.175 202.468C291.582 202.468 289.99 202.468 288.398 202.468C286.805 202.468 285.213 202.468 283.621 202.468C282.028 202.468 280.436 202.468 278.844 202.468C277.251 202.468 275.659 202.468 274.067 202.468C272.474 202.468 270.882 202.468 269.289 202.468C267.697 202.468 266.105 202.468 264.512 202.468C262.92 202.468 261.328 202.468 259.735 202.468C258.143 202.468 256.551 202.468 254.958 202.468C253.366 202.468 251.774 202.468 250.181 202.468C248.589 202.468 246.996 202.468 245.404 202.468C243.812 202.468 242.219 202.468 240.627 202.468C239.035 202.468 237.442 202.468 235.85 202.468C234.258 202.468 232.665 202.468 231.073 202.468C229.481 202.468 227.888 202.468 226.296 202.468C224.703 202.468 223.111 202.468 221.519 202.468C219.926 202.468 218.334 202.468 216.742 202.468C215.149 202.468 213.557 202.468 211.965 202.468C210.372 202.468 208.78 202.468 207.188 202.468C205.595 202.468 204.003 202.468 202.41 202.468C200.818 202.468 199.226 202.468 197.633 202.468C196.041 202.468 194.448 202.468 192.856 202.468C191.264 202.468 189.671 202.468 188.079 202.468C186.487 202.468 184.895 202.468 183.302 202.468C181.71 202.468 180.118 202.468 178.525 202.468C176.933 202.468 175.34 202.468 173.748 202.468C172.155 202.468 170.563 202.468 168.971 202.468C167.378 202.468 165.786 202.468 164.194 202.468C162.601 202.468 161.009 202.468 159.417 202.468C157.824 202.468 156.232 202.468 154.64 202.468C153.047 202.468 151.455 202.468 149.862 202.468C148.27 202.468 146.678 202.468 145.085 202.468C143.493 202.468 141.901 202.468 140.308 202.468C138.716 202.468 137.124 202.468 135.531 202.468C133.939 202.468 132.347 202.468 130.754 202.468C129.162 202.468 127.57 202.468 125.977 202.468C124.385 202.468 122.792 202.468 121.2 202.468C119.608 202.468 118.015 202.468 116.423 202.468C114.831 202.468 113.238 202.468 111.646 202.468C110.054 202.468 108.461 202.468 106.869 202.468C105.277 202.468 103.684 202.468 102.092 202.468C100.499 202.468 98.907 202.468 97.3148 202.468C95.7223 202.468 94.1299 202.468 92.5377 202.468C90.9453 202.468 89.3528 202.468 87.7606 202.468C86.1682 202.468 84.5757 202.468 82.9836 202.468C81.3911 202.468 79.7986 202.468 78.2065 202.468C76.614 202.468 75.0215 202.468 73.4294 202.468C71.8369 202.468 70.2444 202.468 68.6523 202.468C67.0598 202.468 65.4673 202.468 63.8752 202.468C62.2827 202.468 60.6902 202.468 59.0981 202.468C57.5056 202.468 55.9135 202.468 54.321 202.468C52.7285 202.468 51.1364 202.468 49.5439 202.468C47.9514 202.468 46.3593 202.468 44.7668 202.468C43.1744 202.468 41.5822 202.468 39.9897 202.468C38.3973 202.468 36.8051 202.468 35.2126 202.468V184.007Z" fill="url(#paint0_linear_922_16925)" fill-opacity="0.6"/>
<path d="M35.2126 184.355C36.8051 175.426 38.3973 166.496 39.9897 168.452C41.5822 170.408 43.1744 183.25 44.7668 182.368C46.3593 181.485 47.9514 166.878 49.5439 165.471C51.1364 164.062 52.7285 175.853 54.321 181.374C55.9135 186.894 57.5056 186.145 59.0981 186.344C60.6903 186.542 62.2827 187.69 63.8752 184.355C65.4673 181.021 67.0598 173.204 68.6523 167.458C70.2444 161.713 71.8369 158.039 73.4294 162.489C75.0215 166.938 76.614 179.511 78.2065 185.35C79.7986 191.188 81.3911 190.292 82.9836 188.331C84.5757 186.371 86.1682 183.347 87.7606 183.362C89.3528 183.376 90.9453 186.43 92.5377 186.344C94.1299 186.258 95.7224 183.032 97.3148 180.38C98.907 177.727 100.499 175.647 102.092 174.416C103.684 173.185 105.277 172.803 106.869 178.392C108.461 183.981 110.054 195.54 111.646 190.319C113.238 185.099 114.831 163.096 116.423 161.495C118.015 159.893 119.608 178.69 121.2 185.35C122.792 192.009 124.385 186.53 125.977 179.386C127.57 172.242 129.162 163.433 130.754 165.471C132.347 167.508 133.939 180.392 135.531 181.374C137.124 182.356 138.716 171.436 140.308 172.428C141.901 173.42 143.493 186.324 145.085 184.355C146.678 182.387 148.27 165.547 149.862 161.495C151.455 157.442 153.047 166.178 154.64 164.476C156.232 162.775 157.824 150.638 159.417 151.555C161.009 152.472 162.601 166.445 164.194 173.422C165.786 180.399 167.378 180.381 168.971 182.368C170.563 184.354 172.155 188.345 173.748 185.35C175.34 182.354 176.933 172.372 178.525 170.44C180.118 168.508 181.71 174.626 183.302 176.404C184.895 178.182 186.487 175.621 188.079 179.386C189.671 183.151 191.264 193.243 192.856 187.337C194.448 181.432 196.041 159.53 197.633 154.537C199.226 149.544 200.818 161.461 202.41 165.471C204.003 169.479 205.595 165.581 207.188 163.482C208.78 161.384 210.372 161.085 211.965 161.495C213.557 161.904 215.149 163.023 216.742 168.452C218.334 173.881 219.926 183.621 221.519 185.35C223.111 187.078 224.703 180.796 226.296 180.38C227.888 179.963 229.481 185.412 231.073 189.326C232.665 193.239 234.258 195.617 235.85 191.313C237.442 187.01 239.035 176.024 240.627 174.416C242.219 172.808 243.812 180.579 245.404 181.374C246.996 182.169 248.589 175.989 250.181 178.392C251.774 180.794 253.366 191.779 254.958 186.344C256.551 180.908 258.143 159.053 259.735 157.518C261.328 155.984 262.92 174.771 264.512 184.355C266.105 193.94 267.697 194.321 269.289 190.319C270.882 186.318 272.474 177.932 274.067 175.41C275.659 172.889 277.251 176.232 278.844 180.38C280.436 184.528 282.028 189.48 283.621 183.362C285.213 177.244 286.805 160.057 288.398 162.489C289.99 164.921 291.582 186.972 293.175 187.337C294.767 187.703 296.36 166.383 297.952 165.471C299.544 164.558 301.137 184.053 302.729 189.326C304.322 194.598 305.914 185.649 307.506 178.392C309.099 171.134 310.691 165.568 312.283 166.464C313.876 167.36 315.468 174.718 317.06 171.434C318.653 168.15 320.245 154.226 321.837 155.531C323.43 156.836 325.022 173.369 326.615 183.362C328.207 193.354 329.799 196.805 331.392 188.331C332.984 179.858 334.576 159.459 336.169 161.495C337.761 163.53 339.353 188 340.946 190.319C342.538 192.638 344.13 172.805 345.723 165.471C347.315 158.135 348.908 163.298 350.5 168.452C352.092 173.606 353.685 178.751 355.277 172.428C356.869 166.105 358.462 148.313 360.054 151.555C361.646 154.797 363.239 179.071 364.831 186.344C366.423 193.616 368.016 183.886 369.608 174.416C371.2 164.946 372.793 155.737 374.385 158.513C375.978 161.289 377.57 176.052 379.162 182.368C380.755 188.683 382.347 186.553 383.939 176.404C385.532 166.255 387.124 148.088 388.716 150.561C390.309 153.034 391.901 176.147 393.493 185.35C395.086 194.552 396.678 189.845 398.271 184.355C399.863 178.867 401.455 172.596 403.048 165.471C404.64 158.344 406.232 150.362 407.825 154.537C409.417 158.711 411.009 175.043 412.602 183.362C414.194 191.68 415.786 191.986 417.379 187.337C418.971 182.689 420.564 173.086 422.156 163.482" stroke="#8EA0A5" stroke-width="0.211098"/>
</g>
<path d="M89.1907 138.956H37.6521" stroke="#8EA0A5" stroke-width="0.445652" stroke-dasharray="4.14 4.14"/>
<path d="M63.5018 108.653L63.5013 118.243C63.5007 129.683 72.7741 138.957 84.2135 138.957L85.3369 138.957" stroke="#8EA0A5" stroke-width="0.445652" stroke-dasharray="4.14 4.14"/>
<path d="M85.5521 138.952V138.952C96.6248 138.952 105.469 130.604 105.469 120.152L105.469 112.328C105.469 101.406 114.711 92.682 126.282 92.682L128.197 92.682" stroke="#77EB3D" stroke-width="0.445652" stroke-dasharray="4.14 4.14"/>
<path d="M85.5521 139.271V139.271C96.6248 139.271 105.469 147.619 105.469 158.071L105.469 165.895C105.469 176.817 114.711 185.541 126.282 185.541L128.197 185.541" stroke="#77EB3D" stroke-width="0.445652" stroke-dasharray="4.14 4.14"/>
<path d="M63.5011 167.15L63.3873 160.082C63.2033 148.656 72.3082 139.239 83.734 139.039L88.4562 138.957" stroke="#8EA0A5" stroke-width="0.445652" stroke-dasharray="4.14 4.14"/>
<path d="M143.62 90.6695C143.58 90.5901 143.563 90.5019 143.563 90.4137V82.8044H140.152V90.4137C140.152 91.0092 140.284 91.6047 140.538 92.1385L143.8 99.0641H147.574L143.624 90.674L143.62 90.6695Z" fill="#8EA0A5"/>
<path d="M151.898 82.8044V90.4137C151.898 90.5019 151.88 90.5857 151.841 90.6651L147.886 99.0596H151.661L154.922 92.1297C155.172 91.5959 155.304 91.0048 155.304 90.4137V82.8044H151.893H151.898Z" fill="#8EA0A5"/>
<rect x="47.75" y="73.2937" width="34.6611" height="34.6611" rx="9.10588" stroke="#8EA0A5" stroke-width="0.587476"/>
<rect x="127.967" y="131.229" width="119.739" height="70.7169" rx="9.10588" stroke="#8EA0A5" stroke-width="0.587476"/>
<rect x="47.75" y="166.881" width="34.6611" height="34.6611" rx="9.10588" stroke="#8EA0A5" stroke-width="0.587476"/>
<rect x="2.29349" y="120.533" width="34.6611" height="34.6611" rx="9.10588" stroke="#8EA0A5" stroke-width="0.587476"/>
<path d="M72.4126 97.9566C72.8854 97.9566 73.3388 97.7687 73.6731 97.4344C74.0074 97.1001 74.1952 96.6467 74.1952 96.1739V87.2609C74.1952 86.7881 74.0074 86.3347 73.6731 86.0004C73.3388 85.6661 72.8854 85.4783 72.4126 85.4783H65.3713C65.0732 85.4812 64.7791 85.4093 64.5159 85.2692C64.2528 85.129 64.029 84.9251 63.865 84.6761L63.1431 83.6066C62.9807 83.3601 62.7598 83.1578 62.5 83.0178C62.2402 82.8777 61.9497 82.8044 61.6546 82.8044H58.1517C57.679 82.8044 57.2256 82.9922 56.8913 83.3265C56.557 83.6608 56.3691 84.1142 56.3691 84.587V96.1739C56.3691 96.6467 56.557 97.1001 56.8913 97.4344C57.2256 97.7687 57.679 97.9566 58.1517 97.9566H72.4126Z" stroke="#8EA0A5" stroke-width="1.18543" stroke-linecap="round" stroke-linejoin="round"/>
<path d="M26.9563 146.978C27.4291 146.978 27.8825 146.791 28.2168 146.456C28.5511 146.122 28.7389 145.668 28.7389 145.196V136.283C28.7389 135.81 28.5511 135.356 28.2168 135.022C27.8825 134.688 27.4291 134.5 26.9563 134.5H19.915C19.6169 134.503 19.3228 134.431 19.0596 134.291C18.7965 134.151 18.5727 133.947 18.4087 133.698L17.6868 132.628C17.5244 132.382 17.3035 132.18 17.0437 132.04C16.7839 131.9 16.4934 131.826 16.1983 131.826H12.6955C12.2227 131.826 11.7693 132.014 11.435 132.348C11.1007 132.683 10.9128 133.136 10.9128 133.609V145.196C10.9128 145.668 11.1007 146.122 11.435 146.456C11.7693 146.791 12.2227 146.978 12.6955 146.978H26.9563Z" stroke="#8EA0A5" stroke-width="1.18543" stroke-linecap="round" stroke-linejoin="round"/>
<path d="M72.4126 191.543C72.8854 191.543 73.3388 191.356 73.6731 191.021C74.0074 190.687 74.1952 190.234 74.1952 189.761V180.848C74.1952 180.375 74.0074 179.922 73.6731 179.587C73.3388 179.253 72.8854 179.065 72.4126 179.065H65.3713C65.0732 179.068 64.7791 178.996 64.5159 178.856C64.2528 178.716 64.029 178.512 63.865 178.263L63.1431 177.193C62.9807 176.947 62.7598 176.745 62.5 176.605C62.2402 176.465 61.9497 176.391 61.6546 176.391H58.1517C57.679 176.391 57.2256 176.579 56.8913 176.913C56.557 177.248 56.3691 177.701 56.3691 178.174V189.761C56.3691 190.234 56.557 190.687 56.8913 191.021C57.2256 191.356 57.679 191.543 58.1517 191.543H72.4126Z" stroke="#8EA0A5" stroke-width="1.18543" stroke-linecap="round" stroke-linejoin="round"/>
<path d="M163.326 85.4783H236.413" stroke="#183B46" stroke-width="5.34783" stroke-miterlimit="10" stroke-linecap="square"/>
<path d="M163.326 97.9565H215.913" stroke="#183B46" stroke-width="5.34783" stroke-miterlimit="10" stroke-linecap="square"/>
<rect x="226.816" y="91.0335" width="10.281" height="10.281" rx="5.14048" fill="#183B46" stroke="#8EA0A5" stroke-width="0.414689"/>
<path d="M229.928 96.434L231.847 94.5143L233.767 96.434" stroke="#8EA0A5" stroke-width="0.548495" stroke-linecap="round" stroke-linejoin="round"/>
<path d="M231.848 98.3537V94.5143" stroke="#8EA0A5" stroke-width="0.548495" stroke-linecap="round" stroke-linejoin="round"/>
<defs>
<linearGradient id="paint0_linear_922_16925" x1="35.2126" y1="150.749" x2="35.2126" y2="202.468" gradientUnits="userSpaceOnUse">
<stop offset="0.05" stop-color="#77EB3D"/>
<stop offset="0.95" stop-opacity="0.1"/>
</linearGradient>
<clipPath id="clip0_922_16925">
<rect width="120.326" height="67.9737" fill="white" transform="translate(127.674 134.5)"/>
</clipPath>
</defs>
</svg>
