<svg width="206" height="27" viewBox="0 0 206 27" fill="none" xmlns="http://www.w3.org/2000/svg">
<g clip-path="url(#clip0_579_19159)">
<path d="M55.8181 14.4936C52.2686 14.4936 50.5034 17.1047 50.5034 20.629C50.5034 24.2972 52.1992 26.861 55.8181 26.861C59.44 26.861 61.1307 24.2972 61.1307 20.629C61.1307 17.1047 59.3676 14.4936 55.8181 14.4936ZM55.8181 24.4621C54.8746 24.4621 54.4552 23.6152 54.4552 20.628C54.4552 17.9003 54.7348 16.8904 55.8181 16.8904C56.8993 16.8904 57.1799 17.9003 57.1799 20.628C57.1799 23.6183 56.7575 24.4621 55.8181 24.4621ZM63.5849 13.4868V14.8054H62.0319V17.4879H63.5849V26.6055H67.3939V17.4879H69.4669V14.8054H67.3939V13.6085C67.3939 12.8913 67.756 12.4991 68.7588 12.4991C68.97 12.4991 69.2516 12.5453 69.4659 12.5946V9.6798C68.8513 9.6094 68.286 9.53698 67.5367 9.53698C65.0212 9.53799 63.5849 10.5951 63.5849 13.4868ZM22.9775 18.1205C22.9775 15.5115 20.6048 14.5268 18.3206 14.5268C16.1601 14.5268 14.0419 15.4642 13.6205 17.7916L16.9336 18.4746C16.9748 17.7846 17.2675 16.9246 18.1818 16.9246C18.8396 16.9246 19.1675 17.3923 19.1675 18.0964V19.1112C16.651 19.4029 13.183 20.3102 13.0995 23.3819C13.0411 25.5514 14.4885 26.8348 16.3874 26.8348C17.5109 26.8348 18.6354 26.2143 19.2852 25.5293C19.3083 25.7254 19.3335 26.2826 19.4049 26.6085H23.3315C23.1877 26.4476 22.9765 26.0443 22.9765 24.7045L22.9775 18.1205ZM19.1685 23.6002C18.8446 24.0266 18.38 24.3334 17.9464 24.3334C17.2635 24.3334 16.8411 23.9049 16.8411 23.0822C16.8411 21.5765 17.8368 21.0706 19.1675 20.9428L19.1685 23.6002ZM32.3184 14.5248C30.8328 14.5248 29.7838 15.2127 28.9993 16.0124H28.95L28.9309 14.8054H25.2033V26.6065H29.0123V18.1668C29.3603 17.7212 29.823 17.4336 30.2515 17.4336C30.8882 17.4336 31.1296 17.8067 31.1296 18.4796V26.6045H34.9385V17.2706C34.9395 15.6523 33.986 14.5248 32.3184 14.5248ZM47.7515 14.8044H43.9636L41.1615 18.371H41.1152V9.86789H37.3042V26.6055H41.1152V22.3791L41.9158 21.4578H41.9621L43.8188 26.6055H47.7696L44.5651 18.4374L47.7515 14.8044ZM9.04003 17.9003V17.7695C10.253 17.2958 11.7718 16.1441 11.7718 13.9565C11.7718 11.6451 9.82255 9.86688 6.85743 9.86688H0.240234V26.6065H6.68846C9.86681 26.6065 12.1691 24.9932 12.1691 22.1287C12.1691 19.9833 10.8535 18.4977 9.04003 17.9003ZM4.35197 12.83H5.83352C6.79507 12.83 7.87229 13.0885 7.87229 14.6857C7.87229 15.6754 7.2678 16.4972 5.73797 16.4972H4.35197V12.83ZM5.90393 23.5046H4.35197V19.3184H5.90393C7.2678 19.3184 8.03825 20.1422 8.03825 21.3884C8.03825 23.1033 6.81921 23.5046 5.90393 23.5046ZM150.473 24.7045V18.1205C150.473 15.5115 148.102 14.5268 145.819 14.5268C143.656 14.5268 141.538 15.4642 141.115 17.7916L144.432 18.4746C144.471 17.7846 144.762 16.9246 145.679 16.9246C146.333 16.9246 146.666 17.3923 146.666 18.0964V19.1112C144.146 19.4029 140.675 20.3102 140.593 23.3819C140.535 25.5514 141.981 26.8348 143.883 26.8348C145.007 26.8348 146.128 26.2143 146.783 25.5293C146.803 25.7254 146.829 26.2826 146.899 26.6085H150.824C150.686 26.4456 150.473 26.0443 150.473 24.7045ZM146.668 23.6002C146.339 24.0266 145.876 24.3334 145.443 24.3334C144.76 24.3334 144.337 23.9049 144.337 23.0822C144.337 21.5765 145.333 21.0706 146.666 20.9428L146.668 23.6002ZM108.946 14.4936C105.442 14.4936 103.699 17.3149 103.699 20.6542C103.699 23.922 105.346 26.862 108.99 26.862C110.018 26.8932 111.029 26.5982 111.878 26.0192C112.728 25.4403 113.372 24.6072 113.719 23.6394L111.152 22.698C110.962 23.6484 110.187 24.3183 109.268 24.3183C107.735 24.3183 107.456 22.5742 107.507 21.5232H113.882V20.7236C113.882 17.6448 112.614 14.4936 108.946 14.4936ZM110.355 19.2641H107.508C107.45 18.1537 107.838 16.8914 108.921 16.8914C110.236 16.8914 110.392 18.1708 110.355 19.2641ZM124.155 14.8054H127.962V26.6065H124.155V14.8054ZM124.155 9.86688H127.962V13.2524H124.155V9.86688ZM135.121 16.8914C135.734 16.8914 136.038 17.2213 136.225 17.689C136.392 18.1366 136.414 18.7009 136.414 19.1726H139.662C139.662 17.9968 139.05 14.4956 135.008 14.4956C131.41 14.4956 129.625 17.7172 129.625 20.9368C129.625 23.8506 131.408 26.863 134.843 26.863C137.618 26.863 139.264 25.3593 139.547 22.4908L136.584 22.0663C136.584 22.9605 136.467 24.3193 135.125 24.3193C134.14 24.3193 133.717 23.4533 133.717 20.794C133.71 18.4434 133.854 16.8914 135.121 16.8914ZM76.0871 9.86789L72.1614 26.6065H75.8286L76.5588 23.223H80.4382L81.097 26.6065H85.2118L81.6351 9.86789H76.0871ZM77.1472 20.2599L78.5614 13.4405H78.6459L79.8498 20.2599H77.1472ZM119.238 16.4026H119.175L119.137 14.8044H115.45V26.6055H119.263V18.9634C119.71 18.4313 120.38 18.0501 121.352 18.0501C122.008 18.0501 122.472 18.209 122.905 18.376V14.5238C121.436 14.5248 120.015 15.1564 119.238 16.4026ZM99.3876 14.5248C97.7924 14.5248 96.6548 15.3837 95.989 16.1029H95.9397C95.5796 15.1926 94.8072 14.5248 93.6495 14.5248C92.2303 14.5248 91.0364 15.258 90.2398 16.0083H90.1915L90.1714 14.8064H86.4539V26.6075H90.1915V18.1909C90.5124 17.7564 91.0847 17.4637 91.484 17.4637C92.1911 17.4637 92.3781 17.8862 92.3781 18.5218V26.6075H96.1177V18.1909C96.3651 17.8651 96.9093 17.4637 97.4202 17.4637C98.1132 17.4637 98.3064 17.8862 98.3064 18.5218V26.6075H102.043V17.1992C102.043 15.5698 100.971 14.5248 99.3876 14.5248ZM173.889 7.21659C175.4 7.81366 176.893 8.45361 178.368 9.13566C173.683 11.0368 169.151 13.293 164.81 15.8846C163.346 15.117 161.859 14.3922 160.353 13.7111C164.684 11.1881 169.21 9.01633 173.889 7.21659ZM168.299 5.24219C163.441 6.78141 158.747 8.79572 154.284 11.2559C155.702 11.7689 157.108 12.315 158.493 12.8994C162.817 10.3558 167.37 8.2248 172.093 6.53465C170.839 6.07423 169.574 5.64329 168.299 5.24219Z" fill="#0D4856"/>
<path d="M184.067 7.02622C180.229 5.16901 176.252 3.61173 172.173 2.36833C170.734 2.78272 169.308 3.23433 167.896 3.72617C172.096 4.97012 176.19 6.54581 180.141 8.43837C181.439 7.93918 182.748 7.46835 184.067 7.02622ZM190.316 5.16347C186.386 3.45019 182.338 2.02031 178.203 0.884766C176.886 1.15748 175.574 1.46132 174.271 1.79603C178.372 2.99475 182.374 4.51037 186.24 6.32919C187.59 5.91117 188.949 5.52251 190.316 5.16347ZM200.349 8.53392C190.594 11.8239 181.371 16.5213 172.973 22.4774C175.055 23.7576 177.088 25.1143 179.069 26.5449C186.982 20.266 195.716 15.0976 205.028 11.1832C203.495 10.2549 201.934 9.3714 200.349 8.53392ZM193.588 5.32138C183.453 8.0062 173.827 12.3339 165.092 18.1323C167.042 19.0913 168.959 20.1175 170.838 21.2091C179.396 15.2809 188.833 10.7345 198.802 7.73632C197.09 6.87675 195.351 6.07137 193.588 5.32138ZM182.277 25.4918C182.277 24.9034 182.772 24.4247 183.38 24.4247C183.989 24.4247 184.484 24.9034 184.484 25.4918C184.484 26.0913 183.989 26.57 183.38 26.57C182.772 26.57 182.277 26.0913 182.277 25.4918ZM182.485 25.4918C182.485 25.9816 182.884 26.3588 183.38 26.3588C183.872 26.3588 184.272 25.9816 184.272 25.4918C184.272 25.0181 183.873 24.6369 183.38 24.6369C182.885 24.6369 182.485 25.0181 182.485 25.4918Z" fill="#0D4856"/>
<path d="M183.93 26.0948H183.724L183.37 25.5426H183.152V26.0948H182.971V24.8968H183.508C183.612 24.8899 183.717 24.9103 183.812 24.9562C183.854 24.9843 183.889 25.0229 183.913 25.0684C183.937 25.1138 183.949 25.1645 183.947 25.2157C183.947 25.449 183.776 25.5375 183.558 25.5436L183.93 26.0948ZM183.357 25.3957C183.528 25.3957 183.764 25.4249 183.764 25.2106C183.764 25.0547 183.627 25.0336 183.473 25.0336H183.155V25.3937L183.357 25.3957Z" fill="#0D4856"/>
</g>
<defs>
<clipPath id="clip0_579_19159">
<rect width="204.866" height="25.977" fill="white" transform="translate(0.201172 0.884766)"/>
</clipPath>
</defs>
</svg>
