<svg width="294" height="112" viewBox="0 0 294 112" fill="none" xmlns="http://www.w3.org/2000/svg">
<path opacity="0.989" fill-rule="evenodd" clip-rule="evenodd" d="M39.8197 17.292C54.4714 25.2404 69.1307 33.1924 83.7976 41.1479C83.9416 41.2187 83.9651 41.3128 83.8681 41.4302C78.9819 45.0292 74.0485 48.5582 69.0678 52.0171C59.3741 47.3161 49.6716 42.6343 39.9606 37.9718C39.8201 31.0887 39.773 24.1954 39.8197 17.292Z" fill="#0D4856"/>
<path opacity="0.916" fill-rule="evenodd" clip-rule="evenodd" d="M199.663 24.0678C200.655 24.0368 201.642 24.0839 202.623 24.209C202.67 24.8278 202.622 25.4395 202.482 26.0441C201.127 25.3544 199.976 25.5897 199.029 26.7499C198.892 27.0169 198.797 27.2993 198.747 27.5968C198.676 28.7251 198.652 29.8544 198.676 30.9846C199.804 30.9846 200.932 30.9846 202.059 30.9846C202.059 31.5493 202.059 32.1139 202.059 32.6786C200.932 32.6786 199.804 32.6786 198.676 32.6786C198.676 36.8192 198.676 40.9599 198.676 45.1006C198.018 45.1006 197.361 45.1006 196.703 45.1006C196.703 40.9599 196.703 36.8192 196.703 32.6786C195.904 32.6786 195.106 32.6786 194.307 32.6786C194.307 32.1139 194.307 31.5493 194.307 30.9846C195.106 30.9846 195.904 30.9846 196.703 30.9846C196.623 29.4596 196.741 27.9538 197.055 26.4675C197.539 25.2292 198.407 24.4292 199.663 24.0678Z" fill="#0D4856"/>
<path opacity="0.898" fill-rule="evenodd" clip-rule="evenodd" d="M125.662 24.9149C127.034 24.887 127.575 25.5458 127.283 26.8911C126.664 27.6729 125.935 27.7905 125.098 27.244C124.492 26.2651 124.681 25.4887 125.662 24.9149Z" fill="#0D4856"/>
<path opacity="0.953" fill-rule="evenodd" clip-rule="evenodd" d="M101.276 25.3383C102.065 25.295 102.84 25.3421 103.602 25.4795C106.084 30.968 108.527 36.4732 110.932 41.9951C113.259 36.4399 115.702 30.9347 118.261 25.4795C118.976 25.3424 119.705 25.2953 120.446 25.3383C120.446 31.9258 120.446 38.5131 120.446 45.1006C119.835 45.1006 119.225 45.1006 118.614 45.1006C118.637 39.7364 118.614 34.3724 118.543 29.0085C116.194 34.2784 113.845 39.5484 111.496 44.8183C111.197 45.0945 110.844 45.1651 110.438 45.03C107.937 39.7275 105.518 34.387 103.179 29.0085C103.109 34.3724 103.085 39.7364 103.109 45.1006C102.498 45.1006 101.887 45.1006 101.276 45.1006C101.276 38.5131 101.276 31.9258 101.276 25.3383Z" fill="#0D4856"/>
<path opacity="0.914" fill-rule="evenodd" clip-rule="evenodd" d="M206.852 26.8911C206.992 26.8911 207.133 26.8911 207.274 26.8911C207.274 28.2557 207.274 29.6201 207.274 30.9847C208.449 30.9847 209.624 30.9847 210.798 30.9847C210.798 31.5494 210.798 32.114 210.798 32.6786C209.624 32.6786 208.449 32.6786 207.274 32.6786C207.25 35.8786 207.274 39.0782 207.345 42.2775C207.582 43.1978 208.169 43.6684 209.107 43.689C209.662 43.6917 210.179 43.5506 210.657 43.2656C210.845 43.8302 210.845 44.3948 210.657 44.9595C209.331 45.5396 208.016 45.5161 206.711 44.8889C206.086 44.4524 205.687 43.8642 205.512 43.1244C205.309 39.6478 205.239 36.166 205.301 32.6786C204.502 32.6786 203.704 32.6786 202.905 32.6786C202.905 32.114 202.905 31.5494 202.905 30.9847C203.704 30.9847 204.502 30.9847 205.301 30.9847C205.255 29.8046 205.301 28.6284 205.442 27.4557C205.937 27.2914 206.408 27.1031 206.852 26.8911Z" fill="#0D4856"/>
<path opacity="0.929" fill-rule="evenodd" clip-rule="evenodd" d="M136.092 30.7027C137.584 30.5913 139.041 30.7559 140.462 31.1967C140.64 31.5331 140.734 31.9096 140.744 32.326C140.72 32.6789 140.697 33.0318 140.673 33.3847C139.332 32.4599 137.852 32.1542 136.233 32.4671C134.381 33.0045 133.183 34.2044 132.639 36.0667C131.91 38.5898 132.404 40.8248 134.119 42.7718C136.351 44.2123 138.535 44.1417 140.673 42.56C140.786 43.2544 140.763 43.9366 140.603 44.6068C137.941 45.8825 135.357 45.7413 132.85 44.1833C131.145 42.6162 130.3 40.6635 130.313 38.3252C130.412 34.3522 132.338 31.8113 136.092 30.7027Z" fill="#0D4856"/>
<path opacity="0.934" fill-rule="evenodd" clip-rule="evenodd" d="M149.06 30.7021C149.719 30.6577 150.354 30.7517 150.963 30.9844C151.057 31.6432 151.057 32.3018 150.963 32.9606C149.164 32.0614 147.754 32.4849 146.734 34.231C146.238 35.3057 145.956 36.435 145.888 37.6189C145.818 40.1123 145.794 42.606 145.818 45.1003C145.207 45.1003 144.596 45.1003 143.985 45.1003C143.985 40.395 143.985 35.6896 143.985 30.9844C144.596 30.9844 145.207 30.9844 145.818 30.9844C145.794 31.8796 145.818 32.7736 145.888 33.6664C146.435 32.1062 147.492 31.1181 149.06 30.7021Z" fill="#0D4856"/>
<path opacity="0.928" fill-rule="evenodd" clip-rule="evenodd" d="M157.658 30.7028C159.771 30.4056 161.698 30.8527 163.437 32.0438C165.375 34.1355 166.104 36.6057 165.622 39.4546C164.725 43.9703 161.977 45.923 157.376 45.3127C154.506 44.6034 152.792 42.7918 152.231 39.8781C151.852 37.5749 152.228 35.4105 153.359 33.3848C154.451 31.9327 155.883 31.0387 157.658 30.7028ZM157.799 32.3967C161.052 31.9404 163.001 33.305 163.648 36.4903C164.032 38.5851 163.656 40.5143 162.521 42.2778C160.98 43.6904 159.218 44.0904 157.235 43.4777C155.045 42.3885 153.965 40.6004 153.993 38.1136C153.921 35.2588 155.19 33.3532 157.799 32.3967Z" fill="#0D4856"/>
<path opacity="0.923" fill-rule="evenodd" clip-rule="evenodd" d="M172.036 30.7023C173.538 30.5756 174.995 30.7637 176.405 31.267C176.569 31.9681 176.593 32.6739 176.476 33.3844C174.793 32.2835 173.031 32.1189 171.19 32.8903C170.064 34.0138 170.064 35.1431 171.19 36.2781C172.536 36.963 173.898 37.6218 175.278 38.2543C177.234 39.6541 177.633 41.4186 176.476 43.5478C175.682 44.5928 174.625 45.1809 173.304 45.3123C172.364 45.4064 171.426 45.4064 170.485 45.3123C169.735 45.2188 169.053 44.9601 168.442 44.5359C168.347 43.8301 168.347 43.1243 168.442 42.4185C170.322 43.8173 172.319 44.076 174.432 43.1949C175.443 41.9728 175.348 40.8435 174.15 39.8071C172.776 39.1755 171.413 38.5168 170.063 37.8309C168.399 36.5597 167.954 34.9364 168.723 32.9609C169.537 31.7664 170.642 31.0136 172.036 30.7023Z" fill="#0D4856"/>
<path opacity="0.929" fill-rule="evenodd" clip-rule="evenodd" d="M185.004 30.7028C187.117 30.4056 189.043 30.8527 190.783 32.0438C192.721 34.1355 193.45 36.6057 192.968 39.4546C192.071 43.9703 189.322 45.923 184.722 45.3127C181.852 44.6034 180.138 42.7918 179.577 39.8781C179.198 37.5749 179.574 35.4105 180.704 33.3848C181.797 31.9327 183.229 31.0387 185.004 30.7028ZM185.145 32.3967C188.398 31.9404 190.347 33.305 190.994 36.4903C191.378 38.5858 191.001 40.515 189.867 42.2778C188.326 43.6904 186.564 44.0904 184.581 43.4777C182.39 42.3885 181.311 40.6004 181.339 38.1136C181.267 35.2588 182.535 33.3532 185.145 32.3967Z" fill="#0D4856"/>
<path opacity="0.904" fill-rule="evenodd" clip-rule="evenodd" d="M125.098 30.9849C125.755 30.9849 126.413 30.9849 127.071 30.9849C127.071 35.6901 127.071 40.3955 127.071 45.1008C126.413 45.1008 125.755 45.1008 125.098 45.1008C125.098 40.3955 125.098 35.6901 125.098 30.9849Z" fill="#0D4856"/>
<path opacity="0.981" fill-rule="evenodd" clip-rule="evenodd" d="M40.1016 41.1484C40.4854 41.2687 40.8613 41.4334 41.2292 41.6425C45.6458 44.3715 50.0625 47.1007 54.479 49.8297C54.5578 49.9321 54.6047 50.0496 54.62 50.1826C50.4807 62.4539 46.4164 74.7347 42.4273 87.0251C56.7067 72.3015 71.0371 57.621 85.4186 42.9835C85.5126 50.6531 85.5126 58.3228 85.4186 65.9924C70.3937 74.2334 55.335 82.4207 40.2425 90.5541C40.1016 74.0858 40.0546 57.6173 40.1016 41.1484Z" fill="#0D4856"/>
<path opacity="0.848" fill-rule="evenodd" clip-rule="evenodd" d="M214.886 53.2877C217.243 53.2731 218.723 54.4023 219.326 56.6756C219.375 59.8731 217.801 61.4023 214.604 61.2632C212.951 60.8776 211.894 59.8659 211.433 58.2283C211.114 56.4068 211.702 54.9718 213.195 53.923C213.749 53.6367 214.312 53.4249 214.886 53.2877ZM214.604 54.1347C216.614 53.905 217.907 54.752 218.48 56.6756C218.699 57.8297 218.394 58.8178 217.564 59.6399C217.195 58.9221 216.772 58.2399 216.296 57.5931C217.086 57.1305 217.344 56.4483 217.071 55.5463C216.84 55.2202 216.535 55.0085 216.155 54.9111C215.31 54.8406 214.465 54.8171 213.617 54.8405C213.617 56.4874 213.617 58.1342 213.617 59.7811C213.994 59.7811 214.369 59.7811 214.745 59.7811C214.745 59.1223 214.745 58.4636 214.745 57.8048C215.083 57.7897 215.343 57.9309 215.52 58.2283C215.746 58.6929 215.957 59.1635 216.155 59.6399C216.523 59.7554 216.897 59.8259 217.282 59.8516C215.675 60.821 214.195 60.6562 212.842 59.3576C211.616 56.994 212.204 55.2531 214.604 54.1347ZM214.745 55.6874C215.078 55.6644 215.406 55.6879 215.732 55.758C216.108 56.1345 216.108 56.5108 215.732 56.8873C215.406 56.9575 215.078 56.9809 214.745 56.9579C214.745 56.5344 214.745 56.1109 214.745 55.6874Z" fill="#0D4856"/>
<path opacity="0.908" fill-rule="evenodd" clip-rule="evenodd" d="M186.413 58.3693C188.014 58.1452 188.601 58.804 188.175 60.3456C187.328 61.1251 186.529 61.078 185.779 60.2044C185.551 59.4172 185.762 58.8054 186.413 58.3693Z" fill="#0D4856"/>
<path opacity="0.926" fill-rule="evenodd" clip-rule="evenodd" d="M227.572 58.3688C232.318 58.2359 234.267 60.4944 233.421 65.1445C232.812 66.6016 231.755 67.5662 230.25 68.0382C233.924 69.164 235.17 71.5872 233.985 75.3079C233.332 76.8079 232.229 77.8196 230.673 78.3428C228.211 79.1011 225.815 78.9364 223.484 77.8488C223.296 77.143 223.296 76.4372 223.484 75.7314C225.817 77.328 228.259 77.5398 230.814 76.3666C232.559 74.8311 232.911 73.0194 231.871 70.932C230.963 69.8772 229.811 69.289 228.417 69.1675C227.384 69.0969 226.351 69.0735 225.316 69.0969C225.316 68.5323 225.316 67.9676 225.316 67.403C226.808 67.5066 228.264 67.342 229.686 66.909C231.614 65.7282 232.202 64.0578 231.448 61.8978C230.966 60.8439 230.144 60.2558 228.981 60.1333C227.216 59.9228 225.642 60.3699 224.259 61.4743C224.146 60.78 224.17 60.0977 224.33 59.4275C225.367 58.885 226.448 58.5321 227.572 58.3688Z" fill="#0D4856"/>
<path opacity="0.925" fill-rule="evenodd" clip-rule="evenodd" d="M245.051 58.3692C246.356 58.3208 247.624 58.509 248.856 58.9339C248.996 59.5385 249.044 60.1501 248.997 60.769C244.444 59.1792 241.555 60.732 240.329 65.4272C240.05 66.4476 239.955 67.4828 240.047 68.5327C241.438 66.4356 243.387 65.6593 245.896 66.2036C248.044 66.8022 249.384 68.1904 249.914 70.3678C250.548 73.2171 249.819 75.6403 247.729 77.6375C245.323 79.2309 242.926 79.2309 240.54 77.6375C239.387 76.4822 238.66 75.0941 238.355 73.4733C237.674 69.9083 237.956 66.4265 239.201 63.0275C240.312 60.383 242.261 58.8303 245.051 58.3692ZM243.782 67.6857C246.66 67.9109 248.118 69.4872 248.152 72.4146C248.159 74.3315 247.359 75.7901 245.755 76.7905C243.045 77.5618 241.235 76.5973 240.329 73.8968C239.62 71.6057 240.206 69.7472 242.091 68.321C242.644 68.0347 243.208 67.823 243.782 67.6857Z" fill="#0D4856"/>
<path opacity="0.942" fill-rule="evenodd" clip-rule="evenodd" d="M101.276 58.793C103.767 58.7694 106.257 58.793 108.747 58.8636C114.065 59.6955 116.696 62.8244 116.64 68.2507C116.66 73.5591 114.123 76.8764 109.029 78.2024C106.45 78.4003 103.866 78.4709 101.276 78.4141C101.276 71.8738 101.276 65.3333 101.276 58.793ZM103.25 60.4869C104.993 60.4468 106.732 60.5174 108.465 60.6987C111.843 61.1641 113.84 63.0697 114.456 66.4156C114.926 69.0489 114.456 71.4958 113.046 73.7559C111.897 75.0944 110.464 75.9647 108.747 76.3673C106.927 76.6543 105.094 76.7719 103.25 76.7202C103.25 71.3092 103.25 65.898 103.25 60.4869Z" fill="#0D4856"/>
<path opacity="0.936" fill-rule="evenodd" clip-rule="evenodd" d="M254.495 58.793C257.361 58.793 260.228 58.793 263.093 58.793C263.093 59.3576 263.093 59.9222 263.093 60.4869C260.743 60.4869 258.395 60.4869 256.045 60.4869C255.938 62.5095 255.845 64.5328 255.763 66.5567C257.662 66.3813 259.495 66.6401 261.261 67.3331C262.663 68.1404 263.532 69.3402 263.868 70.9327C264.442 75.9468 262.211 78.5818 257.173 78.8376C255.814 78.8336 254.522 78.5513 253.297 77.9906C253.226 77.3335 253.202 76.6749 253.226 76.0144C254.052 76.3567 254.898 76.6624 255.763 76.9319C257.563 77.3454 259.207 77.016 260.697 75.9438C262.188 74.2077 262.446 72.302 261.472 70.2269C260.626 69.062 259.476 68.4268 258.019 68.3212C256.605 68.3057 255.195 68.2821 253.79 68.2506C254.031 65.1001 254.267 61.9475 254.495 58.793Z" fill="#0D4856"/>
<path opacity="0.937" fill-rule="evenodd" clip-rule="evenodd" d="M138.771 64.0162C142.116 63.7213 144.018 65.2269 144.479 68.5333C144.55 71.8267 144.574 75.1203 144.55 78.4144C143.892 78.4144 143.235 78.4144 142.576 78.4144C142.641 74.9723 142.571 71.5373 142.365 68.1098C141.6 65.9737 140.119 65.2443 137.925 65.9218C136.265 66.6813 135.349 67.9751 135.176 69.8037C135.106 72.6736 135.082 75.5438 135.106 78.4144C134.495 78.4144 133.884 78.4144 133.273 78.4144C133.273 73.7092 133.273 69.0038 133.273 64.2985C133.884 64.2985 134.495 64.2985 135.106 64.2985C135.082 65.0529 135.106 65.8057 135.176 66.5571C136.011 65.1786 137.209 64.3317 138.771 64.0162Z" fill="#0D4856"/>
<path opacity="0.933" fill-rule="evenodd" clip-rule="evenodd" d="M152.725 64.0161C154.621 63.7305 156.242 64.248 157.588 65.5688C158.029 66.2632 158.311 67.016 158.434 67.8274C158.504 71.3561 158.528 74.8851 158.504 78.4143C157.894 78.4143 157.282 78.4143 156.672 78.4143C156.696 77.66 156.672 76.9072 156.602 76.1558C155.062 78.5363 152.925 79.3127 150.188 78.4849C148.03 77.4196 147.255 75.7021 147.862 73.3326C148.082 72.3607 148.622 71.6315 149.483 71.1446C150.175 70.7037 150.928 70.4213 151.739 70.2977C153.34 70.0451 154.937 69.7864 156.531 69.5213C156.682 66.6381 155.319 65.3913 152.443 65.7806C151.255 66.0036 150.222 66.5213 149.342 67.3333C149.208 67.4015 149.067 67.425 148.919 67.4039C148.877 66.708 148.924 66.0258 149.06 65.3571C150.218 64.6965 151.44 64.2496 152.725 64.0161ZM156.108 71.2152C156.296 71.2152 156.485 71.2152 156.672 71.2152C156.91 73.2513 156.3 74.9688 154.84 76.3675C153.196 77.4695 151.623 77.399 150.118 76.1558C149.52 75.1458 149.473 74.1105 149.977 73.0503C150.459 72.5199 151.046 72.167 151.739 71.9916C153.209 71.698 154.665 71.4391 156.108 71.2152Z" fill="#0D4856"/>
<path opacity="0.93" fill-rule="evenodd" clip-rule="evenodd" d="M167.807 64.0158C170.196 63.7052 171.864 64.6464 172.811 66.839C174.228 64.4041 176.318 63.5336 179.084 64.2275C180.93 64.9812 181.893 66.3692 181.973 68.3917C182.044 71.7321 182.068 75.0729 182.044 78.414C181.385 78.414 180.728 78.414 180.07 78.414C180.094 75.0729 180.07 71.7321 180 68.3917C179.516 66.0673 178.131 65.2437 175.842 65.9214C174.622 66.4564 173.847 67.374 173.516 68.674C173.31 71.9132 173.24 75.1599 173.304 78.414C172.646 78.414 171.989 78.414 171.331 78.414C171.355 75.1671 171.331 71.9204 171.261 68.674C170.793 66.2405 169.36 65.3229 166.961 65.9214C165.72 66.5564 164.944 67.5681 164.636 68.9564C164.437 72.1044 164.366 75.257 164.424 78.414C163.814 78.414 163.202 78.414 162.592 78.414C162.592 73.7088 162.592 69.0034 162.592 64.2981C163.202 64.2981 163.814 64.2981 164.424 64.2981C164.4 65.0055 164.424 65.7113 164.495 66.4155C165.267 65.1473 166.371 64.3474 167.807 64.0158Z" fill="#0D4856"/>
<path opacity="0.917" fill-rule="evenodd" clip-rule="evenodd" d="M197.408 64.0162C198.91 63.8699 200.344 64.1051 201.707 64.722C201.824 65.3857 201.8 66.0445 201.636 66.6982C199.577 65.418 197.511 65.3945 195.434 66.6276C193.637 68.3411 192.956 70.435 193.391 72.9092C194.186 76.2605 196.276 77.6015 199.663 76.9322C200.368 76.7209 201.026 76.415 201.636 76.0147C201.82 76.657 201.82 77.2922 201.636 77.9203C198.912 79.2609 196.28 79.1198 193.743 77.4969C192.073 75.9148 191.275 73.9621 191.347 71.6388C191.41 67.4867 193.43 64.9458 197.408 64.0162Z" fill="#0D4856"/>
<path opacity="0.92" fill-rule="evenodd" clip-rule="evenodd" d="M208.12 64.0162C209.623 63.8699 211.057 64.1051 212.42 64.722C212.537 65.3857 212.513 66.0445 212.349 66.6982C210.755 65.6669 209.063 65.4551 207.275 66.063C205.895 67.1294 205.8 68.3057 206.993 69.592C208.333 70.2869 209.696 70.9457 211.08 71.5682C212.937 72.817 213.43 74.4874 212.561 76.5793C211.96 77.5749 211.09 78.2101 209.953 78.485C208.075 78.9663 206.243 78.8252 204.456 78.0615C204.385 77.9909 204.315 77.9203 204.244 77.8498C204.15 77.144 204.15 76.4382 204.244 75.7324C206.034 77.1171 207.985 77.423 210.094 76.6499C210.893 76.0105 211.151 75.1871 210.869 74.1796C210.617 73.7851 210.311 73.4322 209.953 73.1209C208.336 72.4291 206.786 71.6292 205.301 70.7212C203.952 69.1425 203.834 67.4722 204.949 65.7101C205.84 64.8108 206.897 64.2461 208.12 64.0162Z" fill="#0D4856"/>
<path opacity="0.919" fill-rule="evenodd" clip-rule="evenodd" d="M118.191 64.298C118.886 64.2552 119.567 64.3024 120.235 64.4391C121.7 68.3717 123.11 72.3241 124.463 76.2965C125.959 72.2975 127.439 68.2979 128.904 64.298C129.561 64.298 130.219 64.298 130.877 64.298C128.774 69.922 126.59 75.5214 124.322 81.0959C123.882 82.2385 123.248 83.25 122.42 84.1308C121.224 84.9772 119.908 85.2361 118.473 84.9072C118.473 84.2956 118.473 83.6838 118.473 83.0721C120.223 83.6431 121.468 83.0785 122.208 81.3782C122.628 80.3728 123.028 79.3612 123.406 78.3433C121.653 73.6639 119.915 68.9821 118.191 64.298Z" fill="#0D4856"/>
<path opacity="0.973" fill-rule="evenodd" clip-rule="evenodd" d="M186.131 64.2983C186.742 64.2983 187.353 64.2983 187.964 64.2983C187.964 69.0036 187.964 73.709 187.964 78.4143C187.353 78.4143 186.742 78.4143 186.131 78.4143C186.131 73.709 186.131 69.0036 186.131 64.2983Z" fill="#0D4856"/>
</svg>
