<svg width="138" height="41" viewBox="0 0 138 41" fill="none" xmlns="http://www.w3.org/2000/svg">
<g clip-path="url(#clip0_579_19132)">
<path d="M0.943359 8.31299H5.7228V18.9315H15.8029V8.31299H20.5885V34.3782H15.8029V23.5367H5.7228V34.3782H0.943359V8.31299ZM35.7298 25.8884C35.7298 28.0703 33.9521 29.8459 31.7706 29.8459C29.5884 29.8459 27.8118 28.0703 27.8118 25.8884V14.6664H23.2792V25.8884C23.2792 30.5701 27.0886 34.3782 31.7706 34.3782C36.4515 34.3782 40.2607 30.5701 40.2607 25.8884V14.6664H35.7298V25.8884ZM52.914 14.7978C50.6656 14.7978 49.0962 15.4503 47.5806 16.938V8.31299H43.0333V24.2976C43.0333 30.2807 47.3592 34.3782 52.2192 34.3782C57.6222 34.3782 62.3561 30.2076 62.3561 24.5883C62.3561 19.0402 57.9909 14.7978 52.914 14.7978ZM53.027 30.1714C49.9457 30.1714 47.5895 27.5981 47.5895 24.5883C47.5895 21.578 49.9457 19.0038 53.027 19.0038C55.6378 19.0038 57.9954 21.578 57.9954 24.5883C57.9954 27.5981 55.6378 30.1714 53.027 30.1714ZM69.9936 15.9434C69.9936 13.6576 71.5166 12.9329 73.184 12.9329C74.5264 12.9329 76.3028 13.9481 77.462 15.1812L80.4346 11.7005C78.949 9.7065 75.94 8.32825 73.4743 8.32825C68.5425 8.32825 64.989 11.1929 64.989 15.9434C64.989 24.7543 75.831 21.9614 75.831 26.894C75.831 28.4152 74.3449 29.7581 72.6416 29.7581C69.9574 29.7581 69.0868 28.4527 67.8544 27.0744L64.5542 30.4823C66.6585 33.057 69.2683 34.363 72.387 34.363C77.0642 34.363 80.8354 31.4622 80.8354 26.929C80.8354 17.1394 69.9936 20.1856 69.9936 15.9434ZM92.8064 14.5424C87.947 14.5424 83.6205 18.6376 83.6205 24.622V40.6478H88.1676V31.9818C89.6834 33.4685 91.252 34.122 93.5012 34.122C98.5778 34.122 102.944 29.8802 102.944 24.3321C102.944 18.712 98.2084 14.5424 92.8064 14.5424ZM93.6144 29.9166C90.5335 29.9166 88.1769 27.3397 88.1769 24.3321C88.1769 21.3218 90.5335 18.7476 93.6144 18.7476C96.2248 18.7476 98.5826 21.3218 98.5826 24.3321C98.5826 27.3397 96.2248 29.9166 93.6144 29.9166ZM136.415 30.1714C133.733 30.1714 132.971 29.0117 132.971 27.2342V19.3663H137.14V15.3783H132.971V10.1201L128.368 12.1864V28.2133C128.368 32.3111 131.195 34.3782 135.073 34.3782C135.653 34.3782 136.452 34.3407 136.887 34.2334L138.012 30.1002C137.504 30.1353 136.924 30.1714 136.415 30.1714Z" fill="#0D4856"/>
<path d="M124.424 19.5978C123.552 18.098 122.326 16.8957 120.793 15.9905C119.647 15.3236 118.459 14.9003 117.121 14.7185V9.95303C118.459 9.38465 119.29 8.12661 119.29 6.65893C119.29 4.65849 117.686 3.03741 115.687 3.03741C113.686 3.03741 112.054 4.65849 112.054 6.65893C112.054 8.12661 112.837 9.38465 114.176 9.95303V14.7207C113.105 14.8754 111.994 15.2093 110.98 15.7223C108.909 14.1491 102.116 8.98815 98.1431 5.97382C98.2373 5.63408 98.3099 5.2839 98.3099 4.91443C98.3099 2.69874 96.5156 0.902832 94.2991 0.902832C92.0826 0.902832 90.2891 2.69874 90.2891 4.91443C90.2891 7.12986 92.0844 8.9263 94.3009 8.9263C95.057 8.9263 95.7563 8.70516 96.3597 8.34159L97.1983 8.97771L108.72 17.2793C108.111 17.8386 107.544 18.4747 107.09 19.1885C106.17 20.6436 105.608 22.2446 105.608 23.991V24.3553C105.608 25.5812 105.841 26.7386 106.238 27.8259C106.587 28.7752 107.098 29.6384 107.731 30.4188L103.907 34.2521C103.353 34.0458 102.751 34.0035 102.173 34.1301C101.596 34.2568 101.067 34.5471 100.65 34.9664C100.361 35.2537 100.132 35.5954 99.9765 35.9718C99.8208 36.3482 99.7413 36.7517 99.7427 37.159C99.743 37.9871 100.066 38.7654 100.651 39.3509C100.938 39.6399 101.28 39.869 101.656 40.0249C102.033 40.1809 102.436 40.2607 102.844 40.2596C103.251 40.2606 103.655 40.1808 104.031 40.0249C104.407 39.8689 104.749 39.6398 105.036 39.3509C105.325 39.0636 105.554 38.722 105.71 38.3458C105.865 37.9696 105.945 37.5662 105.944 37.159C105.944 36.8386 105.895 36.5259 105.801 36.2287L109.754 32.2757C110.296 32.65 110.881 32.9651 111.51 33.2369C112.751 33.7734 114.121 34.1003 115.62 34.1003H115.894C117.552 34.1003 119.115 33.711 120.584 32.9148C122.133 32.0733 123.345 30.9226 124.261 29.4536C125.181 27.9806 125.688 26.3531 125.688 24.5626V24.4731C125.688 22.7118 125.28 21.0867 124.424 19.5978ZM119.594 27.8901C118.522 29.0823 117.288 29.8167 115.894 29.8167H115.665C114.868 29.8167 114.09 29.5966 113.327 29.1964C112.468 28.7557 111.814 28.1271 111.28 27.3311C110.727 26.5499 110.427 25.6969 110.427 24.7925V24.5178C110.427 23.6287 110.598 22.7857 111.028 21.9894C111.488 21.1191 112.108 20.4423 112.934 19.9041C113.745 19.3697 114.611 19.1076 115.575 19.1076H115.665C116.539 19.1076 117.367 19.2801 118.148 19.6798C118.944 20.106 119.594 20.6883 120.098 21.4543C120.588 22.2205 120.879 23.047 120.973 23.9473C120.988 24.1345 120.995 24.3262 120.995 24.5093C120.995 25.7312 120.528 26.8629 119.594 27.8901Z" fill="#0D4856"/>
</g>
<defs>
<clipPath id="clip0_579_19132">
<rect width="137.076" height="39.9164" fill="white" transform="translate(0.927734 0.890137)"/>
</clipPath>
</defs>
</svg>
