<svg width="179" height="33" viewBox="0 0 179 33" fill="none" xmlns="http://www.w3.org/2000/svg">
<g clip-path="url(#clip0_579_19189)">
<path d="M10.2852 0.635742L18.5369 7.68548C19.0268 8.10401 19.3091 8.71819 19.3091 9.36504V14.6781L11.0575 7.62836C10.5675 7.20984 10.2852 6.59565 10.2852 5.94876V0.635742Z" fill="#0D4856"/>
<path d="M10.2852 32.5756L18.5369 25.5258C19.0268 25.1073 19.3091 24.4931 19.3091 23.8463V18.5332L11.0575 25.583C10.5675 26.0015 10.2852 26.6156 10.2852 27.2625V32.5756Z" fill="#0D4856"/>
<path d="M0.441406 8.07031L8.58086 14.9853C8.97547 15.3206 9.47525 15.5045 9.99155 15.5045H16.5557L8.43626 8.59108C8.04137 8.25482 7.5409 8.07031 7.0237 8.07031H0.441406Z" fill="#0D4856"/>
<path d="M0.441406 25.1413L8.5308 18.2302C8.92613 17.8924 9.42774 17.707 9.94612 17.707H16.5752L8.43578 24.622C8.04116 24.9573 7.54143 25.1413 7.02507 25.1413H0.441406Z" fill="#0D4856"/>
<path d="M30.522 0.635742L22.2703 7.68548C21.7804 8.10401 21.498 8.71819 21.498 9.36504V14.6781L29.7497 7.62836C30.2396 7.20984 30.522 6.59565 30.522 5.94876V0.635742Z" fill="#0D4856"/>
<path d="M30.522 32.5756L22.2703 25.5258C21.7804 25.1073 21.498 24.4931 21.498 23.8463V18.5332L29.7497 25.583C30.2396 26.0015 30.522 26.6156 30.522 27.2625V32.5756Z" fill="#0D4856"/>
<path d="M40.3662 8.07031L32.2268 14.9853C31.8321 15.3206 31.3324 15.5045 30.8161 15.5045H24.252L32.3714 8.59108C32.7663 8.25482 33.2667 8.07031 33.7839 8.07031H40.3662Z" fill="#0D4856"/>
<path d="M40.3663 25.1413L32.2769 18.2302C31.8815 17.8924 31.3799 17.707 30.8615 17.707H24.2324L32.3719 24.622C32.7665 24.9573 33.2662 25.1413 33.7826 25.1413H40.3663Z" fill="#0D4856"/>
<path d="M106.461 9.15457C105.934 9.15457 105.491 8.97587 105.133 8.61838C104.776 8.26092 104.598 7.81835 104.598 7.29067C104.598 6.76299 104.776 6.32042 105.133 5.96295C105.491 5.60549 105.934 5.42676 106.461 5.42676C106.972 5.42676 107.407 5.60549 107.764 5.96295C108.121 6.32042 108.3 6.76299 108.3 7.29067C108.3 7.81835 108.121 8.26092 107.764 8.61838C107.407 8.97587 106.972 9.15457 106.461 9.15457Z" fill="#0D4856"/>
<path d="M107.89 11.0186V25.0873H104.979V11.0186H107.89Z" fill="#0D4856"/>
<path fill-rule="evenodd" clip-rule="evenodd" d="M115.749 11.4529C114.898 11.8955 114.225 12.4403 113.732 13.087V11.0189H110.82V31.7772H113.732V23.045C114.259 23.6917 114.941 24.2365 115.775 24.6791C116.609 25.1046 117.563 25.3174 118.635 25.3174C119.861 25.3174 120.976 25.011 121.981 24.3982C123.002 23.7684 123.802 22.9003 124.381 21.7938C124.96 20.6703 125.249 19.4022 125.249 17.9894C125.249 16.5766 124.96 15.3254 124.381 14.2361C123.802 13.1466 123.002 12.304 121.981 11.7083C120.976 11.0954 119.861 10.7891 118.635 10.7891C117.563 10.7891 116.601 11.0104 115.749 11.4529ZM121.674 15.4871C122.083 16.1851 122.287 17.0191 122.287 17.9894C122.287 18.9597 122.083 19.8108 121.674 20.5427C121.282 21.2746 120.754 21.8364 120.091 22.2279C119.444 22.6024 118.745 22.7896 117.996 22.7896C117.264 22.7896 116.566 22.6024 115.903 22.2279C115.255 21.8534 114.727 21.3086 114.319 20.5938C113.927 19.8618 113.732 19.0107 113.732 18.0404C113.732 17.0702 113.927 16.2276 114.319 15.5127C114.727 14.7978 115.255 14.2531 115.903 13.8786C116.566 13.5041 117.264 13.3168 117.996 13.3168C118.745 13.3168 119.444 13.5041 120.091 13.8786C120.754 14.2361 121.282 14.7722 121.674 15.4871Z" fill="#0D4856"/>
<path d="M132.34 25.3174C131.234 25.3174 130.238 25.1216 129.353 24.7301C128.485 24.3216 127.795 23.7769 127.284 23.096C126.773 22.3981 126.501 21.6236 126.467 20.7725H129.48C129.531 21.3682 129.812 21.8704 130.323 22.279C130.851 22.6705 131.507 22.8662 132.289 22.8662C133.107 22.8662 133.737 22.713 134.179 22.4066C134.639 22.0832 134.869 21.6747 134.869 21.1811C134.869 20.6533 134.614 20.2618 134.103 20.0065C133.609 19.7512 132.817 19.4703 131.728 19.1639C130.672 18.8745 129.812 18.5936 129.148 18.3214C128.485 18.049 127.906 17.6319 127.412 17.0702C126.936 16.5085 126.697 15.768 126.697 14.8488C126.697 14.0998 126.918 13.419 127.361 12.8062C127.803 12.1764 128.433 11.6827 129.25 11.3252C130.085 10.9678 131.038 10.7891 132.111 10.7891C133.711 10.7891 134.997 11.1976 135.967 12.0147C136.955 12.8147 137.483 13.9126 137.551 15.3084H134.639C134.588 14.6786 134.333 14.1765 133.873 13.802C133.414 13.4275 132.792 13.2403 132.009 13.2403C131.243 13.2403 130.655 13.3849 130.247 13.6743C129.838 13.9637 129.634 14.3466 129.634 14.8233C129.634 15.1977 129.77 15.5127 130.042 15.768C130.315 16.0234 130.647 16.2276 131.038 16.3808C131.43 16.517 132.009 16.6957 132.775 16.917C133.796 17.1893 134.631 17.4702 135.277 17.7596C135.942 18.032 136.512 18.4405 136.988 18.9852C137.465 19.5299 137.712 20.2533 137.729 21.1555C137.729 21.9555 137.508 22.6705 137.065 23.3002C136.623 23.9301 135.993 24.4237 135.175 24.7812C134.375 25.1386 133.43 25.3174 132.34 25.3174Z" fill="#0D4856"/>
<path d="M175.668 11.4785C174.8 11.0189 173.813 10.7891 172.706 10.7891C171.667 10.7891 170.697 11.0444 169.795 11.5551C168.892 12.0487 168.228 12.7211 167.802 13.5722C167.326 12.67 166.645 11.9806 165.759 11.504C164.874 11.0274 163.87 10.7891 162.746 10.7891C161.912 10.7891 161.129 10.9508 160.397 11.2742C159.664 11.5976 159.06 12.0487 158.583 12.6274V11.0189H155.672V25.0876H158.583V17.2234C158.583 15.9637 158.899 15.002 159.528 14.3382C160.175 13.6573 161.043 13.3168 162.133 13.3168C163.222 13.3168 164.082 13.6573 164.712 14.3382C165.342 15.002 165.657 15.9637 165.657 17.2234V25.0876H168.543V17.2234C168.543 15.9637 168.858 15.002 169.488 14.3382C170.135 13.6573 171.004 13.3168 172.093 13.3168C173.183 13.3168 174.043 13.6573 174.673 14.3382C175.302 15.002 175.617 15.9637 175.617 17.2234V25.0876H178.503V16.7894C178.503 15.5127 178.248 14.4233 177.737 13.5211C177.243 12.619 176.554 11.9381 175.668 11.4785Z" fill="#0D4856"/>
<path d="M152.725 25.0873V11.0186H149.814V18.8572C149.814 20.1168 149.49 21.0871 148.843 21.7679C148.213 22.4318 147.354 22.7637 146.264 22.7637C145.174 22.7637 144.315 22.4318 143.685 21.7679C143.055 21.0871 142.739 20.1168 142.739 18.8572V11.0186H139.854V19.2913C139.854 20.5679 140.1 21.6573 140.595 22.5595C141.105 23.4616 141.795 24.1425 142.663 24.6021C143.548 25.0617 144.544 25.2915 145.651 25.2915C146.485 25.2915 147.268 25.1298 148 24.8063C148.749 24.466 149.354 24.0063 149.814 23.4276V25.0873H152.725Z" fill="#0D4856"/>
<path fill-rule="evenodd" clip-rule="evenodd" d="M92.0904 24.4237C93.1628 25.0195 94.3629 25.3174 95.6908 25.3174C97.0363 25.3174 98.2619 25.0195 99.3687 24.4237C100.492 23.8109 101.378 22.9513 102.024 21.8448C102.671 20.7385 102.995 19.4703 102.995 18.0404C102.995 16.6106 102.68 15.3424 102.05 14.2361C101.42 13.1296 100.56 12.2785 99.4709 11.6827C98.3809 11.087 97.164 10.7891 95.8186 10.7891C94.4739 10.7891 93.2562 11.087 92.1663 11.6827C91.0772 12.2785 90.2172 13.1296 89.5872 14.2361C88.9572 15.3424 88.6426 16.6106 88.6426 18.0404C88.6426 19.4873 88.9492 20.764 89.5616 21.8704C90.1749 22.9598 91.0173 23.8109 92.0904 24.4237ZM97.7853 22.2534C97.1385 22.6108 96.4398 22.7896 95.6908 22.7896C94.5163 22.7896 93.5373 22.3811 92.754 21.564C91.9882 20.7299 91.605 19.5554 91.605 18.0404C91.605 17.0191 91.7918 16.1595 92.1663 15.4616C92.5416 14.7467 93.0438 14.2105 93.673 13.853C94.3206 13.4956 95.0185 13.3168 95.7675 13.3168C96.5165 13.3168 97.2143 13.4956 97.8619 13.853C98.5087 14.2105 99.0277 14.7467 99.4198 15.4616C99.811 16.1595 100.007 17.0191 100.007 18.0404C100.007 19.0618 99.8022 19.9299 99.3942 20.6448C98.9854 21.3598 98.4488 21.8959 97.7853 22.2534Z" fill="#0D4856"/>
<path fill-rule="evenodd" clip-rule="evenodd" d="M76.7588 24.4562C76.7391 24.4455 76.7193 24.4346 76.6997 24.4237C75.6271 23.8109 74.7842 22.9598 74.1713 21.8704C73.5584 20.764 73.252 19.4873 73.252 18.0404C73.252 16.6106 73.567 15.3424 74.1969 14.2361C74.8268 13.1296 75.6866 12.2785 76.7762 11.6827C77.8659 11.087 79.0832 10.7891 80.4283 10.7891C81.7729 10.7891 82.9906 11.087 84.0806 11.6827C85.1697 12.2785 86.0297 13.1296 86.6597 14.2361C87.2897 15.3424 87.6043 16.6106 87.6043 18.0404C87.6043 19.4703 87.2809 20.7385 86.6341 21.8448C85.9873 22.9513 85.1018 23.8109 83.9783 24.4237C83.0265 24.936 81.9869 25.2281 80.8587 25.2998C82.2408 25.932 84.3433 26.4425 85.5234 26.7291C86.0289 26.8518 86.365 26.9334 86.4042 26.9661L86.4057 26.9665V29.8793H75.799V26.9665H81.9111C80.3564 26.6154 78.2447 25.4629 76.7588 24.4562ZM80.3005 22.7896C81.0495 22.7896 81.7474 22.6108 82.3949 22.2534C83.0585 21.8959 83.5951 21.3598 84.0039 20.6448C84.4119 19.9299 84.6163 19.0618 84.6163 18.0404C84.6163 17.0191 84.4207 16.1595 84.0295 15.4616C83.6374 14.7467 83.1184 14.2105 82.4716 13.853C81.824 13.4956 81.1262 13.3168 80.3772 13.3168C79.628 13.3168 78.93 13.4956 78.283 13.853C77.6531 14.2105 77.1508 14.7467 76.7762 15.4616C76.4017 16.1595 76.2144 17.0191 76.2144 18.0404C76.2144 19.5554 76.5975 20.7299 77.3636 21.564C78.1468 22.3811 79.1258 22.7896 80.3005 22.7896Z" fill="#0D4856"/>
<path fill-rule="evenodd" clip-rule="evenodd" d="M61.307 24.4237C62.3796 25.0195 63.5799 25.3174 64.9079 25.3174C66.2529 25.3174 67.4787 25.0195 68.5855 24.4237C69.7091 23.8109 70.5944 22.9513 71.2414 21.8448C71.8884 20.7385 72.2119 19.4703 72.2119 18.0404C72.2119 16.6106 71.8969 15.3424 71.2669 14.2361C70.637 13.1296 69.7772 12.2785 68.6876 11.6827C67.598 11.087 66.3806 10.7891 65.0356 10.7891C63.6906 10.7891 62.4733 11.087 61.3837 11.6827C60.294 12.2785 59.4342 13.1296 58.8043 14.2361C58.1744 15.3424 57.8594 16.6106 57.8594 18.0404C57.8594 19.4873 58.1658 20.764 58.7788 21.8704C59.3917 22.9598 60.2344 23.8109 61.307 24.4237ZM67.002 22.2534C66.3551 22.6108 65.657 22.7896 64.9079 22.7896C63.7331 22.7896 62.7542 22.3811 61.971 21.564C61.2049 20.7299 60.8218 19.5554 60.8218 18.0404C60.8218 17.0191 61.0091 16.1595 61.3837 15.4616C61.7582 14.7467 62.2605 14.2105 62.8904 13.853C63.5373 13.4956 64.2354 13.3168 64.9845 13.3168C65.7337 13.3168 66.4317 13.4956 67.0786 13.853C67.7256 14.2105 68.2449 14.7467 68.6365 15.4616C69.0281 16.1595 69.2238 17.0191 69.2238 18.0404C69.2238 19.0618 69.0196 19.9299 68.6109 20.6448C68.2023 21.3598 67.6661 21.8959 67.002 22.2534Z" fill="#0D4856"/>
<path d="M51.2629 22.7382H57.2644V25.0873H48.3516V7.3418H51.2629V22.7382Z" fill="#0D4856"/>
</g>
<defs>
<clipPath id="clip0_579_19189">
<rect width="178.063" height="31.9395" fill="white" transform="translate(0.441406 0.635742)"/>
</clipPath>
</defs>
</svg>
