<svg width="132" height="51" viewBox="0 0 132 51" fill="none" xmlns="http://www.w3.org/2000/svg">
<g clip-path="url(#clip0_579_19212)">
<path d="M60.1836 44.6599H63.5925V31.7769H60.1836V44.6599ZM60.1836 29.7679H63.5925V26.7041H60.1836V29.7679Z" fill="#0D4856"/>
<path d="M65.7891 48.8793H69.1979V43.2038H69.2482C69.975 44.3087 71.1531 45.037 72.9577 45.037C76.2663 45.037 78.5222 42.4002 78.5222 38.2314C78.5222 34.2133 76.3415 31.4258 72.9327 31.4258C71.1781 31.4258 69.975 32.2545 69.1478 33.3845H69.0726V31.7774H65.7891V48.8793ZM72.2309 42.1992C70.2006 42.1992 69.1227 40.6674 69.1227 38.3318C69.1227 36.0215 69.975 34.1882 72.1055 34.1882C74.211 34.1882 75.0632 35.8958 75.0632 38.3318C75.0632 40.7678 73.9604 42.1992 72.2309 42.1992Z" fill="#0D4856"/>
<path d="M85.3204 45.037C88.5287 45.037 90.7344 43.48 90.7344 40.8933C90.7344 37.8798 88.3533 37.2771 86.1977 36.8251C84.3679 36.4484 82.6634 36.3479 82.6634 35.243C82.6634 34.3138 83.5407 33.8114 84.8693 33.8114C86.323 33.8114 87.2003 34.3138 87.3506 35.695H90.4337C90.183 33.1084 88.3032 31.4258 84.9194 31.4258C81.9867 31.4258 79.6807 32.7568 79.6807 35.5442C79.6807 38.3569 81.9366 38.9848 84.2426 39.4369C85.9971 39.7883 87.6264 39.914 87.6264 41.1445C87.6264 42.0486 86.7742 42.6261 85.2702 42.6261C83.7413 42.6261 82.6885 41.9733 82.463 40.4915H79.3047C79.5053 43.2289 81.5857 45.037 85.3204 45.037Z" fill="#0D4856"/>
<path d="M103.679 44.6603V31.7773H100.27V39.2107C100.27 40.9184 99.2924 42.1239 97.6882 42.1239C96.2344 42.1239 95.5576 41.2951 95.5576 39.7883V31.7773H92.1738V40.366C92.1738 43.1785 93.778 45.0119 96.6355 45.0119C98.4402 45.0119 99.4427 44.3338 100.32 43.1534H100.395V44.6603H103.679Z" fill="#0D4856"/>
<path d="M105.883 44.6603H109.292V37.1766C109.292 35.4689 110.219 34.364 111.598 34.364C112.851 34.364 113.578 35.1173 113.578 36.5739V44.6603H116.987V37.1766C116.987 35.4689 117.864 34.364 119.293 34.364C120.546 34.364 121.273 35.1173 121.273 36.5739V44.6603H124.682V35.9964C124.682 33.1837 123.153 31.4258 120.446 31.4258C118.817 31.4258 117.463 32.2796 116.586 33.6859H116.536C115.909 32.3298 114.606 31.4258 112.976 31.4258C111.197 31.4258 109.943 32.3298 109.242 33.5102H109.166V31.7774H105.883V44.6603Z" fill="#0D4856"/>
<path d="M60.2324 22.5945H63.6413V4.63867H60.2324V22.5945Z" fill="#0D4856"/>
<path d="M71.9773 22.9716C75.9627 22.9716 78.6947 20.0082 78.6947 16.166C78.6947 12.3237 75.9627 9.36035 71.9773 9.36035C67.9919 9.36035 65.2598 12.3237 65.2598 16.166C65.2598 20.0082 67.9919 22.9716 71.9773 22.9716ZM71.9773 20.3599C69.8718 20.3599 68.7189 18.6773 68.7189 16.166C68.7189 13.6547 69.8718 11.947 71.9773 11.947C74.0577 11.947 75.2358 13.6547 75.2358 16.166C75.2358 18.6773 74.0577 20.3599 71.9773 20.3599Z" fill="#0D4856"/>
<path d="M85.9437 26.9897C87.8487 26.9897 89.5031 26.5377 90.5808 25.5331C91.5332 24.6542 92.1098 23.4236 92.1098 21.6155V9.71193H88.8262V11.068H88.7761C87.9991 9.98817 86.821 9.36035 85.2168 9.36035C81.9584 9.36035 79.6523 11.8214 79.6523 15.6637C79.6523 19.5562 82.4597 21.8164 85.3172 21.8164C86.9464 21.8164 87.9239 21.1635 88.6759 20.3096H88.7511V21.7159C88.7511 23.4738 87.8237 24.403 85.8936 24.403C84.3145 24.403 83.5877 23.7752 83.3119 22.9716H79.9281C80.279 25.4829 82.4346 26.9897 85.9437 26.9897ZM85.8936 19.0791C84.1391 19.0791 82.986 17.7983 82.986 15.6135C82.986 13.4538 84.1391 12.0977 85.8686 12.0977C87.9239 12.0977 88.9265 13.7049 88.9265 15.5884C88.9265 17.4969 88.0492 19.0791 85.8936 19.0791Z" fill="#0D4856"/>
<path d="M100.395 22.9716C104.381 22.9716 107.113 20.0082 107.113 16.166C107.113 12.3237 104.381 9.36035 100.395 9.36035C96.4099 9.36035 93.6777 12.3237 93.6777 16.166C93.6777 20.0082 96.4099 22.9716 100.395 22.9716ZM100.395 20.3599C98.2897 20.3599 97.1367 18.6773 97.1367 16.166C97.1367 13.6547 98.2897 11.947 100.395 11.947C102.476 11.947 103.654 13.6547 103.654 16.166C103.654 18.6773 102.476 20.3599 100.395 20.3599Z" fill="#0D4856"/>
<path d="M110.102 17.6726H124.84V14.7344H110.102V17.6726Z" fill="#0D4856"/>
<path d="M125.92 29.5884C125.92 29.0105 126.387 28.542 126.965 28.542H129.053C129.63 28.542 130.097 29.0105 130.097 29.5884C130.097 30.1662 129.63 30.6348 129.053 30.6348H126.965C126.387 30.6348 125.92 30.1662 125.92 29.5884Z" fill="#0D4856"/>
<path fill-rule="evenodd" clip-rule="evenodd" d="M25.7574 0.646484C39.5276 0.646484 50.6905 11.8307 50.6905 25.6272C50.6905 39.4237 39.5276 50.6079 25.7574 50.6079C11.9872 50.6079 0.824219 39.4237 0.824219 25.6272C0.824219 11.8307 11.9872 0.646484 25.7574 0.646484ZM24.8561 2.51578C22.0118 2.91685 19.3033 5.20682 17.2008 9.03676C16.5909 10.1477 16.0407 11.375 15.5611 12.7002C18.4199 11.9805 21.5604 11.5561 24.8561 11.4905V2.51578ZM13.4538 13.3002C14.0501 11.4251 14.7797 9.7 15.6215 8.16649C16.6637 6.26788 17.9007 4.62835 19.2943 3.3691C11.716 5.57422 5.74256 11.5591 3.54165 19.1518C4.79849 17.7555 6.43492 16.5162 8.32991 15.472C9.86049 14.6286 11.5823 13.8976 13.4538 13.3002ZM12.855 15.4115C12.1366 18.2758 11.713 21.4222 11.6475 24.7243H2.68995C3.09026 21.8744 5.37587 19.1607 9.19852 17.0543C10.3073 16.4433 11.5323 15.892 12.855 15.4115ZM13.4504 24.7243C13.5248 21.1207 14.0425 17.7375 14.8992 14.7484C17.8827 13.89 21.2595 13.3712 24.8561 13.2966V17.1972C23.5144 20.6388 20.7777 23.3804 17.3425 24.7243H13.4504ZM11.6475 26.5301H2.68995C3.09026 29.3801 5.37587 32.0936 9.19852 34.2001C10.3073 34.8111 11.5323 35.3624 12.855 35.8429C12.1366 32.9787 11.713 29.8322 11.6475 26.5301ZM14.8992 36.5061C14.0425 33.5169 13.5248 30.1337 13.4504 26.5301H17.3425C20.7777 27.874 23.5145 30.6156 24.8561 34.0572V37.9578C21.2595 37.8833 17.8827 37.3644 14.8992 36.5061ZM13.4538 37.9542C11.5823 37.3568 9.86049 36.6258 8.32991 35.7824C6.43492 34.7382 4.79849 33.4989 3.54165 32.1026C5.74256 39.6954 11.716 45.6802 19.2943 47.8853C17.9007 46.626 16.6637 44.9865 15.6215 43.0879C14.7797 41.5544 14.0501 39.8293 13.4538 37.9542ZM24.8561 48.7386C22.0118 48.3376 19.3033 46.0476 17.2008 42.2177C16.5909 41.1068 16.0407 39.8793 15.5611 38.5542C18.4199 39.2739 21.5604 39.6983 24.8561 39.7639V48.7386ZM32.2204 47.8853C33.614 46.626 34.851 44.9865 35.8933 43.0879C36.735 41.5544 37.4646 39.8293 38.0609 37.9542C39.9323 37.3568 41.6542 36.6258 43.1849 35.7824C45.0798 34.7382 46.7163 33.4989 47.973 32.1026C45.7722 39.6954 39.7987 45.6802 32.2204 47.8853ZM35.9536 38.5542C35.474 39.8793 34.9238 41.1068 34.3139 42.2177C32.2115 46.0476 29.5031 48.3376 26.6586 48.7386V39.7639C29.9543 39.6983 33.0948 39.2739 35.9536 38.5542ZM38.6598 35.8429C39.9823 35.3624 41.2074 34.8111 42.3162 34.2001C46.1388 32.0936 48.4244 29.3801 48.8247 26.5301H39.8671C39.8017 29.8322 39.3781 32.9787 38.6598 35.8429ZM38.0645 26.5301C37.9901 30.1337 37.4722 33.5169 36.6155 36.5061C33.632 37.3644 30.2553 37.8833 26.6586 37.9578V34.0601C27.9998 30.6172 30.7371 27.8743 34.1733 26.5301H38.0645ZM39.8671 24.7243H48.8247C48.4244 21.8744 46.1388 19.1607 42.3162 17.0543C41.2074 16.4433 39.9823 15.892 38.6598 15.4115C39.3781 18.2758 39.8017 21.4222 39.8671 24.7243ZM36.6155 14.7484C37.4722 17.7375 37.9901 21.1207 38.0645 24.7243H34.1733C30.7371 23.3801 27.9998 20.6372 26.6586 17.1943V13.2966C30.2553 13.3712 33.632 13.89 36.6155 14.7484ZM38.0609 13.3002C39.9323 13.8976 41.6542 14.6286 43.1849 15.472C45.0798 16.5162 46.7163 17.7555 47.973 19.1518C45.7722 11.5591 39.7987 5.57422 32.2204 3.3691C33.614 4.62835 34.851 6.26788 35.8933 8.16649C36.735 9.7 37.4646 11.4251 38.0609 13.3002ZM26.6586 2.51578C29.5031 2.91685 32.2115 5.20682 34.3139 9.03676C34.9238 10.1477 35.474 11.375 35.9536 12.7002C33.0948 11.9805 29.9543 11.5561 26.6586 11.4905V2.51578Z" fill="#0D4856"/>
</g>
<defs>
<clipPath id="clip0_579_19212">
<rect width="130.899" height="49.9614" fill="white" transform="translate(0.173828 0.646484)"/>
</clipPath>
</defs>
</svg>
