<svg width="179" height="33" viewBox="0 0 179 33" fill="none" xmlns="http://www.w3.org/2000/svg">
<g clip-path="url(#clip0_579_19167)">
<path fill-rule="evenodd" clip-rule="evenodd" d="M0.943359 11.7943V23.6968H4.66288C5.05363 23.6968 5.44056 23.7738 5.80162 23.9233C6.16258 24.0728 6.49067 24.292 6.76691 24.5683C7.04325 24.8446 7.26246 25.1727 7.41202 25.5337C7.56149 25.8947 7.63849 26.2816 7.63849 26.6724V30.3919H16.5653L27.7239 19.2333V7.33088H24.0044C23.6136 7.33088 23.2267 7.25392 22.8656 7.10438C22.5047 6.95484 22.1766 6.73565 21.9003 6.45934C21.624 6.18303 21.4048 5.85499 21.2552 5.49398C21.1058 5.13297 21.0288 4.74604 21.0288 4.35526V0.635742H12.1019L0.943359 11.7943ZM13.5897 22.9529H8.3824V14.7699L15.0775 8.07478H20.2849V16.2577L13.5897 22.9529Z" fill="#0D4856"/>
<path d="M172.463 9.74512C174.342 9.74512 175.853 10.3254 176.995 11.4859C178.155 12.628 178.735 14.2306 178.735 16.2936V25.2737H174.867V16.8187C174.867 15.6213 174.563 14.7095 173.955 14.0832C173.347 13.4385 172.519 13.1161 171.468 13.1161C170.419 13.1161 169.58 13.4385 168.954 14.0832C168.346 14.7095 168.043 15.6213 168.043 16.8187V25.2737H164.174V16.8187C164.174 15.6213 163.87 14.7095 163.262 14.0832C162.654 13.4385 161.825 13.1161 160.775 13.1161C159.707 13.1161 158.86 13.4385 158.233 14.0832C157.626 14.7095 157.321 15.6213 157.321 16.8187V25.2737H153.453V9.96613H157.321V11.8174C157.819 11.1727 158.454 10.6661 159.228 10.2978C160.02 9.92931 160.885 9.74512 161.825 9.74512C163.023 9.74512 164.091 10.003 165.03 10.5188C165.97 11.0162 166.698 11.7345 167.213 12.674C167.711 11.7898 168.429 11.0806 169.368 10.5464C170.326 10.0122 171.358 9.74512 172.463 9.74512Z" fill="#0D4856"/>
<path d="M150.604 9.9668V25.2744H146.708V23.3402C146.212 24.0034 145.557 24.5283 144.747 24.9152C143.955 25.2836 143.089 25.4678 142.149 25.4678C140.952 25.4678 139.893 25.2191 138.972 24.7218C138.051 24.206 137.323 23.46 136.789 22.4837C136.273 21.4889 136.016 20.31 136.016 18.9469V9.9668H139.884V18.3943C139.884 19.61 140.187 20.5495 140.795 21.2126C141.404 21.8574 142.232 22.1797 143.282 22.1797C144.351 22.1797 145.189 21.8574 145.796 21.2126C146.405 20.5495 146.708 19.61 146.708 18.3943V9.9668H150.604Z" fill="#0D4856"/>
<path d="M127.921 25.5228C126.669 25.5228 125.545 25.3017 124.55 24.8596C123.555 24.3991 122.763 23.7819 122.174 23.0083C121.603 22.2346 121.289 21.3781 121.234 20.4386H125.13C125.204 21.0281 125.489 21.5162 125.987 21.9031C126.503 22.2899 127.138 22.4833 127.893 22.4833C128.63 22.4833 129.202 22.3359 129.606 22.0412C130.03 21.7465 130.242 21.3689 130.242 20.9084C130.242 20.411 129.984 20.0426 129.469 19.8031C128.971 19.5453 128.17 19.2689 127.064 18.9742C125.922 18.6979 124.983 18.4124 124.246 18.1176C123.528 17.8229 122.901 17.3716 122.367 16.7637C121.851 16.1558 121.594 15.3361 121.594 14.3045C121.594 13.4572 121.833 12.6836 122.312 11.9836C122.809 11.2835 123.509 10.731 124.412 10.3257C125.333 9.92041 126.41 9.71777 127.645 9.71777C129.469 9.71777 130.924 10.1783 132.011 11.0994C133.097 12.002 133.696 13.2269 133.806 14.7743H130.104C130.049 14.1664 129.791 13.6875 129.33 13.3375C128.888 12.9691 128.29 12.7848 127.534 12.7848C126.834 12.7848 126.291 12.9138 125.904 13.1717C125.536 13.4296 125.351 13.7888 125.351 14.2493C125.351 14.7651 125.609 15.1611 126.125 15.4374C126.641 15.6953 127.442 15.9624 128.529 16.2387C129.634 16.515 130.546 16.8006 131.264 17.0953C131.983 17.39 132.6 17.8505 133.116 18.4768C133.65 19.0847 133.926 19.8952 133.945 20.9084C133.945 21.7925 133.696 22.5846 133.199 23.2846C132.72 23.9846 132.019 24.5372 131.099 24.9425C130.196 25.3293 129.137 25.5228 127.921 25.5228Z" fill="#0D4856"/>
<path d="M108.173 12.177C108.671 11.477 109.352 10.8967 110.218 10.4362C111.102 9.95731 112.106 9.71777 113.229 9.71777C114.537 9.71777 115.716 10.0402 116.767 10.6849C117.835 11.3296 118.672 12.2506 119.281 13.448C119.907 14.6269 120.22 15.9992 120.22 17.565C120.22 19.1308 119.907 20.5215 119.281 21.7373C118.672 22.9346 117.835 23.8649 116.767 24.528C115.716 25.1911 114.537 25.5228 113.229 25.5228C112.106 25.5228 111.111 25.2924 110.245 24.832C109.398 24.3714 108.707 23.7912 108.173 23.0912V32.5686H104.305V9.96646H108.173V12.177ZM116.269 17.565C116.269 16.644 116.075 15.8519 115.689 15.1887C115.32 14.5072 114.823 13.9914 114.196 13.6414C113.589 13.2914 112.926 13.1164 112.207 13.1164C111.507 13.1164 110.844 13.3006 110.218 13.669C109.609 14.019 109.113 14.5348 108.726 15.2163C108.357 15.8979 108.173 16.6992 108.173 17.6203C108.173 18.5413 108.357 19.3426 108.726 20.0242C109.113 20.7058 109.609 21.2307 110.218 21.5991C110.844 21.9491 111.507 22.1242 112.207 22.1242C112.926 22.1242 113.589 21.9399 114.196 21.5715C114.823 21.2031 115.32 20.6781 115.689 19.9965C116.075 19.315 116.269 18.5045 116.269 17.565Z" fill="#0D4856"/>
<path d="M99.542 8.14282C98.8606 8.14282 98.2901 7.93097 97.8296 7.50729C97.387 7.0652 97.166 6.52179 97.166 5.87707C97.166 5.23235 97.387 4.69815 97.8296 4.27447C98.2901 3.83238 98.8606 3.61133 99.542 3.61133C100.224 3.61133 100.786 3.83238 101.228 4.27447C101.688 4.69815 101.919 5.23235 101.919 5.87707C101.919 6.52179 101.688 7.0652 101.228 7.50729C100.786 7.93097 100.224 8.14282 99.542 8.14282ZM101.449 9.96643V25.274H97.5804V9.96643H101.449Z" fill="#0D4856"/>
<path d="M87.7251 25.5228C86.2514 25.5228 84.9258 25.2003 83.7467 24.5557C82.5676 23.8925 81.6377 22.9622 80.9555 21.7649C80.2927 20.5676 79.9609 19.186 79.9609 17.6203C79.9609 16.0545 80.3016 14.673 80.9831 13.4756C81.6831 12.2783 82.6323 11.3573 83.8292 10.7125C85.0269 10.0494 86.3622 9.71777 87.8359 9.71777C89.3096 9.71777 90.6449 10.0494 91.8426 10.7125C93.0395 11.3573 93.9791 12.2783 94.6605 13.4756C95.3605 14.673 95.7109 16.0545 95.7109 17.6203C95.7109 19.186 95.3516 20.5676 94.633 21.7649C93.9329 22.9622 92.9755 23.8925 91.7593 24.5557C90.5623 25.2003 89.2173 25.5228 87.7251 25.5228ZM87.7251 22.1518C88.4251 22.1518 89.079 21.9859 89.6875 21.6544C90.3138 21.3044 90.8108 20.7886 91.179 20.1071C91.548 19.4255 91.7317 18.5966 91.7317 17.6203C91.7317 16.165 91.3449 15.0506 90.5712 14.2769C89.8162 13.4848 88.8856 13.0888 87.7809 13.0888C86.6754 13.0888 85.7455 13.4848 84.9897 14.2769C84.2533 15.0506 83.885 16.165 83.885 17.6203C83.885 19.0755 84.2436 20.1992 84.9622 20.9913C85.6994 21.7649 86.6204 22.1518 87.7251 22.1518Z" fill="#0D4856"/>
<path d="M71.0729 25.5228C69.5992 25.5228 68.273 25.2003 67.094 24.5557C65.9151 23.8925 64.9848 22.9622 64.3033 21.7649C63.6402 20.5676 63.3086 19.186 63.3086 17.6203C63.3086 16.0545 63.6494 14.673 64.3309 13.4756C65.0309 12.2783 65.9796 11.3573 67.1769 10.7125C68.3743 10.0494 69.7097 9.71777 71.1834 9.71777C72.6571 9.71777 73.9925 10.0494 75.1899 10.7125C76.387 11.3573 77.3266 12.2783 78.008 13.4756C78.708 14.673 79.0584 16.0545 79.0584 17.6203C79.0584 19.186 78.6991 20.5676 77.9805 21.7649C77.2804 22.9622 76.323 23.8925 75.107 24.5557C73.9097 25.2003 72.565 25.5228 71.0729 25.5228ZM71.0729 22.1518C71.7729 22.1518 72.4268 21.9859 73.0347 21.6544C73.661 21.3044 74.1584 20.7886 74.5267 20.1071C74.8952 19.4255 75.0794 18.5966 75.0794 17.6203C75.0794 16.165 74.6926 15.0506 73.9189 14.2769C73.1636 13.4848 72.2334 13.0888 71.1281 13.0888C70.0229 13.0888 69.0927 13.4848 68.3374 14.2769C67.6006 15.0506 67.2322 16.165 67.2322 17.6203C67.2322 19.0755 67.5914 20.1992 68.3098 20.9913C69.0466 21.7649 69.9677 22.1518 71.0729 22.1518Z" fill="#0D4856"/>
<path d="M54.4186 25.5228C52.9449 25.5228 51.6187 25.2003 50.4397 24.5557C49.2608 23.8925 48.3305 22.9622 47.649 21.7649C46.9859 20.5676 46.6543 19.186 46.6543 17.6203C46.6543 16.0545 46.9951 14.673 47.6766 13.4756C48.3766 12.2783 49.3253 11.3573 50.5226 10.7125C51.7199 10.0494 53.0554 9.71777 54.5291 9.71777C56.0027 9.71777 57.3382 10.0494 58.5356 10.7125C59.7329 11.3573 60.6723 12.2783 61.3539 13.4756C62.0539 14.673 62.4039 16.0545 62.4039 17.6203C62.4039 19.186 62.0447 20.5676 61.3263 21.7649C60.6263 22.9622 59.6684 23.8925 58.4527 24.5557C57.2554 25.2003 55.9106 25.5228 54.4186 25.5228ZM54.4186 22.1518C55.1186 22.1518 55.7725 21.9859 56.3804 21.6544C57.0067 21.3044 57.5041 20.7886 57.8724 20.1071C58.2408 19.4255 58.4251 18.5966 58.4251 17.6203C58.4251 16.165 58.0383 15.0506 57.2645 14.2769C56.5093 13.4848 55.5791 13.0888 54.4738 13.0888C53.3686 13.0888 52.4384 13.4848 51.6831 14.2769C50.9462 15.0506 50.5779 16.165 50.5779 17.6203C50.5779 19.0755 50.9371 20.1992 51.6555 20.9913C52.3923 21.7649 53.3134 22.1518 54.4186 22.1518Z" fill="#0D4856"/>
<path d="M39.7746 22.2067H46.1297V25.2737H35.9062V5.9873H39.7746V22.2067Z" fill="#0D4856"/>
<path d="M64.3281 27.3298C65.308 30.2438 68.0621 32.3428 71.3063 32.3428H71.71C75.7752 32.3428 79.0707 29.0474 79.0707 24.9823V24.5664H75.0801V24.9823C75.0801 26.8436 73.5713 28.3524 71.71 28.3524H71.3063C70.3578 28.3524 69.5007 27.9605 68.8883 27.3298H64.3281Z" fill="#0D4856"/>
</g>
<defs>
<clipPath id="clip0_579_19167">
<rect width="177.793" height="31.9879" fill="white" transform="translate(0.943359 0.635742)"/>
</clipPath>
</defs>
</svg>
