<svg width="111" height="111" viewBox="0 0 111 111" fill="none" xmlns="http://www.w3.org/2000/svg">
<g clip-path="url(#clip0_946_22232)">
<path d="M55.3071 110.614C85.8524 110.614 110.614 85.8524 110.614 55.3071C110.614 24.7618 85.8524 0 55.3071 0C24.7618 0 0 24.7618 0 55.3071C0 85.8524 24.7618 110.614 55.3071 110.614Z" fill="#0D4856"/>
<path d="M13.3316 55.2899C13.336 67.7937 23.4196 77.9614 35.9235 78.072H39.1224V69.714H35.9235C28.1716 71.8289 20.1764 67.2584 18.0659 59.5065C18.0482 59.4446 18.0349 59.3826 18.0172 59.3207C15.8448 51.4671 20.3932 43.3303 28.2203 41.0693H29.8176C31.8219 40.6313 33.897 40.6313 35.9013 41.0693H43.6709V85.4434C43.6311 90.1378 47.4052 93.9783 52.0997 94.0226V32.2822H35.9721C23.3798 32.3485 13.2299 42.6091 13.2962 55.2014V55.2058L13.3316 55.2899ZM74.7225 32.291H71.5236V41.0915H74.7225C82.4567 38.9809 90.4342 43.5383 92.5447 51.268C92.5624 51.3255 92.5756 51.3874 92.5933 51.445C94.7525 59.272 90.2174 67.3778 82.4213 69.6344H80.824C78.8197 70.0724 76.7445 70.0724 74.7402 69.6344H66.9707V25.2648C67.0105 20.5703 63.2363 16.7298 58.5419 16.6855V78.5145H74.6694C87.3724 78.3154 97.509 67.8601 97.3144 55.1572C97.1197 42.733 87.098 32.7069 74.6694 32.5122L74.7225 32.291Z" fill="white"/>
</g>
<defs>
<clipPath id="clip0_946_22232">
<rect width="110.614" height="110.614" fill="white"/>
</clipPath>
</defs>
</svg>
