<svg width="134" height="37" viewBox="0 0 134 37" fill="none" xmlns="http://www.w3.org/2000/svg">
<g clip-path="url(#clip0_579_19148)">
<mask id="mask0_579_19148" style="mask-type:luminance" maskUnits="userSpaceOnUse" x="0" y="0" width="134" height="37">
<path d="M0.423828 0.910645H133.221V36.8662H0.423828V0.910645Z" fill="white"/>
</mask>
<g mask="url(#mask0_579_19148)">
<path d="M9.61255 13.0629C6.4453 13.0629 4.89051 15.897 4.89051 19.6812V29.1646H0.423828V9.1524H4.81225V14.3444H4.88845C5.82544 11.1522 7.69325 8.57275 10.5742 8.57275C12.6006 8.57275 13.4552 9.29109 13.4552 9.29109L11.4392 13.4128C11.4392 13.4107 10.7967 13.0629 9.61255 13.0629ZM63.6101 15.8101V29.1626H59.2588V17.4352C59.2588 14.069 58.2188 12.2866 55.5623 12.2866C52.8111 12.2866 51.4807 14.541 51.4807 18.8656V29.1606H47.1686V17.4352C47.1686 14.1994 46.1409 12.2866 43.5111 12.2866C40.5086 12.2866 39.3533 14.9572 39.3533 18.8656V29.1606H34.9649V9.1524H39.3533V13.684H39.3924C40.0762 10.5477 41.9419 8.61209 45.0907 8.61209C48.2125 8.61209 50.2472 10.3158 51.0194 13.3362C51.7546 10.4297 53.7109 8.61209 56.7175 8.61209C60.9124 8.61209 63.6101 11.2826 63.6101 15.8101ZM22.2342 8.57275C18.1959 8.57275 15.5538 10.498 14.349 13.9738L18.0661 15.3464C18.7437 13.2492 20.1563 12.0548 22.3125 12.0548C24.7384 12.0548 26.1633 13.1395 26.1633 14.8039C26.1633 16.5056 25.0287 16.8617 22.4668 17.2819C19.6168 17.7477 12.8395 17.9009 12.8395 23.7057C12.8395 27.1069 15.6402 29.6657 19.8474 29.6657C23.0105 29.6657 25.1646 28.3532 26.1612 25.9104H26.2004V29.1626H30.5517V16.8554C30.5498 11.471 27.8808 8.57275 22.2342 8.57275ZM26.2766 19.7433C26.2766 23.9395 24.2317 26.6349 20.9636 26.6349C18.6531 26.6349 17.2671 25.3183 17.2671 23.4199C17.2671 21.6396 18.6921 20.4037 21.4248 19.8945C24.2214 19.3728 25.63 18.7289 26.2766 17.1846V19.7433ZM79.0881 8.61209C75.7601 8.61209 73.5608 10.469 72.6198 13.2596V9.1524H67.9985V36.8657H72.5806V25.0575H72.6198C73.6391 28.0799 75.7622 29.7422 79.0881 29.7422C84.362 29.7422 88.1367 25.3306 88.1367 19.0975C88.1347 12.9077 84.362 8.61209 79.0881 8.61209ZM77.9513 26.0283C74.2981 26.0283 72.2717 23.3371 72.2717 19.1575C72.2717 14.9778 74.5389 12.2866 77.9513 12.2866C81.3616 12.2866 83.6309 15.1082 83.6309 19.1575C83.6309 23.2088 81.3636 26.0283 77.9513 26.0283Z" fill="#0D4856"/>
<path d="M133.525 29.0724V29.1972L115.642 29.2035V29.0724C118.221 27.5937 120.001 26.0874 121.602 24.5134H128.946L133.525 29.0724ZM129.094 5.42516L124.561 0.910645H124.43C124.43 0.910645 124.506 9.32405 116.895 16.9758C109.448 24.4648 100.689 24.4817 100.689 24.4817V24.6129L105.307 29.2056C105.307 29.2056 113.938 29.2924 121.562 21.6997C129.158 14.1326 129.094 5.42516 129.094 5.42516Z" fill="#0D4856"/>
</g>
</g>
<defs>
<clipPath id="clip0_579_19148">
<rect width="132.798" height="35.9993" fill="white" transform="translate(0.423828 0.88916)"/>
</clipPath>
</defs>
</svg>
