<svg width="110" height="110" viewBox="0 0 110 110" fill="none" xmlns="http://www.w3.org/2000/svg">
<g clip-path="url(#clip0_946_22235)">
<path d="M54.8791 109.155C84.8546 109.155 109.155 84.8546 109.155 54.8791C109.155 24.9035 84.8546 0.603516 54.8791 0.603516C24.9035 0.603516 0.603516 24.9035 0.603516 54.8791C0.603516 84.8546 24.9035 109.155 54.8791 109.155Z" fill="#0D4856"/>
<path d="M24.2798 62.877C20.7181 62.315 18.0116 60.0583 17.183 56.961C16.9201 55.978 16.8984 54.2267 17.1372 53.2486C17.4857 51.8193 18.3288 50.5854 19.1369 50.3189C19.8208 50.0933 20.7218 50.4009 21.1716 51.0136C21.5226 51.4912 21.5106 52.0581 21.1282 53.0423C20.7025 54.1399 20.6192 54.7212 20.7604 55.6101C21.0486 57.4169 22.3307 58.8076 24.2147 59.3612C24.9709 59.5831 26.4147 59.5698 27.1757 59.3322C29.8425 58.5024 31.0329 55.6258 29.7303 53.1569C29.091 51.9435 27.6389 51.0136 24.6742 49.9209C21.5057 48.7521 20.3274 48.1032 19.0247 46.8115C18.0068 45.8007 17.5255 44.9926 17.1866 43.7262C16.8935 42.6286 16.8935 40.6952 17.1866 39.5928C17.7897 37.3253 19.2901 35.4932 21.3984 34.4523C22.6733 33.8227 23.772 33.5779 25.3099 33.5791C27.9694 33.5827 29.9583 34.3764 31.689 36.1228C33.0556 37.5014 33.696 38.8137 33.9059 40.6651C34.1109 42.4682 33.4391 43.3752 31.9689 43.2824C31.0196 43.2221 30.4178 42.6612 30.308 41.7361C30.1138 40.0934 29.7556 39.2298 28.9258 38.3988C27.306 36.779 24.5174 36.4931 22.5792 37.7451C20.5975 39.026 20.0777 41.9568 21.5021 43.8227C22.2439 44.7948 23.5007 45.5101 26.4701 46.6547C28.7726 47.5412 29.5904 47.9235 30.6059 48.5857C32.0967 49.5578 33.0725 50.7374 33.5694 52.1679C34.673 55.3484 33.6635 59.0283 31.1173 61.104C30.337 61.7409 28.9511 62.4296 27.9308 62.6889C27.0165 62.9205 25.1627 63.0169 24.2798 62.877Z" fill="#D1DCDF"/>
<path d="M43.332 62.8665C40.5797 62.4721 37.919 60.4735 36.7358 57.9141C36.146 56.638 35.9518 55.7033 35.9602 54.1788C35.9687 52.5891 36.1629 51.7267 36.8166 50.371C37.6777 48.5848 39.0515 47.2315 40.886 46.3607C42.2019 45.7359 42.9075 45.567 44.4465 45.5043C46.4414 45.4235 47.9611 45.7781 49.4772 46.6779C50.2275 47.1229 51.4372 48.2217 51.9582 48.9309C52.495 49.6618 53.0968 50.962 53.3754 51.9909C53.6311 52.934 53.6335 52.9763 53.6697 57.188C53.7023 60.9813 53.689 61.4794 53.5407 61.8678C53.0148 63.244 50.816 63.3308 50.1382 62.0029C49.9657 61.664 49.9476 61.319 49.909 57.5861C49.8741 54.2065 49.8391 53.4322 49.7004 52.9027C49.2806 51.301 48.2977 50.0056 47.03 49.382C43.9822 47.8816 40.4494 49.7209 39.7933 53.1499C39.6136 54.0871 39.6148 54.4453 39.7993 55.3173C39.9983 56.2605 40.4494 57.1362 41.0935 57.8333C42.3961 59.2397 43.8121 59.6775 45.9349 59.3265C46.9577 59.1576 47.3629 59.236 47.8478 59.6992C48.8718 60.6761 48.4834 62.0306 47.0216 62.577C45.9903 62.9605 44.6998 63.0631 43.332 62.8665Z" fill="#D1DCDF"/>
<path d="M63.4346 76.1266C59.9187 75.6562 57.0083 73.4345 56.0193 70.4662C55.1883 67.972 55.678 66.0446 57.1868 65.8745C57.8683 65.7973 58.3122 65.9204 58.7379 66.3051C59.1745 66.6995 59.2867 66.9914 59.3832 67.972C59.663 70.8425 61.781 72.7699 64.6564 72.7699C65.6936 72.7699 66.3389 72.63 67.2121 72.2151C68.9019 71.413 69.7956 69.8861 69.6955 67.9768C69.628 66.6983 69.0973 65.7238 68.0323 64.9229C67.2001 64.2981 66.053 63.7723 63.8893 63.0293C60.8957 61.9992 59.5388 61.3395 58.2627 60.295C55.8903 58.3519 54.9929 54.783 56.0386 51.4589C56.4849 50.0405 57.0771 49.0684 58.1674 47.9648C59.7933 46.3196 61.91 45.4742 64.3946 45.4766C68.8766 45.4814 72.5118 48.2603 73.332 52.3081C73.4598 52.9389 73.4864 53.4165 73.443 54.3235C73.3537 56.1942 72.8918 57.533 72.0414 58.3833C71.0862 59.3385 69.6196 59.1697 69.0466 58.0371C68.762 57.4727 68.7692 57.1362 69.0828 56.4028C69.5508 55.3089 69.7148 54.6757 69.7148 53.9604C69.7148 52.5879 69.2553 51.4396 68.3121 50.4579C67.621 49.739 66.8503 49.3012 65.7986 49.0322C63.0944 48.3411 60.4759 49.7137 59.6184 52.2719C59.3132 53.1813 59.3132 54.5611 59.616 55.4138C59.9006 56.2147 60.4313 56.9601 61.1007 57.4992C61.8545 58.1071 63.519 58.9092 65.3631 59.5544C68.3423 60.5965 69.3518 61.0681 70.6182 62.0065C71.9136 62.9666 72.6964 64.0762 73.1909 65.6526C73.3899 66.2882 73.4225 66.5958 73.4225 67.8743C73.4225 69.1226 73.3875 69.4796 73.1993 70.1285C72.3189 73.1643 69.9693 75.2955 66.7454 75.9818C65.8673 76.17 64.2752 76.2387 63.4346 76.1266Z" fill="#D1DCDF"/>
<path d="M83.1447 62.8739C80.0196 62.4156 77.3951 60.4701 76.1251 57.6683C75.159 55.537 75.1795 52.7376 76.1781 50.5763C77.2685 48.2159 79.2984 46.4839 81.8276 45.7542C82.9023 45.4442 85.3821 45.4225 86.5255 45.7132C90.3054 46.6732 92.7563 49.5402 92.7901 53.0404C92.7985 53.8473 92.772 53.9799 92.509 54.4588C92.3341 54.7772 92.0543 55.1016 91.8035 55.2741C91.0448 55.7964 90.5551 55.8591 87.2178 55.8591C84.2772 55.8591 84.182 55.853 83.7586 55.6371C83.1761 55.3392 82.9421 54.9943 82.8914 54.355C82.8564 53.9257 82.8902 53.7713 83.0808 53.4951C83.5922 52.7497 83.591 52.7497 86.3433 52.6954C88.6712 52.6484 88.8255 52.6339 88.963 52.4482C89.2634 52.0405 88.8569 50.9803 88.1151 50.2397C87.213 49.3376 85.8959 48.837 84.4352 48.8418C82.8986 48.8467 81.8324 49.2797 80.7903 50.3218C78.6507 52.4626 78.6073 55.8229 80.6914 57.9481C81.7552 59.0324 82.9517 59.5197 84.5498 59.5197C86.1359 59.5197 86.7703 59.3038 89.2453 57.9264C91.4127 56.7202 93.0832 58.954 91.2776 60.6426C89.4479 62.354 86.0165 63.2948 83.1447 62.8739Z" fill="#D1DCDF"/>
</g>
<defs>
<clipPath id="clip0_946_22235">
<rect width="109.882" height="109.882" fill="white"/>
</clipPath>
</defs>
</svg>
