<svg width="190" height="18" viewBox="0 0 190 18" fill="none" xmlns="http://www.w3.org/2000/svg">
<path d="M58.9854 13.7608C58.4872 14.6926 57.4078 14.9467 55.5811 14.9467H51.7616V4.27372C51.7616 3.00312 52.0107 2.83371 53.5053 2.83371H54.6677V1.05488H45.2852V2.83371H46.1155C47.444 2.83371 48.1913 3.00312 48.1913 4.35842V13.6761C48.1913 15.0314 47.6101 15.2008 46.2816 15.2008H45.3682V16.9796H61.4763V10.542H59.6496C59.6496 11.982 59.4836 12.9985 58.9854 13.7608ZM38.4766 14.9467H33.4947V9.44079H34.6571C36.6499 9.44079 36.899 9.77962 36.982 12.5749H38.8087V4.52783H36.982C36.816 6.89961 36.5669 7.57726 34.5741 7.57726H33.4117V2.83371H37.8123C40.9675 2.83371 41.7979 3.42665 41.9639 7.15373H43.7076V0.970174H20.6248V2.749H21.7042C22.6176 2.749 23.0327 2.91842 23.0327 3.42665C23.0327 3.68077 23.0327 4.1043 22.8667 4.61254L19.7945 12.7443H19.6284C18.2169 8.67844 16.3902 4.1043 16.3902 4.1043C16.3072 3.85018 16.2242 3.59607 16.2242 3.42665C16.2242 2.91842 16.5563 2.749 17.3036 2.749H18.6321V0.970174H10.3289V2.749H11.4083C12.7368 2.749 13.152 3.42665 13.3181 4.69725L10.2459 12.6596H9.99679C8.58526 8.33961 6.75856 4.0196 6.75856 4.0196C6.67553 3.76548 6.67553 3.59607 6.67553 3.51136C6.67553 3.00312 7.00766 2.749 7.921 2.749H8.66829V0.970174H0.697266V2.749H1.02939C2.19183 2.749 2.93912 3.51136 3.52034 4.86666L8.1701 16.8949H11.0762L14.4805 8.00079L18.0508 16.8102H20.8739L25.3576 4.69725C25.8558 3.25724 26.354 2.749 27.5995 2.749H27.8486C29.1771 2.749 29.9244 2.91842 29.9244 4.18901V13.5914C29.9244 14.9467 29.1771 15.0314 27.8486 15.0314H26.9352V16.8102H44.0397V10.3726H42.213C41.9639 13.5914 41.2997 14.9467 38.4766 14.9467ZM75.7577 13.7608C75.2595 14.6926 74.1801 14.9467 72.3534 14.9467H68.534V4.27372C68.534 3.00312 68.7831 2.83371 70.2777 2.83371H71.4401V1.05488H62.0575V2.83371H63.0539C64.3824 2.83371 65.0467 3.00312 65.0467 4.35842V13.6761C65.0467 15.0314 64.4654 15.2008 63.0539 15.2008H62.8048V16.9796H78.2487V10.542H76.422C76.422 11.982 76.2559 12.9985 75.7577 13.7608ZM88.2955 7.15373L85.0573 6.56078C83.5627 6.30666 82.4003 6.13725 82.4003 4.95136C82.4003 3.68077 83.6457 2.57959 85.4724 2.49488C88.0464 2.41018 91.0355 3.34195 91.3676 6.47608H93.1113V0.885467H91.6998L90.9525 2.24077C89.2919 0.885468 87.05 0.631348 85.3894 0.631348C81.9021 0.631348 79.3281 2.57959 79.4111 5.4596C79.4941 8.08549 80.8227 9.27138 84.8082 10.0337L87.4652 10.542C89.2919 10.8808 91.4507 10.7114 91.2016 12.7443C91.0355 14.5232 89.2919 15.1161 86.8009 15.0314C83.9778 14.862 81.9021 13.5914 81.4039 10.542H79.5772V16.8949H81.1548L81.653 15.2008C82.1512 15.7091 84.5591 17.1491 87.133 17.1491C91.2846 17.1491 94.1077 15.8785 94.1077 12.2361C94.1907 8.42432 91.6167 7.74667 88.2955 7.15373ZM109.219 7.57726H107.974V2.83371H111.876C113.703 2.83371 114.783 3.00312 115.364 3.93489C115.779 4.78195 116.028 5.88313 116.028 7.15373H117.855V0.970174H101.83V2.749H102.743C104.071 2.749 104.57 2.91842 104.57 4.18901V13.5914C104.57 14.9467 104.071 15.0314 102.743 15.0314H101.83V16.8102H111.461V15.0314H109.635C108.306 15.0314 108.057 14.862 108.057 13.5914V9.44079H109.302C111.212 9.44079 111.544 9.94903 111.544 12.6596H113.039V4.69725H111.627C111.461 7.23843 111.212 7.57726 109.219 7.57726ZM150.486 12.3208C150.569 14.1843 150.486 14.9467 149.573 14.9467C149.075 14.9467 148.742 14.5232 148.659 13.5914V12.5749C148.493 10.4573 148.161 9.44079 145.338 8.76314C148.327 8.33961 150.071 6.98431 150.071 4.69725C150.071 2.15606 148.244 0.885467 144.259 0.885467H133.548V2.6643H134.793C136.122 2.6643 136.371 2.83371 136.371 4.1043V13.5067C136.371 14.6926 135.623 15.0314 134.71 15.0314H133.631C132.717 15.0314 132.219 14.6926 131.804 13.5067L126.822 0.970174H123.003L117.772 13.5067C117.273 14.6079 116.941 15.0314 115.696 15.0314H114.949V16.8102H123.086V15.0314H121.425C120.595 15.0314 120.18 15.0314 120.18 14.5232C120.18 14.3538 120.263 14.0996 120.346 13.7608L121.093 11.8126H127.154L127.818 13.6761C127.963 13.9046 128.049 14.1669 128.068 14.4385C128.068 14.9467 127.652 15.1161 126.739 15.1161H125.078V16.8949H142.764V15.1161H141.353C140.024 15.1161 139.775 14.9467 139.775 13.6761V9.44079H141.353C144.01 9.44079 144.923 9.94903 145.006 12.6596L145.089 14.5232C145.172 16.7255 146.584 17.3185 148.742 17.3185C150.652 17.3185 151.898 16.1326 151.898 13.2526V12.4055H150.486V12.3208ZM122.006 9.94903L124.331 3.85018L126.739 9.94903H122.006ZM143.262 7.57726H139.858V2.749H143.179C145.421 2.749 146.418 3.25724 146.418 5.12078C146.501 6.89961 145.421 7.57726 143.262 7.57726ZM162.443 10.2879H163.19C164.684 10.2879 164.934 10.2879 164.934 11.389V12.2361C164.934 14.0996 163.024 15.1161 160.948 15.1161C158.042 15.1161 156.464 12.829 156.464 8.76314C156.464 4.69725 158.457 2.57959 160.948 2.57959C163.522 2.57959 165.1 3.68077 165.847 6.05255H167.424V0.716054H166.179L165.349 2.32547C164.186 1.05488 162.194 0.631348 160.367 0.631348C158.208 0.631348 156.215 1.3937 154.887 2.749C153.309 4.35842 152.562 6.30666 152.562 8.76314C152.562 11.2196 153.392 13.3373 154.97 14.9467C156.381 16.4714 158.208 17.2338 160.367 17.2338C162.194 17.2338 164.269 16.7255 165.681 15.5396L166.511 16.8949H167.757V11.5584C167.757 10.2032 167.923 10.2879 169.085 10.2879H169.666V8.42432H162.443V10.2879ZM180.128 0.631348C174.98 0.631348 170.995 3.85018 170.995 8.84785C170.995 13.8455 174.98 17.1491 180.211 17.1491C185.359 17.1491 189.262 13.8455 189.262 8.84785C189.179 3.85018 185.276 0.631348 180.128 0.631348ZM185.359 8.93256C185.359 13.0832 183.117 15.2855 180.128 15.2855C177.056 15.2855 174.814 13.0832 174.814 8.93256C174.814 4.78195 177.139 2.57959 180.128 2.57959C183.117 2.57959 185.359 4.78195 185.359 8.93256Z" fill="#0D4856"/>
</svg>
