<svg width="129" height="53" viewBox="0 0 129 53" fill="none" xmlns="http://www.w3.org/2000/svg">
<path d="M66.1117 0.916741C70.6854 0.75846 75.2889 1.44626 79.6037 2.97727C86.0931 5.25557 91.8938 9.43131 96.1385 14.8397C98.0054 17.2166 99.5695 19.8163 100.795 22.5792C101.012 23.0397 101.178 23.5548 101.063 24.0661C100.92 24.9256 100.167 25.6355 99.3022 25.7208C98.4024 25.8523 97.4729 25.2911 97.1534 24.445C94.715 18.7085 90.5556 13.727 85.3679 10.2784C82.1505 8.12994 78.5721 6.57924 74.8045 5.70067C69.9378 4.56759 64.8761 4.56628 60.0088 5.69683C53.0877 7.29116 46.7499 11.2607 42.2807 16.7775C40.384 19.1058 38.8222 21.6879 37.6407 24.4488C37.3855 25.0896 36.7994 25.5923 36.1155 25.7045C35.7839 25.7661 35.4423 25.7442 35.1213 25.6409C34.8003 25.5376 34.51 25.3561 34.2766 25.1127C34.009 24.8364 33.8255 24.4899 33.7474 24.1133C33.6693 23.7368 33.6998 23.3458 33.8353 22.9859C37.0824 15.3107 43.0941 8.86246 50.4843 5.02438C55.3205 2.50404 60.6603 1.10008 66.1107 0.915782L66.1117 0.916741Z" fill="#0D4856"/>
<path d="M60.0666 24.5487C60.0388 24.1497 60.4158 23.8513 60.7899 23.8427C61.2753 23.8293 61.7626 23.8331 62.2489 23.8398C62.5876 23.8513 62.9818 24.0768 62.9809 24.4566C62.9981 28.9173 62.9703 33.3779 62.9953 37.8415C64.8025 35.8318 66.6251 33.8336 68.4391 31.8297C68.7959 31.4776 69.0779 30.9442 69.6343 30.8982C70.3825 30.8675 71.1327 30.8857 71.8819 30.8867C72.1706 30.8608 72.4929 31.1256 72.3922 31.4335C72.2732 31.6714 72.0564 31.8345 71.879 32.0234C69.9173 33.9832 67.9489 35.9354 65.9987 37.9038C67.8827 40.0555 69.7417 42.2283 71.6171 44.3886C71.8588 44.6955 72.161 44.9555 72.3634 45.2951C72.5121 45.5598 72.2656 45.8822 71.9816 45.8946C71.3581 45.9292 70.7346 45.8946 70.1101 45.909C69.7849 45.9013 69.4338 45.9493 69.1393 45.7814C68.8285 45.603 68.6405 45.2845 68.417 45.0159C66.6078 42.7376 64.8102 40.4498 62.9943 38.1753C62.9751 40.4181 62.9885 42.6609 62.9866 44.9027C62.9799 45.1617 63.0327 45.4735 62.8072 45.6615C62.4485 46.0078 61.9151 45.887 61.4671 45.909C61.07 45.8956 60.6057 45.9829 60.2825 45.6893C60.1031 45.5493 60.0561 45.3104 60.0618 45.0984C60.0676 38.2472 60.0609 31.398 60.0666 24.5487ZM51.8227 30.8493C52.7302 30.5577 53.7527 30.502 54.642 30.8867C54.9537 31.0325 55.3163 31.3452 55.1753 31.7299C55.0324 32.2134 54.9115 32.7016 54.7417 33.1765C54.6161 33.517 54.2209 33.6437 53.888 33.5765C53.1398 33.4489 52.405 33.2014 51.6376 33.2264C51.1013 33.2139 50.6073 33.5007 50.2409 33.8729C49.65 34.4514 49.344 35.26 49.2068 36.062C49.0984 36.6414 49.1301 37.2323 49.1243 37.8184V45.202C49.1588 45.6068 48.7406 45.8822 48.3751 45.8956C47.8734 45.9023 47.3727 45.909 46.871 45.8918C46.5093 45.8726 46.1017 45.6088 46.1487 45.2011C46.1467 40.6445 46.1439 36.0889 46.1487 31.5323C46.1189 31.0795 46.6206 30.833 47.0139 30.8752C47.5079 30.9078 48.1833 30.7217 48.5037 31.2196C48.7483 31.7951 48.8634 32.4187 49.0926 33C49.7814 32.0551 50.6946 31.2215 51.8227 30.8493ZM0.673828 31.1965C0.812921 31.0373 0.975996 30.8637 1.20814 30.88C1.88921 30.8742 2.57125 30.8589 3.25137 30.8896C3.5967 30.9001 3.8346 31.2042 3.88448 31.5246C4.55405 34.2451 5.21114 36.9704 5.87687 39.691C6.07256 40.5313 6.31046 41.3639 6.43708 42.2187C6.5685 42.9861 6.5944 43.766 6.72006 44.5353C6.89177 43.437 7.04621 42.3319 7.34167 41.2594C8.21268 38.0113 9.08273 34.7641 9.9547 31.5169C10.0218 31.1467 10.371 30.8838 10.7413 30.8838C11.4991 30.8646 12.2569 30.8771 13.0148 30.8771C13.4215 30.8579 13.856 31.0958 13.9539 31.5112C14.6042 33.8796 15.247 36.251 15.8945 38.6214C16.2878 40.1562 16.8029 41.6652 17.0254 43.2393C17.0868 43.6729 17.1463 44.1085 17.2365 44.5392C17.4801 42.0642 18.1171 39.6574 18.6408 37.2352C19.0725 35.3071 19.4946 33.3779 19.933 31.4507C19.9972 31.0632 20.4068 30.8685 20.7675 30.879C21.3795 30.8752 21.9935 30.8579 22.6055 30.8886C22.9681 30.8992 23.1772 31.3011 23.0486 31.6253C21.8208 36.1599 20.5958 40.6982 19.366 45.2337C19.3337 45.4122 19.2413 45.5742 19.1041 45.6929C18.967 45.8115 18.7933 45.8797 18.6121 45.886C17.6624 45.9177 16.7118 45.8946 15.763 45.8994C15.4225 45.9205 15.0628 45.7383 15.0023 45.3795C14.1524 42.2618 13.3198 39.1365 12.4776 36.016C12.1735 34.9301 12.0497 33.8048 11.9212 32.6873C11.7658 33.682 11.6881 34.6922 11.4224 35.6697C10.561 38.8832 9.69474 42.0978 8.83044 45.3123C8.73356 45.8332 8.13786 45.9359 7.69564 45.9023C6.81311 45.887 5.93059 45.9234 5.04807 45.887C4.73343 45.887 4.4917 45.6433 4.43414 45.3459C3.19669 40.8287 1.96212 36.3095 0.721791 31.7951C0.678624 31.5975 0.683421 31.3961 0.674787 31.1975L0.673828 31.1965ZM112.006 30.8886C112.651 30.8763 113.297 30.8763 113.943 30.8886C114.334 30.8944 114.703 31.163 114.827 31.5371C115.94 34.4466 117.045 37.3599 118.156 40.2713C118.389 40.8613 118.551 41.4771 118.655 42.1036C119.115 40.3769 119.727 38.6972 120.264 36.9935C120.862 35.1517 121.46 33.3089 122.061 31.4661C122.15 31.1457 122.456 30.927 122.78 30.9001C123.307 30.8608 123.836 30.8944 124.363 30.8809C124.672 30.8838 125.038 30.8483 125.274 31.0958C125.426 31.2244 125.393 31.4383 125.33 31.6061C123.552 36.6798 121.778 41.7553 120.001 46.8309C119.693 47.676 119.456 48.5614 118.959 49.3221C118.246 50.48 117.09 51.3136 115.82 51.7645C115.376 51.9026 114.918 52.2067 114.441 52.0359C114.102 51.9496 113.972 51.5975 113.791 51.3385C113.662 51.1035 113.422 50.8867 113.472 50.5941C113.496 50.3044 113.728 50.0685 114.001 49.9908C114.536 49.8066 115.081 49.6022 115.515 49.2243C116.57 48.3322 117.221 47.0132 117.47 45.6711C117.301 45.0744 116.99 44.5267 116.764 43.9502C115.068 40.0075 113.372 36.0649 111.671 32.1232C111.569 31.8661 111.418 31.6196 111.389 31.3404C111.393 31.0335 111.746 30.8972 112.006 30.8886ZM32.9204 32.7957C31.9947 32.9683 31.1506 33.5439 30.6815 34.3641C29.8968 35.6946 29.8057 37.2995 29.8412 38.8084C29.8978 40.1744 30.1165 41.6316 30.9885 42.7357C31.6379 43.5665 32.7055 43.9828 33.7444 43.9674C34.743 43.9991 35.7896 43.6605 36.4668 42.9017C37.3311 41.9558 37.6083 40.6435 37.7282 39.4061C37.7801 38.1897 37.805 36.9522 37.4894 35.7656C37.239 34.7622 36.7095 33.7607 35.7925 33.2197C34.9397 32.6969 33.8864 32.6479 32.9204 32.7957ZM33.3108 30.6325C34.9848 30.5289 36.7393 30.8771 38.1206 31.869C39.3571 32.7477 40.1964 34.1032 40.5888 35.5565C41.055 37.2908 41.0531 39.1423 40.63 40.8853C40.2319 42.493 39.3005 44.0077 37.8961 44.9219C36.3939 45.9177 34.508 46.1767 32.7458 45.9647C31.2446 45.7795 29.7817 45.1205 28.7361 44.0144C27.5083 42.728 26.8982 40.9543 26.7715 39.2017C26.6171 37.2582 26.9154 35.2015 27.9956 33.541C28.7956 32.292 30.0676 31.374 31.4854 30.9558C32.0772 30.7706 32.694 30.6843 33.3108 30.6325ZM82.6966 32.716C81.7786 32.7755 80.8932 33.3041 80.4826 34.1415C79.6826 35.6908 79.6663 37.4942 79.7056 39.1969C79.7699 40.3107 79.8908 41.4608 80.4097 42.4652C80.7598 43.1425 81.3978 43.6768 82.1508 43.8408C83.3038 44.118 84.6602 43.883 85.4794 42.9727C86.2689 42.0738 86.5289 40.8517 86.6497 39.6948C86.7332 38.3768 86.738 37.0309 86.4109 35.7406C86.1864 34.8773 85.8056 34.0159 85.1216 33.4163C84.4664 32.8388 83.5532 32.6163 82.6966 32.716ZM86.6459 24.3578C86.6248 24.0087 86.9816 23.7851 87.2924 23.7583C87.7903 23.7305 88.2881 23.7439 88.787 23.7487C89.1668 23.7458 89.5908 24.0278 89.5361 24.449C89.5361 31.3318 89.5371 38.2127 89.5352 45.0927C89.5611 45.4486 89.211 45.7248 88.8829 45.745C88.4867 45.767 88.0896 45.767 87.6953 45.7392C87.4171 45.722 87.1466 45.5435 87.0526 45.2769C86.903 44.8298 86.8253 44.3655 86.7121 43.9108C86.1624 44.6562 85.4545 45.3152 84.5739 45.6433C83.3182 46.1047 81.9205 46.1133 80.6313 45.7977C79.9849 45.6369 79.3793 45.3425 78.8536 44.9334C78.3279 44.5243 77.8937 44.0096 77.5789 43.4226C76.5976 41.6325 76.4815 39.5269 76.5429 37.5297C76.5775 35.8231 76.9036 34.0235 78.0144 32.669C78.8528 31.5217 80.2275 30.8627 81.6145 30.691C82.9067 30.502 84.3062 30.7198 85.3749 31.5016C85.8813 31.8565 86.2862 32.3342 86.6478 32.8331C86.6373 30.0089 86.6401 27.1829 86.6459 24.3578ZM100.543 32.8024C100.082 32.8964 99.6362 33.0806 99.264 33.3693C98.5196 33.9487 98.1494 34.8696 97.9518 35.7646C97.664 37.1834 97.6688 38.6492 97.8175 40.0833C97.9566 41.1385 98.2204 42.2628 98.9935 43.0427C99.6238 43.7036 100.572 43.9454 101.461 43.9022C102.416 43.9367 103.41 43.5808 104.027 42.8307C104.797 41.8983 105.015 40.6589 105.127 39.4924C105.198 38.1187 105.199 36.7124 104.813 35.38C104.57 34.5492 104.124 33.7233 103.372 33.2504C102.544 32.7064 101.497 32.6566 100.543 32.8024ZM99.264 30.9183C100.597 30.5546 102 30.5263 103.347 30.8358C104.591 31.1236 105.756 31.822 106.521 32.8561C107.329 33.9171 107.737 35.2313 107.907 36.5416C108.055 37.5518 108.013 38.5753 108.013 39.5922C108.013 41.4292 108.013 43.2662 108.009 45.1023C108.028 45.3258 107.887 45.5243 107.705 45.6414C107.397 45.8304 107.014 45.7469 106.671 45.768C106.285 45.7651 105.778 45.7997 105.567 45.3977C105.363 44.9267 105.321 44.4001 105.189 43.9041C104.671 44.5325 104.136 45.1809 103.388 45.5445C102.247 46.1086 100.915 46.075 99.6947 45.8371C98.2021 45.5416 96.8265 44.6591 95.9824 43.3871C94.9771 41.9059 94.6126 40.0776 94.626 38.3096C94.6135 36.5867 94.9512 34.8063 95.9085 33.3482C96.675 32.1568 97.9038 31.2944 99.264 30.9183ZM125.963 42.2024C125.205 42.4806 124.728 43.3545 124.921 44.1439C125.119 45.0706 126.197 45.7037 127.096 45.3603C127.926 45.1071 128.449 44.1612 128.192 43.3276C127.965 42.3894 126.852 41.835 125.963 42.2024ZM126.069 41.8062C126.518 41.7352 127.006 41.7294 127.423 41.9386C128.133 42.2609 128.644 43.0235 128.568 43.8168C128.627 44.7636 127.831 45.6097 126.922 45.7622C125.9 45.979 124.799 45.2385 124.591 44.2178C124.322 43.1914 125.036 42.0354 126.069 41.8062Z" fill="#0D4856"/>
<path d="M126.281 42.9586C126.279 43.1735 126.278 43.3884 126.281 43.6042C126.469 43.5927 126.662 43.6042 126.849 43.5524C127.023 43.4805 127.006 43.2579 126.958 43.1092C126.778 42.9327 126.509 42.9788 126.281 42.9586ZM125.712 42.6085C126.256 42.6392 126.865 42.4867 127.354 42.7898C127.749 43.0862 127.557 43.7299 127.112 43.868C127.241 44.2076 127.419 44.5232 127.582 44.8465L126.972 44.858C126.826 44.5577 126.683 44.2558 126.543 43.9524L126.281 43.9476C126.279 44.2498 126.279 44.552 126.279 44.8542L125.709 44.8474C125.711 44.1011 125.709 43.3539 125.712 42.6085Z" fill="#0D4856"/>
</svg>
