<svg width="110" height="110" viewBox="0 0 110 110" fill="none" xmlns="http://www.w3.org/2000/svg">
<g clip-path="url(#clip0_946_22242)">
<mask id="mask0_946_22242" style="mask-type:luminance" maskUnits="userSpaceOnUse" x="-25" y="-25" width="160" height="160">
<path d="M-24.1826 -24.311H134.164V134.036H-24.1826V-24.311Z" fill="white"/>
</mask>
<g mask="url(#mask0_946_22242)">
<path d="M54.9409 109.672C85.1683 109.672 109.672 85.1685 109.672 54.9409C109.672 24.7137 85.1683 0.209648 54.9409 0.209648C24.7135 0.209648 0.209473 24.7137 0.209473 54.9409C0.209473 85.1685 24.7135 109.672 54.9409 109.672Z" fill="#0D4856"/>
<path d="M26.4084 54.7825L35.7487 45.419C36.0584 45.1034 36.2312 44.6856 36.2312 44.2424C36.2312 43.3188 35.4804 42.5688 34.5568 42.5688C34.107 42.5688 33.6852 42.7451 33.3672 43.0671C33.3663 43.069 24.0352 52.3946 24.0352 52.3946L14.6615 43.0531C14.3448 42.7409 13.9251 42.5688 13.4801 42.5688C12.5576 42.5688 11.8066 43.3185 11.8066 44.2411C11.8066 44.6912 11.9863 45.1135 12.3088 45.4317L21.6479 54.7694L12.3137 64.1212C11.9856 64.4442 11.8066 64.8675 11.8066 65.3196C11.8066 66.2429 12.5576 66.9921 13.4801 66.9921C13.9258 66.9921 14.3459 66.8191 14.6615 66.5033L24.0207 57.1568L33.3443 66.4692C33.675 66.8111 34.1016 66.9932 34.5568 66.9932C35.4795 66.9932 36.2303 66.2429 36.2303 65.3196C36.2303 64.874 36.0576 64.4554 35.7435 64.1398L26.4084 54.7825Z" fill="white"/>
<path d="M81.9355 54.7797C81.9355 56.4567 83.2991 57.8208 84.9781 57.8208C86.6532 57.8208 88.0173 56.4567 88.0173 54.7797C88.0173 53.1024 86.6532 51.7385 84.9781 51.7385C83.2991 51.7385 81.9355 53.1024 81.9355 54.7797Z" fill="white"/>
<path d="M76.1676 54.7814C76.1676 49.9252 80.1181 45.9739 84.9749 45.9739C89.8292 45.9739 93.7807 49.9252 93.7807 54.7814C93.7807 59.6364 89.8292 63.586 84.9749 63.586C80.1181 63.586 76.1676 59.6364 76.1676 54.7814ZM72.7031 54.7814C72.7031 61.5469 78.2082 67.0513 84.9749 67.0513C91.7414 67.0513 97.2493 61.5469 97.2493 54.7814C97.2493 48.0149 91.7414 42.509 84.9749 42.509C78.2082 42.509 72.7031 48.0149 72.7031 54.7814Z" fill="white"/>
<path d="M71.8321 42.719L71.3172 42.7175C69.7715 42.7175 68.2808 43.205 67.0356 44.1645C66.8716 43.4138 66.2005 42.8488 65.4012 42.8488C64.4811 42.8488 63.7439 43.586 63.7417 44.5079C63.7417 44.5112 63.7473 65.1765 63.7473 65.1765C63.7497 66.0967 64.5003 66.8447 65.4209 66.8447C66.3413 66.8447 67.0917 66.0967 67.0941 65.1745C67.0941 65.1704 67.0949 52.4659 67.0949 52.4659C67.0949 48.2301 67.4822 46.5195 71.1105 46.0661C71.4459 46.0243 71.8107 46.0309 71.8121 46.0309C72.805 45.9968 73.5105 45.3145 73.5105 44.3925C73.5105 43.4698 72.7573 42.719 71.8321 42.719Z" fill="white"/>
<path d="M39.6979 52.7613C39.6979 52.7154 39.7015 52.6678 39.7037 52.6207C40.6753 48.7798 44.1538 45.9376 48.2965 45.9376C52.4892 45.9376 55.9995 48.8497 56.9214 52.7613H39.6979ZM60.3485 52.4453C59.6273 49.0308 57.758 46.2262 54.9115 44.4251C50.7506 41.7834 45.2561 41.9296 41.2371 44.7876C37.9588 47.1198 36.0664 50.935 36.0664 54.865C36.0664 55.8504 36.1852 56.8451 36.4325 57.8241C37.6704 62.6937 41.8566 66.38 46.8476 66.9909C48.3287 67.1703 49.7703 67.0844 51.2631 66.6979C52.5458 66.3858 53.7871 65.8655 54.9307 65.1326C56.1178 64.3696 57.1095 63.3633 58.0699 62.1588C58.0893 62.1366 58.1088 62.1171 58.1282 62.0938C58.7948 61.267 58.6712 60.0914 57.9387 59.5301C57.3208 59.0566 56.2837 58.8646 55.4675 59.9098C55.2921 60.1597 55.0964 60.4168 54.881 60.674C54.2321 61.3911 53.4269 62.0858 52.4622 62.6247C51.2346 63.2805 49.8356 63.6553 48.3484 63.6637C43.4807 63.6095 40.8759 60.2116 39.9493 57.7863C39.7875 57.3335 39.6627 56.8637 39.5758 56.3799C39.5644 56.2894 39.5561 56.2021 39.5527 56.1217C40.5591 56.1217 57.0209 56.1189 57.0209 56.1189C59.4156 56.0686 60.7045 54.3782 60.3485 52.4453Z" fill="white"/>
</g>
</g>
<defs>
<clipPath id="clip0_946_22242">
<rect width="109.882" height="109.882" fill="white"/>
</clipPath>
</defs>
</svg>
