<svg width="1345" height="718" viewBox="0 0 1345 718" fill="none" xmlns="http://www.w3.org/2000/svg">
<rect x="1" y="0.866638" width="89.5333" height="89.5333" fill="#183B46"/>
<rect x="1" y="0.866638" width="89.5333" height="89.5333" stroke="#183B46"/>
<rect width="2.27649" height="2.27649" transform="translate(44.8633 44.7284)" fill="#183B46"/>
<path d="M1 8.86663C1 4.44835 4.58172 0.866638 9 0.866638H82.5333C86.9516 0.866638 90.5333 4.44836 90.5333 8.86664V82.4C90.5333 86.8183 86.9516 90.4 82.5333 90.4H8.99999C4.58171 90.4 1 86.8183 1 82.4V8.86663Z" fill="#01242D"/>
<path d="M1 8.86663C1 4.44835 4.58172 0.866638 9 0.866638H82.5333C86.9516 0.866638 90.5333 4.44836 90.5333 8.86664V82.4C90.5333 86.8183 86.9516 90.4 82.5333 90.4H8.99999C4.58171 90.4 1 86.8183 1 82.4V8.86663Z" stroke="#183B46"/>
<rect width="2.27649" height="2.27649" transform="translate(44.8633 44.7284)" fill="#183B46"/>
<rect x="90.5332" y="0.866638" width="89.5333" height="89.5333" fill="#183B46"/>
<rect x="90.5332" y="0.866638" width="89.5333" height="89.5333" stroke="#183B46"/>
<rect width="2.27649" height="2.27649" transform="translate(134.396 44.7284)" fill="#183B46"/>
<rect x="90.5332" y="0.866638" width="89.5333" height="89.5333" rx="16" fill="#01242D"/>
<rect x="90.5332" y="0.866638" width="89.5333" height="89.5333" rx="16" stroke="#183B46"/>
<rect width="2.27649" height="2.27649" transform="translate(134.396 44.7284)" fill="#183B46"/>
<rect width="89.5333" height="89.5333" transform="translate(180.066 0.866638)" fill="#183B46"/>
<rect width="2.27649" height="2.27649" transform="translate(223.93 44.7284)" fill="#183B46"/>
<rect x="180.066" y="0.866638" width="89.5333" height="89.5333" rx="8" fill="#01242D"/>
<rect x="180.066" y="0.866638" width="89.5333" height="89.5333" rx="8" stroke="#183B46"/>
<rect width="2.27649" height="2.27649" transform="translate(223.93 44.7284)" fill="#183B46"/>
<rect x="269.6" y="0.866638" width="89.5333" height="89.5333" fill="#183B46"/>
<rect x="269.6" y="0.866638" width="89.5333" height="89.5333" stroke="#183B46"/>
<rect width="2.27649" height="2.27649" transform="translate(313.463 44.7284)" fill="#183B46"/>
<rect x="269.6" y="0.866638" width="89.5333" height="89.5333" rx="8" fill="#01242D"/>
<rect x="269.6" y="0.866638" width="89.5333" height="89.5333" rx="8" stroke="#183B46"/>
<rect width="2.27649" height="2.27649" transform="translate(313.463 44.7284)" fill="#183B46"/>
<rect x="359.133" y="0.866638" width="89.5333" height="89.5333" fill="#183B46"/>
<rect x="359.133" y="0.866638" width="89.5333" height="89.5333" stroke="#183B46"/>
<rect width="2.27649" height="2.27649" transform="translate(402.996 44.7284)" fill="#183B46"/>
<path d="M359.133 8.86663C359.133 4.44835 362.715 0.866638 367.133 0.866638H440.666C445.084 0.866638 448.666 4.44836 448.666 8.86664V82.4C448.666 86.8183 445.084 90.4 440.666 90.4H367.133C362.715 90.4 359.133 86.8183 359.133 82.4V8.86663Z" fill="#01242D"/>
<path d="M359.133 8.86663C359.133 4.44835 362.715 0.866638 367.133 0.866638H440.666C445.084 0.866638 448.666 4.44836 448.666 8.86664V82.4C448.666 86.8183 445.084 90.4 440.666 90.4H367.133C362.715 90.4 359.133 86.8183 359.133 82.4V8.86663Z" stroke="#183B46"/>
<rect width="2.27649" height="2.27649" transform="translate(402.996 44.7284)" fill="#183B46"/>
<rect x="448.666" y="0.866638" width="89.5333" height="89.5333" fill="#183B46"/>
<rect x="448.666" y="0.866638" width="89.5333" height="89.5333" stroke="#183B46"/>
<rect width="2.27649" height="2.27649" transform="translate(492.529 44.7284)" fill="#183B46"/>
<path d="M448.666 8.86663C448.666 4.44835 452.248 0.866638 456.666 0.866638H530.199C534.618 0.866638 538.199 4.44836 538.199 8.86664V82.4C538.199 86.8183 534.618 90.4 530.199 90.4H456.666C452.248 90.4 448.666 86.8183 448.666 82.4V8.86663Z" fill="#01242D"/>
<path d="M448.666 8.86663C448.666 4.44835 452.248 0.866638 456.666 0.866638H530.199C534.618 0.866638 538.199 4.44836 538.199 8.86664V82.4C538.199 86.8183 534.618 90.4 530.199 90.4H456.666C452.248 90.4 448.666 86.8183 448.666 82.4V8.86663Z" stroke="#183B46"/>
<rect width="2.27649" height="2.27649" transform="translate(492.529 44.7284)" fill="#183B46"/>
<rect x="538.199" y="0.866638" width="89.5333" height="89.5333" fill="#183B46"/>
<rect x="538.199" y="0.866638" width="89.5333" height="89.5333" stroke="#183B46"/>
<rect width="2.27649" height="2.27649" transform="translate(582.062 44.7284)" fill="#183B46"/>
<path d="M538.199 8.86663C538.199 4.44835 541.781 0.866638 546.199 0.866638H619.733C624.151 0.866638 627.733 4.44836 627.733 8.86664V82.4C627.733 86.8183 624.151 90.4 619.733 90.4H546.199C541.781 90.4 538.199 86.8183 538.199 82.4V8.86663Z" fill="#01242D"/>
<path d="M538.199 8.86663C538.199 4.44835 541.781 0.866638 546.199 0.866638H619.733C624.151 0.866638 627.733 4.44836 627.733 8.86664V82.4C627.733 86.8183 624.151 90.4 619.733 90.4H546.199C541.781 90.4 538.199 86.8183 538.199 82.4V8.86663Z" stroke="#183B46"/>
<rect width="2.27649" height="2.27649" transform="translate(582.062 44.7284)" fill="#183B46"/>
<rect x="627.732" y="0.866638" width="89.5333" height="89.5333" fill="#183B46"/>
<rect x="627.732" y="0.866638" width="89.5333" height="89.5333" stroke="#183B46"/>
<rect width="2.27649" height="2.27649" transform="translate(671.596 44.7284)" fill="#183B46"/>
<path d="M627.732 8.86663C627.732 4.44835 631.314 0.866638 635.732 0.866638H709.266C713.684 0.866638 717.266 4.44836 717.266 8.86664V82.4C717.266 86.8183 713.684 90.4 709.266 90.4H635.732C631.314 90.4 627.732 86.8183 627.732 82.4V8.86663Z" fill="#01242D"/>
<path d="M627.732 8.86663C627.732 4.44835 631.314 0.866638 635.732 0.866638H709.266C713.684 0.866638 717.266 4.44836 717.266 8.86664V82.4C717.266 86.8183 713.684 90.4 709.266 90.4H635.732C631.314 90.4 627.732 86.8183 627.732 82.4V8.86663Z" stroke="#183B46"/>
<rect width="2.27649" height="2.27649" transform="translate(671.596 44.7284)" fill="#183B46"/>
<rect x="717.268" y="0.866638" width="89.5333" height="89.5333" fill="#183B46"/>
<rect x="717.268" y="0.866638" width="89.5333" height="89.5333" stroke="#183B46"/>
<rect width="2.27649" height="2.27649" transform="translate(761.131 44.7284)" fill="#183B46"/>
<path d="M717.268 8.86663C717.268 4.44835 720.849 0.866638 725.268 0.866638H798.801C803.219 0.866638 806.801 4.44836 806.801 8.86664V82.4C806.801 86.8183 803.219 90.4 798.801 90.4H725.268C720.849 90.4 717.268 86.8183 717.268 82.4V8.86663Z" fill="#01242D"/>
<path d="M717.268 8.86663C717.268 4.44835 720.849 0.866638 725.268 0.866638H798.801C803.219 0.866638 806.801 4.44836 806.801 8.86664V82.4C806.801 86.8183 803.219 90.4 798.801 90.4H725.268C720.849 90.4 717.268 86.8183 717.268 82.4V8.86663Z" stroke="#183B46"/>
<rect width="2.27649" height="2.27649" transform="translate(761.131 44.7284)" fill="#183B46"/>
<rect x="806.801" y="0.866638" width="89.5333" height="89.5333" fill="#183B46"/>
<rect x="806.801" y="0.866638" width="89.5333" height="89.5333" stroke="#183B46"/>
<rect width="2.27649" height="2.27649" transform="translate(850.664 44.7284)" fill="#183B46"/>
<path d="M806.801 8.86663C806.801 4.44835 810.383 0.866638 814.801 0.866638H888.334C892.752 0.866638 896.334 4.44836 896.334 8.86664V82.4C896.334 86.8183 892.752 90.4 888.334 90.4H814.801C810.382 90.4 806.801 86.8183 806.801 82.4V8.86663Z" fill="#01242D"/>
<path d="M806.801 8.86663C806.801 4.44835 810.383 0.866638 814.801 0.866638H888.334C892.752 0.866638 896.334 4.44836 896.334 8.86664V82.4C896.334 86.8183 892.752 90.4 888.334 90.4H814.801C810.382 90.4 806.801 86.8183 806.801 82.4V8.86663Z" stroke="#183B46"/>
<rect width="2.27649" height="2.27649" transform="translate(850.664 44.7284)" fill="#183B46"/>
<rect x="896.334" y="0.866638" width="89.5333" height="89.5333" fill="#183B46"/>
<rect x="896.334" y="0.866638" width="89.5333" height="89.5333" stroke="#183B46"/>
<rect width="2.27649" height="2.27649" transform="translate(940.197 44.7284)" fill="#183B46"/>
<path d="M896.334 8.86663C896.334 4.44835 899.916 0.866638 904.334 0.866638H977.867C982.286 0.866638 985.867 4.44836 985.867 8.86664V82.4C985.867 86.8183 982.286 90.4 977.867 90.4H904.334C899.916 90.4 896.334 86.8183 896.334 82.4V8.86663Z" fill="#01242D"/>
<path d="M896.334 8.86663C896.334 4.44835 899.916 0.866638 904.334 0.866638H977.867C982.286 0.866638 985.867 4.44836 985.867 8.86664V82.4C985.867 86.8183 982.286 90.4 977.867 90.4H904.334C899.916 90.4 896.334 86.8183 896.334 82.4V8.86663Z" stroke="#183B46"/>
<rect width="2.27649" height="2.27649" transform="translate(940.197 44.7284)" fill="#183B46"/>
<rect x="985.867" y="0.866638" width="89.5333" height="89.5333" fill="#183B46"/>
<rect x="985.867" y="0.866638" width="89.5333" height="89.5333" stroke="#183B46"/>
<rect width="2.27649" height="2.27649" transform="translate(1029.73 44.7284)" fill="#183B46"/>
<rect x="985.867" y="0.866638" width="89.5333" height="89.5333" fill="#01242D"/>
<rect x="985.867" y="0.866638" width="89.5333" height="89.5333" stroke="#183B46"/>
<rect width="2.27649" height="2.27649" transform="translate(1029.73 44.7284)" fill="#183B46"/>
<rect x="1075.4" y="0.866638" width="89.5333" height="89.5333" fill="#183B46"/>
<rect x="1075.4" y="0.866638" width="89.5333" height="89.5333" stroke="#183B46"/>
<rect width="2.27649" height="2.27649" transform="translate(1119.26 44.7284)" fill="#183B46"/>
<rect x="1075.4" y="0.866638" width="89.5333" height="89.5333" rx="15.9354" fill="#01242D"/>
<rect x="1075.4" y="0.866638" width="89.5333" height="89.5333" rx="15.9354" stroke="#183B46"/>
<rect width="2.27649" height="2.27649" transform="translate(1119.26 44.7284)" fill="#183B46"/>
<rect x="1164.93" y="0.866638" width="89.5333" height="89.5333" fill="#183B46"/>
<rect x="1164.93" y="0.866638" width="89.5333" height="89.5333" stroke="#183B46"/>
<rect width="2.27649" height="2.27649" transform="translate(1208.8 44.7284)" fill="#183B46"/>
<path d="M1164.93 8.86663C1164.93 4.44835 1168.52 0.866638 1172.93 0.866638H1246.47C1250.89 0.866638 1254.47 4.44836 1254.47 8.86664V82.4C1254.47 86.8183 1250.89 90.4 1246.47 90.4H1172.93C1168.52 90.4 1164.93 86.8183 1164.93 82.4V8.86663Z" fill="#01242D"/>
<path d="M1164.93 8.86663C1164.93 4.44835 1168.52 0.866638 1172.93 0.866638H1246.47C1250.89 0.866638 1254.47 4.44836 1254.47 8.86664V82.4C1254.47 86.8183 1250.89 90.4 1246.47 90.4H1172.93C1168.52 90.4 1164.93 86.8183 1164.93 82.4V8.86663Z" stroke="#183B46"/>
<rect width="2.27649" height="2.27649" transform="translate(1208.8 44.7284)" fill="#183B46"/>
<rect x="1254.47" y="0.866638" width="89.5333" height="89.5333" fill="#183B46"/>
<rect x="1254.47" y="0.866638" width="89.5333" height="89.5333" stroke="#183B46"/>
<rect width="2.27649" height="2.27649" transform="translate(1298.33 44.7284)" fill="#183B46"/>
<path d="M1254.47 8.86663C1254.47 4.44835 1258.05 0.866638 1262.47 0.866638H1336C1340.42 0.866638 1344 4.44836 1344 8.86664V82.4C1344 86.8183 1340.42 90.4 1336 90.4H1262.47C1258.05 90.4 1254.47 86.8183 1254.47 82.4V8.86663Z" fill="#01242D"/>
<path d="M1254.47 8.86663C1254.47 4.44835 1258.05 0.866638 1262.47 0.866638H1336C1340.42 0.866638 1344 4.44836 1344 8.86664V82.4C1344 86.8183 1340.42 90.4 1336 90.4H1262.47C1258.05 90.4 1254.47 86.8183 1254.47 82.4V8.86663Z" stroke="#183B46"/>
<rect width="2.27649" height="2.27649" transform="translate(1298.33 44.7284)" fill="#183B46"/>
<rect x="1" y="90.4" width="89.5333" height="89.5333" fill="#183B46"/>
<rect x="1" y="90.4" width="89.5333" height="89.5333" stroke="#183B46"/>
<rect width="2.27649" height="2.27649" transform="translate(44.8633 134.262)" fill="#183B46"/>
<path d="M1 98.4C1 93.9817 4.58172 90.4 9 90.4H82.5333C86.9516 90.4 90.5333 93.9817 90.5333 98.4V171.933C90.5333 176.352 86.9516 179.933 82.5333 179.933H8.99999C4.58171 179.933 1 176.352 1 171.933V98.4Z" fill="#01242D"/>
<path d="M1 98.4C1 93.9817 4.58172 90.4 9 90.4H82.5333C86.9516 90.4 90.5333 93.9817 90.5333 98.4V171.933C90.5333 176.352 86.9516 179.933 82.5333 179.933H8.99999C4.58171 179.933 1 176.352 1 171.933V98.4Z" stroke="#183B46"/>
<rect width="2.27649" height="2.27649" transform="translate(44.8633 134.262)" fill="#183B46"/>
<rect x="90.5332" y="90.4" width="89.5333" height="89.5333" fill="#183B46"/>
<rect x="90.5332" y="90.4" width="89.5333" height="89.5333" stroke="#183B46"/>
<rect width="2.27649" height="2.27649" transform="translate(134.396 134.262)" fill="#183B46"/>
<rect x="90.5332" y="90.4" width="89.5333" height="89.5333" rx="8" fill="#01242D"/>
<rect x="90.5332" y="90.4" width="89.5333" height="89.5333" rx="8" stroke="#183B46"/>
<rect width="2.27649" height="2.27649" transform="translate(134.396 134.262)" fill="#183B46"/>
<rect x="180.066" y="90.4" width="89.5333" height="89.5333" fill="#183B46"/>
<rect x="180.066" y="90.4" width="89.5333" height="89.5333" stroke="#183B46"/>
<rect width="2.27649" height="2.27649" transform="translate(223.93 134.262)" fill="#183B46"/>
<rect x="180.066" y="90.4" width="89.5333" height="89.5333" rx="32" fill="#01242D"/>
<rect x="222.791" y="133.123" width="4.55297" height="4.55297" rx="1.13824" fill="#183B46"/>
<rect x="269.6" y="90.4" width="89.5333" height="89.5333" fill="#183B46"/>
<rect x="269.6" y="90.4" width="89.5333" height="89.5333" stroke="#183B46"/>
<rect width="2.27649" height="2.27649" transform="translate(313.463 134.262)" fill="#183B46"/>
<rect x="269.6" y="90.4" width="89.5333" height="89.5333" fill="#01242D"/>
<rect x="269.6" y="90.4" width="89.5333" height="89.5333" stroke="#183B46"/>
<rect width="2.27649" height="2.27649" transform="translate(313.463 134.262)" fill="#183B46"/>
<rect x="359.133" y="90.4" width="89.5333" height="89.5333" fill="#183B46"/>
<rect x="359.133" y="90.4" width="89.5333" height="89.5333" stroke="#183B46"/>
<rect width="2.27649" height="2.27649" transform="translate(402.996 134.262)" fill="#183B46"/>
<rect x="359.133" y="90.4" width="89.5333" height="89.5333" fill="#01242D"/>
<rect x="359.133" y="90.4" width="89.5333" height="89.5333" stroke="#183B46"/>
<rect width="2.27649" height="2.27649" transform="translate(402.996 134.262)" fill="#183B46"/>
<rect x="448.666" y="90.4" width="89.5333" height="89.5333" fill="#183B46"/>
<rect x="448.666" y="90.4" width="89.5333" height="89.5333" stroke="#183B46"/>
<rect width="2.27649" height="2.27649" transform="translate(492.529 134.262)" fill="#183B46"/>
<rect x="448.666" y="90.4" width="89.5333" height="89.5333" fill="#01242D"/>
<rect x="448.666" y="90.4" width="89.5333" height="89.5333" stroke="#183B46"/>
<rect width="2.27649" height="2.27649" transform="translate(492.529 134.262)" fill="#183B46"/>
<rect x="538.199" y="90.4" width="89.5333" height="89.5333" fill="#183B46"/>
<rect x="538.199" y="90.4" width="89.5333" height="89.5333" stroke="#183B46"/>
<rect width="2.27649" height="2.27649" transform="translate(582.062 134.262)" fill="#183B46"/>
<rect x="538.199" y="90.4" width="89.5333" height="89.5333" fill="#01242D"/>
<rect x="538.199" y="90.4" width="89.5333" height="89.5333" stroke="#183B46"/>
<rect width="2.27649" height="2.27649" transform="translate(582.062 134.262)" fill="#183B46"/>
<rect x="627.732" y="90.4" width="89.5333" height="89.5333" fill="#183B46"/>
<rect x="627.732" y="90.4" width="89.5333" height="89.5333" stroke="#183B46"/>
<rect width="2.27649" height="2.27649" transform="translate(671.596 134.262)" fill="#183B46"/>
<rect x="627.732" y="90.4" width="89.5333" height="89.5333" fill="#01242D"/>
<rect x="627.732" y="90.4" width="89.5333" height="89.5333" stroke="#183B46"/>
<rect width="2.27649" height="2.27649" transform="translate(671.596 134.262)" fill="#183B46"/>
<rect x="717.268" y="90.4" width="89.5333" height="89.5333" fill="#183B46"/>
<rect x="717.268" y="90.4" width="89.5333" height="89.5333" stroke="#183B46"/>
<rect width="2.27649" height="2.27649" transform="translate(761.131 134.262)" fill="#183B46"/>
<rect x="717.268" y="90.4" width="89.5333" height="89.5333" fill="#01242D"/>
<rect x="717.268" y="90.4" width="89.5333" height="89.5333" stroke="#183B46"/>
<rect width="2.27649" height="2.27649" transform="translate(761.131 134.262)" fill="#183B46"/>
<rect x="806.801" y="90.4" width="89.5333" height="89.5333" fill="#183B46"/>
<rect x="806.801" y="90.4" width="89.5333" height="89.5333" stroke="#183B46"/>
<rect width="2.27649" height="2.27649" transform="translate(850.664 134.262)" fill="#183B46"/>
<rect x="806.801" y="90.4" width="89.5333" height="89.5333" fill="#01242D"/>
<rect x="806.801" y="90.4" width="89.5333" height="89.5333" stroke="#183B46"/>
<rect width="2.27649" height="2.27649" transform="translate(850.664 134.262)" fill="#183B46"/>
<rect x="896.334" y="90.4" width="89.5333" height="89.5333" fill="#183B46"/>
<rect x="896.334" y="90.4" width="89.5333" height="89.5333" stroke="#183B46"/>
<rect width="2.27649" height="2.27649" transform="translate(940.197 134.262)" fill="#183B46"/>
<rect x="896.334" y="90.4" width="89.5333" height="89.5333" fill="#01242D"/>
<rect x="896.334" y="90.4" width="89.5333" height="89.5333" stroke="#183B46"/>
<rect width="2.27649" height="2.27649" transform="translate(940.197 134.262)" fill="#183B46"/>
<rect x="985.867" y="90.4" width="89.5333" height="89.5333" fill="#183B46"/>
<rect x="985.867" y="90.4" width="89.5333" height="89.5333" stroke="#183B46"/>
<rect width="2.27649" height="2.27649" transform="translate(1029.73 134.262)" fill="#183B46"/>
<rect x="985.867" y="90.4" width="89.5333" height="89.5333" fill="#01242D"/>
<rect x="985.867" y="90.4" width="89.5333" height="89.5333" stroke="#183B46"/>
<rect width="2.27649" height="2.27649" transform="translate(1029.73 134.262)" fill="#183B46"/>
<rect x="1075.4" y="90.4" width="89.5333" height="89.5333" fill="#183B46"/>
<rect x="1075.4" y="90.4" width="89.5333" height="89.5333" stroke="#183B46"/>
<rect width="2.27649" height="2.27649" transform="translate(1119.26 134.262)" fill="#183B46"/>
<rect x="1075.4" y="90.4" width="89.5333" height="89.5333" fill="#01242D"/>
<rect x="1075.4" y="90.4" width="89.5333" height="89.5333" stroke="#183B46"/>
<rect width="2.27649" height="2.27649" transform="translate(1119.26 134.262)" fill="#183B46"/>
<rect x="1164.93" y="90.4" width="89.5333" height="89.5333" fill="#183B46"/>
<rect x="1164.93" y="90.4" width="89.5333" height="89.5333" stroke="#183B46"/>
<rect width="2.27649" height="2.27649" transform="translate(1208.8 134.262)" fill="#183B46"/>
<path d="M1164.93 98.4C1164.93 93.9817 1168.52 90.4 1172.93 90.4H1246.47C1250.89 90.4 1254.47 93.9817 1254.47 98.4V171.933C1254.47 176.352 1250.89 179.933 1246.47 179.933H1172.93C1168.52 179.933 1164.93 176.352 1164.93 171.933V98.4Z" fill="#01242D"/>
<path d="M1164.93 98.4C1164.93 93.9817 1168.52 90.4 1172.93 90.4H1246.47C1250.89 90.4 1254.47 93.9817 1254.47 98.4V171.933C1254.47 176.352 1250.89 179.933 1246.47 179.933H1172.93C1168.52 179.933 1164.93 176.352 1164.93 171.933V98.4Z" stroke="#183B46"/>
<rect width="2.27649" height="2.27649" transform="translate(1208.8 134.262)" fill="#183B46"/>
<rect x="1254.47" y="90.4" width="89.5333" height="89.5333" fill="#183B46"/>
<rect x="1254.47" y="90.4" width="89.5333" height="89.5333" stroke="#183B46"/>
<rect width="2.27649" height="2.27649" transform="translate(1298.33 134.262)" fill="#183B46"/>
<path d="M1254.47 98.4C1254.47 93.9817 1258.05 90.4 1262.47 90.4H1336C1340.42 90.4 1344 93.9817 1344 98.4V171.933C1344 176.352 1340.42 179.933 1336 179.933H1262.47C1258.05 179.933 1254.47 176.352 1254.47 171.933V98.4Z" fill="#01242D"/>
<path d="M1254.47 98.4C1254.47 93.9817 1258.05 90.4 1262.47 90.4H1336C1340.42 90.4 1344 93.9817 1344 98.4V171.933C1344 176.352 1340.42 179.933 1336 179.933H1262.47C1258.05 179.933 1254.47 176.352 1254.47 171.933V98.4Z" stroke="#183B46"/>
<rect width="2.27649" height="2.27649" transform="translate(1298.33 134.262)" fill="#183B46"/>
<rect x="1" y="179.933" width="89.5333" height="89.5333" fill="#183B46"/>
<rect x="1" y="179.933" width="89.5333" height="89.5333" stroke="#183B46"/>
<rect width="2.27649" height="2.27649" transform="translate(44.8633 223.795)" fill="#183B46"/>
<rect x="1" y="179.933" width="89.5333" height="89.5333" rx="16" fill="#01242D"/>
<rect x="1" y="179.933" width="89.5333" height="89.5333" rx="16" stroke="#183B46"/>
<rect width="2.27649" height="2.27649" transform="translate(44.8633 223.795)" fill="#183B46"/>
<rect x="90.5332" y="179.933" width="89.5333" height="89.5333" fill="#183B46"/>
<rect x="90.5332" y="179.933" width="89.5333" height="89.5333" stroke="#183B46"/>
<rect width="2.27649" height="2.27649" transform="translate(134.396 223.795)" fill="#183B46"/>
<rect x="90.5332" y="179.933" width="89.5333" height="89.5333" rx="8" fill="#01242D"/>
<rect x="90.5332" y="179.933" width="89.5333" height="89.5333" rx="8" stroke="#183B46"/>
<rect width="2.27649" height="2.27649" transform="translate(134.396 223.795)" fill="#183B46"/>
<rect x="180.066" y="179.933" width="89.5333" height="89.5333" fill="#183B46"/>
<rect x="180.066" y="179.933" width="89.5333" height="89.5333" stroke="#183B46"/>
<rect width="2.27649" height="2.27649" transform="translate(223.93 223.795)" fill="#183B46"/>
<rect x="180.066" y="179.933" width="89.5333" height="89.5333" rx="44.7667" fill="#01242D"/>
<rect x="180.066" y="179.933" width="89.5333" height="89.5333" rx="44.7667" stroke="#183B46"/>
<rect x="222.791" y="222.657" width="4.55297" height="4.55297" rx="2.27649" fill="#183B46"/>
<rect x="269.6" y="179.933" width="89.5333" height="89.5333" fill="#183B46"/>
<rect x="269.6" y="179.933" width="89.5333" height="89.5333" stroke="#183B46"/>
<rect width="2.27649" height="2.27649" transform="translate(313.463 223.795)" fill="#183B46"/>
<rect x="269.6" y="179.933" width="89.5333" height="89.5333" fill="#01242D"/>
<rect x="269.6" y="179.933" width="89.5333" height="89.5333" stroke="#183B46"/>
<rect width="2.27649" height="2.27649" transform="translate(313.463 223.795)" fill="#183B46"/>
<rect x="359.133" y="179.933" width="89.5333" height="89.5333" fill="#183B46"/>
<rect x="359.133" y="179.933" width="89.5333" height="89.5333" stroke="#183B46"/>
<rect width="2.27649" height="2.27649" transform="translate(402.996 223.795)" fill="#183B46"/>
<rect x="359.133" y="179.933" width="89.5333" height="89.5333" fill="#01242D"/>
<rect x="359.133" y="179.933" width="89.5333" height="89.5333" stroke="#183B46"/>
<rect width="2.27649" height="2.27649" transform="translate(402.996 223.795)" fill="#183B46"/>
<rect x="448.666" y="179.933" width="89.5333" height="89.5333" fill="#183B46"/>
<rect x="448.666" y="179.933" width="89.5333" height="89.5333" stroke="#183B46"/>
<rect width="2.27649" height="2.27649" transform="translate(492.529 223.795)" fill="#183B46"/>
<rect x="448.666" y="179.933" width="89.5333" height="89.5333" fill="#01242D"/>
<rect x="448.666" y="179.933" width="89.5333" height="89.5333" stroke="#183B46"/>
<rect width="2.27649" height="2.27649" transform="translate(492.529 223.795)" fill="#183B46"/>
<rect x="538.199" y="179.933" width="89.5333" height="89.5333" fill="#183B46"/>
<rect x="538.199" y="179.933" width="89.5333" height="89.5333" stroke="#183B46"/>
<rect width="2.27649" height="2.27649" transform="translate(582.062 223.795)" fill="#183B46"/>
<rect x="538.199" y="179.933" width="89.5333" height="89.5333" fill="#01242D"/>
<rect x="538.199" y="179.933" width="89.5333" height="89.5333" stroke="#183B46"/>
<rect width="2.27649" height="2.27649" transform="translate(582.062 223.795)" fill="#183B46"/>
<rect x="627.732" y="179.933" width="89.5333" height="89.5333" fill="#183B46"/>
<rect x="627.732" y="179.933" width="89.5333" height="89.5333" stroke="#183B46"/>
<rect width="2.27649" height="2.27649" transform="translate(671.596 223.795)" fill="#183B46"/>
<rect x="627.732" y="179.933" width="89.5333" height="89.5333" fill="#01242D"/>
<rect x="627.732" y="179.933" width="89.5333" height="89.5333" stroke="#183B46"/>
<rect width="2.27649" height="2.27649" transform="translate(671.596 223.795)" fill="#183B46"/>
<rect x="717.268" y="179.933" width="89.5333" height="89.5333" fill="#183B46"/>
<rect x="717.268" y="179.933" width="89.5333" height="89.5333" stroke="#183B46"/>
<rect width="2.27649" height="2.27649" transform="translate(761.131 223.795)" fill="#183B46"/>
<rect x="717.268" y="179.933" width="89.5333" height="89.5333" fill="#01242D"/>
<rect x="717.268" y="179.933" width="89.5333" height="89.5333" stroke="#183B46"/>
<rect width="2.27649" height="2.27649" transform="translate(761.131 223.795)" fill="#183B46"/>
<rect x="806.801" y="179.933" width="89.5333" height="89.5333" fill="#183B46"/>
<rect x="806.801" y="179.933" width="89.5333" height="89.5333" stroke="#183B46"/>
<rect width="2.27649" height="2.27649" transform="translate(850.664 223.795)" fill="#183B46"/>
<rect x="806.801" y="179.933" width="89.5333" height="89.5333" fill="#01242D"/>
<rect x="806.801" y="179.933" width="89.5333" height="89.5333" stroke="#183B46"/>
<rect width="2.27649" height="2.27649" transform="translate(850.664 223.795)" fill="#183B46"/>
<rect x="896.334" y="179.933" width="89.5333" height="89.5333" fill="#183B46"/>
<rect x="896.334" y="179.933" width="89.5333" height="89.5333" stroke="#183B46"/>
<rect width="2.27649" height="2.27649" transform="translate(940.197 223.795)" fill="#183B46"/>
<rect x="896.334" y="179.933" width="89.5333" height="89.5333" fill="#01242D"/>
<rect x="896.334" y="179.933" width="89.5333" height="89.5333" stroke="#183B46"/>
<rect width="2.27649" height="2.27649" transform="translate(940.197 223.795)" fill="#183B46"/>
<rect x="985.867" y="179.933" width="89.5333" height="89.5333" fill="#183B46"/>
<rect x="985.867" y="179.933" width="89.5333" height="89.5333" stroke="#183B46"/>
<rect width="2.27649" height="2.27649" transform="translate(1029.73 223.795)" fill="#183B46"/>
<rect x="985.867" y="179.933" width="89.5333" height="89.5333" fill="#01242D"/>
<rect x="985.867" y="179.933" width="89.5333" height="89.5333" stroke="#183B46"/>
<rect width="2.27649" height="2.27649" transform="translate(1029.73 223.795)" fill="#183B46"/>
<rect x="1075.4" y="179.933" width="89.5333" height="89.5333" fill="#183B46"/>
<rect x="1075.4" y="179.933" width="89.5333" height="89.5333" stroke="#183B46"/>
<rect width="2.27649" height="2.27649" transform="translate(1119.26 223.795)" fill="#183B46"/>
<rect x="1075.4" y="179.933" width="89.5333" height="89.5333" fill="#01242D"/>
<rect x="1075.4" y="179.933" width="89.5333" height="89.5333" stroke="#183B46"/>
<rect width="2.27649" height="2.27649" transform="translate(1119.26 223.795)" fill="#183B46"/>
<rect x="1164.93" y="179.933" width="89.5333" height="89.5333" fill="#183B46"/>
<rect x="1164.93" y="179.933" width="89.5333" height="89.5333" stroke="#183B46"/>
<rect width="2.27649" height="2.27649" transform="translate(1208.8 223.795)" fill="#183B46"/>
<path d="M1164.93 187.933C1164.93 183.515 1168.52 179.933 1172.93 179.933H1246.47C1250.89 179.933 1254.47 183.515 1254.47 187.933V261.467C1254.47 265.885 1250.89 269.467 1246.47 269.467H1172.93C1168.52 269.467 1164.93 265.885 1164.93 261.467V187.933Z" fill="#01242D"/>
<path d="M1164.93 187.933C1164.93 183.515 1168.52 179.933 1172.93 179.933H1246.47C1250.89 179.933 1254.47 183.515 1254.47 187.933V261.467C1254.47 265.885 1250.89 269.467 1246.47 269.467H1172.93C1168.52 269.467 1164.93 265.885 1164.93 261.467V187.933Z" stroke="#183B46"/>
<rect width="2.27649" height="2.27649" transform="translate(1208.8 223.795)" fill="#183B46"/>
<rect x="1254.47" y="179.933" width="89.5333" height="89.5333" fill="#183B46"/>
<rect x="1254.47" y="179.933" width="89.5333" height="89.5333" stroke="#183B46"/>
<rect width="2.27649" height="2.27649" transform="translate(1298.33 223.795)" fill="#183B46"/>
<path d="M1254.47 187.933C1254.47 183.515 1258.05 179.933 1262.47 179.933H1336C1340.42 179.933 1344 183.515 1344 187.933V261.467C1344 265.885 1340.42 269.467 1336 269.467H1262.47C1258.05 269.467 1254.47 265.885 1254.47 261.467V187.933Z" fill="#01242D"/>
<path d="M1254.47 187.933C1254.47 183.515 1258.05 179.933 1262.47 179.933H1336C1340.42 179.933 1344 183.515 1344 187.933V261.467C1344 265.885 1340.42 269.467 1336 269.467H1262.47C1258.05 269.467 1254.47 265.885 1254.47 261.467V187.933Z" stroke="#183B46"/>
<rect width="2.27649" height="2.27649" transform="translate(1298.33 223.795)" fill="#183B46"/>
<rect x="1" y="269.467" width="89.5333" height="89.5333" fill="#183B46"/>
<rect x="1" y="269.467" width="89.5333" height="89.5333" stroke="#183B46"/>
<rect width="2.27649" height="2.27649" transform="translate(44.8633 313.328)" fill="#183B46"/>
<rect x="1" y="269.467" width="89.5333" height="89.5333" rx="4.55297" fill="#01242D"/>
<rect x="1" y="269.467" width="89.5333" height="89.5333" rx="4.55297" stroke="#183B46"/>
<rect width="2.27649" height="2.27649" transform="translate(44.8633 313.328)" fill="#183B46"/>
<rect x="90.5332" y="269.467" width="89.5333" height="89.5333" fill="#183B46"/>
<rect x="90.5332" y="269.467" width="89.5333" height="89.5333" stroke="#183B46"/>
<rect width="2.27649" height="2.27649" transform="translate(134.396 313.328)" fill="#183B46"/>
<rect x="90.5332" y="269.467" width="89.5333" height="89.5333" rx="32" fill="#01242D"/>
<rect x="90.5332" y="269.467" width="89.5333" height="89.5333" rx="32" stroke="#183B46"/>
<rect width="2.27649" height="2.27649" transform="translate(134.396 313.328)" fill="#183B46"/>
<rect x="180.066" y="269.467" width="89.5333" height="89.5333" fill="#183B46"/>
<rect x="180.066" y="269.467" width="89.5333" height="89.5333" stroke="#183B46"/>
<rect width="2.27649" height="2.27649" transform="translate(223.93 313.328)" fill="#183B46"/>
<rect x="180.066" y="269.467" width="89.5333" height="89.5333" fill="#01242D"/>
<rect x="180.066" y="269.467" width="89.5333" height="89.5333" stroke="#183B46"/>
<rect width="2.27649" height="2.27649" transform="translate(223.93 313.328)" fill="#183B46"/>
<rect x="269.6" y="269.467" width="89.5333" height="89.5333" fill="#183B46"/>
<rect x="269.6" y="269.467" width="89.5333" height="89.5333" stroke="#183B46"/>
<rect width="2.27649" height="2.27649" transform="translate(313.463 313.328)" fill="#183B46"/>
<rect x="269.6" y="269.467" width="89.5333" height="89.5333" fill="#01242D"/>
<rect x="269.6" y="269.467" width="89.5333" height="89.5333" stroke="#183B46"/>
<rect width="2.27649" height="2.27649" transform="translate(313.463 313.328)" fill="#183B46"/>
<rect x="359.133" y="269.467" width="89.5333" height="89.5333" fill="#183B46"/>
<rect x="359.133" y="269.467" width="89.5333" height="89.5333" stroke="#183B46"/>
<rect width="2.27649" height="2.27649" transform="translate(402.996 313.328)" fill="#183B46"/>
<rect x="359.133" y="269.467" width="89.5333" height="89.5333" fill="#01242D"/>
<rect x="359.133" y="269.467" width="89.5333" height="89.5333" stroke="#183B46"/>
<rect width="2.27649" height="2.27649" transform="translate(402.996 313.328)" fill="#183B46"/>
<rect x="448.666" y="269.467" width="89.5333" height="89.5333" fill="#183B46"/>
<rect x="448.666" y="269.467" width="89.5333" height="89.5333" stroke="#183B46"/>
<rect width="2.27649" height="2.27649" transform="translate(492.529 313.328)" fill="#183B46"/>
<rect x="448.666" y="269.467" width="89.5333" height="89.5333" fill="#01242D"/>
<rect x="448.666" y="269.467" width="89.5333" height="89.5333" stroke="#183B46"/>
<rect width="2.27649" height="2.27649" transform="translate(492.529 313.328)" fill="#183B46"/>
<rect x="538.199" y="269.467" width="89.5333" height="89.5333" fill="#183B46"/>
<rect x="538.199" y="269.467" width="89.5333" height="89.5333" stroke="#183B46"/>
<rect width="2.27649" height="2.27649" transform="translate(582.062 313.328)" fill="#183B46"/>
<rect x="538.199" y="269.467" width="89.5333" height="89.5333" fill="#01242D"/>
<rect x="538.199" y="269.467" width="89.5333" height="89.5333" stroke="#183B46"/>
<rect width="2.27649" height="2.27649" transform="translate(582.062 313.328)" fill="#183B46"/>
<rect x="627.732" y="269.467" width="89.5333" height="89.5333" fill="#183B46"/>
<rect x="627.732" y="269.467" width="89.5333" height="89.5333" stroke="#183B46"/>
<rect width="2.27649" height="2.27649" transform="translate(671.596 313.328)" fill="#183B46"/>
<rect x="627.732" y="269.467" width="89.5333" height="89.5333" fill="#01242D"/>
<rect x="627.732" y="269.467" width="89.5333" height="89.5333" stroke="#183B46"/>
<rect width="2.27649" height="2.27649" transform="translate(671.596 313.328)" fill="#183B46"/>
<rect x="717.268" y="269.467" width="89.5333" height="89.5333" fill="#183B46"/>
<rect x="717.268" y="269.467" width="89.5333" height="89.5333" stroke="#183B46"/>
<rect width="2.27649" height="2.27649" transform="translate(761.131 313.328)" fill="#183B46"/>
<rect x="717.268" y="269.467" width="89.5333" height="89.5333" fill="#01242D"/>
<rect x="717.268" y="269.467" width="89.5333" height="89.5333" stroke="#183B46"/>
<rect width="2.27649" height="2.27649" transform="translate(761.131 313.328)" fill="#183B46"/>
<rect x="806.801" y="269.467" width="89.5333" height="89.5333" fill="#183B46"/>
<rect x="806.801" y="269.467" width="89.5333" height="89.5333" stroke="#183B46"/>
<rect width="2.27649" height="2.27649" transform="translate(850.664 313.328)" fill="#183B46"/>
<rect x="806.801" y="269.467" width="89.5333" height="89.5333" fill="#01242D"/>
<rect x="806.801" y="269.467" width="89.5333" height="89.5333" stroke="#183B46"/>
<rect width="2.27649" height="2.27649" transform="translate(850.664 313.328)" fill="#183B46"/>
<rect x="896.334" y="269.467" width="89.5333" height="89.5333" fill="#183B46"/>
<rect x="896.334" y="269.467" width="89.5333" height="89.5333" stroke="#183B46"/>
<rect width="2.27649" height="2.27649" transform="translate(940.197 313.328)" fill="#183B46"/>
<rect x="896.334" y="269.467" width="89.5333" height="89.5333" fill="#01242D"/>
<rect x="896.334" y="269.467" width="89.5333" height="89.5333" stroke="#183B46"/>
<rect width="2.27649" height="2.27649" transform="translate(940.197 313.328)" fill="#183B46"/>
<rect x="985.867" y="269.467" width="89.5333" height="89.5333" fill="#183B46"/>
<rect x="985.867" y="269.467" width="89.5333" height="89.5333" stroke="#183B46"/>
<rect width="2.27649" height="2.27649" transform="translate(1029.73 313.328)" fill="#183B46"/>
<rect x="985.867" y="269.467" width="89.5333" height="89.5333" fill="#01242D"/>
<rect x="985.867" y="269.467" width="89.5333" height="89.5333" stroke="#183B46"/>
<rect width="2.27649" height="2.27649" transform="translate(1029.73 313.328)" fill="#183B46"/>
<rect x="1075.4" y="269.467" width="89.5333" height="89.5333" fill="#183B46"/>
<rect x="1075.4" y="269.467" width="89.5333" height="89.5333" stroke="#183B46"/>
<rect width="2.27649" height="2.27649" transform="translate(1119.26 313.328)" fill="#183B46"/>
<rect x="1075.4" y="269.467" width="89.5333" height="89.5333" fill="#01242D"/>
<rect x="1075.4" y="269.467" width="89.5333" height="89.5333" stroke="#183B46"/>
<rect width="2.27649" height="2.27649" transform="translate(1119.26 313.328)" fill="#183B46"/>
<rect x="1164.93" y="269.467" width="89.5333" height="89.5333" fill="#183B46"/>
<rect x="1164.93" y="269.467" width="89.5333" height="89.5333" stroke="#183B46"/>
<rect width="2.27649" height="2.27649" transform="translate(1208.8 313.328)" fill="#183B46"/>
<rect x="1164.93" y="269.467" width="89.5333" height="89.5333" rx="15.9354" fill="#01242D"/>
<rect x="1164.93" y="269.467" width="89.5333" height="89.5333" rx="15.9354" stroke="#183B46"/>
<rect width="2.27649" height="2.27649" transform="translate(1208.8 313.328)" fill="#183B46"/>
<rect x="1254.47" y="269.467" width="89.5333" height="89.5333" fill="#183B46"/>
<rect x="1254.47" y="269.467" width="89.5333" height="89.5333" stroke="#183B46"/>
<rect width="2.27649" height="2.27649" transform="translate(1298.33 313.328)" fill="#183B46"/>
<rect x="1254.47" y="269.467" width="89.5333" height="89.5333" fill="#01242D"/>
<rect x="1254.47" y="269.467" width="89.5333" height="89.5333" stroke="#183B46"/>
<rect width="2.27649" height="2.27649" transform="translate(1298.33 313.328)" fill="#183B46"/>
<rect x="1" y="359" width="89.5333" height="89.5333" fill="#183B46"/>
<rect x="1" y="359" width="89.5333" height="89.5333" stroke="#183B46"/>
<rect width="2.27649" height="2.27649" transform="translate(44.8633 402.862)" fill="#183B46"/>
<path d="M1 367C1 362.582 4.58172 359 9 359H82.5333C86.9516 359 90.5333 362.582 90.5333 367V440.533C90.5333 444.952 86.9516 448.533 82.5333 448.533H8.99999C4.58171 448.533 1 444.952 1 440.533V367Z" fill="#01242D"/>
<path d="M1 367C1 362.582 4.58172 359 9 359H82.5333C86.9516 359 90.5333 362.582 90.5333 367V440.533C90.5333 444.952 86.9516 448.533 82.5333 448.533H8.99999C4.58171 448.533 1 444.952 1 440.533V367Z" stroke="#183B46"/>
<rect width="2.27649" height="2.27649" transform="translate(44.8633 402.862)" fill="#183B46"/>
<rect x="90.5332" y="359" width="89.5333" height="89.5333" fill="#183B46"/>
<rect x="90.5332" y="359" width="89.5333" height="89.5333" stroke="#183B46"/>
<rect width="2.27649" height="2.27649" transform="translate(134.396 402.862)" fill="#183B46"/>
<rect x="90.5332" y="359" width="89.5333" height="89.5333" fill="#01242D"/>
<rect x="90.5332" y="359" width="89.5333" height="89.5333" stroke="#183B46"/>
<rect width="2.27649" height="2.27649" transform="translate(134.396 402.862)" fill="#183B46"/>
<rect x="180.066" y="359" width="89.5333" height="89.5333" fill="#183B46"/>
<rect x="180.066" y="359" width="89.5333" height="89.5333" stroke="#183B46"/>
<rect width="2.27649" height="2.27649" transform="translate(223.93 402.862)" fill="#183B46"/>
<rect x="180.066" y="359" width="89.5333" height="89.5333" fill="#01242D"/>
<rect x="180.066" y="359" width="89.5333" height="89.5333" stroke="#183B46"/>
<rect width="2.27649" height="2.27649" transform="translate(223.93 402.862)" fill="#183B46"/>
<rect x="269.6" y="359" width="89.5333" height="89.5333" fill="#183B46"/>
<rect x="269.6" y="359" width="89.5333" height="89.5333" stroke="#183B46"/>
<rect width="2.27649" height="2.27649" transform="translate(313.463 402.862)" fill="#183B46"/>
<rect x="269.6" y="359" width="89.5333" height="89.5333" fill="#01242D"/>
<rect x="269.6" y="359" width="89.5333" height="89.5333" stroke="#183B46"/>
<rect width="2.27649" height="2.27649" transform="translate(313.463 402.862)" fill="#183B46"/>
<rect x="359.133" y="359" width="89.5333" height="89.5333" fill="#183B46"/>
<rect x="359.133" y="359" width="89.5333" height="89.5333" stroke="#183B46"/>
<rect width="2.27649" height="2.27649" transform="translate(402.996 402.862)" fill="#183B46"/>
<rect x="359.133" y="359" width="89.5333" height="89.5333" fill="#01242D"/>
<rect x="359.133" y="359" width="89.5333" height="89.5333" stroke="#183B46"/>
<rect width="2.27649" height="2.27649" transform="translate(402.996 402.862)" fill="#183B46"/>
<rect x="448.666" y="359" width="89.5333" height="89.5333" fill="#183B46"/>
<rect x="448.666" y="359" width="89.5333" height="89.5333" stroke="#183B46"/>
<rect width="2.27649" height="2.27649" transform="translate(492.529 402.862)" fill="#183B46"/>
<rect x="448.666" y="359" width="89.5333" height="89.5333" fill="#01242D"/>
<rect x="448.666" y="359" width="89.5333" height="89.5333" stroke="#183B46"/>
<rect width="2.27649" height="2.27649" transform="translate(492.529 402.862)" fill="#183B46"/>
<rect x="538.199" y="359" width="89.5333" height="89.5333" fill="#183B46"/>
<rect x="538.199" y="359" width="89.5333" height="89.5333" stroke="#183B46"/>
<rect width="2.27649" height="2.27649" transform="translate(582.062 402.862)" fill="#183B46"/>
<rect x="538.199" y="359" width="89.5333" height="89.5333" fill="#01242D"/>
<rect x="538.199" y="359" width="89.5333" height="89.5333" stroke="#183B46"/>
<rect width="2.27649" height="2.27649" transform="translate(582.062 402.862)" fill="#183B46"/>
<rect x="627.732" y="359" width="89.5333" height="89.5333" fill="#183B46"/>
<rect x="627.732" y="359" width="89.5333" height="89.5333" stroke="#183B46"/>
<rect width="2.27649" height="2.27649" transform="translate(671.596 402.862)" fill="#183B46"/>
<rect x="627.732" y="359" width="89.5333" height="89.5333" fill="#01242D"/>
<rect x="627.732" y="359" width="89.5333" height="89.5333" stroke="#183B46"/>
<rect width="2.27649" height="2.27649" transform="translate(671.596 402.862)" fill="#183B46"/>
<rect x="717.268" y="359" width="89.5333" height="89.5333" fill="#183B46"/>
<rect x="717.268" y="359" width="89.5333" height="89.5333" stroke="#183B46"/>
<rect width="2.27649" height="2.27649" transform="translate(761.131 402.862)" fill="#183B46"/>
<rect x="717.268" y="359" width="89.5333" height="89.5333" fill="#01242D"/>
<rect x="717.268" y="359" width="89.5333" height="89.5333" stroke="#183B46"/>
<rect width="2.27649" height="2.27649" transform="translate(761.131 402.862)" fill="#183B46"/>
<rect x="806.801" y="359" width="89.5333" height="89.5333" fill="#183B46"/>
<rect x="806.801" y="359" width="89.5333" height="89.5333" stroke="#183B46"/>
<rect width="2.27649" height="2.27649" transform="translate(850.664 402.862)" fill="#183B46"/>
<rect x="806.801" y="359" width="89.5333" height="89.5333" fill="#01242D"/>
<rect x="806.801" y="359" width="89.5333" height="89.5333" stroke="#183B46"/>
<rect width="2.27649" height="2.27649" transform="translate(850.664 402.862)" fill="#183B46"/>
<rect x="896.334" y="359" width="89.5333" height="89.5333" fill="#183B46"/>
<rect x="896.334" y="359" width="89.5333" height="89.5333" stroke="#183B46"/>
<rect width="2.27649" height="2.27649" transform="translate(940.197 402.862)" fill="#183B46"/>
<rect x="896.334" y="359" width="89.5333" height="89.5333" fill="#01242D"/>
<rect x="896.334" y="359" width="89.5333" height="89.5333" stroke="#183B46"/>
<rect width="2.27649" height="2.27649" transform="translate(940.197 402.862)" fill="#183B46"/>
<rect x="985.867" y="359" width="89.5333" height="89.5333" fill="#183B46"/>
<rect x="985.867" y="359" width="89.5333" height="89.5333" stroke="#183B46"/>
<rect width="2.27649" height="2.27649" transform="translate(1029.73 402.862)" fill="#183B46"/>
<rect x="985.867" y="359" width="89.5333" height="89.5333" fill="#01242D"/>
<rect x="985.867" y="359" width="89.5333" height="89.5333" stroke="#183B46"/>
<rect width="2.27649" height="2.27649" transform="translate(1029.73 402.862)" fill="#183B46"/>
<rect x="1075.4" y="359" width="89.5333" height="89.5333" fill="#183B46"/>
<rect x="1075.4" y="359" width="89.5333" height="89.5333" stroke="#183B46"/>
<rect width="2.27649" height="2.27649" transform="translate(1119.26 402.862)" fill="#183B46"/>
<rect x="1075.4" y="359" width="89.5333" height="89.5333" fill="#01242D"/>
<rect x="1075.4" y="359" width="89.5333" height="89.5333" stroke="#183B46"/>
<rect width="2.27649" height="2.27649" transform="translate(1119.26 402.862)" fill="#183B46"/>
<rect x="1164.93" y="359" width="89.5333" height="89.5333" fill="#183B46"/>
<rect x="1164.93" y="359" width="89.5333" height="89.5333" stroke="#183B46"/>
<rect width="2.27649" height="2.27649" transform="translate(1208.8 402.862)" fill="#183B46"/>
<rect x="1164.93" y="359" width="89.5333" height="89.5333" rx="34.1473" fill="#01242D"/>
<rect x="1164.93" y="359" width="89.5333" height="89.5333" rx="34.1473" stroke="#183B46"/>
<rect x="1207.66" y="401.724" width="4.55297" height="4.55297" rx="1.13824" fill="#183B46"/>
<rect x="1254.47" y="359" width="89.5333" height="89.5333" fill="#183B46"/>
<rect x="1254.47" y="359" width="89.5333" height="89.5333" stroke="#183B46"/>
<rect width="2.27649" height="2.27649" transform="translate(1298.33 402.862)" fill="#183B46"/>
<path d="M1254.47 374.935C1254.47 366.135 1261.6 359 1270.4 359H1328.06C1336.87 359 1344 366.135 1344 374.935V432.598C1344 441.399 1336.87 448.533 1328.06 448.533H1270.4C1261.6 448.533 1254.47 441.399 1254.47 432.598V374.935Z" fill="#01242D"/>
<path d="M1254.47 374.935C1254.47 366.135 1261.6 359 1270.4 359H1328.06C1336.87 359 1344 366.135 1344 374.935V432.598C1344 441.399 1336.87 448.533 1328.06 448.533H1270.4C1261.6 448.533 1254.47 441.399 1254.47 432.598V374.935Z" stroke="#183B46"/>
<rect width="2.27649" height="2.27649" transform="translate(1298.33 402.862)" fill="#183B46"/>
<rect x="1" y="448.533" width="89.5333" height="89.5333" fill="#183B46"/>
<rect x="1" y="448.533" width="89.5333" height="89.5333" stroke="#183B46"/>
<rect width="2.27649" height="2.27649" transform="translate(44.8633 492.395)" fill="#183B46"/>
<path d="M1 456.533C1 452.115 4.58172 448.533 9 448.533H82.5333C86.9516 448.533 90.5333 452.115 90.5333 456.533V530.067C90.5333 534.485 86.9516 538.067 82.5333 538.067H8.99999C4.58171 538.067 1 534.485 1 530.067V456.533Z" fill="#01242D"/>
<path d="M1 456.533C1 452.115 4.58172 448.533 9 448.533H82.5333C86.9516 448.533 90.5333 452.115 90.5333 456.533V530.067C90.5333 534.485 86.9516 538.067 82.5333 538.067H8.99999C4.58171 538.067 1 534.485 1 530.067V456.533Z" stroke="#183B46"/>
<rect width="2.27649" height="2.27649" transform="translate(44.8633 492.395)" fill="#183B46"/>
<rect x="90.5332" y="448.533" width="89.5333" height="89.5333" fill="#183B46"/>
<rect x="90.5332" y="448.533" width="89.5333" height="89.5333" stroke="#183B46"/>
<rect width="2.27649" height="2.27649" transform="translate(134.396 492.395)" fill="#183B46"/>
<rect x="90.5332" y="448.533" width="89.5333" height="89.5333" fill="#01242D"/>
<rect x="90.5332" y="448.533" width="89.5333" height="89.5333" stroke="#183B46"/>
<rect width="2.27649" height="2.27649" transform="translate(134.396 492.395)" fill="#183B46"/>
<rect x="180.066" y="448.533" width="89.5333" height="89.5333" fill="#183B46"/>
<rect x="180.066" y="448.533" width="89.5333" height="89.5333" stroke="#183B46"/>
<rect width="2.27649" height="2.27649" transform="translate(223.93 492.395)" fill="#183B46"/>
<rect x="180.066" y="448.533" width="89.5333" height="89.5333" fill="#01242D"/>
<rect x="180.066" y="448.533" width="89.5333" height="89.5333" stroke="#183B46"/>
<rect width="2.27649" height="2.27649" transform="translate(223.93 492.395)" fill="#183B46"/>
<rect x="269.6" y="448.533" width="89.5333" height="89.5333" fill="#183B46"/>
<rect x="269.6" y="448.533" width="89.5333" height="89.5333" stroke="#183B46"/>
<rect width="2.27649" height="2.27649" transform="translate(313.463 492.395)" fill="#183B46"/>
<rect x="269.6" y="448.533" width="89.5333" height="89.5333" fill="#01242D"/>
<rect x="269.6" y="448.533" width="89.5333" height="89.5333" stroke="#183B46"/>
<rect width="2.27649" height="2.27649" transform="translate(313.463 492.395)" fill="#183B46"/>
<rect x="359.133" y="448.533" width="89.5333" height="89.5333" fill="#183B46"/>
<rect x="359.133" y="448.533" width="89.5333" height="89.5333" stroke="#183B46"/>
<rect width="2.27649" height="2.27649" transform="translate(402.996 492.395)" fill="#183B46"/>
<rect x="359.133" y="448.533" width="89.5333" height="89.5333" fill="#01242D"/>
<rect x="359.133" y="448.533" width="89.5333" height="89.5333" stroke="#183B46"/>
<rect width="2.27649" height="2.27649" transform="translate(402.996 492.395)" fill="#183B46"/>
<rect x="448.666" y="448.533" width="89.5333" height="89.5333" fill="#183B46"/>
<rect x="448.666" y="448.533" width="89.5333" height="89.5333" stroke="#183B46"/>
<rect width="2.27649" height="2.27649" transform="translate(492.529 492.395)" fill="#183B46"/>
<rect x="448.666" y="448.533" width="89.5333" height="89.5333" fill="#01242D"/>
<rect x="448.666" y="448.533" width="89.5333" height="89.5333" stroke="#183B46"/>
<rect width="2.27649" height="2.27649" transform="translate(492.529 492.395)" fill="#183B46"/>
<rect x="538.199" y="448.533" width="89.5333" height="89.5333" fill="#183B46"/>
<rect x="538.199" y="448.533" width="89.5333" height="89.5333" stroke="#183B46"/>
<rect width="2.27649" height="2.27649" transform="translate(582.062 492.395)" fill="#183B46"/>
<rect x="538.199" y="448.533" width="89.5333" height="89.5333" fill="#01242D"/>
<rect x="538.199" y="448.533" width="89.5333" height="89.5333" stroke="#183B46"/>
<rect width="2.27649" height="2.27649" transform="translate(582.062 492.395)" fill="#183B46"/>
<rect x="627.732" y="448.533" width="89.5333" height="89.5333" fill="#183B46"/>
<rect x="627.732" y="448.533" width="89.5333" height="89.5333" stroke="#183B46"/>
<rect width="2.27649" height="2.27649" transform="translate(671.596 492.395)" fill="#183B46"/>
<rect x="627.732" y="448.533" width="89.5333" height="89.5333" fill="#01242D"/>
<rect x="627.732" y="448.533" width="89.5333" height="89.5333" stroke="#183B46"/>
<rect width="2.27649" height="2.27649" transform="translate(671.596 492.395)" fill="#183B46"/>
<rect x="717.268" y="448.533" width="89.5333" height="89.5333" fill="#183B46"/>
<rect x="717.268" y="448.533" width="89.5333" height="89.5333" stroke="#183B46"/>
<rect width="2.27649" height="2.27649" transform="translate(761.131 492.395)" fill="#183B46"/>
<rect x="717.268" y="448.533" width="89.5333" height="89.5333" fill="#01242D"/>
<rect x="717.268" y="448.533" width="89.5333" height="89.5333" stroke="#183B46"/>
<rect width="2.27649" height="2.27649" transform="translate(761.131 492.395)" fill="#183B46"/>
<rect x="806.801" y="448.533" width="89.5333" height="89.5333" fill="#183B46"/>
<rect x="806.801" y="448.533" width="89.5333" height="89.5333" stroke="#183B46"/>
<rect width="2.27649" height="2.27649" transform="translate(850.664 492.395)" fill="#183B46"/>
<rect x="806.801" y="448.533" width="89.5333" height="89.5333" fill="#01242D"/>
<rect x="806.801" y="448.533" width="89.5333" height="89.5333" stroke="#183B46"/>
<rect width="2.27649" height="2.27649" transform="translate(850.664 492.395)" fill="#183B46"/>
<rect x="896.334" y="448.533" width="89.5333" height="89.5333" fill="#183B46"/>
<rect x="896.334" y="448.533" width="89.5333" height="89.5333" stroke="#183B46"/>
<rect width="2.27649" height="2.27649" transform="translate(940.197 492.395)" fill="#183B46"/>
<rect x="896.334" y="448.533" width="89.5333" height="89.5333" fill="#01242D"/>
<rect x="896.334" y="448.533" width="89.5333" height="89.5333" stroke="#183B46"/>
<rect width="2.27649" height="2.27649" transform="translate(940.197 492.395)" fill="#183B46"/>
<rect x="985.867" y="448.533" width="89.5333" height="89.5333" fill="#183B46"/>
<rect x="985.867" y="448.533" width="89.5333" height="89.5333" stroke="#183B46"/>
<rect width="2.27649" height="2.27649" transform="translate(1029.73 492.395)" fill="#183B46"/>
<rect x="985.867" y="448.533" width="89.5333" height="89.5333" fill="#01242D"/>
<rect x="985.867" y="448.533" width="89.5333" height="89.5333" stroke="#183B46"/>
<rect width="2.27649" height="2.27649" transform="translate(1029.73 492.395)" fill="#183B46"/>
<rect x="1075.4" y="448.533" width="89.5333" height="89.5333" fill="#183B46"/>
<rect x="1075.4" y="448.533" width="89.5333" height="89.5333" stroke="#183B46"/>
<rect width="2.27649" height="2.27649" transform="translate(1119.26 492.395)" fill="#183B46"/>
<rect x="1075.4" y="448.533" width="89.5333" height="89.5333" fill="#01242D"/>
<rect x="1075.4" y="448.533" width="89.5333" height="89.5333" stroke="#183B46"/>
<rect width="2.27649" height="2.27649" transform="translate(1119.26 492.395)" fill="#183B46"/>
<rect x="1164.93" y="448.533" width="89.5333" height="89.5333" fill="#183B46"/>
<rect x="1164.93" y="448.533" width="89.5333" height="89.5333" stroke="#183B46"/>
<rect width="2.27649" height="2.27649" transform="translate(1208.8 492.395)" fill="#183B46"/>
<rect x="1164.93" y="448.533" width="89.5333" height="89.5333" rx="44.7667" fill="#01242D"/>
<rect x="1164.93" y="448.533" width="89.5333" height="89.5333" rx="44.7667" stroke="#183B46"/>
<rect x="1207.66" y="491.257" width="4.55297" height="4.55297" rx="2.27649" fill="#183B46"/>
<rect x="1254.47" y="448.533" width="89.5333" height="89.5333" fill="#183B46"/>
<rect x="1254.47" y="448.533" width="89.5333" height="89.5333" stroke="#183B46"/>
<rect width="2.27649" height="2.27649" transform="translate(1298.33 492.395)" fill="#183B46"/>
<rect x="1254.47" y="448.533" width="89.5333" height="89.5333" rx="16" fill="#01242D"/>
<rect x="1254.47" y="448.533" width="89.5333" height="89.5333" rx="16" stroke="#183B46"/>
<rect width="2.27649" height="2.27649" transform="translate(1298.33 492.395)" fill="#183B46"/>
<path d="M1 542.62C1 540.105 3.03844 538.067 5.55297 538.067H85.9804C88.4949 538.067 90.5333 540.105 90.5333 542.62V623.047C90.5333 625.562 88.4949 627.6 85.9804 627.6H5.55297C3.03843 627.6 1 625.562 1 623.047V542.62Z" fill="#01242D"/>
<path d="M1 542.62C1 540.105 3.03844 538.067 5.55297 538.067H85.9804C88.4949 538.067 90.5333 540.105 90.5333 542.62V623.047C90.5333 625.562 88.4949 627.6 85.9804 627.6H5.55297C3.03843 627.6 1 625.562 1 623.047V542.62Z" stroke="#183B46"/>
<rect width="2.27649" height="2.27649" transform="translate(44.8633 581.928)" fill="#183B46"/>
<path d="M1 554.002C1 545.201 8.13453 538.067 16.9354 538.067H74.598C83.3988 538.067 90.5333 545.201 90.5333 554.002V611.665C90.5333 620.465 83.3988 627.6 74.5979 627.6H16.9354C8.13451 627.6 1 620.465 1 611.665V554.002Z" fill="#01242D"/>
<path d="M1 554.002C1 545.201 8.13453 538.067 16.9354 538.067H74.598C83.3988 538.067 90.5333 545.201 90.5333 554.002V611.665C90.5333 620.465 83.3988 627.6 74.5979 627.6H16.9354C8.13451 627.6 1 620.465 1 611.665V554.002Z" stroke="#183B46"/>
<rect width="2.27649" height="2.27649" transform="translate(44.8633 581.928)" fill="#183B46"/>
<rect x="90.5332" y="538.067" width="89.5333" height="89.5333" fill="#183B46"/>
<rect x="90.5332" y="538.067" width="89.5333" height="89.5333" stroke="#183B46"/>
<rect width="2.27649" height="2.27649" transform="translate(134.396 581.928)" fill="#183B46"/>
<rect x="90.5332" y="538.067" width="89.5333" height="89.5333" fill="#01242D"/>
<rect x="90.5332" y="538.067" width="89.5333" height="89.5333" stroke="#183B46"/>
<rect width="2.27649" height="2.27649" transform="translate(134.396 581.928)" fill="#183B46"/>
<rect x="180.066" y="538.067" width="89.5333" height="89.5333" fill="#183B46"/>
<rect x="180.066" y="538.067" width="89.5333" height="89.5333" stroke="#183B46"/>
<rect width="2.27649" height="2.27649" transform="translate(223.93 581.928)" fill="#183B46"/>
<rect x="180.066" y="538.067" width="89.5333" height="89.5333" rx="32" fill="#01242D"/>
<rect x="180.066" y="538.067" width="89.5333" height="89.5333" rx="32" stroke="#183B46"/>
<rect x="222.791" y="580.79" width="4.55297" height="4.55297" rx="1.13824" fill="#183B46"/>
<rect x="269.6" y="538.067" width="89.5333" height="89.5333" fill="#183B46"/>
<rect x="269.6" y="538.067" width="89.5333" height="89.5333" stroke="#183B46"/>
<rect width="2.27649" height="2.27649" transform="translate(313.463 581.928)" fill="#183B46"/>
<rect x="269.6" y="538.067" width="89.5333" height="89.5333" fill="#01242D"/>
<rect x="269.6" y="538.067" width="89.5333" height="89.5333" stroke="#183B46"/>
<rect width="2.27649" height="2.27649" transform="translate(313.463 581.928)" fill="#183B46"/>
<rect x="359.133" y="538.067" width="89.5333" height="89.5333" fill="#183B46"/>
<rect x="359.133" y="538.067" width="89.5333" height="89.5333" stroke="#183B46"/>
<rect width="2.27649" height="2.27649" transform="translate(402.996 581.928)" fill="#183B46"/>
<rect x="359.133" y="538.067" width="89.5333" height="89.5333" fill="#01242D"/>
<rect x="359.133" y="538.067" width="89.5333" height="89.5333" stroke="#183B46"/>
<rect width="2.27649" height="2.27649" transform="translate(402.996 581.928)" fill="#183B46"/>
<rect x="448.666" y="538.067" width="89.5333" height="89.5333" fill="#183B46"/>
<rect x="448.666" y="538.067" width="89.5333" height="89.5333" stroke="#183B46"/>
<rect width="2.27649" height="2.27649" transform="translate(492.529 581.928)" fill="#183B46"/>
<rect x="448.666" y="538.067" width="89.5333" height="89.5333" fill="#01242D"/>
<rect x="448.666" y="538.067" width="89.5333" height="89.5333" stroke="#183B46"/>
<rect width="2.27649" height="2.27649" transform="translate(492.529 581.928)" fill="#183B46"/>
<rect x="538.199" y="538.067" width="89.5333" height="89.5333" fill="#183B46"/>
<rect x="538.199" y="538.067" width="89.5333" height="89.5333" stroke="#183B46"/>
<rect width="2.27649" height="2.27649" transform="translate(582.062 581.928)" fill="#183B46"/>
<rect x="538.199" y="538.067" width="89.5333" height="89.5333" fill="#01242D"/>
<rect x="538.199" y="538.067" width="89.5333" height="89.5333" stroke="#183B46"/>
<rect width="2.27649" height="2.27649" transform="translate(582.062 581.928)" fill="#183B46"/>
<rect x="627.732" y="538.067" width="89.5333" height="89.5333" fill="#183B46"/>
<rect x="627.732" y="538.067" width="89.5333" height="89.5333" stroke="#183B46"/>
<rect width="2.27649" height="2.27649" transform="translate(671.596 581.928)" fill="#183B46"/>
<rect x="627.732" y="538.067" width="89.5333" height="89.5333" fill="#01242D"/>
<rect x="627.732" y="538.067" width="89.5333" height="89.5333" stroke="#183B46"/>
<rect width="2.27649" height="2.27649" transform="translate(671.596 581.928)" fill="#183B46"/>
<rect x="717.268" y="538.067" width="89.5333" height="89.5333" fill="#183B46"/>
<rect x="717.268" y="538.067" width="89.5333" height="89.5333" stroke="#183B46"/>
<rect width="2.27649" height="2.27649" transform="translate(761.131 581.928)" fill="#183B46"/>
<rect x="717.268" y="538.067" width="89.5333" height="89.5333" fill="#01242D"/>
<rect x="717.268" y="538.067" width="89.5333" height="89.5333" stroke="#183B46"/>
<rect width="2.27649" height="2.27649" transform="translate(761.131 581.928)" fill="#183B46"/>
<rect x="806.801" y="538.067" width="89.5333" height="89.5333" fill="#183B46"/>
<rect x="806.801" y="538.067" width="89.5333" height="89.5333" stroke="#183B46"/>
<rect width="2.27649" height="2.27649" transform="translate(850.664 581.928)" fill="#183B46"/>
<rect x="806.801" y="538.067" width="89.5333" height="89.5333" fill="#01242D"/>
<rect x="806.801" y="538.067" width="89.5333" height="89.5333" stroke="#183B46"/>
<rect width="2.27649" height="2.27649" transform="translate(850.664 581.928)" fill="#183B46"/>
<rect x="896.334" y="538.067" width="89.5333" height="89.5333" fill="#183B46"/>
<rect x="896.334" y="538.067" width="89.5333" height="89.5333" stroke="#183B46"/>
<rect width="2.27649" height="2.27649" transform="translate(940.197 581.928)" fill="#183B46"/>
<rect x="896.334" y="538.067" width="89.5333" height="89.5333" fill="#01242D"/>
<rect x="896.334" y="538.067" width="89.5333" height="89.5333" stroke="#183B46"/>
<rect width="2.27649" height="2.27649" transform="translate(940.197 581.928)" fill="#183B46"/>
<rect x="985.867" y="538.067" width="89.5333" height="89.5333" fill="#183B46"/>
<rect x="985.867" y="538.067" width="89.5333" height="89.5333" stroke="#183B46"/>
<rect width="2.27649" height="2.27649" transform="translate(1029.73 581.928)" fill="#183B46"/>
<rect x="985.867" y="538.067" width="89.5333" height="89.5333" fill="#01242D"/>
<rect x="985.867" y="538.067" width="89.5333" height="89.5333" stroke="#183B46"/>
<rect width="2.27649" height="2.27649" transform="translate(1029.73 581.928)" fill="#183B46"/>
<rect x="1075.4" y="538.067" width="89.5333" height="89.5333" fill="#183B46"/>
<rect x="1075.4" y="538.067" width="89.5333" height="89.5333" stroke="#183B46"/>
<rect width="2.27649" height="2.27649" transform="translate(1119.26 581.928)" fill="#183B46"/>
<rect x="1075.4" y="538.067" width="89.5333" height="89.5333" fill="#01242D"/>
<rect x="1075.4" y="538.067" width="89.5333" height="89.5333" stroke="#183B46"/>
<rect width="2.27649" height="2.27649" transform="translate(1119.26 581.928)" fill="#183B46"/>
<rect x="1164.93" y="538.067" width="89.5333" height="89.5333" fill="#183B46"/>
<rect x="1164.93" y="538.067" width="89.5333" height="89.5333" stroke="#183B46"/>
<rect width="2.27649" height="2.27649" transform="translate(1208.8 581.928)" fill="#183B46"/>
<rect x="1164.93" y="538.067" width="89.5333" height="89.5333" rx="16" fill="#01242D"/>
<rect x="1164.93" y="538.067" width="89.5333" height="89.5333" rx="16" stroke="#183B46"/>
<rect width="2.27649" height="2.27649" transform="translate(1208.8 581.928)" fill="#183B46"/>
<rect x="1254.47" y="538.067" width="89.5333" height="89.5333" fill="#183B46"/>
<rect x="1254.47" y="538.067" width="89.5333" height="89.5333" stroke="#183B46"/>
<rect width="2.27649" height="2.27649" transform="translate(1298.33 581.928)" fill="#183B46"/>
<rect x="1254.47" y="538.067" width="89.5333" height="89.5333" rx="32" fill="#01242D"/>
<rect x="1254.47" y="538.067" width="89.5333" height="89.5333" rx="32" stroke="#183B46"/>
<rect x="1297.19" y="580.79" width="4.55297" height="4.55297" rx="1.13824" fill="#183B46"/>
<rect x="1" y="627.6" width="89.5333" height="89.5333" fill="#183B46"/>
<rect x="1" y="627.6" width="89.5333" height="89.5333" stroke="#183B46"/>
<rect width="2.27649" height="2.27649" transform="translate(44.8633 671.462)" fill="#183B46"/>
<path d="M1 635.6C1 631.182 4.58172 627.6 9 627.6H82.5333C86.9516 627.6 90.5333 631.182 90.5333 635.6V709.133C90.5333 713.552 86.9516 717.133 82.5333 717.133H8.99999C4.58171 717.133 1 713.552 1 709.133V635.6Z" fill="#01242D"/>
<path d="M1 635.6C1 631.182 4.58172 627.6 9 627.6H82.5333C86.9516 627.6 90.5333 631.182 90.5333 635.6V709.133C90.5333 713.552 86.9516 717.133 82.5333 717.133H8.99999C4.58171 717.133 1 713.552 1 709.133V635.6Z" stroke="#183B46"/>
<rect width="2.27649" height="2.27649" transform="translate(44.8633 671.462)" fill="#183B46"/>
<rect x="90.5332" y="627.6" width="89.5333" height="89.5333" fill="#183B46"/>
<rect x="90.5332" y="627.6" width="89.5333" height="89.5333" stroke="#183B46"/>
<rect width="2.27649" height="2.27649" transform="translate(134.396 671.462)" fill="#183B46"/>
<path d="M90.5332 635.6C90.5332 631.182 94.1149 627.6 98.5332 627.6H172.067C176.485 627.6 180.067 631.182 180.067 635.6V709.133C180.067 713.552 176.485 717.133 172.067 717.133H98.5332C94.1149 717.133 90.5332 713.552 90.5332 709.133V635.6Z" fill="#01242D"/>
<path d="M90.5332 635.6C90.5332 631.182 94.1149 627.6 98.5332 627.6H172.067C176.485 627.6 180.067 631.182 180.067 635.6V709.133C180.067 713.552 176.485 717.133 172.067 717.133H98.5332C94.1149 717.133 90.5332 713.552 90.5332 709.133V635.6Z" stroke="#183B46"/>
<rect width="2.27649" height="2.27649" transform="translate(134.396 671.462)" fill="#183B46"/>
<rect x="180.066" y="627.6" width="89.5333" height="89.5333" fill="#183B46"/>
<rect x="180.066" y="627.6" width="89.5333" height="89.5333" stroke="#183B46"/>
<rect width="2.27649" height="2.27649" transform="translate(223.93 671.462)" fill="#183B46"/>
<path d="M180.066 635.6C180.066 631.182 183.648 627.6 188.066 627.6H261.6C266.018 627.6 269.6 631.182 269.6 635.6V709.133C269.6 713.552 266.018 717.133 261.6 717.133H188.066C183.648 717.133 180.066 713.552 180.066 709.133V635.6Z" fill="#01242D"/>
<path d="M180.066 635.6C180.066 631.182 183.648 627.6 188.066 627.6H261.6C266.018 627.6 269.6 631.182 269.6 635.6V709.133C269.6 713.552 266.018 717.133 261.6 717.133H188.066C183.648 717.133 180.066 713.552 180.066 709.133V635.6Z" stroke="#183B46"/>
<rect width="2.27649" height="2.27649" transform="translate(223.93 671.462)" fill="#183B46"/>
<rect x="269.6" y="627.6" width="89.5333" height="89.5333" fill="#183B46"/>
<rect x="269.6" y="627.6" width="89.5333" height="89.5333" stroke="#183B46"/>
<rect width="2.27649" height="2.27649" transform="translate(313.463 671.462)" fill="#183B46"/>
<path d="M269.6 635.6C269.6 631.182 273.181 627.6 277.6 627.6H351.133C355.551 627.6 359.133 631.182 359.133 635.6V709.133C359.133 713.552 355.551 717.133 351.133 717.133H277.6C273.181 717.133 269.6 713.552 269.6 709.133V635.6Z" fill="#01242D"/>
<path d="M269.6 635.6C269.6 631.182 273.181 627.6 277.6 627.6H351.133C355.551 627.6 359.133 631.182 359.133 635.6V709.133C359.133 713.552 355.551 717.133 351.133 717.133H277.6C273.181 717.133 269.6 713.552 269.6 709.133V635.6Z" stroke="#183B46"/>
<rect width="2.27649" height="2.27649" transform="translate(313.463 671.462)" fill="#183B46"/>
<rect x="359.133" y="627.6" width="89.5333" height="89.5333" fill="#183B46"/>
<rect x="359.133" y="627.6" width="89.5333" height="89.5333" stroke="#183B46"/>
<rect width="2.27649" height="2.27649" transform="translate(402.996 671.462)" fill="#183B46"/>
<path d="M359.133 635.6C359.133 631.182 362.715 627.6 367.133 627.6H440.666C445.084 627.6 448.666 631.182 448.666 635.6V709.133C448.666 713.552 445.084 717.133 440.666 717.133H367.133C362.715 717.133 359.133 713.552 359.133 709.133V635.6Z" fill="#01242D"/>
<path d="M359.133 635.6C359.133 631.182 362.715 627.6 367.133 627.6H440.666C445.084 627.6 448.666 631.182 448.666 635.6V709.133C448.666 713.552 445.084 717.133 440.666 717.133H367.133C362.715 717.133 359.133 713.552 359.133 709.133V635.6Z" stroke="#183B46"/>
<rect width="2.27649" height="2.27649" transform="translate(402.996 671.462)" fill="#183B46"/>
<path d="M448.666 632.153C448.666 629.638 450.704 627.6 453.219 627.6H533.646C536.161 627.6 538.199 629.638 538.199 632.153V712.58C538.199 715.095 536.161 717.133 533.646 717.133H453.219C450.704 717.133 448.666 715.095 448.666 712.58V632.153Z" fill="#01242D"/>
<path d="M448.666 632.153C448.666 629.638 450.704 627.6 453.219 627.6H533.646C536.161 627.6 538.199 629.638 538.199 632.153V712.58C538.199 715.095 536.161 717.133 533.646 717.133H453.219C450.704 717.133 448.666 715.095 448.666 712.58V632.153Z" stroke="#183B46"/>
<rect width="2.27649" height="2.27649" transform="translate(492.529 671.462)" fill="#183B46"/>
<path d="M448.666 635.6C448.666 631.182 452.248 627.6 456.666 627.6H530.199C534.618 627.6 538.199 631.182 538.199 635.6V709.133C538.199 713.552 534.618 717.133 530.199 717.133H456.666C452.248 717.133 448.666 713.552 448.666 709.133V635.6Z" fill="#01242D"/>
<path d="M448.666 635.6C448.666 631.182 452.248 627.6 456.666 627.6H530.199C534.618 627.6 538.199 631.182 538.199 635.6V709.133C538.199 713.552 534.618 717.133 530.199 717.133H456.666C452.248 717.133 448.666 713.552 448.666 709.133V635.6Z" stroke="#183B46"/>
<rect width="2.27649" height="2.27649" transform="translate(492.529 671.462)" fill="#183B46"/>
<rect x="538.199" y="627.6" width="89.5333" height="89.5333" fill="#183B46"/>
<rect x="538.199" y="627.6" width="89.5333" height="89.5333" stroke="#183B46"/>
<rect width="2.27649" height="2.27649" transform="translate(582.062 671.462)" fill="#183B46"/>
<rect x="538.199" y="627.6" width="89.5333" height="89.5333" rx="16" fill="#01242D"/>
<rect x="538.199" y="627.6" width="89.5333" height="89.5333" rx="16" stroke="#183B46"/>
<rect width="2.27649" height="2.27649" transform="translate(582.062 671.462)" fill="#183B46"/>
<rect x="627.732" y="627.6" width="89.5333" height="89.5333" fill="#183B46"/>
<rect x="627.732" y="627.6" width="89.5333" height="89.5333" stroke="#183B46"/>
<rect width="2.27649" height="2.27649" transform="translate(671.596 671.462)" fill="#183B46"/>
<path d="M627.732 635.6C627.732 631.182 631.314 627.6 635.732 627.6H709.266C713.684 627.6 717.266 631.182 717.266 635.6V709.133C717.266 713.552 713.684 717.133 709.266 717.133H635.732C631.314 717.133 627.732 713.552 627.732 709.133V635.6Z" fill="#01242D"/>
<path d="M627.732 635.6C627.732 631.182 631.314 627.6 635.732 627.6H709.266C713.684 627.6 717.266 631.182 717.266 635.6V709.133C717.266 713.552 713.684 717.133 709.266 717.133H635.732C631.314 717.133 627.732 713.552 627.732 709.133V635.6Z" stroke="#183B46"/>
<rect width="2.27649" height="2.27649" transform="translate(671.596 671.462)" fill="#183B46"/>
<rect x="717.268" y="627.6" width="89.5333" height="89.5333" fill="#183B46"/>
<rect x="717.268" y="627.6" width="89.5333" height="89.5333" stroke="#183B46"/>
<rect width="2.27649" height="2.27649" transform="translate(761.131 671.462)" fill="#183B46"/>
<rect x="717.268" y="627.6" width="89.5333" height="89.5333" fill="#01242D"/>
<rect x="717.268" y="627.6" width="89.5333" height="89.5333" stroke="#183B46"/>
<rect width="2.27649" height="2.27649" transform="translate(761.131 671.462)" fill="#183B46"/>
<rect x="806.801" y="627.6" width="89.5333" height="89.5333" fill="#183B46"/>
<rect x="806.801" y="627.6" width="89.5333" height="89.5333" stroke="#183B46"/>
<rect width="2.27649" height="2.27649" transform="translate(850.664 671.462)" fill="#183B46"/>
<path d="M806.801 635.6C806.801 631.182 810.383 627.6 814.801 627.6H888.334C892.752 627.6 896.334 631.182 896.334 635.6V709.133C896.334 713.552 892.752 717.133 888.334 717.133H814.801C810.382 717.133 806.801 713.552 806.801 709.133V635.6Z" fill="#01242D"/>
<path d="M806.801 635.6C806.801 631.182 810.383 627.6 814.801 627.6H888.334C892.752 627.6 896.334 631.182 896.334 635.6V709.133C896.334 713.552 892.752 717.133 888.334 717.133H814.801C810.382 717.133 806.801 713.552 806.801 709.133V635.6Z" stroke="#183B46"/>
<rect width="2.27649" height="2.27649" transform="translate(850.664 671.462)" fill="#183B46"/>
<rect x="896.334" y="627.6" width="89.5333" height="89.5333" fill="#183B46"/>
<rect x="896.334" y="627.6" width="89.5333" height="89.5333" stroke="#183B46"/>
<rect width="2.27649" height="2.27649" transform="translate(940.197 671.462)" fill="#183B46"/>
<path d="M896.334 635.6C896.334 631.182 899.916 627.6 904.334 627.6H977.867C982.286 627.6 985.867 631.182 985.867 635.6V709.133C985.867 713.552 982.286 717.133 977.867 717.133H904.334C899.916 717.133 896.334 713.552 896.334 709.133V635.6Z" fill="#01242D"/>
<path d="M896.334 635.6C896.334 631.182 899.916 627.6 904.334 627.6H977.867C982.286 627.6 985.867 631.182 985.867 635.6V709.133C985.867 713.552 982.286 717.133 977.867 717.133H904.334C899.916 717.133 896.334 713.552 896.334 709.133V635.6Z" stroke="#183B46"/>
<rect width="2.27649" height="2.27649" transform="translate(940.197 671.462)" fill="#183B46"/>
<rect x="985.867" y="627.6" width="89.5333" height="89.5333" fill="#183B46"/>
<rect x="985.867" y="627.6" width="89.5333" height="89.5333" stroke="#183B46"/>
<rect width="2.27649" height="2.27649" transform="translate(1029.73 671.462)" fill="#183B46"/>
<rect x="985.867" y="627.6" width="89.5333" height="89.5333" rx="32" fill="#01242D"/>
<rect x="985.867" y="627.6" width="89.5333" height="89.5333" rx="32" stroke="#183B46"/>
<rect width="2.27649" height="2.27649" transform="translate(1029.73 671.462)" fill="#183B46"/>
<rect x="1075.4" y="627.6" width="89.5333" height="89.5333" fill="#183B46"/>
<rect x="1075.4" y="627.6" width="89.5333" height="89.5333" stroke="#183B46"/>
<rect width="2.27649" height="2.27649" transform="translate(1119.26 671.462)" fill="#183B46"/>
<rect x="1075.4" y="627.6" width="89.5333" height="89.5333" fill="#01242D"/>
<rect x="1075.4" y="627.6" width="89.5333" height="89.5333" stroke="#183B46"/>
<rect width="2.27649" height="2.27649" transform="translate(1119.26 671.462)" fill="#183B46"/>
<rect x="1164.93" y="627.6" width="89.5333" height="89.5333" fill="#183B46"/>
<rect x="1164.93" y="627.6" width="89.5333" height="89.5333" stroke="#183B46"/>
<rect width="2.27649" height="2.27649" transform="translate(1208.8 671.462)" fill="#183B46"/>
<rect x="1164.93" y="627.6" width="89.5333" height="89.5333" rx="34.1473" fill="#01242D"/>
<rect x="1164.93" y="627.6" width="89.5333" height="89.5333" rx="34.1473" stroke="#183B46"/>
<rect x="1207.66" y="670.323" width="4.55297" height="4.55297" rx="1.13824" fill="#183B46"/>
<rect x="1254.47" y="627.6" width="89.5333" height="89.5333" fill="#183B46"/>
<rect x="1254.47" y="627.6" width="89.5333" height="89.5333" stroke="#183B46"/>
<rect width="2.27649" height="2.27649" transform="translate(1298.33 671.462)" fill="#183B46"/>
<path d="M1254.47 635.6C1254.47 631.182 1258.05 627.6 1262.47 627.6H1336C1340.42 627.6 1344 631.182 1344 635.6V709.133C1344 713.552 1340.42 717.133 1336 717.133H1262.47C1258.05 717.133 1254.47 713.552 1254.47 709.133V635.6Z" fill="#01242D"/>
<path d="M1254.47 635.6C1254.47 631.182 1258.05 627.6 1262.47 627.6H1336C1340.42 627.6 1344 631.182 1344 635.6V709.133C1344 713.552 1340.42 717.133 1336 717.133H1262.47C1258.05 717.133 1254.47 713.552 1254.47 709.133V635.6Z" stroke="#183B46"/>
<rect width="2.27649" height="2.27649" transform="translate(1298.33 671.462)" fill="#183B46"/>
</svg>
