<svg width="18" height="17" viewBox="0 0 18 17" fill="none" xmlns="http://www.w3.org/2000/svg">
<path fill-rule="evenodd" clip-rule="evenodd" d="M8.97318 0C4.01125 0 0 3.89583 0 8.71551C0 12.5681 2.57014 15.8293 6.13561 16.9835C6.58139 17.0703 6.74467 16.796 6.74467 16.5653C6.74467 16.3632 6.72998 15.6706 6.72998 14.949C4.23386 15.4686 3.71406 13.9101 3.71406 13.9101C3.31292 12.9 2.71855 12.6404 2.71855 12.6404C1.90157 12.1065 2.77806 12.1065 2.77806 12.1065C3.68431 12.1642 4.15984 13.0011 4.15984 13.0011C4.96194 14.3285 6.25445 13.9535 6.77443 13.7225C6.84863 13.1598 7.08649 12.7702 7.33904 12.5538C5.3482 12.3517 3.25359 11.6014 3.25359 8.25368C3.25359 7.30132 3.60992 6.52216 4.17453 5.91618C4.08545 5.69978 3.77339 4.80498 4.2638 3.60736C4.2638 3.60736 5.02145 3.37645 6.7298 4.50199C7.4612 4.31121 8.21549 4.21416 8.97318 4.21334C9.73084 4.21334 10.5032 4.31446 11.2164 4.50199C12.9249 3.37645 13.6826 3.60736 13.6826 3.60736C14.173 4.80498 13.8607 5.69978 13.7717 5.91618C14.3511 6.52216 14.6928 7.30132 14.6928 8.25368C14.6928 11.6014 12.5982 12.3372 10.5924 12.5538C10.9194 12.8279 11.2015 13.3473 11.2015 14.1699C11.2015 15.3386 11.1868 16.2766 11.1868 16.5651C11.1868 16.796 11.3503 17.0703 11.7959 16.9837C15.3613 15.8291 17.9315 12.5681 17.9315 8.71551C17.9462 3.89583 13.9202 0 8.97318 0Z" fill="white"/>
</svg>
