<svg width="14" height="14" viewBox="0 0 14 14" fill="none" xmlns="http://www.w3.org/2000/svg">
<path fill-rule="evenodd" clip-rule="evenodd" d="M14 14H11.2V9.10069C11.2 7.75669 10.6071 7.00684 9.54384 7.00684C8.38671 7.00684 7.70001 7.7882 7.70001 9.10069V14H4.9V4.9H7.70001V5.92335C7.70001 5.92335 8.5785 4.38184 10.5581 4.38184C12.5384 4.38184 14 5.59028 14 8.09068V14ZM1.70941 3.44464C0.765105 3.44464 0 2.67328 0 1.72198C0 0.771372 0.765105 0 1.70941 0C2.65301 0 3.4181 0.771372 3.4181 1.72198C3.41881 2.67328 2.65301 3.44464 1.70941 3.44464ZM0 14H3.5V4.9H0V14Z" fill="white"/>
</svg>
