<svg width="92" height="26" viewBox="0 0 92 26" fill="none" xmlns="http://www.w3.org/2000/svg">
<path d="M14.7103 1.0888C16.0458 1.75985 17.0828 2.71051 17.8264 3.94078C18.57 5.17105 18.9342 6.60467 18.9342 8.24163C18.9342 9.8786 18.484 11.4495 17.5886 12.7408C16.6933 14.032 15.4893 14.9471 13.9819 15.486L19.3692 25.6941H14.7103L9.86928 16.4011H4.18851V25.6941H2.8282e-05V2.59359C2.8282e-05 1.20572 0 1.35315 0 0.0822144C1.38099 0.0822144 10.0463 0.0822144 10.0463 0.0822144C11.8168 0.0822144 13.3698 0.417742 14.7053 1.0888H14.7103ZM9.72258 12.7408C11.225 12.7408 12.4238 12.3341 13.3091 11.5156C14.1943 10.6971 14.6395 9.60916 14.6395 8.24163C14.6395 6.8741 14.1943 5.78618 13.3091 4.9677C12.4238 4.14921 11.23 3.74251 9.72258 3.74251H4.18851V12.7458H9.72258V12.7408Z" fill="white"/>
<path d="M24.3523 7.93154C25.7232 7.13848 27.2964 6.74194 29.0669 6.74194C30.8374 6.74194 32.446 7.10797 33.8169 7.84003C35.1877 8.57209 36.2703 9.60918 37.0594 10.9513C37.8485 12.2934 38.2532 13.8643 38.2785 15.669C38.2785 16.157 38.2431 16.6553 38.1672 17.1687H24.1146V17.3873C24.2107 19.0243 24.7216 20.3156 25.6422 21.2662C26.5629 22.2169 27.7921 22.6947 29.3198 22.6947C30.5339 22.6947 31.5557 22.4101 32.3802 21.8356C33.2048 21.2611 33.7511 20.4528 34.0192 19.4005H37.9497C37.6108 21.3018 36.6952 22.8625 35.2029 24.0826C33.7106 25.3027 31.8491 25.9128 29.6132 25.9128C27.6707 25.9128 25.9812 25.5162 24.5344 24.7232C23.0927 23.9301 21.9748 22.8168 21.1857 21.373C20.3965 19.9292 20.002 18.2617 20.002 16.3604C20.002 14.4591 20.3864 12.7459 21.1502 11.2919C21.9141 9.83795 22.9814 8.71952 24.3523 7.92646V7.93154ZM32.6534 11.0784C31.7429 10.3107 30.5946 9.92437 29.2136 9.92437C27.9287 9.92437 26.8158 10.3209 25.88 11.114C24.9442 11.907 24.4029 12.9594 24.2613 14.2811H34.2721C34.1002 12.9136 33.5639 11.846 32.6534 11.0784Z" fill="white"/>
<path d="M64.2605 7.93154C65.6314 7.13848 67.2046 6.74194 68.9751 6.74194C70.7456 6.74194 72.3542 7.10797 73.7251 7.84003C75.096 8.57209 76.1785 9.60918 76.9676 10.9513C77.7567 12.2934 78.1614 13.8643 78.1867 15.669C78.1867 16.157 78.1513 16.6553 78.0754 17.1687H64.0228V17.3873C64.1189 19.0243 64.6298 20.3156 65.5504 21.2662C66.4711 22.2169 67.7003 22.6947 69.228 22.6947C70.4421 22.6947 71.4588 22.4101 72.2884 21.8356C73.113 21.2611 73.6593 20.4528 73.9274 19.4005H77.8579C77.519 21.3018 76.6034 22.8625 75.1111 24.0826C73.6188 25.3027 71.7522 25.9128 69.5214 25.9128C67.5789 25.9128 65.8843 25.5162 64.4426 24.7232C62.9959 23.9301 61.883 22.8168 61.0939 21.373C60.3047 19.9292 59.9102 18.2617 59.9102 16.3604C59.9102 14.4591 60.2895 12.7459 61.0584 11.2919C61.8223 9.83795 62.8896 8.71952 64.2605 7.92646V7.93154ZM72.5616 11.0784C71.6511 10.3107 70.5028 9.92437 69.1218 9.92437C67.8369 9.92437 66.724 10.3209 65.7933 11.114C64.8574 11.907 64.3162 12.9594 64.1745 14.2811H74.1854C74.0134 12.9136 73.4772 11.846 72.5667 11.0784H72.5616Z" fill="white"/>
<path d="M44.4045 16.0248C44.3589 15.9333 44.3387 15.8317 44.3387 15.73V6.96051H40.4082V15.73C40.4082 16.4163 40.56 17.1026 40.8534 17.7177L44.6119 25.6992H48.9622L44.4095 16.0299L44.4045 16.0248Z" fill="white"/>
<path d="M53.9458 6.96057V15.73C53.9458 15.8317 53.9256 15.9283 53.88 16.0198L49.3223 25.6942H53.6726L57.4311 17.7076C57.7195 17.0925 57.8712 16.4113 57.8712 15.73V6.96057H53.9407H53.9458Z" fill="white"/>
<path d="M89.5535 23.7064V24.0114H88.911V25.7907H88.5721V24.0114H87.9297V23.7064H89.5535Z" fill="white"/>
<path d="M90.2506 23.7063L90.9133 25.3484L91.5659 23.7063H92.0009V25.7906H91.6721V24.2553L91.0499 25.7906H90.7616L90.1394 24.2553V25.7906H89.8105V23.7063H90.2506Z" fill="white"/>
<path d="M91.2917 6.73682L84.4272 9.59897L83.9795 6.9605H80.5625V22.471H80.5726V25.6941H84.5082V13.2999L91.2917 10.4327V6.73682Z" fill="white"/>
</svg>
