<svg width="105" height="40" viewBox="0 0 105 40" fill="none" xmlns="http://www.w3.org/2000/svg">
<path d="M25.7103 7.0888C27.0458 7.75985 28.0828 8.71051 28.8264 9.94078C29.57 11.171 29.9342 12.6047 29.9342 14.2416C29.9342 15.8786 29.484 17.4495 28.5886 18.7408C27.6933 20.032 26.4893 20.9471 24.9819 21.486L30.3692 31.6941H25.7103L20.8693 22.4011H15.1885V31.6941H11V8.59359C11 7.20572 11 7.35315 11 6.08221C12.381 6.08221 21.0463 6.08221 21.0463 6.08221C22.8168 6.08221 24.3698 6.41774 25.7053 7.0888H25.7103ZM20.7226 18.7408C22.225 18.7408 23.4238 18.3341 24.3091 17.5156C25.1943 16.6971 25.6395 15.6092 25.6395 14.2416C25.6395 12.8741 25.1943 11.7862 24.3091 10.9677C23.4238 10.1492 22.23 9.74251 20.7226 9.74251H15.1885V18.7458H20.7226V18.7408Z" fill="white"/>
<path d="M35.3523 13.9315C36.7232 13.1385 38.2964 12.7419 40.0669 12.7419C41.8374 12.7419 43.446 13.108 44.8169 13.84C46.1877 14.5721 47.2703 15.6092 48.0594 16.9513C48.8485 18.2934 49.2532 19.8643 49.2785 21.669C49.2785 22.157 49.2431 22.6553 49.1672 23.1687H35.1146V23.3873C35.2107 25.0243 35.7216 26.3156 36.6422 27.2662C37.5629 28.2169 38.7921 28.6947 40.3198 28.6947C41.5339 28.6947 42.5557 28.4101 43.3802 27.8356C44.2048 27.2611 44.7511 26.4528 45.0192 25.4005H48.9497C48.6108 27.3018 47.6952 28.8625 46.2029 30.0826C44.7106 31.3027 42.8491 31.9128 40.6132 31.9128C38.6707 31.9128 36.9812 31.5162 35.5344 30.7232C34.0927 29.9301 32.9748 28.8168 32.1857 27.373C31.3965 25.9292 31.002 24.2617 31.002 22.3604C31.002 20.4591 31.3864 18.7459 32.1502 17.2919C32.9141 15.8379 33.9814 14.7195 35.3523 13.9265V13.9315ZM43.6534 17.0784C42.7429 16.3107 41.5946 15.9244 40.2136 15.9244C38.9287 15.9244 37.8158 16.3209 36.88 17.114C35.9442 17.907 35.4029 18.9594 35.2613 20.2811H45.2721C45.1002 18.9136 44.5639 17.846 43.6534 17.0784Z" fill="white"/>
<path d="M75.2605 13.9315C76.6314 13.1385 78.2046 12.7419 79.9751 12.7419C81.7456 12.7419 83.3542 13.108 84.7251 13.84C86.096 14.5721 87.1785 15.6092 87.9676 16.9513C88.7567 18.2934 89.1614 19.8643 89.1867 21.669C89.1867 22.157 89.1513 22.6553 89.0754 23.1687H75.0228V23.3873C75.1189 25.0243 75.6298 26.3156 76.5504 27.2662C77.4711 28.2169 78.7003 28.6947 80.228 28.6947C81.4421 28.6947 82.4588 28.4101 83.2884 27.8356C84.113 27.2611 84.6593 26.4528 84.9274 25.4005H88.8579C88.519 27.3018 87.6034 28.8625 86.1111 30.0826C84.6188 31.3027 82.7522 31.9128 80.5214 31.9128C78.5789 31.9128 76.8843 31.5162 75.4426 30.7232C73.9959 29.9301 72.883 28.8168 72.0939 27.373C71.3047 25.9292 70.9102 24.2617 70.9102 22.3604C70.9102 20.4591 71.2895 18.7459 72.0584 17.2919C72.8223 15.8379 73.8896 14.7195 75.2605 13.9265V13.9315ZM83.5616 17.0784C82.6511 16.3107 81.5028 15.9244 80.1218 15.9244C78.8369 15.9244 77.724 16.3209 76.7933 17.114C75.8574 17.907 75.3162 18.9594 75.1745 20.2811H85.1854C85.0134 18.9136 84.4772 17.846 83.5667 17.0784H83.5616Z" fill="white"/>
<path d="M55.4045 22.0248C55.3589 21.9333 55.3387 21.8317 55.3387 21.73V12.9605H51.4082V21.73C51.4082 22.4163 51.56 23.1026 51.8534 23.7177L55.6119 31.6992H59.9622L55.4095 22.0299L55.4045 22.0248Z" fill="white"/>
<path d="M64.9458 12.9606V21.73C64.9458 21.8317 64.9256 21.9283 64.88 22.0198L60.3223 31.6942H64.6726L68.4311 23.7076C68.7195 23.0925 68.8712 22.4112 68.8712 21.73V12.9606H64.9407H64.9458Z" fill="white"/>
<path d="M100.553 29.7064V30.0114H99.911V31.7907H99.5721V30.0114H98.9297V29.7064H100.553Z" fill="white"/>
<path d="M101.251 29.7063L101.913 31.3484L102.566 29.7063H103.001V31.7907H102.672V30.2554L102.05 31.7907H101.762L101.139 30.2554V31.7907H100.811V29.7063H101.251Z" fill="white"/>
<path d="M102.292 12.7368L95.4272 15.599L94.9795 12.9605H91.5625V28.471H91.5726V31.6941H95.5082V19.2999L102.292 16.4327V12.7368Z" fill="white"/>
</svg>
