<svg width="721" height="655" viewBox="0 0 721 655" fill="none" xmlns="http://www.w3.org/2000/svg">
<g clip-path="url(#clip0_579_19555)">
<rect x="-1" y="-0.500977" width="720" height="656" fill="#01242D"/>
<rect x="-0.710948" width="1077.73" height="972.373" transform="matrix(0.866025 -0.5 0.866025 0.5 -651.095 379.603)" fill="#033642"/>
<rect x="-0.710948" width="1077.73" height="972.373" transform="matrix(0.866025 -0.5 0.866025 0.5 -651.095 379.603)" stroke="#183B46" stroke-width="0.820932"/>
<rect width="108.028" height="108.028" rx="18.9049" transform="matrix(0.866025 -0.5 0.866025 0.5 -183.785 542.013)" fill="#01242D"/>
<rect width="108.028" height="108.028" rx="18.9049" transform="matrix(0.866025 -0.5 0.866025 0.5 -183.785 542.013)" stroke="#033642" stroke-width="1.35035"/>
<rect width="108.028" height="108.028" rx="18.9049" transform="matrix(0.866025 -0.5 0.866025 0.5 -90.5234 488.167)" fill="#01242D"/>
<rect width="108.028" height="108.028" rx="18.9049" transform="matrix(0.866025 -0.5 0.866025 0.5 -90.5234 488.167)" stroke="#033642" stroke-width="1.35035"/>
<rect width="2.7007" height="2.7007" transform="matrix(0.866025 -0.5 0.866025 0.5 0.667969 488.167)" fill="#033642"/>
<rect width="108.028" height="108.028" rx="40.5106" transform="matrix(0.866025 -0.5 0.866025 0.5 2.74023 434.321)" fill="#01242D"/>
<rect width="108.028" height="108.028" rx="40.5106" transform="matrix(0.866025 -0.5 0.866025 0.5 2.74023 434.321)" stroke="#033642" stroke-width="1.35035"/>
<rect width="5.40141" height="5.40141" rx="1.35035" transform="matrix(0.866025 -0.5 0.866025 0.5 91.5938 434.321)" fill="#033642"/>
<rect width="108.028" height="108.028" rx="54.0141" transform="matrix(0.866025 -0.5 0.866025 0.5 96.0039 380.476)" fill="#01242D"/>
<rect width="108.028" height="108.028" rx="54.0141" transform="matrix(0.866025 -0.5 0.866025 0.5 96.0039 380.476)" stroke="#033642" stroke-width="1.35035"/>
<rect width="5.40141" height="5.40141" rx="2.7007" transform="matrix(0.866025 -0.5 0.866025 0.5 184.857 380.476)" fill="#033642"/>
<rect width="108.028" height="108.028" rx="54.0141" transform="matrix(0.866025 -0.5 0.866025 0.5 189.268 326.63)" fill="#01242D"/>
<rect width="108.028" height="108.028" rx="54.0141" transform="matrix(0.866025 -0.5 0.866025 0.5 189.268 326.63)" stroke="#033642" stroke-width="1.35035"/>
<rect width="5.40141" height="5.40141" rx="2.7007" transform="matrix(0.866025 -0.5 0.866025 0.5 278.121 326.63)" fill="#033642"/>
<rect width="108.028" height="108.028" rx="40.5106" transform="matrix(0.866025 -0.5 0.866025 0.5 282.531 272.784)" fill="#01242D"/>
<rect width="108.028" height="108.028" rx="40.5106" transform="matrix(0.866025 -0.5 0.866025 0.5 282.531 272.784)" stroke="#033642" stroke-width="1.35035"/>
<rect width="5.40141" height="5.40141" rx="1.35035" transform="matrix(0.866025 -0.5 0.866025 0.5 371.385 272.784)" fill="#033642"/>
<rect width="108.028" height="108.028" rx="40.5106" transform="matrix(0.866025 -0.5 0.866025 0.5 375.795 218.938)" fill="#01242D"/>
<rect width="108.028" height="108.028" rx="40.5106" transform="matrix(0.866025 -0.5 0.866025 0.5 375.795 218.938)" stroke="#033642" stroke-width="1.35035"/>
<rect width="5.40141" height="5.40141" rx="1.35035" transform="matrix(0.866025 -0.5 0.866025 0.5 464.648 218.938)" fill="#033642"/>
<rect width="108.028" height="108.028" rx="18.9049" transform="matrix(0.866025 -0.5 0.866025 0.5 469.059 165.093)" fill="#01242D"/>
<rect width="108.028" height="108.028" rx="18.9049" transform="matrix(0.866025 -0.5 0.866025 0.5 469.059 165.093)" stroke="#033642" stroke-width="1.35035"/>
<rect width="2.7007" height="2.7007" transform="matrix(0.866025 -0.5 0.866025 0.5 560.25 165.093)" fill="#033642"/>
<rect width="108.028" height="108.028" rx="5.40141" transform="matrix(0.866025 -0.5 0.866025 0.5 562.322 111.247)" fill="#01242D"/>
<rect width="108.028" height="108.028" rx="5.40141" transform="matrix(0.866025 -0.5 0.866025 0.5 562.322 111.247)" stroke="#033642" stroke-width="1.35035"/>
<rect width="2.7007" height="2.7007" transform="matrix(0.866025 -0.5 0.866025 0.5 653.514 111.247)" fill="#033642"/>
<rect width="108.028" height="108.028" rx="18.9049" transform="matrix(0.866025 -0.5 0.866025 0.5 -183.562 649.834)" fill="#01242D"/>
<rect width="108.028" height="108.028" rx="18.9049" transform="matrix(0.866025 -0.5 0.866025 0.5 -183.562 649.834)" stroke="#033642" stroke-width="1.35035"/>
<rect width="108.028" height="108.028" rx="18.9049" transform="matrix(0.866025 -0.5 0.866025 0.5 -90.2988 595.988)" fill="#01242D"/>
<rect width="108.028" height="108.028" rx="18.9049" transform="matrix(0.866025 -0.5 0.866025 0.5 -90.2988 595.988)" stroke="#033642" stroke-width="1.35035"/>
<rect width="2.7007" height="2.7007" transform="matrix(0.866025 -0.5 0.866025 0.5 0.892578 595.988)" fill="#033642"/>
<rect width="108.028" height="108.028" rx="18.9049" transform="matrix(0.866025 -0.5 0.866025 0.5 2.96484 542.143)" fill="#01242D"/>
<rect width="108.028" height="108.028" rx="18.9049" transform="matrix(0.866025 -0.5 0.866025 0.5 2.96484 542.143)" stroke="#033642" stroke-width="1.35035"/>
<rect width="2.7007" height="2.7007" transform="matrix(0.866025 -0.5 0.866025 0.5 94.1562 542.143)" fill="#033642"/>
<rect width="108.028" height="108.028" rx="18.9049" transform="matrix(0.866025 -0.5 0.866025 0.5 96.2285 488.297)" fill="#01242D"/>
<rect width="108.028" height="108.028" rx="18.9049" transform="matrix(0.866025 -0.5 0.866025 0.5 96.2285 488.297)" stroke="#033642" stroke-width="1.35035"/>
<rect width="2.7007" height="2.7007" transform="matrix(0.866025 -0.5 0.866025 0.5 187.42 488.297)" fill="#033642"/>
<rect width="108.028" height="108.028" rx="40.5106" transform="matrix(0.866025 -0.5 0.866025 0.5 189.492 434.451)" fill="#01242D"/>
<rect width="108.028" height="108.028" rx="40.5106" transform="matrix(0.866025 -0.5 0.866025 0.5 189.492 434.451)" stroke="#033642" stroke-width="1.35035"/>
<rect width="5.40141" height="5.40141" rx="1.35035" transform="matrix(0.866025 -0.5 0.866025 0.5 278.346 434.451)" fill="#033642"/>
<rect width="108.028" height="108.028" rx="54.0141" transform="matrix(0.866025 -0.5 0.866025 0.5 282.756 380.605)" fill="#01242D"/>
<rect width="108.028" height="108.028" rx="54.0141" transform="matrix(0.866025 -0.5 0.866025 0.5 282.756 380.605)" stroke="#033642" stroke-width="1.35035"/>
<rect width="5.40141" height="5.40141" rx="2.7007" transform="matrix(0.866025 -0.5 0.866025 0.5 371.609 380.605)" fill="#033642"/>
<rect width="108.028" height="108.028" rx="18.9049" transform="matrix(0.866025 -0.5 0.866025 0.5 376.02 326.76)" fill="#01242D"/>
<rect width="108.028" height="108.028" rx="18.9049" transform="matrix(0.866025 -0.5 0.866025 0.5 376.02 326.76)" stroke="#033642" stroke-width="1.35035"/>
<rect width="2.7007" height="2.7007" transform="matrix(0.866025 -0.5 0.866025 0.5 467.211 326.76)" fill="#033642"/>
<rect width="108.028" height="108.028" rx="18.9049" transform="matrix(0.866025 -0.5 0.866025 0.5 469.283 272.914)" fill="#01242D"/>
<rect width="108.028" height="108.028" rx="18.9049" transform="matrix(0.866025 -0.5 0.866025 0.5 469.283 272.914)" stroke="#033642" stroke-width="1.35035"/>
<rect width="2.7007" height="2.7007" transform="matrix(0.866025 -0.5 0.866025 0.5 560.475 272.914)" fill="#033642"/>
<rect width="108.028" height="108.028" rx="5.40141" transform="matrix(0.866025 -0.5 0.866025 0.5 562.545 219.068)" fill="#01242D"/>
<rect width="108.028" height="108.028" rx="5.40141" transform="matrix(0.866025 -0.5 0.866025 0.5 562.545 219.068)" stroke="#033642" stroke-width="1.35035"/>
<rect width="2.7007" height="2.7007" transform="matrix(0.866025 -0.5 0.866025 0.5 653.736 219.068)" fill="#033642"/>
<rect width="108.028" height="108.028" rx="5.40141" transform="matrix(0.866025 -0.5 0.866025 0.5 655.809 165.223)" fill="#01242D"/>
<rect width="108.028" height="108.028" rx="5.40141" transform="matrix(0.866025 -0.5 0.866025 0.5 655.809 165.223)" stroke="#033642" stroke-width="1.35035"/>
<rect width="108.028" height="108.028" rx="5.40141" transform="matrix(0.866025 -0.5 0.866025 0.5 -90.0742 703.809)" fill="#01242D"/>
<rect width="108.028" height="108.028" rx="5.40141" transform="matrix(0.866025 -0.5 0.866025 0.5 -90.0742 703.809)" stroke="#033642" stroke-width="1.35035"/>
<rect width="108.028" height="108.028" rx="5.40141" transform="matrix(0.866025 -0.5 0.866025 0.5 3.18945 649.963)" fill="#01242D"/>
<rect width="108.028" height="108.028" rx="5.40141" transform="matrix(0.866025 -0.5 0.866025 0.5 3.18945 649.963)" stroke="#033642" stroke-width="1.35035"/>
<rect width="2.7007" height="2.7007" transform="matrix(0.866025 -0.5 0.866025 0.5 94.3809 649.963)" fill="#033642"/>
<rect width="108.028" height="108.028" rx="18.9049" transform="matrix(0.866025 -0.5 0.866025 0.5 96.4531 596.117)" fill="#01242D"/>
<rect width="108.028" height="108.028" rx="18.9049" transform="matrix(0.866025 -0.5 0.866025 0.5 96.4531 596.117)" stroke="#033642" stroke-width="1.35035"/>
<rect width="2.7007" height="2.7007" transform="matrix(0.866025 -0.5 0.866025 0.5 187.645 596.117)" fill="#033642"/>
<rect width="108.028" height="108.028" rx="18.9049" transform="matrix(0.866025 -0.5 0.866025 0.5 189.717 542.271)" fill="#01242D"/>
<rect width="108.028" height="108.028" rx="18.9049" transform="matrix(0.866025 -0.5 0.866025 0.5 189.717 542.271)" stroke="#033642" stroke-width="1.35035"/>
<rect width="2.7007" height="2.7007" transform="matrix(0.866025 -0.5 0.866025 0.5 280.908 542.271)" fill="#033642"/>
<rect width="108.028" height="108.028" rx="40.5106" transform="matrix(0.866025 -0.5 0.866025 0.5 282.98 488.426)" fill="#01242D"/>
<rect width="108.028" height="108.028" rx="40.5106" transform="matrix(0.866025 -0.5 0.866025 0.5 282.98 488.426)" stroke="#033642" stroke-width="1.35035"/>
<rect width="5.40141" height="5.40141" rx="1.35035" transform="matrix(0.866025 -0.5 0.866025 0.5 371.834 488.426)" fill="#033642"/>
<rect width="108.028" height="108.028" rx="40.5106" transform="matrix(0.866025 -0.5 0.866025 0.5 376.242 434.58)" fill="#01242D"/>
<rect width="108.028" height="108.028" rx="40.5106" transform="matrix(0.866025 -0.5 0.866025 0.5 376.242 434.58)" stroke="#033642" stroke-width="1.35035"/>
<rect width="5.40141" height="5.40141" rx="1.35035" transform="matrix(0.866025 -0.5 0.866025 0.5 465.096 434.58)" fill="#033642"/>
<rect width="108.028" height="108.028" rx="18.9049" transform="matrix(0.866025 -0.5 0.866025 0.5 469.506 380.734)" fill="#01242D"/>
<rect width="108.028" height="108.028" rx="18.9049" transform="matrix(0.866025 -0.5 0.866025 0.5 469.506 380.734)" stroke="#033642" stroke-width="1.35035"/>
<rect width="2.7007" height="2.7007" transform="matrix(0.866025 -0.5 0.866025 0.5 560.697 380.734)" fill="#033642"/>
<rect width="108.028" height="108.028" rx="18.9049" transform="matrix(0.866025 -0.5 0.866025 0.5 562.77 326.889)" fill="#01242D"/>
<rect width="108.028" height="108.028" rx="18.9049" transform="matrix(0.866025 -0.5 0.866025 0.5 562.77 326.889)" stroke="#033642" stroke-width="1.35035"/>
<rect width="2.7007" height="2.7007" transform="matrix(0.866025 -0.5 0.866025 0.5 653.961 326.889)" fill="#033642"/>
<rect width="108.028" height="108.028" rx="18.9049" transform="matrix(0.866025 -0.5 0.866025 0.5 656.033 273.043)" fill="#01242D"/>
<rect width="108.028" height="108.028" rx="18.9049" transform="matrix(0.866025 -0.5 0.866025 0.5 656.033 273.043)" stroke="#033642" stroke-width="1.35035"/>
<rect width="108.028" height="108.028" rx="5.40141" transform="matrix(0.866025 -0.5 0.866025 0.5 96.6777 703.938)" fill="#01242D"/>
<rect width="108.028" height="108.028" rx="5.40141" transform="matrix(0.866025 -0.5 0.866025 0.5 96.6777 703.938)" stroke="#033642" stroke-width="1.35035"/>
<rect width="108.028" height="108.028" rx="5.40141" transform="matrix(0.866025 -0.5 0.866025 0.5 189.941 650.093)" fill="#01242D"/>
<rect width="108.028" height="108.028" rx="5.40141" transform="matrix(0.866025 -0.5 0.866025 0.5 189.941 650.093)" stroke="#033642" stroke-width="1.35035"/>
<rect width="2.7007" height="2.7007" transform="matrix(0.866025 -0.5 0.866025 0.5 281.133 650.093)" fill="#033642"/>
<rect width="108.028" height="108.028" rx="5.40141" transform="matrix(0.866025 -0.5 0.866025 0.5 283.203 596.247)" fill="#01242D"/>
<rect width="108.028" height="108.028" rx="5.40141" transform="matrix(0.866025 -0.5 0.866025 0.5 283.203 596.247)" stroke="#033642" stroke-width="1.35035"/>
<rect width="2.7007" height="2.7007" transform="matrix(0.866025 -0.5 0.866025 0.5 374.395 596.247)" fill="#033642"/>
<rect width="108.028" height="108.028" rx="18.9049" transform="matrix(0.866025 -0.5 0.866025 0.5 376.467 542.401)" fill="#01242D"/>
<rect width="108.028" height="108.028" rx="18.9049" transform="matrix(0.866025 -0.5 0.866025 0.5 376.467 542.401)" stroke="#033642" stroke-width="1.35035"/>
<rect width="2.7007" height="2.7007" transform="matrix(0.866025 -0.5 0.866025 0.5 467.658 542.401)" fill="#033642"/>
<rect width="108.028" height="108.028" rx="18.9049" transform="matrix(0.866025 -0.5 0.866025 0.5 469.73 488.556)" fill="#01242D"/>
<rect width="108.028" height="108.028" rx="18.9049" transform="matrix(0.866025 -0.5 0.866025 0.5 469.73 488.556)" stroke="#033642" stroke-width="1.35035"/>
<rect width="2.7007" height="2.7007" transform="matrix(0.866025 -0.5 0.866025 0.5 560.922 488.556)" fill="#033642"/>
<rect width="108.028" height="108.028" rx="18.9049" transform="matrix(0.866025 -0.5 0.866025 0.5 562.994 434.71)" fill="#01242D"/>
<rect width="108.028" height="108.028" rx="18.9049" transform="matrix(0.866025 -0.5 0.866025 0.5 562.994 434.71)" stroke="#033642" stroke-width="1.35035"/>
<rect width="2.7007" height="2.7007" transform="matrix(0.866025 -0.5 0.866025 0.5 654.186 434.71)" fill="#033642"/>
<rect width="108.028" height="108.028" rx="5.40141" transform="matrix(0.866025 -0.5 0.866025 0.5 656.258 380.864)" fill="#01242D"/>
<rect width="108.028" height="108.028" rx="5.40141" transform="matrix(0.866025 -0.5 0.866025 0.5 656.258 380.864)" stroke="#033642" stroke-width="1.35035"/>
<rect width="108.028" height="108.028" rx="5.40141" transform="matrix(0.866025 -0.5 0.866025 0.5 283.428 704.067)" fill="#01242D"/>
<rect width="108.028" height="108.028" rx="5.40141" transform="matrix(0.866025 -0.5 0.866025 0.5 283.428 704.067)" stroke="#033642" stroke-width="1.35035"/>
<rect width="108.028" height="108.028" rx="5.40141" transform="matrix(0.866025 -0.5 0.866025 0.5 376.691 650.222)" fill="#01242D"/>
<rect width="108.028" height="108.028" rx="5.40141" transform="matrix(0.866025 -0.5 0.866025 0.5 376.691 650.222)" stroke="#033642" stroke-width="1.35035"/>
<rect width="2.7007" height="2.7007" transform="matrix(0.866025 -0.5 0.866025 0.5 467.883 650.222)" fill="#033642"/>
<rect width="108.028" height="108.028" rx="5.40141" transform="matrix(0.866025 -0.5 0.866025 0.5 469.955 596.376)" fill="#01242D"/>
<rect width="108.028" height="108.028" rx="5.40141" transform="matrix(0.866025 -0.5 0.866025 0.5 469.955 596.376)" stroke="#033642" stroke-width="1.35035"/>
<rect width="2.7007" height="2.7007" transform="matrix(0.866025 -0.5 0.866025 0.5 561.146 596.376)" fill="#033642"/>
<rect width="108.028" height="108.028" rx="5.40141" transform="matrix(0.866025 -0.5 0.866025 0.5 563.219 542.53)" fill="#01242D"/>
<rect width="108.028" height="108.028" rx="5.40141" transform="matrix(0.866025 -0.5 0.866025 0.5 563.219 542.53)" stroke="#033642" stroke-width="1.35035"/>
<rect width="2.7007" height="2.7007" transform="matrix(0.866025 -0.5 0.866025 0.5 654.41 542.53)" fill="#033642"/>
<rect width="108.028" height="108.028" rx="5.40141" transform="matrix(0.866025 -0.5 0.866025 0.5 656.482 488.685)" fill="#01242D"/>
<rect width="108.028" height="108.028" rx="5.40141" transform="matrix(0.866025 -0.5 0.866025 0.5 656.482 488.685)" stroke="#033642" stroke-width="1.35035"/>
<rect width="108.028" height="108.028" rx="5.40141" transform="matrix(0.866025 -0.5 0.866025 0.5 -184.684 110.729)" fill="#01242D"/>
<rect width="108.028" height="108.028" rx="5.40141" transform="matrix(0.866025 -0.5 0.866025 0.5 -184.684 110.729)" stroke="#033642" stroke-width="1.35035"/>
<rect width="108.028" height="108.028" rx="5.40141" transform="matrix(0.866025 -0.5 0.866025 0.5 -91.4199 56.8838)" fill="#01242D"/>
<rect width="108.028" height="108.028" rx="5.40141" transform="matrix(0.866025 -0.5 0.866025 0.5 -91.4199 56.8838)" stroke="#033642" stroke-width="1.35035"/>
<rect width="2.7007" height="2.7007" transform="matrix(0.866025 -0.5 0.866025 0.5 -0.228516 56.8838)" fill="#033642"/>
<rect width="108.028" height="108.028" rx="5.40141" transform="matrix(0.866025 -0.5 0.866025 0.5 1.84375 3.03809)" fill="#01242D"/>
<rect width="108.028" height="108.028" rx="5.40141" transform="matrix(0.866025 -0.5 0.866025 0.5 1.84375 3.03809)" stroke="#033642" stroke-width="1.35035"/>
<rect width="2.7007" height="2.7007" transform="matrix(0.866025 -0.5 0.866025 0.5 93.0352 3.03809)" fill="#033642"/>
<rect width="108.028" height="108.028" rx="5.40141" transform="matrix(0.866025 -0.5 0.866025 0.5 95.1074 -50.8076)" fill="#01242D"/>
<rect width="108.028" height="108.028" rx="5.40141" transform="matrix(0.866025 -0.5 0.866025 0.5 95.1074 -50.8076)" stroke="#033642" stroke-width="1.35035"/>
<rect width="108.028" height="108.028" rx="5.40141" transform="matrix(0.866025 -0.5 0.866025 0.5 -184.459 218.551)" fill="#01242D"/>
<rect width="108.028" height="108.028" rx="5.40141" transform="matrix(0.866025 -0.5 0.866025 0.5 -184.459 218.551)" stroke="#033642" stroke-width="1.35035"/>
<rect width="108.028" height="108.028" rx="18.9049" transform="matrix(0.866025 -0.5 0.866025 0.5 -91.1953 164.705)" fill="#01242D"/>
<rect width="108.028" height="108.028" rx="18.9049" transform="matrix(0.866025 -0.5 0.866025 0.5 -91.1953 164.705)" stroke="#033642" stroke-width="1.35035"/>
<rect width="2.7007" height="2.7007" transform="matrix(0.866025 -0.5 0.866025 0.5 -0.00390625 164.705)" fill="#033642"/>
<rect width="108.028" height="108.028" rx="5.40141" transform="matrix(0.866025 -0.5 0.866025 0.5 2.06836 110.859)" fill="#01242D"/>
<rect width="108.028" height="108.028" rx="5.40141" transform="matrix(0.866025 -0.5 0.866025 0.5 2.06836 110.859)" stroke="#033642" stroke-width="1.35035"/>
<rect width="2.7007" height="2.7007" transform="matrix(0.866025 -0.5 0.866025 0.5 93.2598 110.859)" fill="#033642"/>
<rect width="108.028" height="108.028" rx="5.40141" transform="matrix(0.866025 -0.5 0.866025 0.5 95.332 57.0137)" fill="#01242D"/>
<rect width="108.028" height="108.028" rx="5.40141" transform="matrix(0.866025 -0.5 0.866025 0.5 95.332 57.0137)" stroke="#033642" stroke-width="1.35035"/>
<rect width="2.7007" height="2.7007" transform="matrix(0.866025 -0.5 0.866025 0.5 186.523 57.0137)" fill="#033642"/>
<rect width="108.028" height="108.028" rx="5.40141" transform="matrix(0.866025 -0.5 0.866025 0.5 188.596 3.16797)" fill="#01242D"/>
<rect width="108.028" height="108.028" rx="5.40141" transform="matrix(0.866025 -0.5 0.866025 0.5 188.596 3.16797)" stroke="#033642" stroke-width="1.35035"/>
<rect width="2.7007" height="2.7007" transform="matrix(0.866025 -0.5 0.866025 0.5 279.787 3.16797)" fill="#033642"/>
<rect width="108.028" height="108.028" rx="5.40141" transform="matrix(0.866025 -0.5 0.866025 0.5 281.859 -50.6777)" fill="#01242D"/>
<rect width="108.028" height="108.028" rx="5.40141" transform="matrix(0.866025 -0.5 0.866025 0.5 281.859 -50.6777)" stroke="#033642" stroke-width="1.35035"/>
<rect width="108.028" height="108.028" rx="5.40141" transform="matrix(0.866025 -0.5 0.866025 0.5 -184.234 326.371)" fill="#01242D"/>
<rect width="108.028" height="108.028" rx="5.40141" transform="matrix(0.866025 -0.5 0.866025 0.5 -184.234 326.371)" stroke="#033642" stroke-width="1.35035"/>
<rect width="108.028" height="108.028" rx="18.9049" transform="matrix(0.866025 -0.5 0.866025 0.5 -90.9707 272.525)" fill="#01242D"/>
<rect width="108.028" height="108.028" rx="18.9049" transform="matrix(0.866025 -0.5 0.866025 0.5 -90.9707 272.525)" stroke="#033642" stroke-width="1.35035"/>
<rect width="2.7007" height="2.7007" transform="matrix(0.866025 -0.5 0.866025 0.5 0.220703 272.525)" fill="#033642"/>
<rect width="108.028" height="108.028" rx="18.9049" transform="matrix(0.866025 -0.5 0.866025 0.5 2.29297 218.68)" fill="#01242D"/>
<rect width="108.028" height="108.028" rx="18.9049" transform="matrix(0.866025 -0.5 0.866025 0.5 2.29297 218.68)" stroke="#033642" stroke-width="1.35035"/>
<rect width="2.7007" height="2.7007" transform="matrix(0.866025 -0.5 0.866025 0.5 93.4844 218.68)" fill="#033642"/>
<rect width="108.028" height="108.028" rx="18.9049" transform="matrix(0.866025 -0.5 0.866025 0.5 95.5566 164.834)" fill="#01242D"/>
<rect width="108.028" height="108.028" rx="18.9049" transform="matrix(0.866025 -0.5 0.866025 0.5 95.5566 164.834)" stroke="#033642" stroke-width="1.35035"/>
<rect width="2.7007" height="2.7007" transform="matrix(0.866025 -0.5 0.866025 0.5 186.748 164.834)" fill="#033642"/>
<rect width="108.028" height="108.028" rx="5.40141" transform="matrix(0.866025 -0.5 0.866025 0.5 188.82 110.988)" fill="#01242D"/>
<rect width="108.028" height="108.028" rx="5.40141" transform="matrix(0.866025 -0.5 0.866025 0.5 188.82 110.988)" stroke="#033642" stroke-width="1.35035"/>
<rect width="2.7007" height="2.7007" transform="matrix(0.866025 -0.5 0.866025 0.5 280.012 110.988)" fill="#033642"/>
<rect width="108.028" height="108.028" rx="5.40141" transform="matrix(0.866025 -0.5 0.866025 0.5 282.082 57.1426)" fill="#01242D"/>
<rect width="108.028" height="108.028" rx="5.40141" transform="matrix(0.866025 -0.5 0.866025 0.5 282.082 57.1426)" stroke="#033642" stroke-width="1.35035"/>
<rect width="2.7007" height="2.7007" transform="matrix(0.866025 -0.5 0.866025 0.5 373.273 57.1426)" fill="#033642"/>
<rect width="108.028" height="108.028" rx="5.40141" transform="matrix(0.866025 -0.5 0.866025 0.5 375.346 3.29688)" fill="#01242D"/>
<rect width="108.028" height="108.028" rx="5.40141" transform="matrix(0.866025 -0.5 0.866025 0.5 375.346 3.29688)" stroke="#033642" stroke-width="1.35035"/>
<rect width="2.7007" height="2.7007" transform="matrix(0.866025 -0.5 0.866025 0.5 466.537 3.29688)" fill="#033642"/>
<rect width="108.028" height="108.028" rx="18.9049" transform="matrix(0.866025 -0.5 0.866025 0.5 -184.01 434.192)" fill="#01242D"/>
<rect width="108.028" height="108.028" rx="18.9049" transform="matrix(0.866025 -0.5 0.866025 0.5 -184.01 434.192)" stroke="#033642" stroke-width="1.35035"/>
<rect width="108.028" height="108.028" rx="18.9049" transform="matrix(0.866025 -0.5 0.866025 0.5 -90.7461 380.347)" fill="#01242D"/>
<rect width="108.028" height="108.028" rx="18.9049" transform="matrix(0.866025 -0.5 0.866025 0.5 -90.7461 380.347)" stroke="#033642" stroke-width="1.35035"/>
<rect width="2.7007" height="2.7007" transform="matrix(0.866025 -0.5 0.866025 0.5 0.445312 380.347)" fill="#033642"/>
<rect width="108.028" height="108.028" rx="40.5106" transform="matrix(0.866025 -0.5 0.866025 0.5 2.51758 326.501)" fill="#01242D"/>
<rect width="108.028" height="108.028" rx="40.5106" transform="matrix(0.866025 -0.5 0.866025 0.5 2.51758 326.501)" stroke="#033642" stroke-width="1.35035"/>
<rect width="5.40141" height="5.40141" rx="1.35035" transform="matrix(0.866025 -0.5 0.866025 0.5 91.3711 326.501)" fill="#033642"/>
<rect width="108.028" height="108.028" rx="40.5106" transform="matrix(0.866025 -0.5 0.866025 0.5 95.7793 272.655)" fill="#01242D"/>
<rect width="108.028" height="108.028" rx="40.5106" transform="matrix(0.866025 -0.5 0.866025 0.5 95.7793 272.655)" stroke="#033642" stroke-width="1.35035"/>
<rect width="5.40141" height="5.40141" rx="1.35035" transform="matrix(0.866025 -0.5 0.866025 0.5 184.633 272.655)" fill="#033642"/>
<rect width="108.028" height="108.028" rx="18.9049" transform="matrix(0.866025 -0.5 0.866025 0.5 189.043 218.81)" fill="#01242D"/>
<rect width="108.028" height="108.028" rx="18.9049" transform="matrix(0.866025 -0.5 0.866025 0.5 189.043 218.81)" stroke="#033642" stroke-width="1.35035"/>
<rect width="2.7007" height="2.7007" transform="matrix(0.866025 -0.5 0.866025 0.5 280.234 218.81)" fill="#033642"/>
<rect width="108.028" height="108.028" rx="5.40141" transform="matrix(0.866025 -0.5 0.866025 0.5 282.307 164.964)" fill="#01242D"/>
<rect width="108.028" height="108.028" rx="5.40141" transform="matrix(0.866025 -0.5 0.866025 0.5 282.307 164.964)" stroke="#033642" stroke-width="1.35035"/>
<rect width="2.7007" height="2.7007" transform="matrix(0.866025 -0.5 0.866025 0.5 373.498 164.964)" fill="#033642"/>
<rect width="108.028" height="108.028" rx="5.40141" transform="matrix(0.866025 -0.5 0.866025 0.5 375.57 111.118)" fill="#01242D"/>
<rect width="108.028" height="108.028" rx="5.40141" transform="matrix(0.866025 -0.5 0.866025 0.5 375.57 111.118)" stroke="#033642" stroke-width="1.35035"/>
<rect width="2.7007" height="2.7007" transform="matrix(0.866025 -0.5 0.866025 0.5 466.762 111.118)" fill="#033642"/>
<rect width="108.028" height="108.028" rx="5.40141" transform="matrix(0.866025 -0.5 0.866025 0.5 468.834 57.2725)" fill="#01242D"/>
<rect width="108.028" height="108.028" rx="5.40141" transform="matrix(0.866025 -0.5 0.866025 0.5 468.834 57.2725)" stroke="#033642" stroke-width="1.35035"/>
<rect width="2.7007" height="2.7007" transform="matrix(0.866025 -0.5 0.866025 0.5 560.025 57.2725)" fill="#033642"/>
<rect width="154.629" height="154.629" rx="11.1909" transform="matrix(0.86585 -0.500303 0.86585 0.500303 227 390.638)" fill="#01242D"/>
<rect x="2.90691" width="151.272" height="151.272" rx="9.5123" transform="matrix(0.86585 -0.500303 0.86585 0.500303 227.39 372.491)" stroke="#06574A" stroke-width="3.35728"/>
<rect x="2.90691" width="151.272" height="151.272" rx="9.5123" transform="matrix(0.86585 -0.500303 0.86585 0.500303 227.39 347.731)" stroke="#239456" stroke-width="3.35728"/>
<rect x="2.90691" width="151.272" height="151.272" rx="9.5123" transform="matrix(0.86585 -0.500303 0.86585 0.500303 227.39 320.527)" stroke="#77EB3D" stroke-width="3.35728"/>
<rect width="154.629" height="154.629" rx="11.1909" transform="matrix(0.86585 -0.500303 0.86585 0.500303 227 293.349)" fill="#55AD28"/>
<path d="M476.713 282.401H489.541V293.426H476.713V282.401Z" fill="#55AD28"/>
<path d="M232.23 282.326H245.059V293.351H232.23V282.326Z" fill="#55AD28"/>
<rect x="-2.90691" width="157.987" height="157.987" rx="12.8696" transform="matrix(0.86585 -0.500303 0.86585 0.500303 226.61 279.907)" fill="#77EB3D"/>
<rect x="-2.90691" width="157.987" height="157.987" rx="12.8696" transform="matrix(0.86585 -0.500303 0.86585 0.500303 226.61 279.907)" stroke="#01242D" stroke-width="3.35728"/>
<path d="M321.206 274.015L345.723 288.181C346.007 288.346 346.348 288.477 346.732 288.551H346.76L386.584 296.779L374.36 303.842L341.487 297.051C338.943 296.534 336.598 295.671 334.679 294.563L310.162 280.396L321.206 274.015ZM359.224 252.052L383.741 266.218C385.645 267.318 387.124 268.665 388.034 270.127L399.801 289.13L387.579 296.193L373.337 273.166C373.209 272.944 372.996 272.755 372.711 272.591L348.194 258.425L359.224 252.052Z" fill="#01242D"/>
</g>
<defs>
<clipPath id="clip0_579_19555">
<rect width="721" height="655" fill="white"/>
</clipPath>
</defs>
</svg>
