<svg width="628" height="603" viewBox="0 0 628 603" fill="none" xmlns="http://www.w3.org/2000/svg">
<g clip-path="url(#clip0_863_8926)">
<rect width="628" height="603" rx="20" fill="#01242D"/>
<rect x="-0.645595" width="978.664" height="1079.04" transform="matrix(0.866025 -0.5 0.866025 0.5 -528.086 334.637)" fill="#183B46"/>
<rect x="-0.645595" width="978.664" height="1079.04" transform="matrix(0.866025 -0.5 0.866025 0.5 -528.086 334.637)" stroke="#183B46" stroke-width="0.745469"/>
<rect width="98.0977" height="98.0977" rx="17.1671" transform="matrix(0.866025 -0.5 0.866025 0.5 -103.734 482.117)" fill="#01242D"/>
<rect width="98.0977" height="98.0977" rx="17.1671" transform="matrix(0.866025 -0.5 0.866025 0.5 -103.734 482.117)" stroke="#183B46" stroke-width="1.22622"/>
<rect width="98.0977" height="98.0977" rx="17.1671" transform="matrix(0.866025 -0.5 0.866025 0.5 -19.0442 433.221)" fill="#01242D"/>
<rect width="98.0977" height="98.0977" rx="17.1671" transform="matrix(0.866025 -0.5 0.866025 0.5 -19.0442 433.221)" stroke="#183B46" stroke-width="1.22622"/>
<rect width="2.45244" height="2.45244" transform="matrix(0.866025 -0.5 0.866025 0.5 63.7024 433.221)" fill="#183B46"/>
<path d="M69.8938 386.778C67.5478 385.424 67.5478 383.228 69.8938 381.873L146.353 337.729C148.699 336.375 152.503 336.375 154.849 337.729L231.308 381.873C233.654 383.228 233.654 385.424 231.308 386.778L154.849 430.922C152.503 432.277 148.699 432.277 146.353 430.922L69.8938 386.778Z" fill="#01242D"/>
<path d="M69.8938 386.778C67.5478 385.424 67.5478 383.228 69.8938 381.873L146.353 337.729C148.699 336.375 152.503 336.375 154.849 337.729L231.308 381.873C233.654 383.228 233.654 385.424 231.308 386.778L154.849 430.922C152.503 432.277 148.699 432.277 146.353 430.922L69.8938 386.778Z" stroke="#183B46" stroke-width="1.22622"/>
<rect width="4.90489" height="4.90489" rx="1.22622" transform="matrix(0.866025 -0.5 0.866025 0.5 146.269 384.326)" fill="#183B46"/>
<path d="M154.584 337.882C152.238 336.528 152.238 334.332 154.584 332.977L231.043 288.833C233.389 287.479 237.193 287.479 239.539 288.833L315.998 332.977C318.344 334.332 318.344 336.528 315.998 337.882L239.539 382.026C237.193 383.381 233.389 383.381 231.043 382.026L154.584 337.882Z" fill="#01242D"/>
<path d="M154.584 337.882C152.238 336.528 152.238 334.332 154.584 332.977L231.043 288.833C233.389 287.479 237.193 287.479 239.539 288.833L315.998 332.977C318.344 334.332 318.344 336.528 315.998 337.882L239.539 382.026C237.193 383.381 233.389 383.381 231.043 382.026L154.584 337.882Z" stroke="#183B46" stroke-width="1.22622"/>
<rect width="4.90489" height="4.90489" rx="2.45244" transform="matrix(0.866025 -0.5 0.866025 0.5 230.959 335.43)" fill="#183B46"/>
<path d="M239.274 288.986C236.928 287.632 236.928 285.436 239.274 284.081L315.734 239.937C318.08 238.583 321.884 238.583 324.229 239.937L400.689 284.081C403.035 285.436 403.035 287.632 400.689 288.986L324.229 333.13C321.884 334.485 318.08 334.485 315.734 333.13L239.274 288.986Z" fill="#01242D"/>
<path d="M239.274 288.986C236.928 287.632 236.928 285.436 239.274 284.081L315.734 239.937C318.08 238.583 321.884 238.583 324.229 239.937L400.689 284.081C403.035 285.436 403.035 287.632 400.689 288.986L324.229 333.13C321.884 334.485 318.08 334.485 315.734 333.13L239.274 288.986Z" stroke="#183B46" stroke-width="1.22622"/>
<rect width="4.90489" height="4.90489" rx="2.45244" transform="matrix(0.866025 -0.5 0.866025 0.5 315.649 286.534)" fill="#183B46"/>
<path d="M323.965 240.09C321.619 238.736 321.619 236.54 323.965 235.185L400.424 191.041C402.77 189.687 406.574 189.687 408.92 191.041L485.379 235.185C487.725 236.54 487.725 238.736 485.379 240.09L408.92 284.234C406.574 285.589 402.77 285.589 400.424 284.234L323.965 240.09Z" fill="#01242D"/>
<path d="M323.965 240.09C321.619 238.736 321.619 236.54 323.965 235.185L400.424 191.041C402.77 189.687 406.574 189.687 408.92 191.041L485.379 235.185C487.725 236.54 487.725 238.736 485.379 240.09L408.92 284.234C406.574 285.589 402.77 285.589 400.424 284.234L323.965 240.09Z" stroke="#183B46" stroke-width="1.22622"/>
<rect width="4.90489" height="4.90489" rx="1.22622" transform="matrix(0.866025 -0.5 0.866025 0.5 400.34 237.638)" fill="#183B46"/>
<path d="M408.655 191.194C406.309 189.84 406.309 187.644 408.655 186.289L485.115 142.145C487.461 140.791 491.264 140.791 493.61 142.145L570.07 186.289C572.416 187.644 572.416 189.84 570.07 191.194L493.61 235.338C491.264 236.693 487.461 236.693 485.115 235.338L408.655 191.194Z" fill="#01242D"/>
<path d="M408.655 191.194C406.309 189.84 406.309 187.644 408.655 186.289L485.115 142.145C487.461 140.791 491.264 140.791 493.61 142.145L570.07 186.289C572.416 187.644 572.416 189.84 570.07 191.194L493.61 235.338C491.264 236.693 487.461 236.693 485.115 235.338L408.655 191.194Z" stroke="#183B46" stroke-width="1.22622"/>
<rect width="4.90489" height="4.90489" rx="1.22622" transform="matrix(0.866025 -0.5 0.866025 0.5 485.03 188.742)" fill="#183B46"/>
<rect width="98.0977" height="98.0977" rx="17.1671" transform="matrix(0.866025 -0.5 0.866025 0.5 489.097 139.846)" fill="#01242D"/>
<rect width="98.0977" height="98.0977" rx="17.1671" transform="matrix(0.866025 -0.5 0.866025 0.5 489.097 139.846)" stroke="#183B46" stroke-width="1.22622"/>
<rect width="2.45244" height="2.45244" transform="matrix(0.866025 -0.5 0.866025 0.5 571.844 139.846)" fill="#183B46"/>
<rect width="98.0977" height="98.0977" rx="4.90489" transform="matrix(0.866025 -0.5 0.866025 0.5 573.788 90.95)" fill="#01242D"/>
<rect width="98.0977" height="98.0977" rx="4.90489" transform="matrix(0.866025 -0.5 0.866025 0.5 573.788 90.95)" stroke="#183B46" stroke-width="1.22622"/>
<rect width="98.0977" height="98.0977" rx="17.1671" transform="matrix(0.866025 -0.5 0.866025 0.5 -103.531 580.027)" fill="#01242D"/>
<rect width="98.0977" height="98.0977" rx="17.1671" transform="matrix(0.866025 -0.5 0.866025 0.5 -103.531 580.027)" stroke="#183B46" stroke-width="1.22622"/>
<rect width="98.0977" height="98.0977" rx="17.1671" transform="matrix(0.866025 -0.5 0.866025 0.5 -18.8406 531.131)" fill="#01242D"/>
<rect width="98.0977" height="98.0977" rx="17.1671" transform="matrix(0.866025 -0.5 0.866025 0.5 -18.8406 531.131)" stroke="#183B46" stroke-width="1.22622"/>
<rect width="2.45244" height="2.45244" transform="matrix(0.866025 -0.5 0.866025 0.5 63.906 531.131)" fill="#183B46"/>
<rect width="98.0977" height="98.0977" rx="17.1671" transform="matrix(0.866025 -0.5 0.866025 0.5 65.8496 482.235)" fill="#01242D"/>
<rect width="98.0977" height="98.0977" rx="17.1671" transform="matrix(0.866025 -0.5 0.866025 0.5 65.8496 482.235)" stroke="#183B46" stroke-width="1.22622"/>
<rect width="2.45244" height="2.45244" transform="matrix(0.866025 -0.5 0.866025 0.5 148.596 482.235)" fill="#183B46"/>
<rect width="98.0977" height="98.0977" rx="17.1671" transform="matrix(0.866025 -0.5 0.866025 0.5 150.54 433.339)" fill="#01242D"/>
<rect width="98.0977" height="98.0977" rx="17.1671" transform="matrix(0.866025 -0.5 0.866025 0.5 150.54 433.339)" stroke="#183B46" stroke-width="1.22622"/>
<rect width="2.45244" height="2.45244" transform="matrix(0.866025 -0.5 0.866025 0.5 233.286 433.339)" fill="#183B46"/>
<path d="M239.478 386.896C237.132 385.541 237.132 383.345 239.478 381.991L315.937 337.847C318.283 336.492 322.087 336.492 324.433 337.847L400.892 381.991C403.238 383.345 403.238 385.541 400.892 386.896L324.433 431.04C322.087 432.394 318.283 432.394 315.937 431.04L239.478 386.896Z" fill="#01242D"/>
<path d="M239.478 386.896C237.132 385.541 237.132 383.345 239.478 381.991L315.937 337.847C318.283 336.492 322.087 336.492 324.433 337.847L400.892 381.991C403.238 383.345 403.238 385.541 400.892 386.896L324.433 431.04C322.087 432.394 318.283 432.394 315.937 431.04L239.478 386.896Z" stroke="#183B46" stroke-width="1.22622"/>
<rect width="4.90489" height="4.90489" rx="1.22622" transform="matrix(0.866025 -0.5 0.866025 0.5 315.853 384.443)" fill="#183B46"/>
<path d="M324.168 338C321.822 336.645 321.822 334.449 324.168 333.095L400.628 288.951C402.974 287.596 406.777 287.596 409.123 288.951L485.583 333.095C487.929 334.449 487.929 336.645 485.583 338L409.123 382.144C406.777 383.498 402.974 383.498 400.628 382.144L324.168 338Z" fill="#01242D"/>
<path d="M324.168 338C321.822 336.645 321.822 334.449 324.168 333.095L400.628 288.951C402.974 287.596 406.777 287.596 409.123 288.951L485.583 333.095C487.929 334.449 487.929 336.645 485.583 338L409.123 382.144C406.777 383.498 402.974 383.498 400.628 382.144L324.168 338Z" stroke="#183B46" stroke-width="1.22622"/>
<rect width="4.90489" height="4.90489" rx="2.45244" transform="matrix(0.866025 -0.5 0.866025 0.5 400.543 335.547)" fill="#183B46"/>
<rect width="98.0977" height="98.0977" rx="17.1671" transform="matrix(0.866025 -0.5 0.866025 0.5 404.611 286.651)" fill="#01242D"/>
<rect width="98.0977" height="98.0977" rx="17.1671" transform="matrix(0.866025 -0.5 0.866025 0.5 404.611 286.651)" stroke="#183B46" stroke-width="1.22622"/>
<rect width="2.45244" height="2.45244" transform="matrix(0.866025 -0.5 0.866025 0.5 487.357 286.651)" fill="#183B46"/>
<rect width="98.0977" height="98.0977" rx="17.1671" transform="matrix(0.866025 -0.5 0.866025 0.5 489.301 237.755)" fill="#01242D"/>
<rect width="98.0977" height="98.0977" rx="17.1671" transform="matrix(0.866025 -0.5 0.866025 0.5 489.301 237.755)" stroke="#183B46" stroke-width="1.22622"/>
<rect width="2.45244" height="2.45244" transform="matrix(0.866025 -0.5 0.866025 0.5 572.047 237.755)" fill="#183B46"/>
<rect width="98.0977" height="98.0977" rx="4.90489" transform="matrix(0.866025 -0.5 0.866025 0.5 573.991 188.859)" fill="#01242D"/>
<rect width="98.0977" height="98.0977" rx="4.90489" transform="matrix(0.866025 -0.5 0.866025 0.5 573.991 188.859)" stroke="#183B46" stroke-width="1.22622"/>
<rect width="98.0977" height="98.0977" rx="4.90489" transform="matrix(0.866025 -0.5 0.866025 0.5 -18.637 629.04)" fill="#01242D"/>
<rect width="98.0977" height="98.0977" rx="4.90489" transform="matrix(0.866025 -0.5 0.866025 0.5 -18.637 629.04)" stroke="#183B46" stroke-width="1.22622"/>
<rect width="98.0977" height="98.0977" rx="4.90489" transform="matrix(0.866025 -0.5 0.866025 0.5 66.0532 580.145)" fill="#01242D"/>
<rect width="98.0977" height="98.0977" rx="4.90489" transform="matrix(0.866025 -0.5 0.866025 0.5 66.0532 580.145)" stroke="#183B46" stroke-width="1.22622"/>
<rect width="2.45244" height="2.45244" transform="matrix(0.866025 -0.5 0.866025 0.5 148.8 580.145)" fill="#183B46"/>
<rect width="98.0977" height="98.0977" rx="17.1671" transform="matrix(0.866025 -0.5 0.866025 0.5 150.743 531.249)" fill="#01242D"/>
<rect width="98.0977" height="98.0977" rx="17.1671" transform="matrix(0.866025 -0.5 0.866025 0.5 150.743 531.249)" stroke="#183B46" stroke-width="1.22622"/>
<rect width="2.45244" height="2.45244" transform="matrix(0.866025 -0.5 0.866025 0.5 233.49 531.249)" fill="#183B46"/>
<rect width="98.0977" height="98.0977" rx="17.1671" transform="matrix(0.866025 -0.5 0.866025 0.5 235.434 482.353)" fill="#01242D"/>
<rect width="98.0977" height="98.0977" rx="17.1671" transform="matrix(0.866025 -0.5 0.866025 0.5 235.434 482.353)" stroke="#183B46" stroke-width="1.22622"/>
<rect width="2.45244" height="2.45244" transform="matrix(0.866025 -0.5 0.866025 0.5 318.18 482.353)" fill="#183B46"/>
<path d="M324.372 435.909C322.026 434.555 322.026 432.359 324.372 431.004L400.831 386.86C403.177 385.506 406.981 385.506 409.327 386.86L485.787 431.004C488.132 432.359 488.132 434.555 485.787 435.909L409.327 480.053C406.981 481.407 403.177 481.407 400.831 480.053L324.372 435.909Z" fill="#01242D"/>
<path d="M324.372 435.909C322.026 434.555 322.026 432.359 324.372 431.004L400.831 386.86C403.177 385.506 406.981 385.506 409.327 386.86L485.787 431.004C488.132 432.359 488.132 434.555 485.787 435.909L409.327 480.053C406.981 481.407 403.177 481.407 400.831 480.053L324.372 435.909Z" stroke="#183B46" stroke-width="1.22622"/>
<rect width="4.90489" height="4.90489" rx="1.22622" transform="matrix(0.866025 -0.5 0.866025 0.5 400.747 433.457)" fill="#183B46"/>
<path d="M409.062 387.013C406.716 385.659 406.716 383.463 409.062 382.108L485.522 337.964C487.868 336.61 491.671 336.61 494.017 337.964L570.477 382.108C572.823 383.463 572.823 385.659 570.477 387.013L494.017 431.157C491.671 432.512 487.868 432.512 485.522 431.157L409.062 387.013Z" fill="#01242D"/>
<path d="M409.062 387.013C406.716 385.659 406.716 383.463 409.062 382.108L485.522 337.964C487.868 336.61 491.671 336.61 494.017 337.964L570.477 382.108C572.823 383.463 572.823 385.659 570.477 387.013L494.017 431.157C491.671 432.512 487.868 432.512 485.522 431.157L409.062 387.013Z" stroke="#183B46" stroke-width="1.22622"/>
<rect width="4.90489" height="4.90489" rx="1.22622" transform="matrix(0.866025 -0.5 0.866025 0.5 485.437 384.561)" fill="#183B46"/>
<rect width="98.0977" height="98.0977" rx="17.1671" transform="matrix(0.866025 -0.5 0.866025 0.5 489.504 335.665)" fill="#01242D"/>
<rect width="98.0977" height="98.0977" rx="17.1671" transform="matrix(0.866025 -0.5 0.866025 0.5 489.504 335.665)" stroke="#183B46" stroke-width="1.22622"/>
<rect width="2.45244" height="2.45244" transform="matrix(0.866025 -0.5 0.866025 0.5 572.251 335.665)" fill="#183B46"/>
<rect width="98.0977" height="98.0977" rx="17.1671" transform="matrix(0.866025 -0.5 0.866025 0.5 574.195 286.769)" fill="#01242D"/>
<rect width="98.0977" height="98.0977" rx="17.1671" transform="matrix(0.866025 -0.5 0.866025 0.5 574.195 286.769)" stroke="#183B46" stroke-width="1.22622"/>
<rect width="98.0977" height="98.0977" rx="4.90489" transform="matrix(0.866025 -0.5 0.866025 0.5 150.947 629.158)" fill="#01242D"/>
<rect width="98.0977" height="98.0977" rx="4.90489" transform="matrix(0.866025 -0.5 0.866025 0.5 150.947 629.158)" stroke="#183B46" stroke-width="1.22622"/>
<rect width="98.0977" height="98.0977" rx="4.90489" transform="matrix(0.866025 -0.5 0.866025 0.5 235.637 580.262)" fill="#01242D"/>
<rect width="98.0977" height="98.0977" rx="4.90489" transform="matrix(0.866025 -0.5 0.866025 0.5 235.637 580.262)" stroke="#183B46" stroke-width="1.22622"/>
<rect width="2.45244" height="2.45244" transform="matrix(0.866025 -0.5 0.866025 0.5 318.384 580.262)" fill="#183B46"/>
<rect width="98.0977" height="98.0977" rx="4.90489" transform="matrix(0.866025 -0.5 0.866025 0.5 320.328 531.366)" fill="#01242D"/>
<rect width="98.0977" height="98.0977" rx="4.90489" transform="matrix(0.866025 -0.5 0.866025 0.5 320.328 531.366)" stroke="#183B46" stroke-width="1.22622"/>
<rect width="2.45244" height="2.45244" transform="matrix(0.866025 -0.5 0.866025 0.5 403.074 531.366)" fill="#183B46"/>
<rect width="98.0977" height="98.0977" rx="17.1671" transform="matrix(0.866025 -0.5 0.866025 0.5 405.018 482.47)" fill="#01242D"/>
<rect width="98.0977" height="98.0977" rx="17.1671" transform="matrix(0.866025 -0.5 0.866025 0.5 405.018 482.47)" stroke="#183B46" stroke-width="1.22622"/>
<rect width="2.45244" height="2.45244" transform="matrix(0.866025 -0.5 0.866025 0.5 487.764 482.47)" fill="#183B46"/>
<rect width="98.0977" height="98.0977" rx="17.1671" transform="matrix(0.866025 -0.5 0.866025 0.5 489.708 433.574)" fill="#01242D"/>
<rect width="98.0977" height="98.0977" rx="17.1671" transform="matrix(0.866025 -0.5 0.866025 0.5 489.708 433.574)" stroke="#183B46" stroke-width="1.22622"/>
<rect width="2.45244" height="2.45244" transform="matrix(0.866025 -0.5 0.866025 0.5 572.455 433.574)" fill="#183B46"/>
<rect width="98.0977" height="98.0977" rx="17.1671" transform="matrix(0.866025 -0.5 0.866025 0.5 574.398 384.678)" fill="#01242D"/>
<rect width="98.0977" height="98.0977" rx="17.1671" transform="matrix(0.866025 -0.5 0.866025 0.5 574.398 384.678)" stroke="#183B46" stroke-width="1.22622"/>
<rect width="98.0977" height="98.0977" rx="4.90489" transform="matrix(0.866025 -0.5 0.866025 0.5 320.531 629.275)" fill="#01242D"/>
<rect width="98.0977" height="98.0977" rx="4.90489" transform="matrix(0.866025 -0.5 0.866025 0.5 320.531 629.275)" stroke="#183B46" stroke-width="1.22622"/>
<rect width="98.0977" height="98.0977" rx="4.90489" transform="matrix(0.866025 -0.5 0.866025 0.5 405.221 580.38)" fill="#01242D"/>
<rect width="98.0977" height="98.0977" rx="4.90489" transform="matrix(0.866025 -0.5 0.866025 0.5 405.221 580.38)" stroke="#183B46" stroke-width="1.22622"/>
<rect width="2.45244" height="2.45244" transform="matrix(0.866025 -0.5 0.866025 0.5 487.968 580.38)" fill="#183B46"/>
<rect width="98.0977" height="98.0977" rx="4.90489" transform="matrix(0.866025 -0.5 0.866025 0.5 489.912 531.484)" fill="#01242D"/>
<rect width="98.0977" height="98.0977" rx="4.90489" transform="matrix(0.866025 -0.5 0.866025 0.5 489.912 531.484)" stroke="#183B46" stroke-width="1.22622"/>
<rect width="2.45244" height="2.45244" transform="matrix(0.866025 -0.5 0.866025 0.5 572.658 531.484)" fill="#183B46"/>
<rect width="98.0977" height="98.0977" rx="4.90489" transform="matrix(0.866025 -0.5 0.866025 0.5 574.602 482.588)" fill="#01242D"/>
<rect width="98.0977" height="98.0977" rx="4.90489" transform="matrix(0.866025 -0.5 0.866025 0.5 574.602 482.588)" stroke="#183B46" stroke-width="1.22622"/>
<rect width="98.0977" height="98.0977" rx="4.90489" transform="matrix(0.866025 -0.5 0.866025 0.5 490.115 629.393)" fill="#01242D"/>
<rect width="98.0977" height="98.0977" rx="4.90489" transform="matrix(0.866025 -0.5 0.866025 0.5 490.115 629.393)" stroke="#183B46" stroke-width="1.22622"/>
<rect width="98.0977" height="98.0977" rx="4.90489" transform="matrix(0.866025 -0.5 0.866025 0.5 574.805 580.497)" fill="#01242D"/>
<rect width="98.0977" height="98.0977" rx="4.90489" transform="matrix(0.866025 -0.5 0.866025 0.5 574.805 580.497)" stroke="#183B46" stroke-width="1.22622"/>
<rect width="98.0977" height="98.0977" rx="4.90489" transform="matrix(0.866025 -0.5 0.866025 0.5 -104.549 90.4797)" fill="#01242D"/>
<rect width="98.0977" height="98.0977" rx="4.90489" transform="matrix(0.866025 -0.5 0.866025 0.5 -104.549 90.4797)" stroke="#183B46" stroke-width="1.22622"/>
<rect width="98.0977" height="98.0977" rx="4.90489" transform="matrix(0.866025 -0.5 0.866025 0.5 -19.8584 41.584)" fill="#01242D"/>
<rect width="98.0977" height="98.0977" rx="4.90489" transform="matrix(0.866025 -0.5 0.866025 0.5 -19.8584 41.584)" stroke="#183B46" stroke-width="1.22622"/>
<rect width="2.45244" height="2.45244" transform="matrix(0.866025 -0.5 0.866025 0.5 62.8882 41.584)" fill="#183B46"/>
<rect width="98.0977" height="98.0977" rx="4.90489" transform="matrix(0.866025 -0.5 0.866025 0.5 64.8318 -7.31201)" fill="#01242D"/>
<rect width="98.0977" height="98.0977" rx="4.90489" transform="matrix(0.866025 -0.5 0.866025 0.5 64.8318 -7.31201)" stroke="#183B46" stroke-width="1.22622"/>
<rect width="98.0977" height="98.0977" rx="4.90489" transform="matrix(0.866025 -0.5 0.866025 0.5 -104.345 188.389)" fill="#01242D"/>
<rect width="98.0977" height="98.0977" rx="4.90489" transform="matrix(0.866025 -0.5 0.866025 0.5 -104.345 188.389)" stroke="#183B46" stroke-width="1.22622"/>
<rect width="98.0977" height="98.0977" rx="17.1671" transform="matrix(0.866025 -0.5 0.866025 0.5 -19.655 139.493)" fill="#01242D"/>
<rect width="98.0977" height="98.0977" rx="17.1671" transform="matrix(0.866025 -0.5 0.866025 0.5 -19.655 139.493)" stroke="#183B46" stroke-width="1.22622"/>
<rect width="2.45244" height="2.45244" transform="matrix(0.866025 -0.5 0.866025 0.5 63.0916 139.493)" fill="#183B46"/>
<rect width="98.0977" height="98.0977" rx="4.90489" transform="matrix(0.866025 -0.5 0.866025 0.5 65.0352 90.5974)" fill="#01242D"/>
<rect width="98.0977" height="98.0977" rx="4.90489" transform="matrix(0.866025 -0.5 0.866025 0.5 65.0352 90.5974)" stroke="#183B46" stroke-width="1.22622"/>
<rect width="2.45244" height="2.45244" transform="matrix(0.866025 -0.5 0.866025 0.5 147.782 90.5974)" fill="#183B46"/>
<rect width="98.0977" height="98.0977" rx="4.90489" transform="matrix(0.866025 -0.5 0.866025 0.5 149.726 41.7014)" fill="#01242D"/>
<rect width="98.0977" height="98.0977" rx="4.90489" transform="matrix(0.866025 -0.5 0.866025 0.5 149.726 41.7014)" stroke="#183B46" stroke-width="1.22622"/>
<rect width="2.45244" height="2.45244" transform="matrix(0.866025 -0.5 0.866025 0.5 232.472 41.7014)" fill="#183B46"/>
<rect width="98.0977" height="98.0977" rx="4.90489" transform="matrix(0.866025 -0.5 0.866025 0.5 234.416 -7.19434)" fill="#01242D"/>
<rect width="98.0977" height="98.0977" rx="4.90489" transform="matrix(0.866025 -0.5 0.866025 0.5 234.416 -7.19434)" stroke="#183B46" stroke-width="1.22622"/>
<rect width="98.0977" height="98.0977" rx="4.90489" transform="matrix(0.866025 -0.5 0.866025 0.5 -104.142 286.299)" fill="#01242D"/>
<rect width="98.0977" height="98.0977" rx="4.90489" transform="matrix(0.866025 -0.5 0.866025 0.5 -104.142 286.299)" stroke="#183B46" stroke-width="1.22622"/>
<rect width="98.0977" height="98.0977" rx="17.1671" transform="matrix(0.866025 -0.5 0.866025 0.5 -19.4514 237.403)" fill="#01242D"/>
<rect width="98.0977" height="98.0977" rx="17.1671" transform="matrix(0.866025 -0.5 0.866025 0.5 -19.4514 237.403)" stroke="#183B46" stroke-width="1.22622"/>
<rect width="2.45244" height="2.45244" transform="matrix(0.866025 -0.5 0.866025 0.5 63.2952 237.403)" fill="#183B46"/>
<rect width="98.0977" height="98.0977" rx="17.1671" transform="matrix(0.866025 -0.5 0.866025 0.5 65.2388 188.507)" fill="#01242D"/>
<rect width="98.0977" height="98.0977" rx="17.1671" transform="matrix(0.866025 -0.5 0.866025 0.5 65.2388 188.507)" stroke="#183B46" stroke-width="1.22622"/>
<rect width="2.45244" height="2.45244" transform="matrix(0.866025 -0.5 0.866025 0.5 147.985 188.507)" fill="#183B46"/>
<rect width="98.0977" height="98.0977" rx="17.1671" transform="matrix(0.866025 -0.5 0.866025 0.5 149.929 139.611)" fill="#01242D"/>
<rect width="98.0977" height="98.0977" rx="17.1671" transform="matrix(0.866025 -0.5 0.866025 0.5 149.929 139.611)" stroke="#183B46" stroke-width="1.22622"/>
<rect width="2.45244" height="2.45244" transform="matrix(0.866025 -0.5 0.866025 0.5 232.676 139.611)" fill="#183B46"/>
<rect width="98.0977" height="98.0977" rx="4.90489" transform="matrix(0.866025 -0.5 0.866025 0.5 234.619 90.7151)" fill="#01242D"/>
<rect width="98.0977" height="98.0977" rx="4.90489" transform="matrix(0.866025 -0.5 0.866025 0.5 234.619 90.7151)" stroke="#183B46" stroke-width="1.22622"/>
<rect width="2.45244" height="2.45244" transform="matrix(0.866025 -0.5 0.866025 0.5 317.366 90.7151)" fill="#183B46"/>
<rect width="98.0977" height="98.0977" rx="4.90489" transform="matrix(0.866025 -0.5 0.866025 0.5 319.31 41.8191)" fill="#01242D"/>
<rect width="98.0977" height="98.0977" rx="4.90489" transform="matrix(0.866025 -0.5 0.866025 0.5 319.31 41.8191)" stroke="#183B46" stroke-width="1.22622"/>
<rect width="2.45244" height="2.45244" transform="matrix(0.866025 -0.5 0.866025 0.5 402.056 41.8191)" fill="#183B46"/>
<rect width="98.0977" height="98.0977" rx="4.90489" transform="matrix(0.866025 -0.5 0.866025 0.5 404 -7.0769)" fill="#01242D"/>
<rect width="98.0977" height="98.0977" rx="4.90489" transform="matrix(0.866025 -0.5 0.866025 0.5 404 -7.0769)" stroke="#183B46" stroke-width="1.22622"/>
<rect width="98.0977" height="98.0977" rx="17.1671" transform="matrix(0.866025 -0.5 0.866025 0.5 -103.938 384.208)" fill="#01242D"/>
<rect width="98.0977" height="98.0977" rx="17.1671" transform="matrix(0.866025 -0.5 0.866025 0.5 -103.938 384.208)" stroke="#183B46" stroke-width="1.22622"/>
<rect width="98.0977" height="98.0977" rx="17.1671" transform="matrix(0.866025 -0.5 0.866025 0.5 -19.2478 335.312)" fill="#01242D"/>
<rect width="98.0977" height="98.0977" rx="17.1671" transform="matrix(0.866025 -0.5 0.866025 0.5 -19.2478 335.312)" stroke="#183B46" stroke-width="1.22622"/>
<rect width="2.45244" height="2.45244" transform="matrix(0.866025 -0.5 0.866025 0.5 63.4988 335.312)" fill="#183B46"/>
<path d="M69.6901 288.869C67.3442 287.514 67.3442 285.318 69.6901 283.964L146.15 239.82C148.496 238.465 152.299 238.465 154.645 239.82L231.105 283.964C233.451 285.318 233.451 287.514 231.105 288.869L154.645 333.013C152.299 334.367 148.496 334.367 146.15 333.013L69.6901 288.869Z" fill="#01242D"/>
<path d="M69.6901 288.869C67.3442 287.514 67.3442 285.318 69.6901 283.964L146.15 239.82C148.496 238.465 152.299 238.465 154.645 239.82L231.105 283.964C233.451 285.318 233.451 287.514 231.105 288.869L154.645 333.013C152.299 334.367 148.496 334.367 146.15 333.013L69.6901 288.869Z" stroke="#183B46" stroke-width="1.22622"/>
<rect width="4.90489" height="4.90489" rx="1.22622" transform="matrix(0.866025 -0.5 0.866025 0.5 146.065 286.416)" fill="#183B46"/>
<rect width="98.0977" height="98.0977" rx="4.90489" transform="matrix(0.866025 -0.5 0.866025 0.5 150.133 237.52)" fill="#01242D"/>
<rect width="98.0977" height="98.0977" rx="4.90489" transform="matrix(0.866025 -0.5 0.866025 0.5 150.133 237.52)" stroke="#183B46" stroke-width="1.22622"/>
<rect width="2.45244" height="2.45244" transform="matrix(0.866025 -0.5 0.866025 0.5 232.879 237.52)" fill="#183B46"/>
<rect width="98.0977" height="98.0977" rx="17.1671" transform="matrix(0.866025 -0.5 0.866025 0.5 234.823 188.624)" fill="#01242D"/>
<rect width="98.0977" height="98.0977" rx="17.1671" transform="matrix(0.866025 -0.5 0.866025 0.5 234.823 188.624)" stroke="#183B46" stroke-width="1.22622"/>
<rect width="2.45244" height="2.45244" transform="matrix(0.866025 -0.5 0.866025 0.5 317.57 188.624)" fill="#183B46"/>
<rect width="98.0977" height="98.0977" rx="4.90489" transform="matrix(0.866025 -0.5 0.866025 0.5 319.513 139.729)" fill="#01242D"/>
<rect width="98.0977" height="98.0977" rx="4.90489" transform="matrix(0.866025 -0.5 0.866025 0.5 319.513 139.729)" stroke="#183B46" stroke-width="1.22622"/>
<rect width="2.45244" height="2.45244" transform="matrix(0.866025 -0.5 0.866025 0.5 402.26 139.729)" fill="#183B46"/>
<rect width="98.0977" height="98.0977" rx="4.90489" transform="matrix(0.866025 -0.5 0.866025 0.5 404.203 90.8325)" fill="#01242D"/>
<rect width="98.0977" height="98.0977" rx="4.90489" transform="matrix(0.866025 -0.5 0.866025 0.5 404.203 90.8325)" stroke="#183B46" stroke-width="1.22622"/>
<rect width="2.45244" height="2.45244" transform="matrix(0.866025 -0.5 0.866025 0.5 486.95 90.8325)" fill="#183B46"/>
<rect width="98.0977" height="98.0977" rx="4.90489" transform="matrix(0.866025 -0.5 0.866025 0.5 488.894 41.9365)" fill="#01242D"/>
<rect width="98.0977" height="98.0977" rx="4.90489" transform="matrix(0.866025 -0.5 0.866025 0.5 488.894 41.9365)" stroke="#183B46" stroke-width="1.22622"/>
<rect width="2.45244" height="2.45244" transform="matrix(0.866025 -0.5 0.866025 0.5 571.64 41.9365)" fill="#183B46"/>
<g opacity="0.2" filter="url(#filter0_f_863_8926)">
<circle cx="150.498" cy="150.498" r="150.498" transform="matrix(0.866025 -0.5 0.866025 0.5 59 312.498)" fill="#00151B"/>
</g>
<path d="M122.811 230.667C115.143 226.24 115.143 219.062 122.811 214.635L266.89 131.451C274.558 127.024 286.99 127.024 294.658 131.451L400.439 192.524C408.107 196.951 408.107 204.129 400.439 208.556L256.36 291.74C248.692 296.167 236.26 296.167 228.592 291.74L122.811 230.667Z" fill="#55AD28"/>
<path d="M122.539 208.792L262.373 128.059C269.438 123.98 280.892 123.98 287.957 128.059L396.036 190.458C403.1 194.537 403.101 201.151 396.036 205.229L256.203 285.962C249.138 290.041 237.683 290.041 230.618 285.962L122.539 223.563C115.474 219.484 115.474 212.87 122.539 208.792Z" fill="#77EB3D" stroke="#183B46" stroke-width="0.952983"/>
<path d="M303.151 202.112C304.083 201.893 305.151 202.151 305.491 202.698C308.883 208.151 308.966 214.12 305.693 219.619C302.222 225.45 295.211 230.359 285.957 233.437C276.702 236.515 265.831 237.554 255.352 236.363C245.47 235.24 236.568 232.204 230.1 227.774C229.451 227.33 229.599 226.667 230.395 226.311L237.557 223.107C238.353 222.751 239.494 222.837 240.156 223.275C244.734 226.306 250.939 228.384 257.807 229.165C265.273 230.014 273.02 229.273 279.613 227.08C286.207 224.887 291.202 221.389 293.676 217.234C295.951 213.412 295.95 209.271 293.705 205.464C293.38 204.914 293.824 204.3 294.756 204.082L303.151 202.112Z" fill="#55AD28"/>
<path d="M229.076 225.274C228.249 225.605 227.11 225.488 226.57 224.997C220.905 219.842 218.617 213.673 220.162 207.61C221.707 201.547 226.976 196.019 234.973 192.025C235.734 191.645 236.884 191.722 237.511 192.177L243.152 196.271C243.778 196.726 243.644 197.386 242.893 197.773C237.416 200.602 233.809 204.458 232.734 208.678C231.658 212.897 233.189 217.189 237.023 220.809C237.548 221.305 237.348 221.96 236.521 222.291L229.076 225.274Z" fill="#55AD28"/>
<path d="M239.212 191.435C238.625 190.962 238.811 190.303 239.653 189.984C244.393 188.19 249.691 186.937 255.261 186.296C261.427 185.588 267.784 185.646 273.908 186.469C280.032 187.292 285.781 188.859 290.772 191.067C295.281 193.061 299.077 195.535 301.957 198.353C302.469 198.854 302.132 199.493 301.245 199.768L293.257 202.239C292.37 202.513 291.27 202.319 290.744 201.823C288.726 199.923 286.118 198.25 283.045 196.89C279.488 195.318 275.392 194.201 271.029 193.615C266.665 193.029 262.136 192.987 257.742 193.492C253.945 193.928 250.326 194.764 247.062 195.956C246.211 196.266 245.075 196.16 244.489 195.688L239.212 191.435Z" fill="#55AD28"/>
<path d="M205.118 335.344V335.344C213.353 330.59 213.353 322.882 205.118 318.127L130.629 275.121C116.043 266.699 116.043 253.046 130.629 244.625L144.411 236.668" stroke="#55AD28" stroke-width="0.952983"/>
<path d="M232.203 350.982V350.982C240.438 346.227 253.789 346.227 262.024 350.982L330.91 390.753C345.495 399.174 369.144 399.174 383.729 390.753L397.512 382.796" stroke="#55AD28" stroke-width="0.952983"/>
<path d="M107.222 372.059C103.663 370.005 103.663 366.674 107.222 364.619L171.914 327.269C175.473 325.214 181.242 325.214 184.801 327.269L249.493 364.619C253.052 366.674 253.052 370.005 249.493 372.059L184.801 409.409C181.242 411.464 175.473 411.464 171.914 409.409L107.222 372.059Z" fill="#55AD28"/>
<path d="M108.188 361.263L172.881 323.912C175.906 322.166 180.809 322.166 183.834 323.912L248.527 361.262C251.552 363.009 251.552 365.84 248.527 367.587L183.834 404.937C180.809 406.683 175.906 406.683 172.881 404.937L108.188 367.586C105.164 365.84 105.164 363.009 108.188 361.263Z" fill="#77EB3D" stroke="#01242D" stroke-width="2.23198"/>
<path d="M170.042 368.927C169.809 368.882 169.601 368.802 169.428 368.702L154.507 360.087L147.82 363.948L162.741 372.563C163.908 373.237 165.334 373.762 166.88 374.078L186.855 378.227L194.257 373.953L170.059 368.927L170.042 368.927Z" fill="black"/>
<path d="M170.853 350.651L185.773 359.265C185.946 359.365 186.076 359.48 186.155 359.614L194.86 373.595L202.262 369.322L195.068 357.784C194.512 356.896 193.611 356.078 192.452 355.409L177.531 346.794L170.844 350.656L170.853 350.651Z" fill="black"/>
<path d="M296.526 330.962C288.858 326.534 288.858 319.357 296.526 314.93L440.605 231.746C448.273 227.318 460.705 227.318 468.373 231.746L574.154 292.819C581.822 297.246 581.822 304.423 574.154 308.851L430.075 392.035C422.407 396.462 409.975 396.462 402.307 392.035L296.526 330.962Z" fill="#55AD28"/>
<path d="M296.254 309.086L436.088 228.353C443.153 224.274 454.607 224.275 461.672 228.354L569.751 290.753C576.816 294.832 576.816 301.445 569.752 305.524L429.918 386.257C422.853 390.336 411.398 390.336 404.333 386.257L296.254 323.857C289.189 319.778 289.189 313.165 296.254 309.086Z" fill="#77EB3D" stroke="#183B46" stroke-width="0.952983"/>
<path d="M455.693 405.343L454.653 405.943L445.987 400.94L447.027 400.339L455.693 405.343ZM458.613 403.657L457.585 404.25L451.024 400.462L451.841 399.99L452.943 400.512C452.695 399.854 453.092 399.096 454.07 398.532C455.481 397.717 457.338 397.703 458.786 398.539L463.132 401.048L462.104 401.641L457.796 399.154C456.88 398.625 455.704 398.632 454.713 399.204C453.537 399.883 453.636 400.769 454.627 401.355L458.613 403.657ZM468.038 398.215L467.308 398.636C466.033 399.373 464.696 399.387 463.483 398.687L459.657 396.478L458.444 397.178L457.578 396.678L458.791 395.978L456.55 394.684L457.578 394.091L459.818 395.384L461.589 394.362L462.455 394.863L460.685 395.885L464.51 398.093C465.166 398.472 465.835 398.486 466.441 398.136L467.172 397.714L468.038 398.215ZM472.236 395.948C470.293 397.07 467.582 396.992 465.613 395.855C463.373 394.562 463.608 393.025 465.267 392.067C467.074 391.024 469.451 391.052 471.593 392.246L471.877 392.41L466.789 395.348C468.25 396.12 470.02 396.198 471.345 395.434C472.261 394.905 472.472 394.254 471.89 393.604L472.893 393.025C473.945 393.976 473.734 395.083 472.236 395.948ZM465.997 394.819L469.946 392.539C468.609 391.981 467.21 391.974 466.158 392.582C465.118 393.182 465.031 394.018 465.997 394.819ZM477.401 392.809L476.373 393.403L467.089 388.042L468.116 387.449L477.401 392.809ZM480.181 391.204L479.154 391.797L469.869 386.437L470.897 385.843L480.181 391.204ZM474.754 385.489C474.321 385.739 473.653 385.739 473.219 385.489C472.786 385.239 472.798 384.86 473.232 384.61C473.665 384.36 474.309 384.36 474.742 384.61C475.175 384.86 475.188 385.239 474.754 385.489ZM482.925 389.62L481.897 390.213L475.336 386.425L476.364 385.832L482.925 389.62ZM490.09 388.514C488.319 389.536 486.264 389.736 484.878 388.936L485.905 388.342C486.685 388.793 488.072 388.678 489.223 388.014C490.572 387.235 490.473 386.363 489.347 385.712L488.282 385.098C488.505 385.755 488.158 386.47 487.156 387.049C485.41 388.057 482.823 388.007 480.892 386.892C478.923 385.755 478.824 384.24 480.557 383.239C481.61 382.632 482.959 382.424 484.197 382.625L483.169 381.903L483.974 381.438L490.362 385.126C492.021 386.084 492.046 387.385 490.09 388.514ZM486.413 386.448C487.651 385.734 487.527 384.662 486.103 383.84C484.692 383.025 482.835 382.953 481.597 383.668C480.372 384.376 480.508 385.441 481.944 386.27C483.355 387.084 485.187 387.156 486.413 386.448ZM495.255 382.659C493.311 383.781 490.6 383.702 488.632 382.566C486.391 381.272 486.626 379.735 488.285 378.778C490.092 377.734 492.469 377.763 494.611 378.956L494.896 379.121L489.808 382.058C491.269 382.83 493.039 382.909 494.363 382.144C495.28 381.615 495.49 380.965 494.908 380.314L495.911 379.735C496.963 380.686 496.753 381.794 495.255 382.659ZM489.015 381.529L492.965 379.249C491.628 378.692 490.229 378.685 489.176 379.292C488.136 379.893 488.05 380.729 489.015 381.529ZM500.382 379.541L499.355 380.134L492.793 376.346L493.61 375.875L494.712 376.396C494.465 375.739 494.861 374.981 495.839 374.416C497.25 373.602 499.107 373.587 500.555 374.424L504.901 376.932L503.873 377.526L499.565 375.038C498.649 374.509 497.473 374.517 496.482 375.088C495.306 375.767 495.405 376.654 496.396 377.24L500.382 379.541ZM509.807 374.099L509.077 374.521C507.802 375.257 506.465 375.272 505.252 374.571L501.426 372.363L500.213 373.063L499.347 372.563L500.56 371.862L498.319 370.569L499.347 369.975L501.587 371.269L503.358 370.247L504.224 370.747L502.454 371.769L506.279 373.978C506.935 374.357 507.604 374.371 508.21 374.021L508.941 373.599L509.807 374.099ZM517.178 369.844L514.121 371.609L505.455 366.606L508.513 364.841C511.001 363.404 514.492 363.418 517.018 364.876C519.605 366.37 519.667 368.407 517.178 369.844ZM507.448 366.556L514.207 370.458L516.287 369.258C518.082 368.221 517.934 366.677 515.916 365.512C514.046 364.433 511.323 364.319 509.528 365.355L507.448 366.556ZM525.109 365.38C523.623 366.237 521.902 366.344 520.702 365.651C519.191 364.779 520.367 363.771 521.543 362.935C522.447 362.299 523.326 361.806 522.806 361.491C521.964 361.02 520.702 361.077 519.711 361.649C518.758 362.199 518.548 362.935 519.216 363.45L518.201 364.036C517.037 363.221 517.297 362.027 518.857 361.127C520.479 360.191 522.484 360.148 523.871 360.948L527.065 362.792C527.275 362.914 527.498 362.914 527.721 362.785L528.092 362.571L528.934 363.057L528.352 363.393C527.647 363.8 526.953 363.829 526.347 363.478L526.149 363.364C526.52 364.022 526.248 364.722 525.109 365.38ZM524.378 364.786C525.604 364.079 525.666 363.142 524.576 362.513L523.722 362.02C523.821 362.406 523.165 362.871 522.447 363.385C521.642 363.964 520.862 364.558 521.704 365.044C522.385 365.437 523.437 365.33 524.378 364.786ZM532.673 361.055C531.113 361.956 529.145 362.149 527.672 361.398L528.675 360.819C529.603 361.269 530.854 361.091 531.844 360.519C532.772 359.983 532.859 359.518 532.203 359.139C531.584 358.782 530.965 358.982 530.049 359.24L528.774 359.604C527.486 359.976 526.224 360.362 525.035 359.676C523.921 359.032 524.069 358.117 525.506 357.288C526.954 356.452 528.737 356.323 530.358 357.074L529.356 357.653C528.328 357.188 527.239 357.303 526.347 357.817C525.543 358.282 525.431 358.761 526.001 359.089C526.682 359.483 527.536 359.147 528.266 358.939L529.455 358.596C531.052 358.132 532.178 357.953 533.268 358.582C534.419 359.247 534.27 360.133 532.673 361.055ZM537.304 358.224L536.277 358.817L526.992 353.457L528.019 352.864L531.585 354.922C531.461 354.307 531.87 353.614 532.761 353.099C534.172 352.285 536.029 352.27 537.477 353.107L541.823 355.615L540.795 356.209L536.487 353.721C535.571 353.192 534.395 353.2 533.466 353.736C532.229 354.45 532.328 355.337 533.318 355.923L537.304 358.224ZM546.936 352.82C545.859 353.442 544.448 353.642 543.148 353.406L544.287 354.193L543.47 354.664L534.185 349.304L535.213 348.711L538.964 350.876C538.729 350.183 539.1 349.44 540.09 348.868C541.823 347.867 544.423 347.967 546.429 349.125C548.471 350.304 548.669 351.82 546.936 352.82ZM545.884 352.399C547.097 351.698 546.874 350.612 545.364 349.74C543.891 348.889 542.034 348.775 540.808 349.482C539.57 350.197 539.682 351.291 541.13 352.127C542.665 353.013 544.634 353.121 545.884 352.399ZM554.118 348.674C552.014 349.889 549.401 349.667 547.421 348.524C545.23 347.259 545.49 345.751 547.272 344.721C549.364 343.513 552.001 343.735 553.858 344.807C556.124 346.115 555.963 347.609 554.118 348.674ZM553.227 348.159C554.626 347.352 554.23 346.237 552.806 345.415C551.333 344.564 549.476 344.478 548.164 345.236C546.851 345.994 547 347.066 548.473 347.916C550.157 348.888 552.038 348.845 553.227 348.159ZM560.761 344.796C559.275 345.654 557.554 345.761 556.353 345.068C554.843 344.196 556.019 343.188 557.195 342.352C558.099 341.715 558.978 341.222 558.458 340.908C557.616 340.436 556.353 340.493 555.363 341.065C554.41 341.615 554.199 342.352 554.868 342.866L553.853 343.452C552.689 342.637 552.949 341.444 554.509 340.543C556.131 339.607 558.136 339.564 559.523 340.365L562.717 342.209C562.927 342.33 563.15 342.33 563.373 342.201L563.744 341.987L564.586 342.473L564.004 342.809C563.298 343.216 562.605 343.245 561.998 342.895L561.8 342.78C562.172 343.438 561.899 344.138 560.761 344.796ZM560.03 344.203C561.256 343.495 561.318 342.559 560.228 341.93L559.374 341.437C559.473 341.823 558.817 342.287 558.099 342.802C557.294 343.381 556.514 343.974 557.356 344.46C558.037 344.853 559.089 344.746 560.03 344.203ZM566.765 341.215L565.738 341.808L559.177 338.02L559.994 337.548L561.368 338.199C560.947 337.469 561.269 336.769 562.358 336.14L562.581 336.011L563.596 336.598L563.373 336.726C561.987 337.527 561.974 338.449 563.324 339.228L566.765 341.215ZM572.839 337.865C571.081 338.88 568.444 338.773 566.402 337.594C564.396 336.436 564.223 334.935 565.981 333.92C566.971 333.348 568.234 333.119 569.398 333.248L565.696 331.111L566.724 330.518L576.008 335.878L575.191 336.35L573.817 335.685C574.238 336.429 573.916 337.243 572.839 337.865ZM572.109 337.258C573.359 336.536 573.161 335.421 571.638 334.542C570.165 333.691 568.308 333.591 567.095 334.292C565.832 335.021 565.981 336.121 567.466 336.979C568.977 337.851 570.883 337.965 572.109 337.258Z" fill="#D1DCDF"/>
<path d="M278.242 300.734L277.202 301.335L268.536 296.332L269.576 295.731L278.242 300.734ZM281.162 299.048L280.135 299.642L273.573 295.853L274.39 295.382L275.492 295.904C275.245 295.246 275.641 294.488 276.619 293.924C278.03 293.109 279.887 293.095 281.335 293.931L285.681 296.44L284.653 297.033L280.345 294.546C279.429 294.017 278.253 294.024 277.262 294.596C276.086 295.275 276.185 296.161 277.176 296.747L281.162 299.048ZM290.587 293.607L289.857 294.028C288.582 294.765 287.245 294.779 286.032 294.078L282.206 291.87L280.993 292.57L280.127 292.07L281.34 291.37L279.099 290.076L280.127 289.483L282.367 290.776L284.138 289.754L285.004 290.255L283.234 291.277L287.059 293.485C287.715 293.864 288.384 293.878 288.99 293.528L289.721 293.106L290.587 293.607ZM294.786 291.34C292.842 292.462 290.131 292.384 288.162 291.247C285.922 289.954 286.157 288.417 287.816 287.459C289.623 286.416 292 286.444 294.142 287.638L294.426 287.802L289.338 290.74C290.799 291.512 292.57 291.59 293.894 290.825C294.81 290.297 295.021 289.646 294.439 288.996L295.442 288.417C296.494 289.367 296.283 290.475 294.786 291.34ZM288.546 290.211L292.495 287.931C291.158 287.373 289.759 287.366 288.707 287.974C287.667 288.574 287.581 289.41 288.546 290.211ZM299.95 288.201L298.922 288.794L289.638 283.434L290.665 282.841L299.95 288.201ZM302.731 286.596L301.703 287.189L292.418 281.828L293.446 281.235L302.731 286.596ZM297.303 280.881C296.87 281.131 296.202 281.131 295.768 280.881C295.335 280.631 295.347 280.252 295.781 280.002C296.214 279.751 296.858 279.751 297.291 280.002C297.724 280.252 297.737 280.631 297.303 280.881ZM305.474 285.012L304.446 285.605L297.885 281.817L298.913 281.224L305.474 285.012ZM312.639 283.906C310.868 284.928 308.813 285.128 307.427 284.328L308.454 283.734C309.234 284.185 310.621 284.07 311.772 283.406C313.121 282.626 313.022 281.754 311.896 281.104L310.831 280.489C311.054 281.147 310.707 281.862 309.705 282.441C307.959 283.448 305.372 283.398 303.441 282.283C301.472 281.147 301.373 279.632 303.106 278.631C304.159 278.024 305.508 277.816 306.746 278.016L305.718 277.294L306.523 276.83L312.911 280.518C314.57 281.476 314.595 282.777 312.639 283.906ZM308.962 281.84C310.2 281.125 310.076 280.053 308.652 279.231C307.241 278.417 305.384 278.345 304.146 279.06C302.921 279.767 303.057 280.832 304.493 281.662C305.904 282.476 307.736 282.548 308.962 281.84ZM317.804 278.05C315.86 279.173 313.149 279.094 311.181 277.958C308.94 276.664 309.175 275.127 310.834 274.169C312.642 273.126 315.018 273.154 317.16 274.348L317.445 274.512L312.357 277.45C313.818 278.222 315.588 278.301 316.913 277.536C317.829 277.007 318.039 276.357 317.457 275.706L318.46 275.127C319.512 276.078 319.302 277.186 317.804 278.05ZM311.565 276.921L315.514 274.641C314.177 274.084 312.778 274.077 311.725 274.684C310.686 275.284 310.599 276.121 311.565 276.921ZM322.931 274.933L321.904 275.526L315.342 271.738L316.159 271.266L317.261 271.788C317.014 271.131 317.41 270.373 318.388 269.808C319.799 268.993 321.656 268.979 323.104 269.815L327.45 272.324L326.422 272.917L322.114 270.43C321.198 269.901 320.022 269.908 319.032 270.48C317.855 271.159 317.955 272.045 318.945 272.632L322.931 274.933ZM332.356 269.491L331.626 269.913C330.351 270.649 329.014 270.663 327.801 269.963L323.975 267.754L322.762 268.455L321.896 267.955L323.109 267.254L320.868 265.96L321.896 265.367L324.136 266.661L325.907 265.639L326.773 266.139L325.003 267.161L328.828 269.37C329.484 269.749 330.153 269.763 330.76 269.413L331.49 268.991L332.356 269.491ZM339.728 265.236L336.67 267.001L328.004 261.998L331.062 260.232C333.55 258.796 337.041 258.81 339.567 260.268C342.154 261.762 342.216 263.799 339.728 265.236ZM329.997 261.948L336.756 265.85L338.836 264.649C340.631 263.613 340.483 262.069 338.465 260.904C336.596 259.825 333.872 259.711 332.077 260.747L329.997 261.948ZM347.658 260.771C346.172 261.629 344.451 261.736 343.251 261.043C341.74 260.171 342.916 259.163 344.092 258.327C344.996 257.691 345.875 257.198 345.355 256.883C344.513 256.411 343.251 256.469 342.26 257.04C341.307 257.591 341.097 258.327 341.765 258.842L340.75 259.428C339.586 258.613 339.846 257.419 341.406 256.519C343.028 255.582 345.033 255.54 346.42 256.34L349.614 258.184C349.824 258.306 350.047 258.306 350.27 258.177L350.641 257.962L351.483 258.448L350.901 258.784C350.196 259.192 349.502 259.22 348.896 258.87L348.698 258.756C349.069 259.413 348.797 260.114 347.658 260.771ZM346.927 260.178C348.153 259.471 348.215 258.534 347.125 257.905L346.271 257.412C346.37 257.798 345.714 258.263 344.996 258.777C344.191 259.356 343.412 259.949 344.253 260.435C344.934 260.829 345.987 260.721 346.927 260.178ZM355.222 256.447C353.663 257.347 351.694 257.54 350.221 256.79L351.224 256.211C352.152 256.661 353.403 256.483 354.393 255.911C355.321 255.375 355.408 254.91 354.752 254.531C354.133 254.174 353.514 254.374 352.598 254.631L351.323 254.996C350.035 255.368 348.773 255.754 347.584 255.067C346.47 254.424 346.619 253.509 348.055 252.68C349.503 251.844 351.286 251.715 352.907 252.466L351.905 253.045C350.877 252.58 349.788 252.694 348.896 253.209C348.092 253.674 347.98 254.153 348.55 254.481C349.231 254.874 350.085 254.538 350.815 254.331L352.004 253.988C353.601 253.524 354.727 253.345 355.817 253.974C356.968 254.639 356.819 255.525 355.222 256.447ZM359.853 253.616L358.826 254.209L349.541 248.849L350.569 248.255L354.134 250.314C354.01 249.699 354.419 249.006 355.31 248.491C356.721 247.677 358.578 247.662 360.027 248.498L364.372 251.007L363.344 251.6L359.036 249.113C358.12 248.584 356.944 248.591 356.016 249.127C354.778 249.842 354.877 250.728 355.867 251.315L359.853 253.616ZM369.485 248.212C368.408 248.834 366.997 249.034 365.697 248.798L366.836 249.584L366.019 250.056L356.734 244.696L357.762 244.102L361.513 246.268C361.278 245.575 361.649 244.831 362.639 244.26C364.372 243.259 366.972 243.359 368.978 244.517C371.02 245.696 371.218 247.212 369.485 248.212ZM368.433 247.79C369.646 247.09 369.423 246.004 367.913 245.132C366.44 244.281 364.583 244.167 363.357 244.874C362.119 245.589 362.231 246.683 363.679 247.519C365.214 248.405 367.183 248.512 368.433 247.79ZM376.667 244.066C374.563 245.281 371.951 245.059 369.97 243.916C367.779 242.651 368.039 241.142 369.821 240.113C371.913 238.905 374.55 239.127 376.407 240.199C378.673 241.507 378.512 243.001 376.667 244.066ZM375.776 243.551C377.175 242.743 376.779 241.628 375.355 240.806C373.882 239.956 372.025 239.87 370.713 240.628C369.4 241.385 369.549 242.458 371.022 243.308C372.706 244.28 374.587 244.237 375.776 243.551ZM383.31 240.188C381.824 241.045 380.103 241.153 378.902 240.459C377.392 239.587 378.568 238.58 379.744 237.743C380.648 237.107 381.527 236.614 381.007 236.3C380.165 235.828 378.902 235.885 377.912 236.457C376.959 237.007 376.748 237.743 377.417 238.258L376.402 238.844C375.238 238.029 375.498 236.836 377.058 235.935C378.68 234.999 380.685 234.956 382.072 235.756L385.266 237.6C385.476 237.722 385.699 237.722 385.922 237.593L386.293 237.379L387.135 237.865L386.553 238.201C385.847 238.608 385.154 238.637 384.548 238.287L384.349 238.172C384.721 238.83 384.449 239.53 383.31 240.188ZM382.579 239.595C383.805 238.887 383.867 237.951 382.777 237.322L381.923 236.829C382.022 237.214 381.366 237.679 380.648 238.194C379.843 238.773 379.063 239.366 379.905 239.852C380.586 240.245 381.638 240.138 382.579 239.595ZM389.314 236.607L388.287 237.2L381.726 233.412L382.543 232.94L383.917 233.59C383.496 232.861 383.818 232.161 384.907 231.532L385.13 231.403L386.145 231.989L385.922 232.118C384.536 232.919 384.523 233.841 385.873 234.62L389.314 236.607ZM395.388 233.257C393.63 234.272 390.993 234.165 388.951 232.985C386.945 231.828 386.772 230.327 388.53 229.312C389.52 228.74 390.783 228.511 391.947 228.64L388.245 226.503L389.273 225.91L398.557 231.27L397.74 231.742L396.366 231.077C396.787 231.82 396.465 232.635 395.388 233.257ZM394.658 232.65C395.908 231.928 395.71 230.813 394.187 229.934C392.714 229.083 390.857 228.983 389.644 229.683C388.381 230.412 388.53 231.513 390.015 232.371C391.526 233.243 393.432 233.357 394.658 232.65Z" fill="#D1DCDF"/>
<g clip-path="url(#clip1_863_8926)">
<path d="M264.998 205.806V214.685" stroke="#01242D" stroke-width="1.26845" stroke-linecap="round" stroke-linejoin="round"/>
<path d="M260.329 211.039C261.088 210.601 261.088 209.891 260.329 209.453C259.571 209.015 258.341 209.015 257.583 209.453C256.824 209.891 256.824 210.601 257.583 211.039C258.341 211.476 259.571 211.476 260.329 211.039Z" stroke="#01242D" stroke-width="1.26845" stroke-linecap="round" stroke-linejoin="round"/>
<path d="M272.413 211.039C273.171 210.601 273.171 209.891 272.413 209.453C271.655 209.015 270.425 209.015 269.667 209.453C268.908 209.891 268.908 210.601 269.667 211.039C270.425 211.476 271.655 211.476 272.413 211.039Z" stroke="#01242D" stroke-width="1.26845" stroke-linecap="round" stroke-linejoin="round"/>
</g>
<path d="M306.773 200.599C310.729 206.219 311.089 212.469 307.787 218.228C304.484 223.987 297.737 228.879 288.753 232.026C279.77 235.172 269.139 236.369 258.766 235.4C248.394 234.431 238.958 231.36 232.152 226.739L241.832 221.986C246.682 225.279 253.405 227.467 260.796 228.157C268.186 228.848 275.761 227.995 282.162 225.753C288.563 223.511 293.37 220.026 295.723 215.922C298.076 211.819 297.82 207.366 295.001 203.361L306.773 200.599Z" fill="url(#paint0_linear_863_8926)"/>
<path d="M229.512 224.757C223.469 219.73 220.756 213.616 221.869 207.53C222.981 201.444 227.845 195.791 235.572 191.603L244.27 196.952C238.764 199.936 235.298 203.963 234.506 208.3C233.713 212.636 235.646 216.992 239.951 220.575L229.512 224.757Z" fill="url(#paint1_linear_863_8926)"/>
<path d="M239.051 189.903C244.094 187.687 249.903 186.122 256.086 185.316C262.268 184.51 268.679 184.48 274.883 185.23C281.087 185.98 286.938 187.491 292.042 189.662C297.145 191.832 301.379 194.611 304.459 197.81L293.352 201.374C291.158 199.095 288.141 197.115 284.505 195.569C280.869 194.022 276.699 192.945 272.279 192.411C267.859 191.877 263.291 191.898 258.886 192.472C254.481 193.047 250.341 194.161 246.748 195.741L239.051 189.903Z" fill="url(#paint2_linear_863_8926)"/>
<path opacity="0.26" d="M463.154 240.595L314.656 326.331" stroke="#010101" stroke-width="0.870103"/>
<path opacity="0.26" d="M478.232 249.301L329.734 335.036" stroke="#010101" stroke-width="0.870103"/>
<path opacity="0.26" d="M493.31 258.006L344.811 343.741" stroke="#010101" stroke-width="0.870103"/>
<path opacity="0.26" d="M508.388 266.711L359.889 352.447" stroke="#010101" stroke-width="0.870103"/>
<path opacity="0.26" d="M523.466 275.416L374.968 361.152" stroke="#010101" stroke-width="0.870103"/>
<path opacity="0.26" d="M553.621 292.826L405.123 378.562" stroke="#010101" stroke-width="0.870103"/>
<path opacity="0.26" d="M538.543 284.121L390.045 369.857" stroke="#010101" stroke-width="0.870103"/>
<rect width="6.63759" height="112.213" transform="matrix(0.866025 -0.5 0.866025 0.5 330.739 323.448)" fill="url(#paint3_linear_863_8926)"/>
<rect width="6.63759" height="98.5651" transform="matrix(0.866025 -0.5 0.866025 0.5 367.468 315.89)" fill="url(#paint4_linear_863_8926)"/>
<rect width="6.63759" height="98.5651" transform="matrix(0.866025 -0.5 0.866025 0.5 417.286 287.127)" fill="url(#paint5_linear_863_8926)"/>
<rect width="6.63759" height="34.8769" transform="matrix(0.866025 -0.5 0.866025 0.5 435.078 340.543)" fill="url(#paint6_linear_863_8926)"/>
<rect width="6.63759" height="34.8769" transform="matrix(0.866025 -0.5 0.866025 0.5 484.896 311.781)" fill="url(#paint7_linear_863_8926)"/>
<rect width="6.63759" height="78.8521" transform="matrix(0.866025 -0.5 0.866025 0.5 409.449 311.365)" fill="url(#paint8_linear_863_8926)"/>
<rect width="6.63759" height="78.8521" transform="matrix(0.866025 -0.5 0.866025 0.5 459.268 282.603)" fill="url(#paint9_linear_863_8926)"/>
<rect width="6.63759" height="78.8521" transform="matrix(0.866025 -0.5 0.866025 0.5 421.904 304.175)" fill="url(#paint10_linear_863_8926)"/>
<rect width="6.63759" height="118.278" transform="matrix(0.866025 -0.5 0.866025 0.5 437.579 255.698)" fill="url(#paint11_linear_863_8926)"/>
<rect width="6.63759" height="78.8521" transform="matrix(0.866025 -0.5 0.866025 0.5 484.177 268.221)" fill="url(#paint12_linear_863_8926)"/>
<rect width="6.63759" height="66.721" transform="matrix(0.866025 -0.5 0.866025 0.5 382.591 339.003)" fill="url(#paint13_linear_863_8926)"/>
<rect x="0.993334" width="170.324" height="138.527" rx="17.7786" transform="matrix(0.866025 -0.5 0.866025 0.5 296.779 316.429)" stroke="#00242C" stroke-width="1.147"/>
</g>
<defs>
<filter id="filter0_f_863_8926" x="-64.6514" y="6.07983" width="768.644" height="612.837" filterUnits="userSpaceOnUse" color-interpolation-filters="sRGB">
<feFlood flood-opacity="0" result="BackgroundImageFix"/>
<feBlend mode="normal" in="SourceGraphic" in2="BackgroundImageFix" result="shape"/>
<feGaussianBlur stdDeviation="100" result="effect1_foregroundBlur_863_8926"/>
</filter>
<linearGradient id="paint0_linear_863_8926" x1="234.571" y1="192.163" x2="265.825" y2="246.298" gradientUnits="userSpaceOnUse">
<stop offset="0.173077" stop-color="#01242D"/>
<stop offset="1" stop-color="#737373" stop-opacity="0"/>
</linearGradient>
<linearGradient id="paint1_linear_863_8926" x1="234.571" y1="192.163" x2="265.825" y2="246.298" gradientUnits="userSpaceOnUse">
<stop offset="0.173077" stop-color="#01242D"/>
<stop offset="1" stop-color="#737373" stop-opacity="0"/>
</linearGradient>
<linearGradient id="paint2_linear_863_8926" x1="234.571" y1="192.163" x2="265.825" y2="246.298" gradientUnits="userSpaceOnUse">
<stop offset="0.173077" stop-color="#01242D"/>
<stop offset="1" stop-color="#737373" stop-opacity="0"/>
</linearGradient>
<linearGradient id="paint3_linear_863_8926" x1="3.3188" y1="0" x2="3.3188" y2="112.213" gradientUnits="userSpaceOnUse">
<stop offset="0.173077" stop-color="#01242D"/>
<stop offset="1" stop-color="#737373" stop-opacity="0"/>
</linearGradient>
<linearGradient id="paint4_linear_863_8926" x1="3.3188" y1="0" x2="3.3188" y2="98.5651" gradientUnits="userSpaceOnUse">
<stop offset="0.173077" stop-color="#01242D"/>
<stop offset="1" stop-color="#737373" stop-opacity="0"/>
</linearGradient>
<linearGradient id="paint5_linear_863_8926" x1="3.3188" y1="0" x2="3.3188" y2="98.5651" gradientUnits="userSpaceOnUse">
<stop offset="0.173077" stop-color="#01242D"/>
<stop offset="1" stop-color="#737373" stop-opacity="0"/>
</linearGradient>
<linearGradient id="paint6_linear_863_8926" x1="3.3188" y1="0" x2="3.3188" y2="34.8769" gradientUnits="userSpaceOnUse">
<stop offset="0.173077" stop-color="#01242D"/>
<stop offset="1" stop-color="#737373" stop-opacity="0"/>
</linearGradient>
<linearGradient id="paint7_linear_863_8926" x1="3.3188" y1="0" x2="3.3188" y2="34.8769" gradientUnits="userSpaceOnUse">
<stop offset="0.173077" stop-color="#01242D"/>
<stop offset="1" stop-color="#737373" stop-opacity="0"/>
</linearGradient>
<linearGradient id="paint8_linear_863_8926" x1="3.3188" y1="0" x2="3.3188" y2="78.8521" gradientUnits="userSpaceOnUse">
<stop offset="0.173077" stop-color="#01242D"/>
<stop offset="1" stop-color="#737373" stop-opacity="0"/>
</linearGradient>
<linearGradient id="paint9_linear_863_8926" x1="3.3188" y1="0" x2="3.3188" y2="78.8521" gradientUnits="userSpaceOnUse">
<stop offset="0.173077" stop-color="#01242D"/>
<stop offset="1" stop-color="#737373" stop-opacity="0"/>
</linearGradient>
<linearGradient id="paint10_linear_863_8926" x1="3.3188" y1="0" x2="3.3188" y2="78.8521" gradientUnits="userSpaceOnUse">
<stop offset="0.173077" stop-color="#01242D"/>
<stop offset="1" stop-color="#737373" stop-opacity="0"/>
</linearGradient>
<linearGradient id="paint11_linear_863_8926" x1="3.3188" y1="0" x2="3.3188" y2="118.278" gradientUnits="userSpaceOnUse">
<stop offset="0.173077" stop-color="#01242D"/>
<stop offset="1" stop-color="#737373" stop-opacity="0"/>
</linearGradient>
<linearGradient id="paint12_linear_863_8926" x1="3.3188" y1="0" x2="3.3188" y2="78.8521" gradientUnits="userSpaceOnUse">
<stop offset="0.173077" stop-color="#01242D"/>
<stop offset="1" stop-color="#737373" stop-opacity="0"/>
</linearGradient>
<linearGradient id="paint13_linear_863_8926" x1="3.3188" y1="0" x2="3.3188" y2="66.721" gradientUnits="userSpaceOnUse">
<stop offset="0.173077" stop-color="#01242D"/>
<stop offset="1" stop-color="#737373" stop-opacity="0"/>
</linearGradient>
<clipPath id="clip0_863_8926">
<rect width="628" height="603" rx="20" fill="white"/>
</clipPath>
<clipPath id="clip1_863_8926">
<rect width="15.2214" height="15.2214" fill="white" transform="matrix(0.866025 -0.5 0.866025 0.5 251.816 210.246)"/>
</clipPath>
</defs>
</svg>
