<svg width="628" height="603" viewBox="0 0 628 603" fill="none" xmlns="http://www.w3.org/2000/svg">
<g clip-path="url(#clip0_866_10606)">
<rect width="628" height="603" rx="20" fill="#01242D"/>
<rect x="-0.645595" width="978.664" height="1079.04" transform="matrix(0.866025 -0.5 0.866025 0.5 -528.086 334.637)" fill="#183B46"/>
<rect x="-0.645595" width="978.664" height="1079.04" transform="matrix(0.866025 -0.5 0.866025 0.5 -528.086 334.637)" stroke="#183B46" stroke-width="0.745469"/>
<rect width="98.0977" height="98.0977" rx="17.1671" transform="matrix(0.866025 -0.5 0.866025 0.5 -103.734 482.117)" fill="#01242D"/>
<rect width="98.0977" height="98.0977" rx="17.1671" transform="matrix(0.866025 -0.5 0.866025 0.5 -103.734 482.117)" stroke="#183B46" stroke-width="1.22622"/>
<rect width="98.0977" height="98.0977" rx="17.1671" transform="matrix(0.866025 -0.5 0.866025 0.5 -19.0442 433.221)" fill="#01242D"/>
<rect width="98.0977" height="98.0977" rx="17.1671" transform="matrix(0.866025 -0.5 0.866025 0.5 -19.0442 433.221)" stroke="#183B46" stroke-width="1.22622"/>
<rect width="2.45244" height="2.45244" transform="matrix(0.866025 -0.5 0.866025 0.5 63.7024 433.221)" fill="#183B46"/>
<path d="M69.8938 386.778C67.5478 385.424 67.5478 383.228 69.8938 381.873L146.353 337.729C148.699 336.375 152.503 336.375 154.849 337.729L231.308 381.873C233.654 383.228 233.654 385.424 231.308 386.778L154.849 430.922C152.503 432.277 148.699 432.277 146.353 430.922L69.8938 386.778Z" fill="#01242D"/>
<path d="M69.8938 386.778C67.5478 385.424 67.5478 383.228 69.8938 381.873L146.353 337.729C148.699 336.375 152.503 336.375 154.849 337.729L231.308 381.873C233.654 383.228 233.654 385.424 231.308 386.778L154.849 430.922C152.503 432.277 148.699 432.277 146.353 430.922L69.8938 386.778Z" stroke="#183B46" stroke-width="1.22622"/>
<rect width="4.90489" height="4.90489" rx="1.22622" transform="matrix(0.866025 -0.5 0.866025 0.5 146.269 384.326)" fill="#183B46"/>
<path d="M154.584 337.882C152.238 336.528 152.238 334.332 154.584 332.977L231.043 288.833C233.389 287.479 237.193 287.479 239.539 288.833L315.998 332.977C318.344 334.332 318.344 336.528 315.998 337.882L239.539 382.026C237.193 383.381 233.389 383.381 231.043 382.026L154.584 337.882Z" fill="#01242D"/>
<path d="M154.584 337.882C152.238 336.528 152.238 334.332 154.584 332.977L231.043 288.833C233.389 287.479 237.193 287.479 239.539 288.833L315.998 332.977C318.344 334.332 318.344 336.528 315.998 337.882L239.539 382.026C237.193 383.381 233.389 383.381 231.043 382.026L154.584 337.882Z" stroke="#183B46" stroke-width="1.22622"/>
<rect width="4.90489" height="4.90489" rx="2.45244" transform="matrix(0.866025 -0.5 0.866025 0.5 230.959 335.43)" fill="#183B46"/>
<path d="M239.274 288.986C236.928 287.632 236.928 285.436 239.274 284.081L315.734 239.937C318.08 238.583 321.884 238.583 324.229 239.937L400.689 284.081C403.035 285.436 403.035 287.632 400.689 288.986L324.229 333.13C321.884 334.485 318.08 334.485 315.734 333.13L239.274 288.986Z" fill="#01242D"/>
<path d="M239.274 288.986C236.928 287.632 236.928 285.436 239.274 284.081L315.734 239.937C318.08 238.583 321.884 238.583 324.229 239.937L400.689 284.081C403.035 285.436 403.035 287.632 400.689 288.986L324.229 333.13C321.884 334.485 318.08 334.485 315.734 333.13L239.274 288.986Z" stroke="#183B46" stroke-width="1.22622"/>
<rect width="4.90489" height="4.90489" rx="2.45244" transform="matrix(0.866025 -0.5 0.866025 0.5 315.649 286.534)" fill="#183B46"/>
<path d="M323.965 240.09C321.619 238.736 321.619 236.54 323.965 235.185L400.424 191.041C402.77 189.687 406.574 189.687 408.92 191.041L485.379 235.185C487.725 236.54 487.725 238.736 485.379 240.09L408.92 284.234C406.574 285.589 402.77 285.589 400.424 284.234L323.965 240.09Z" fill="#01242D"/>
<path d="M323.965 240.09C321.619 238.736 321.619 236.54 323.965 235.185L400.424 191.041C402.77 189.687 406.574 189.687 408.92 191.041L485.379 235.185C487.725 236.54 487.725 238.736 485.379 240.09L408.92 284.234C406.574 285.589 402.77 285.589 400.424 284.234L323.965 240.09Z" stroke="#183B46" stroke-width="1.22622"/>
<rect width="4.90489" height="4.90489" rx="1.22622" transform="matrix(0.866025 -0.5 0.866025 0.5 400.34 237.638)" fill="#183B46"/>
<path d="M408.655 191.194C406.309 189.84 406.309 187.644 408.655 186.289L485.115 142.145C487.461 140.791 491.264 140.791 493.61 142.145L570.07 186.289C572.416 187.644 572.416 189.84 570.07 191.194L493.61 235.338C491.264 236.693 487.461 236.693 485.115 235.338L408.655 191.194Z" fill="#01242D"/>
<path d="M408.655 191.194C406.309 189.84 406.309 187.644 408.655 186.289L485.115 142.145C487.461 140.791 491.264 140.791 493.61 142.145L570.07 186.289C572.416 187.644 572.416 189.84 570.07 191.194L493.61 235.338C491.264 236.693 487.461 236.693 485.115 235.338L408.655 191.194Z" stroke="#183B46" stroke-width="1.22622"/>
<rect width="4.90489" height="4.90489" rx="1.22622" transform="matrix(0.866025 -0.5 0.866025 0.5 485.03 188.742)" fill="#183B46"/>
<rect width="98.0977" height="98.0977" rx="17.1671" transform="matrix(0.866025 -0.5 0.866025 0.5 489.097 139.846)" fill="#01242D"/>
<rect width="98.0977" height="98.0977" rx="17.1671" transform="matrix(0.866025 -0.5 0.866025 0.5 489.097 139.846)" stroke="#183B46" stroke-width="1.22622"/>
<rect width="2.45244" height="2.45244" transform="matrix(0.866025 -0.5 0.866025 0.5 571.844 139.846)" fill="#183B46"/>
<rect width="98.0977" height="98.0977" rx="4.90489" transform="matrix(0.866025 -0.5 0.866025 0.5 573.788 90.95)" fill="#01242D"/>
<rect width="98.0977" height="98.0977" rx="4.90489" transform="matrix(0.866025 -0.5 0.866025 0.5 573.788 90.95)" stroke="#183B46" stroke-width="1.22622"/>
<rect width="98.0977" height="98.0977" rx="17.1671" transform="matrix(0.866025 -0.5 0.866025 0.5 -103.531 580.027)" fill="#01242D"/>
<rect width="98.0977" height="98.0977" rx="17.1671" transform="matrix(0.866025 -0.5 0.866025 0.5 -103.531 580.027)" stroke="#183B46" stroke-width="1.22622"/>
<rect width="98.0977" height="98.0977" rx="17.1671" transform="matrix(0.866025 -0.5 0.866025 0.5 -18.8406 531.131)" fill="#01242D"/>
<rect width="98.0977" height="98.0977" rx="17.1671" transform="matrix(0.866025 -0.5 0.866025 0.5 -18.8406 531.131)" stroke="#183B46" stroke-width="1.22622"/>
<rect width="2.45244" height="2.45244" transform="matrix(0.866025 -0.5 0.866025 0.5 63.906 531.131)" fill="#183B46"/>
<rect width="98.0977" height="98.0977" rx="17.1671" transform="matrix(0.866025 -0.5 0.866025 0.5 65.8496 482.235)" fill="#01242D"/>
<rect width="98.0977" height="98.0977" rx="17.1671" transform="matrix(0.866025 -0.5 0.866025 0.5 65.8496 482.235)" stroke="#183B46" stroke-width="1.22622"/>
<rect width="2.45244" height="2.45244" transform="matrix(0.866025 -0.5 0.866025 0.5 148.596 482.235)" fill="#183B46"/>
<rect width="98.0977" height="98.0977" rx="17.1671" transform="matrix(0.866025 -0.5 0.866025 0.5 150.54 433.339)" fill="#01242D"/>
<rect width="98.0977" height="98.0977" rx="17.1671" transform="matrix(0.866025 -0.5 0.866025 0.5 150.54 433.339)" stroke="#183B46" stroke-width="1.22622"/>
<rect width="2.45244" height="2.45244" transform="matrix(0.866025 -0.5 0.866025 0.5 233.286 433.339)" fill="#183B46"/>
<path d="M239.478 386.896C237.132 385.541 237.132 383.345 239.478 381.991L315.937 337.847C318.283 336.492 322.087 336.492 324.433 337.847L400.892 381.991C403.238 383.345 403.238 385.541 400.892 386.896L324.433 431.04C322.087 432.394 318.283 432.394 315.937 431.04L239.478 386.896Z" fill="#01242D"/>
<path d="M239.478 386.896C237.132 385.541 237.132 383.345 239.478 381.991L315.937 337.847C318.283 336.492 322.087 336.492 324.433 337.847L400.892 381.991C403.238 383.345 403.238 385.541 400.892 386.896L324.433 431.04C322.087 432.394 318.283 432.394 315.937 431.04L239.478 386.896Z" stroke="#183B46" stroke-width="1.22622"/>
<rect width="4.90489" height="4.90489" rx="1.22622" transform="matrix(0.866025 -0.5 0.866025 0.5 315.853 384.443)" fill="#183B46"/>
<path d="M324.168 338C321.822 336.645 321.822 334.449 324.168 333.095L400.628 288.951C402.974 287.596 406.777 287.596 409.123 288.951L485.583 333.095C487.929 334.449 487.929 336.645 485.583 338L409.123 382.144C406.777 383.498 402.974 383.498 400.628 382.144L324.168 338Z" fill="#01242D"/>
<path d="M324.168 338C321.822 336.645 321.822 334.449 324.168 333.095L400.628 288.951C402.974 287.596 406.777 287.596 409.123 288.951L485.583 333.095C487.929 334.449 487.929 336.645 485.583 338L409.123 382.144C406.777 383.498 402.974 383.498 400.628 382.144L324.168 338Z" stroke="#183B46" stroke-width="1.22622"/>
<rect width="4.90489" height="4.90489" rx="2.45244" transform="matrix(0.866025 -0.5 0.866025 0.5 400.543 335.547)" fill="#183B46"/>
<rect width="98.0977" height="98.0977" rx="17.1671" transform="matrix(0.866025 -0.5 0.866025 0.5 404.611 286.651)" fill="#01242D"/>
<rect width="98.0977" height="98.0977" rx="17.1671" transform="matrix(0.866025 -0.5 0.866025 0.5 404.611 286.651)" stroke="#183B46" stroke-width="1.22622"/>
<rect width="2.45244" height="2.45244" transform="matrix(0.866025 -0.5 0.866025 0.5 487.357 286.651)" fill="#183B46"/>
<rect width="98.0977" height="98.0977" rx="17.1671" transform="matrix(0.866025 -0.5 0.866025 0.5 489.301 237.755)" fill="#01242D"/>
<rect width="98.0977" height="98.0977" rx="17.1671" transform="matrix(0.866025 -0.5 0.866025 0.5 489.301 237.755)" stroke="#183B46" stroke-width="1.22622"/>
<rect width="2.45244" height="2.45244" transform="matrix(0.866025 -0.5 0.866025 0.5 572.047 237.755)" fill="#183B46"/>
<rect width="98.0977" height="98.0977" rx="4.90489" transform="matrix(0.866025 -0.5 0.866025 0.5 573.991 188.859)" fill="#01242D"/>
<rect width="98.0977" height="98.0977" rx="4.90489" transform="matrix(0.866025 -0.5 0.866025 0.5 573.991 188.859)" stroke="#183B46" stroke-width="1.22622"/>
<rect width="98.0977" height="98.0977" rx="4.90489" transform="matrix(0.866025 -0.5 0.866025 0.5 -18.637 629.04)" fill="#01242D"/>
<rect width="98.0977" height="98.0977" rx="4.90489" transform="matrix(0.866025 -0.5 0.866025 0.5 -18.637 629.04)" stroke="#183B46" stroke-width="1.22622"/>
<rect width="98.0977" height="98.0977" rx="4.90489" transform="matrix(0.866025 -0.5 0.866025 0.5 66.0532 580.145)" fill="#01242D"/>
<rect width="98.0977" height="98.0977" rx="4.90489" transform="matrix(0.866025 -0.5 0.866025 0.5 66.0532 580.145)" stroke="#183B46" stroke-width="1.22622"/>
<rect width="2.45244" height="2.45244" transform="matrix(0.866025 -0.5 0.866025 0.5 148.8 580.145)" fill="#183B46"/>
<rect width="98.0977" height="98.0977" rx="17.1671" transform="matrix(0.866025 -0.5 0.866025 0.5 150.743 531.249)" fill="#01242D"/>
<rect width="98.0977" height="98.0977" rx="17.1671" transform="matrix(0.866025 -0.5 0.866025 0.5 150.743 531.249)" stroke="#183B46" stroke-width="1.22622"/>
<rect width="2.45244" height="2.45244" transform="matrix(0.866025 -0.5 0.866025 0.5 233.49 531.249)" fill="#183B46"/>
<rect width="98.0977" height="98.0977" rx="17.1671" transform="matrix(0.866025 -0.5 0.866025 0.5 235.434 482.353)" fill="#01242D"/>
<rect width="98.0977" height="98.0977" rx="17.1671" transform="matrix(0.866025 -0.5 0.866025 0.5 235.434 482.353)" stroke="#183B46" stroke-width="1.22622"/>
<rect width="2.45244" height="2.45244" transform="matrix(0.866025 -0.5 0.866025 0.5 318.18 482.353)" fill="#183B46"/>
<path d="M324.372 435.909C322.026 434.555 322.026 432.359 324.372 431.004L400.831 386.86C403.177 385.506 406.981 385.506 409.327 386.86L485.787 431.004C488.132 432.359 488.132 434.555 485.787 435.909L409.327 480.053C406.981 481.407 403.177 481.407 400.831 480.053L324.372 435.909Z" fill="#01242D"/>
<path d="M324.372 435.909C322.026 434.555 322.026 432.359 324.372 431.004L400.831 386.86C403.177 385.506 406.981 385.506 409.327 386.86L485.787 431.004C488.132 432.359 488.132 434.555 485.787 435.909L409.327 480.053C406.981 481.407 403.177 481.407 400.831 480.053L324.372 435.909Z" stroke="#183B46" stroke-width="1.22622"/>
<rect width="4.90489" height="4.90489" rx="1.22622" transform="matrix(0.866025 -0.5 0.866025 0.5 400.747 433.457)" fill="#183B46"/>
<path d="M409.062 387.013C406.716 385.659 406.716 383.463 409.062 382.108L485.522 337.964C487.868 336.61 491.671 336.61 494.017 337.964L570.477 382.108C572.823 383.463 572.823 385.659 570.477 387.013L494.017 431.157C491.671 432.512 487.868 432.512 485.522 431.157L409.062 387.013Z" fill="#01242D"/>
<path d="M409.062 387.013C406.716 385.659 406.716 383.463 409.062 382.108L485.522 337.964C487.868 336.61 491.671 336.61 494.017 337.964L570.477 382.108C572.823 383.463 572.823 385.659 570.477 387.013L494.017 431.157C491.671 432.512 487.868 432.512 485.522 431.157L409.062 387.013Z" stroke="#183B46" stroke-width="1.22622"/>
<rect width="4.90489" height="4.90489" rx="1.22622" transform="matrix(0.866025 -0.5 0.866025 0.5 485.437 384.561)" fill="#183B46"/>
<rect width="98.0977" height="98.0977" rx="17.1671" transform="matrix(0.866025 -0.5 0.866025 0.5 489.504 335.665)" fill="#01242D"/>
<rect width="98.0977" height="98.0977" rx="17.1671" transform="matrix(0.866025 -0.5 0.866025 0.5 489.504 335.665)" stroke="#183B46" stroke-width="1.22622"/>
<rect width="2.45244" height="2.45244" transform="matrix(0.866025 -0.5 0.866025 0.5 572.251 335.665)" fill="#183B46"/>
<rect width="98.0977" height="98.0977" rx="17.1671" transform="matrix(0.866025 -0.5 0.866025 0.5 574.195 286.769)" fill="#01242D"/>
<rect width="98.0977" height="98.0977" rx="17.1671" transform="matrix(0.866025 -0.5 0.866025 0.5 574.195 286.769)" stroke="#183B46" stroke-width="1.22622"/>
<rect width="98.0977" height="98.0977" rx="4.90489" transform="matrix(0.866025 -0.5 0.866025 0.5 150.947 629.158)" fill="#01242D"/>
<rect width="98.0977" height="98.0977" rx="4.90489" transform="matrix(0.866025 -0.5 0.866025 0.5 150.947 629.158)" stroke="#183B46" stroke-width="1.22622"/>
<rect width="98.0977" height="98.0977" rx="4.90489" transform="matrix(0.866025 -0.5 0.866025 0.5 235.637 580.262)" fill="#01242D"/>
<rect width="98.0977" height="98.0977" rx="4.90489" transform="matrix(0.866025 -0.5 0.866025 0.5 235.637 580.262)" stroke="#183B46" stroke-width="1.22622"/>
<rect width="2.45244" height="2.45244" transform="matrix(0.866025 -0.5 0.866025 0.5 318.384 580.262)" fill="#183B46"/>
<rect width="98.0977" height="98.0977" rx="4.90489" transform="matrix(0.866025 -0.5 0.866025 0.5 320.328 531.366)" fill="#01242D"/>
<rect width="98.0977" height="98.0977" rx="4.90489" transform="matrix(0.866025 -0.5 0.866025 0.5 320.328 531.366)" stroke="#183B46" stroke-width="1.22622"/>
<rect width="2.45244" height="2.45244" transform="matrix(0.866025 -0.5 0.866025 0.5 403.074 531.366)" fill="#183B46"/>
<rect width="98.0977" height="98.0977" rx="17.1671" transform="matrix(0.866025 -0.5 0.866025 0.5 405.018 482.47)" fill="#01242D"/>
<rect width="98.0977" height="98.0977" rx="17.1671" transform="matrix(0.866025 -0.5 0.866025 0.5 405.018 482.47)" stroke="#183B46" stroke-width="1.22622"/>
<rect width="2.45244" height="2.45244" transform="matrix(0.866025 -0.5 0.866025 0.5 487.764 482.47)" fill="#183B46"/>
<rect width="98.0977" height="98.0977" rx="17.1671" transform="matrix(0.866025 -0.5 0.866025 0.5 489.708 433.574)" fill="#01242D"/>
<rect width="98.0977" height="98.0977" rx="17.1671" transform="matrix(0.866025 -0.5 0.866025 0.5 489.708 433.574)" stroke="#183B46" stroke-width="1.22622"/>
<rect width="2.45244" height="2.45244" transform="matrix(0.866025 -0.5 0.866025 0.5 572.455 433.574)" fill="#183B46"/>
<rect width="98.0977" height="98.0977" rx="17.1671" transform="matrix(0.866025 -0.5 0.866025 0.5 574.398 384.678)" fill="#01242D"/>
<rect width="98.0977" height="98.0977" rx="17.1671" transform="matrix(0.866025 -0.5 0.866025 0.5 574.398 384.678)" stroke="#183B46" stroke-width="1.22622"/>
<rect width="98.0977" height="98.0977" rx="4.90489" transform="matrix(0.866025 -0.5 0.866025 0.5 320.531 629.275)" fill="#01242D"/>
<rect width="98.0977" height="98.0977" rx="4.90489" transform="matrix(0.866025 -0.5 0.866025 0.5 320.531 629.275)" stroke="#183B46" stroke-width="1.22622"/>
<rect width="98.0977" height="98.0977" rx="4.90489" transform="matrix(0.866025 -0.5 0.866025 0.5 405.221 580.38)" fill="#01242D"/>
<rect width="98.0977" height="98.0977" rx="4.90489" transform="matrix(0.866025 -0.5 0.866025 0.5 405.221 580.38)" stroke="#183B46" stroke-width="1.22622"/>
<rect width="2.45244" height="2.45244" transform="matrix(0.866025 -0.5 0.866025 0.5 487.968 580.38)" fill="#183B46"/>
<rect width="98.0977" height="98.0977" rx="4.90489" transform="matrix(0.866025 -0.5 0.866025 0.5 489.912 531.484)" fill="#01242D"/>
<rect width="98.0977" height="98.0977" rx="4.90489" transform="matrix(0.866025 -0.5 0.866025 0.5 489.912 531.484)" stroke="#183B46" stroke-width="1.22622"/>
<rect width="2.45244" height="2.45244" transform="matrix(0.866025 -0.5 0.866025 0.5 572.658 531.484)" fill="#183B46"/>
<rect width="98.0977" height="98.0977" rx="4.90489" transform="matrix(0.866025 -0.5 0.866025 0.5 574.602 482.588)" fill="#01242D"/>
<rect width="98.0977" height="98.0977" rx="4.90489" transform="matrix(0.866025 -0.5 0.866025 0.5 574.602 482.588)" stroke="#183B46" stroke-width="1.22622"/>
<rect width="98.0977" height="98.0977" rx="4.90489" transform="matrix(0.866025 -0.5 0.866025 0.5 490.115 629.393)" fill="#01242D"/>
<rect width="98.0977" height="98.0977" rx="4.90489" transform="matrix(0.866025 -0.5 0.866025 0.5 490.115 629.393)" stroke="#183B46" stroke-width="1.22622"/>
<rect width="98.0977" height="98.0977" rx="4.90489" transform="matrix(0.866025 -0.5 0.866025 0.5 574.805 580.497)" fill="#01242D"/>
<rect width="98.0977" height="98.0977" rx="4.90489" transform="matrix(0.866025 -0.5 0.866025 0.5 574.805 580.497)" stroke="#183B46" stroke-width="1.22622"/>
<rect width="98.0977" height="98.0977" rx="4.90489" transform="matrix(0.866025 -0.5 0.866025 0.5 -104.549 90.4797)" fill="#01242D"/>
<rect width="98.0977" height="98.0977" rx="4.90489" transform="matrix(0.866025 -0.5 0.866025 0.5 -104.549 90.4797)" stroke="#183B46" stroke-width="1.22622"/>
<rect width="98.0977" height="98.0977" rx="4.90489" transform="matrix(0.866025 -0.5 0.866025 0.5 -19.8584 41.584)" fill="#01242D"/>
<rect width="98.0977" height="98.0977" rx="4.90489" transform="matrix(0.866025 -0.5 0.866025 0.5 -19.8584 41.584)" stroke="#183B46" stroke-width="1.22622"/>
<rect width="2.45244" height="2.45244" transform="matrix(0.866025 -0.5 0.866025 0.5 62.8882 41.584)" fill="#183B46"/>
<rect width="98.0977" height="98.0977" rx="4.90489" transform="matrix(0.866025 -0.5 0.866025 0.5 64.8318 -7.31201)" fill="#01242D"/>
<rect width="98.0977" height="98.0977" rx="4.90489" transform="matrix(0.866025 -0.5 0.866025 0.5 64.8318 -7.31201)" stroke="#183B46" stroke-width="1.22622"/>
<rect width="98.0977" height="98.0977" rx="4.90489" transform="matrix(0.866025 -0.5 0.866025 0.5 -104.345 188.389)" fill="#01242D"/>
<rect width="98.0977" height="98.0977" rx="4.90489" transform="matrix(0.866025 -0.5 0.866025 0.5 -104.345 188.389)" stroke="#183B46" stroke-width="1.22622"/>
<rect width="98.0977" height="98.0977" rx="17.1671" transform="matrix(0.866025 -0.5 0.866025 0.5 -19.655 139.493)" fill="#01242D"/>
<rect width="98.0977" height="98.0977" rx="17.1671" transform="matrix(0.866025 -0.5 0.866025 0.5 -19.655 139.493)" stroke="#183B46" stroke-width="1.22622"/>
<rect width="2.45244" height="2.45244" transform="matrix(0.866025 -0.5 0.866025 0.5 63.0916 139.493)" fill="#183B46"/>
<rect width="98.0977" height="98.0977" rx="4.90489" transform="matrix(0.866025 -0.5 0.866025 0.5 65.0352 90.5974)" fill="#01242D"/>
<rect width="98.0977" height="98.0977" rx="4.90489" transform="matrix(0.866025 -0.5 0.866025 0.5 65.0352 90.5974)" stroke="#183B46" stroke-width="1.22622"/>
<rect width="2.45244" height="2.45244" transform="matrix(0.866025 -0.5 0.866025 0.5 147.782 90.5974)" fill="#183B46"/>
<rect width="98.0977" height="98.0977" rx="4.90489" transform="matrix(0.866025 -0.5 0.866025 0.5 149.726 41.7014)" fill="#01242D"/>
<rect width="98.0977" height="98.0977" rx="4.90489" transform="matrix(0.866025 -0.5 0.866025 0.5 149.726 41.7014)" stroke="#183B46" stroke-width="1.22622"/>
<rect width="2.45244" height="2.45244" transform="matrix(0.866025 -0.5 0.866025 0.5 232.472 41.7014)" fill="#183B46"/>
<rect width="98.0977" height="98.0977" rx="4.90489" transform="matrix(0.866025 -0.5 0.866025 0.5 234.416 -7.19434)" fill="#01242D"/>
<rect width="98.0977" height="98.0977" rx="4.90489" transform="matrix(0.866025 -0.5 0.866025 0.5 234.416 -7.19434)" stroke="#183B46" stroke-width="1.22622"/>
<rect width="98.0977" height="98.0977" rx="4.90489" transform="matrix(0.866025 -0.5 0.866025 0.5 -104.142 286.299)" fill="#01242D"/>
<rect width="98.0977" height="98.0977" rx="4.90489" transform="matrix(0.866025 -0.5 0.866025 0.5 -104.142 286.299)" stroke="#183B46" stroke-width="1.22622"/>
<rect width="98.0977" height="98.0977" rx="17.1671" transform="matrix(0.866025 -0.5 0.866025 0.5 -19.4514 237.403)" fill="#01242D"/>
<rect width="98.0977" height="98.0977" rx="17.1671" transform="matrix(0.866025 -0.5 0.866025 0.5 -19.4514 237.403)" stroke="#183B46" stroke-width="1.22622"/>
<rect width="2.45244" height="2.45244" transform="matrix(0.866025 -0.5 0.866025 0.5 63.2952 237.403)" fill="#183B46"/>
<rect width="98.0977" height="98.0977" rx="17.1671" transform="matrix(0.866025 -0.5 0.866025 0.5 65.2388 188.507)" fill="#01242D"/>
<rect width="98.0977" height="98.0977" rx="17.1671" transform="matrix(0.866025 -0.5 0.866025 0.5 65.2388 188.507)" stroke="#183B46" stroke-width="1.22622"/>
<rect width="2.45244" height="2.45244" transform="matrix(0.866025 -0.5 0.866025 0.5 147.985 188.507)" fill="#183B46"/>
<rect width="98.0977" height="98.0977" rx="17.1671" transform="matrix(0.866025 -0.5 0.866025 0.5 149.929 139.611)" fill="#01242D"/>
<rect width="98.0977" height="98.0977" rx="17.1671" transform="matrix(0.866025 -0.5 0.866025 0.5 149.929 139.611)" stroke="#183B46" stroke-width="1.22622"/>
<rect width="2.45244" height="2.45244" transform="matrix(0.866025 -0.5 0.866025 0.5 232.676 139.611)" fill="#183B46"/>
<rect width="98.0977" height="98.0977" rx="4.90489" transform="matrix(0.866025 -0.5 0.866025 0.5 234.619 90.7151)" fill="#01242D"/>
<rect width="98.0977" height="98.0977" rx="4.90489" transform="matrix(0.866025 -0.5 0.866025 0.5 234.619 90.7151)" stroke="#183B46" stroke-width="1.22622"/>
<rect width="2.45244" height="2.45244" transform="matrix(0.866025 -0.5 0.866025 0.5 317.366 90.7151)" fill="#183B46"/>
<rect width="98.0977" height="98.0977" rx="4.90489" transform="matrix(0.866025 -0.5 0.866025 0.5 319.31 41.8191)" fill="#01242D"/>
<rect width="98.0977" height="98.0977" rx="4.90489" transform="matrix(0.866025 -0.5 0.866025 0.5 319.31 41.8191)" stroke="#183B46" stroke-width="1.22622"/>
<rect width="2.45244" height="2.45244" transform="matrix(0.866025 -0.5 0.866025 0.5 402.056 41.8191)" fill="#183B46"/>
<rect width="98.0977" height="98.0977" rx="4.90489" transform="matrix(0.866025 -0.5 0.866025 0.5 404 -7.0769)" fill="#01242D"/>
<rect width="98.0977" height="98.0977" rx="4.90489" transform="matrix(0.866025 -0.5 0.866025 0.5 404 -7.0769)" stroke="#183B46" stroke-width="1.22622"/>
<rect width="98.0977" height="98.0977" rx="17.1671" transform="matrix(0.866025 -0.5 0.866025 0.5 -103.938 384.208)" fill="#01242D"/>
<rect width="98.0977" height="98.0977" rx="17.1671" transform="matrix(0.866025 -0.5 0.866025 0.5 -103.938 384.208)" stroke="#183B46" stroke-width="1.22622"/>
<rect width="98.0977" height="98.0977" rx="17.1671" transform="matrix(0.866025 -0.5 0.866025 0.5 -19.2478 335.312)" fill="#01242D"/>
<rect width="98.0977" height="98.0977" rx="17.1671" transform="matrix(0.866025 -0.5 0.866025 0.5 -19.2478 335.312)" stroke="#183B46" stroke-width="1.22622"/>
<rect width="2.45244" height="2.45244" transform="matrix(0.866025 -0.5 0.866025 0.5 63.4988 335.312)" fill="#183B46"/>
<path d="M69.6901 288.869C67.3442 287.514 67.3442 285.318 69.6901 283.964L146.15 239.82C148.496 238.465 152.299 238.465 154.645 239.82L231.105 283.964C233.451 285.318 233.451 287.514 231.105 288.869L154.645 333.013C152.299 334.367 148.496 334.367 146.15 333.013L69.6901 288.869Z" fill="#01242D"/>
<path d="M69.6901 288.869C67.3442 287.514 67.3442 285.318 69.6901 283.964L146.15 239.82C148.496 238.465 152.299 238.465 154.645 239.82L231.105 283.964C233.451 285.318 233.451 287.514 231.105 288.869L154.645 333.013C152.299 334.367 148.496 334.367 146.15 333.013L69.6901 288.869Z" stroke="#183B46" stroke-width="1.22622"/>
<rect width="4.90489" height="4.90489" rx="1.22622" transform="matrix(0.866025 -0.5 0.866025 0.5 146.065 286.416)" fill="#183B46"/>
<rect width="98.0977" height="98.0977" rx="4.90489" transform="matrix(0.866025 -0.5 0.866025 0.5 150.133 237.52)" fill="#01242D"/>
<rect width="98.0977" height="98.0977" rx="4.90489" transform="matrix(0.866025 -0.5 0.866025 0.5 150.133 237.52)" stroke="#183B46" stroke-width="1.22622"/>
<rect width="2.45244" height="2.45244" transform="matrix(0.866025 -0.5 0.866025 0.5 232.879 237.52)" fill="#183B46"/>
<rect width="98.0977" height="98.0977" rx="17.1671" transform="matrix(0.866025 -0.5 0.866025 0.5 234.823 188.624)" fill="#01242D"/>
<rect width="98.0977" height="98.0977" rx="17.1671" transform="matrix(0.866025 -0.5 0.866025 0.5 234.823 188.624)" stroke="#183B46" stroke-width="1.22622"/>
<rect width="2.45244" height="2.45244" transform="matrix(0.866025 -0.5 0.866025 0.5 317.57 188.624)" fill="#183B46"/>
<rect width="98.0977" height="98.0977" rx="4.90489" transform="matrix(0.866025 -0.5 0.866025 0.5 319.513 139.729)" fill="#01242D"/>
<rect width="98.0977" height="98.0977" rx="4.90489" transform="matrix(0.866025 -0.5 0.866025 0.5 319.513 139.729)" stroke="#183B46" stroke-width="1.22622"/>
<rect width="2.45244" height="2.45244" transform="matrix(0.866025 -0.5 0.866025 0.5 402.26 139.729)" fill="#183B46"/>
<rect width="98.0977" height="98.0977" rx="4.90489" transform="matrix(0.866025 -0.5 0.866025 0.5 404.203 90.8325)" fill="#01242D"/>
<rect width="98.0977" height="98.0977" rx="4.90489" transform="matrix(0.866025 -0.5 0.866025 0.5 404.203 90.8325)" stroke="#183B46" stroke-width="1.22622"/>
<rect width="2.45244" height="2.45244" transform="matrix(0.866025 -0.5 0.866025 0.5 486.95 90.8325)" fill="#183B46"/>
<rect width="98.0977" height="98.0977" rx="4.90489" transform="matrix(0.866025 -0.5 0.866025 0.5 488.894 41.9365)" fill="#01242D"/>
<rect width="98.0977" height="98.0977" rx="4.90489" transform="matrix(0.866025 -0.5 0.866025 0.5 488.894 41.9365)" stroke="#183B46" stroke-width="1.22622"/>
<rect width="2.45244" height="2.45244" transform="matrix(0.866025 -0.5 0.866025 0.5 571.64 41.9365)" fill="#183B46"/>
<g opacity="0.2" filter="url(#filter0_f_866_10606)">
<circle cx="150.498" cy="150.498" r="150.498" transform="matrix(0.866025 -0.5 0.866025 0.5 59 312.498)" fill="#00151B"/>
</g>
<rect width="47.1026" height="47.1026" rx="12.5607" transform="matrix(0.866025 -0.5 0.866025 0.5 19.7024 309.804)" fill="#8EA0A5"/>
<rect x="0.679868" width="46.3176" height="46.3176" rx="12.1682" transform="matrix(0.866025 -0.5 0.866025 0.5 19.7932 308.414)" fill="#C1D3D8" stroke="#183B46" stroke-width="0.785044"/>
<path d="M73.3995 308.608C73.8076 308.372 74.0369 308.053 74.0369 307.72C74.0369 307.386 73.8076 307.067 73.3995 306.831L65.7058 302.389C65.2977 302.154 64.7442 302.021 64.1671 302.021C63.59 302.021 63.0365 302.154 62.6284 302.389L56.5504 305.898C56.2956 306.049 55.9796 306.159 55.6315 306.221C55.2834 306.282 54.9142 306.292 54.5577 306.249L53.0113 306.076C52.6584 306.034 52.2931 306.044 51.948 306.103C51.6028 306.163 51.2888 306.271 51.034 306.418L48.0104 308.164C47.6023 308.399 47.373 308.719 47.373 309.052C47.373 309.385 47.6023 309.705 48.0104 309.941L58.0122 315.715C58.4203 315.951 58.9738 316.083 59.5509 316.083C60.128 316.083 60.6815 315.951 61.0896 315.715L73.3995 308.608Z" stroke="#01242D" stroke-width="1.18156" stroke-linecap="round" stroke-linejoin="round"/>
<path d="M89.5906 336.892C87.7958 337.928 85.6338 338.105 84.1959 337.381L85.0933 336.862C86.1131 337.333 87.5612 337.169 88.8156 336.444C89.9068 335.814 90.0292 335.226 89.2847 334.796C88.5606 334.378 87.653 334.584 86.7556 334.855L85.1341 335.343C84.3794 335.567 82.6356 336.221 81.2385 335.414C80.0861 334.749 80.2798 333.765 81.7586 332.912C83.3902 331.97 85.2259 331.864 86.8576 332.676L85.9703 333.188C84.8893 332.647 83.6248 332.729 82.4928 333.383C81.5954 333.901 81.371 334.501 82.0543 334.896C82.8395 335.349 83.8186 334.972 84.6242 334.731L86.1335 334.272C87.3267 333.913 88.7748 333.489 90.1209 334.266C91.3753 334.99 91.1713 335.979 89.5906 336.892ZM96.5402 332.88C94.5006 334.057 91.6553 334.028 89.4016 332.726C87.2804 331.502 87.0356 329.865 89.1772 328.629C91.2372 327.439 94.0825 327.469 96.2954 328.746C98.437 329.983 98.7022 331.631 96.5402 332.88ZM95.7549 332.426C97.3458 331.508 97.2031 330.283 95.4184 329.253C93.6542 328.234 91.5432 328.169 89.9625 329.082C88.392 329.989 88.5143 331.202 90.2786 332.22C92.0633 333.25 94.1844 333.333 95.7549 332.426ZM102.151 329.51L101.295 330.005L94.1562 325.883L97.5317 323.935C99.0206 323.075 100.764 323.163 101.907 323.823C103.355 324.659 103.11 325.695 101.845 326.425L99.3266 327.879L102.151 329.51ZM95.798 325.842L98.5413 327.426L101.101 325.948C101.988 325.436 101.825 324.788 101.03 324.329C100.183 323.84 99.1124 323.929 98.3578 324.364L95.798 325.842ZM110.184 325.002C108.899 325.744 107.278 325.903 106.064 325.285L106.89 324.808C107.655 325.179 108.685 325.032 109.501 324.561C110.266 324.119 110.337 323.736 109.797 323.424C109.287 323.13 108.777 323.295 108.022 323.507L106.972 323.807C105.911 324.113 104.871 324.431 103.892 323.866C102.974 323.336 103.097 322.582 104.28 321.899C105.473 321.21 106.941 321.104 108.277 321.723L107.451 322.2C106.605 321.817 105.707 321.911 104.973 322.335C104.31 322.718 104.218 323.112 104.688 323.383C105.248 323.707 105.952 323.43 106.554 323.259L107.533 322.977C108.848 322.594 109.776 322.447 110.674 322.965C111.622 323.512 111.5 324.243 110.184 325.002Z" fill="#D1DCDF"/>
<path d="M207.991 464.855C201.984 461.387 201.984 455.763 207.991 452.295L227.028 441.304C233.035 437.835 242.776 437.835 248.784 441.304L267.82 452.295C273.828 455.763 273.828 461.387 267.82 464.855L248.784 475.846C242.776 479.314 233.035 479.314 227.028 475.846L207.991 464.855Z" fill="#8EA0A5"/>
<path d="M208.332 450.761L227.368 439.771C233.188 436.411 242.624 436.411 248.444 439.771L267.48 450.761C273.3 454.122 273.3 459.569 267.48 462.929L248.444 473.92C242.624 477.28 233.188 477.28 227.368 473.92L208.332 462.929C202.512 459.569 202.512 454.122 208.332 450.761Z" fill="#C1D3D8" stroke="#183B46" stroke-width="0.785044"/>
<g clip-path="url(#clip1_866_10606)">
<path d="M236.483 448.098L221.56 456.714C220.383 457.393 220.383 458.495 221.56 459.175L236.483 467.791C237.66 468.47 239.569 468.47 240.746 467.791L255.669 459.175C256.846 458.495 256.846 457.393 255.669 456.714L240.746 448.098C239.569 447.418 237.66 447.418 236.483 448.098Z" stroke="black" stroke-width="1.07635" stroke-linecap="round" stroke-linejoin="round"/>
<path d="M225.823 461.637L245.01 450.56" stroke="black" stroke-width="1.07635" stroke-linecap="round" stroke-linejoin="round"/>
<path d="M245.01 465.329L232.219 457.944" stroke="black" stroke-width="1.07635" stroke-linecap="round" stroke-linejoin="round"/>
</g>
<path d="M271.36 483.017L268.005 484.954L260.866 480.833L264.14 478.943C265.384 478.224 266.985 478.148 268.046 478.76C268.81 479.202 268.902 479.879 268.331 480.515C269.443 480.085 270.728 480.12 271.605 480.627C272.757 481.292 272.655 482.269 271.36 483.017ZM262.498 480.797L264.833 482.146L267.209 480.774C267.974 480.332 267.995 479.732 267.271 479.314C266.618 478.937 265.69 478.954 265.007 479.349L262.498 480.797ZM265.598 482.587L268.066 484.012L270.666 482.511C271.38 482.099 271.37 481.516 270.626 481.086C269.83 480.627 268.79 480.744 268.025 481.186L265.598 482.587ZM268.889 477.155C268.532 477.361 267.981 477.361 267.624 477.155C267.267 476.949 267.277 476.637 267.634 476.431C267.991 476.224 268.521 476.224 268.878 476.431C269.235 476.637 269.246 476.949 268.889 477.155ZM275.619 480.558L274.773 481.047L269.368 477.926L270.214 477.437L275.619 480.558ZM277.881 479.252L277.034 479.741L269.386 475.325L270.232 474.836L277.881 479.252ZM280.171 477.93L279.325 478.419L271.676 474.003L272.523 473.514L280.171 477.93ZM283.716 476.013C282.431 476.755 280.81 476.914 279.596 476.295L280.422 475.818C281.187 476.189 282.217 476.042 283.033 475.571C283.798 475.13 283.869 474.747 283.329 474.435C282.819 474.14 282.309 474.305 281.554 474.517L280.504 474.817C279.443 475.124 278.403 475.442 277.424 474.876C276.506 474.346 276.629 473.593 277.812 472.91C279.005 472.221 280.473 472.115 281.809 472.733L280.983 473.21C280.137 472.827 279.239 472.922 278.505 473.346C277.842 473.728 277.75 474.123 278.219 474.394C278.78 474.717 279.484 474.441 280.086 474.27L281.065 473.987C282.38 473.605 283.308 473.457 284.206 473.976C285.154 474.523 285.032 475.253 283.716 476.013Z" fill="#D1DCDF"/>
<path d="M131.847 397.341C125.839 393.872 125.839 388.249 131.847 384.78L150.883 373.79C156.891 370.321 166.631 370.321 172.639 373.79L191.675 384.78C197.683 388.249 197.683 393.872 191.675 397.341L172.639 408.332C166.631 411.8 156.891 411.8 150.883 408.332L131.847 397.341Z" fill="#8EA0A5"/>
<path d="M132.187 383.247L151.223 372.256C157.043 368.896 166.479 368.896 172.299 372.256L191.335 383.247C197.155 386.607 197.155 392.055 191.335 395.415L172.299 406.406C166.479 409.766 157.043 409.766 151.223 406.406L132.187 395.415C126.367 392.055 126.367 386.607 132.187 383.247Z" fill="#C1D3D8" stroke="#183B46" stroke-width="0.785044"/>
<path d="M174.186 389.895C174.594 389.66 174.823 389.34 174.823 389.007C174.823 388.674 174.594 388.354 174.186 388.119L166.492 383.677C166.084 383.441 165.531 383.309 164.953 383.309C164.376 383.309 163.823 383.441 163.415 383.677L157.337 387.186C157.082 387.336 156.766 387.447 156.418 387.508C156.07 387.569 155.701 387.579 155.344 387.537L153.798 387.363C153.445 387.322 153.079 387.331 152.734 387.391C152.389 387.45 152.075 387.558 151.82 387.706L148.797 389.451C148.389 389.687 148.159 390.006 148.159 390.34C148.159 390.673 148.389 390.992 148.797 391.228L158.799 397.003C159.207 397.238 159.76 397.37 160.337 397.37C160.914 397.37 161.468 397.238 161.876 397.003L174.186 389.895Z" stroke="#01242D" stroke-width="1.18156" stroke-linecap="round" stroke-linejoin="round"/>
<path d="M192.333 417.167L189.814 418.621L182.675 414.5L185.194 413.046C187.244 411.862 190.12 411.874 192.2 413.075C194.331 414.306 194.382 415.984 192.333 417.167ZM184.317 414.459L189.885 417.673L191.598 416.684C193.077 415.83 192.955 414.559 191.292 413.599C189.752 412.71 187.509 412.616 186.03 413.469L184.317 414.459ZM198.07 413.855L197.213 414.349L190.075 410.228L191.145 409.609L199.783 411.688L196.173 406.707L197.254 406.083L204.393 410.204L203.536 410.699L197.886 407.437L201.211 412.041L200.385 412.518L192.44 410.605L198.07 413.855ZM209.002 407.672C207.207 408.709 205.045 408.885 203.608 408.161L204.505 407.643C205.525 408.114 206.973 407.949 208.227 407.225C209.318 406.595 209.441 406.006 208.696 405.576C207.972 405.158 207.065 405.364 206.167 405.635L204.546 406.124C203.791 406.347 202.047 407.001 200.65 406.194C199.498 405.529 199.692 404.546 201.17 403.692C202.802 402.75 204.638 402.644 206.269 403.457L205.382 403.969C204.301 403.427 203.036 403.51 201.904 404.163C201.007 404.681 200.783 405.282 201.466 405.676C202.251 406.13 203.23 405.753 204.036 405.511L205.545 405.052C206.738 404.693 208.186 404.269 209.533 405.046C210.787 405.77 210.583 406.76 209.002 407.672Z" fill="#D1DCDF"/>
<path d="M76.0291 291.364L77.9942 290.229C90.0096 283.292 109.49 283.292 121.506 290.229L197.544 334.13C209.559 341.067 229.04 341.067 241.056 334.13L247.356 330.492" stroke="url(#paint0_linear_866_10606)" stroke-width="0.785044"/>
<path d="M180.728 377.595L254.834 334.81" stroke="url(#paint1_linear_866_10606)" stroke-width="0.785044"/>
<path d="M258.913 446.287C261.301 444.907 284.345 431.603 304.999 419.679C317.014 412.742 317.014 401.494 304.999 394.557L256.728 366.688C244.713 359.751 244.713 348.504 256.728 341.567L261.632 338.736" stroke="url(#paint2_linear_866_10606)" stroke-width="0.785044"/>
<path d="M307.473 291.621V291.621C314.257 287.705 314.257 281.355 307.473 277.438L246.11 242.01C234.095 235.073 234.095 223.826 246.11 216.889L257.464 210.334" stroke="#55AD28" stroke-width="0.785044"/>
<path d="M329.784 304.503V304.503C336.568 300.586 347.567 300.586 354.35 304.503L355.916 305.407C363.564 309.823 375.965 309.823 383.613 305.407L402.874 294.286" stroke="#55AD28" stroke-width="0.785044"/>
<path d="M226.828 321.866C223.897 320.173 223.897 317.43 226.828 315.737L280.12 284.969C283.052 283.276 287.804 283.276 290.736 284.969L344.028 315.737C346.959 317.43 346.959 320.174 344.028 321.866L290.736 352.634C287.804 354.327 283.052 354.327 280.12 352.634L226.828 321.866Z" fill="#55AD28"/>
<path d="M227.624 312.972L280.916 282.204C283.407 280.765 287.448 280.765 289.94 282.204L343.232 312.972C345.723 314.41 345.723 316.743 343.232 318.182L289.94 348.95C287.448 350.389 283.407 350.389 280.916 348.95L227.624 318.182C225.132 316.743 225.132 314.41 227.624 312.972Z" fill="#77EB3D" stroke="#01242D" stroke-width="1.83865"/>
<path d="M278.578 319.286C278.386 319.249 278.215 319.183 278.072 319.1L265.781 312.004L260.272 315.185L272.563 322.281C273.525 322.836 274.7 323.269 275.973 323.529L292.428 326.947L298.526 323.426L278.592 319.286L278.578 319.286Z" fill="black"/>
<path d="M279.246 304.23L291.537 311.327C291.679 311.409 291.786 311.503 291.851 311.614L299.022 323.131L305.12 319.611L299.194 310.107C298.736 309.375 297.994 308.701 297.039 308.15L284.747 301.054L279.238 304.234L279.246 304.23Z" fill="black"/>
<path d="M255.109 212.284C249.102 208.815 249.102 203.192 255.109 199.723L367.993 134.55C374 131.081 383.741 131.081 389.749 134.55L406.461 144.199C412.469 147.667 412.469 153.291 406.461 156.76L293.578 221.933C287.57 225.401 277.83 225.401 271.822 221.933L255.109 212.284Z" fill="#55AD28"/>
<path d="M386.878 291.014C380.87 287.546 380.87 281.922 386.878 278.454L499.761 213.28C505.769 209.812 515.509 209.812 521.517 213.28L604.395 261.13C610.403 264.599 610.403 270.222 604.395 273.691L491.512 338.864C485.504 342.332 475.764 342.332 469.756 338.864L386.878 291.014Z" fill="#55AD28"/>
<path d="M255.603 196.698L368.486 131.525C374.306 128.165 383.742 128.165 389.562 131.525L406.274 141.174C412.094 144.534 412.095 149.982 406.275 153.343L293.391 218.516C287.571 221.876 278.135 221.876 272.315 218.515L255.603 208.866C249.783 205.506 249.783 200.059 255.603 196.698Z" fill="#77EB3D" stroke="#183B46" stroke-width="0.785044"/>
<path d="M379.548 269.99L494.74 203.484C500.559 200.124 509.995 200.124 515.815 203.484L604.848 254.888C610.668 258.248 610.668 263.696 604.848 267.056L489.657 333.562C483.837 336.922 474.401 336.922 468.581 333.562L379.548 282.158C373.728 278.798 373.728 273.35 379.548 269.99Z" fill="#77EB3D" stroke="#183B46" stroke-width="0.785044"/>
<path d="M282.052 205.361C281.931 205.337 281.824 205.296 281.734 205.244L274.007 200.783L270.543 202.782L278.271 207.244C278.875 207.593 279.614 207.865 280.415 208.029L290.76 210.177L294.593 207.964L282.061 205.361L282.052 205.361Z" fill="#01242D"/>
<path d="M282.471 195.896L290.199 200.357C290.288 200.409 290.356 200.468 290.396 200.538L294.905 207.779L298.738 205.565L295.013 199.59C294.725 199.13 294.258 198.707 293.658 198.36L285.93 193.899L282.467 195.898L282.471 195.896Z" fill="#01242D"/>
<path d="M301.318 187.68L381.332 141.484" stroke="#01242D" stroke-opacity="0.48" stroke-width="4.51426" stroke-miterlimit="10" stroke-linecap="square"/>
<path d="M312.089 193.898L375.177 157.475" stroke="#01242D" stroke-opacity="0.48" stroke-width="4.26634" stroke-miterlimit="10" stroke-linecap="square"/>
<rect x="0.357956" width="10.2473" height="10.2473" rx="5.12366" transform="matrix(0.866025 -0.5 0.866025 0.5 380.61 149.214)" stroke="#01242D" stroke-width="0.413332"/>
<path d="M388.268 150.175V148.262H391.583" stroke="#01242D" stroke-width="0.5467" stroke-linecap="round" stroke-linejoin="round"/>
<path d="M391.582 150.176L388.268 148.262" stroke="#01242D" stroke-width="0.5467" stroke-linecap="round" stroke-linejoin="round"/>
<path d="M310.163 232.55L309.306 233.045L302.168 228.923L305.421 227.045C306.767 226.268 308.501 226.197 309.663 226.869C310.51 227.357 310.653 228.099 310.061 228.759C310.54 228.6 311.05 228.588 311.54 228.717L315.16 229.665L314.242 230.195L310.846 229.294C310.428 229.183 310.02 229.23 309.684 229.424L307.216 230.849L310.163 232.55ZM303.81 228.882L306.451 230.407L308.888 229C309.775 228.488 309.643 227.858 308.878 227.416C308.042 226.933 307.022 227.028 306.247 227.475L303.81 228.882ZM318.503 227.865C316.902 228.789 314.669 228.724 313.047 227.788C311.201 226.722 311.395 225.457 312.762 224.668C314.251 223.808 316.209 223.831 317.973 224.815L318.208 224.95L314.016 227.37C315.219 228.006 316.678 228.071 317.769 227.441C318.524 227.005 318.697 226.469 318.218 225.933L319.044 225.457C319.911 226.24 319.737 227.152 318.503 227.865ZM313.363 226.934L316.617 225.056C315.515 224.597 314.363 224.591 313.496 225.091C312.639 225.586 312.568 226.275 313.363 226.934ZM324.333 224.369L323.446 224.882L315.787 223.062L316.705 222.532L322.905 224.051L320.264 220.478L321.182 219.948L324.333 224.369ZM329.787 221.35C328.186 222.274 325.952 222.21 324.331 221.274C322.485 220.208 322.679 218.942 324.045 218.153C325.534 217.293 327.492 217.317 329.257 218.3L329.491 218.436L325.3 220.856C326.503 221.491 327.961 221.556 329.053 220.926C329.807 220.49 329.981 219.955 329.501 219.419L330.327 218.942C331.194 219.725 331.021 220.638 329.787 221.35ZM324.647 220.42L327.9 218.542C326.799 218.082 325.646 218.076 324.78 218.577C323.923 219.072 323.852 219.76 324.647 220.42ZM334.011 218.782L333.164 219.271L327.759 216.15L328.432 215.762L329.564 216.297C329.217 215.697 329.483 215.12 330.38 214.602L330.564 214.496L331.4 214.978L331.216 215.084C330.074 215.744 330.064 216.503 331.175 217.145L334.011 218.782ZM339.738 215.475L338.851 215.987L334.65 210.17L335.516 209.67L345.602 212.09L344.715 212.602L341.839 211.907L338.535 213.815L339.738 215.475ZM336.179 210.547L338.086 213.179L340.738 211.648L336.179 210.547ZM347.609 210.931L346.752 211.426L339.614 207.304L340.47 206.81L347.609 210.931Z" fill="#D1DCDF"/>
<path d="M508.108 346.582L507.221 347.094L503.02 341.277L503.886 340.777L513.972 343.197L513.085 343.709L510.209 343.014L506.905 344.922L508.108 346.582ZM504.549 341.654L506.456 344.286L509.108 342.755L504.549 341.654ZM517.279 341.417C515.525 342.43 513.302 342.23 511.741 341.329C509.926 340.281 510.14 339.027 511.609 338.179C512.965 337.396 514.75 337.307 516.29 338.02L515.464 338.497C514.423 338.061 513.23 338.09 512.323 338.615C511.252 339.233 511.323 340.098 512.598 340.834C513.975 341.629 515.545 341.57 516.555 340.987C517.422 340.487 517.462 339.827 516.677 339.197L517.503 338.72C518.747 339.615 518.676 340.61 517.279 341.417ZM523.254 337.967C521.5 338.98 519.277 338.78 517.717 337.879C515.902 336.831 516.116 335.577 517.584 334.729C518.941 333.946 520.725 333.858 522.265 334.57L521.439 335.047C520.399 334.611 519.206 334.641 518.298 335.165C517.227 335.783 517.299 336.648 518.573 337.384C519.95 338.179 521.521 338.12 522.53 337.537C523.397 337.037 523.438 336.378 522.653 335.748L523.479 335.271C524.723 336.166 524.651 337.161 523.254 337.967ZM529.189 334.541C527.455 335.542 525.303 335.359 523.672 334.417C521.867 333.375 522.081 332.133 523.549 331.285C525.273 330.29 527.445 330.472 528.975 331.356C530.841 332.433 530.708 333.664 529.189 334.541ZM528.455 334.117C529.607 333.452 529.281 332.533 528.108 331.856C526.894 331.155 525.365 331.085 524.284 331.709C523.203 332.333 523.325 333.216 524.539 333.917C525.926 334.718 527.476 334.682 528.455 334.117ZM534.916 331.234C533.6 331.994 532.04 331.965 530.939 331.329L527.328 329.244L528.175 328.756L531.754 330.822C532.529 331.27 533.488 331.199 534.253 330.758C535.262 330.175 535.14 329.468 534.334 328.991L531.051 327.095L531.897 326.607L537.302 329.727L536.629 330.116L535.742 329.686C535.997 330.245 535.66 330.805 534.916 331.234ZM539.538 328.436L538.691 328.925L533.286 325.805L533.959 325.416L534.867 325.846C534.663 325.304 534.989 324.68 535.795 324.215C536.958 323.544 538.487 323.532 539.68 324.221L543.26 326.287L542.414 326.776L538.865 324.727C538.11 324.291 537.141 324.297 536.325 324.768C535.356 325.328 535.438 326.058 536.254 326.541L539.538 328.436ZM547.302 323.954L546.7 324.301C545.65 324.908 544.549 324.919 543.549 324.342L540.398 322.523L539.399 323.1L538.685 322.688L539.684 322.111L537.838 321.045L538.685 320.556L540.531 321.622L541.989 320.78L542.703 321.192L541.244 322.034L544.396 323.854C544.936 324.166 545.487 324.177 545.987 323.889L546.588 323.542L547.302 323.954ZM542.507 319.433C542.15 319.639 541.599 319.639 541.243 319.433C540.886 319.227 540.896 318.915 541.253 318.709C541.61 318.503 542.14 318.503 542.497 318.709C542.854 318.915 542.864 319.227 542.507 319.433ZM549.238 322.836L548.391 323.325L542.986 320.204L543.833 319.716L549.238 322.836ZM551.469 321.548L550.622 322.037L545.217 318.916L545.89 318.528L546.798 318.958C546.594 318.416 546.92 317.792 547.726 317.327C548.888 316.655 550.418 316.644 551.611 317.332L555.191 319.399L554.344 319.888L550.796 317.839C550.041 317.403 549.072 317.409 548.256 317.88C547.287 318.439 547.369 319.169 548.185 319.652L551.469 321.548ZM561.036 318.521C559.577 319.363 557.884 319.528 556.742 318.868L557.589 318.38C558.231 318.751 559.373 318.657 560.322 318.109C561.433 317.467 561.352 316.749 560.424 316.213L559.547 315.707C559.73 316.248 559.445 316.837 558.619 317.314C557.181 318.144 555.049 318.103 553.458 317.185C551.837 316.248 551.755 315 553.183 314.176C554.05 313.675 555.162 313.505 556.181 313.67L555.335 313.075L555.998 312.692L561.26 315.73C562.626 316.519 562.647 317.591 561.036 318.521ZM558.007 316.82C559.027 316.231 558.925 315.348 557.752 314.67C556.589 313.999 555.06 313.94 554.04 314.529C553.03 315.112 553.142 315.989 554.325 316.672C555.488 317.344 556.997 317.402 558.007 316.82ZM559.198 309.796C558.841 310.002 558.291 310.002 557.934 309.796C557.577 309.59 557.587 309.278 557.944 309.072C558.301 308.866 558.831 308.866 559.188 309.072C559.545 309.278 559.555 309.59 559.198 309.796ZM565.929 313.199L565.083 313.688L559.678 310.568L560.524 310.079L565.929 313.199ZM568.16 311.911L567.313 312.4L561.908 309.28L562.582 308.891L563.489 309.321C563.285 308.779 563.612 308.155 564.417 307.69C565.58 307.019 567.109 307.007 568.303 307.696L571.882 309.762L571.036 310.251L567.487 308.202C566.732 307.766 565.763 307.772 564.947 308.243C563.979 308.803 564.06 309.533 564.876 310.016L568.16 311.911ZM575.341 307.895C574.056 308.637 572.434 308.796 571.221 308.178L572.047 307.701C572.811 308.072 573.841 307.925 574.657 307.454C575.422 307.012 575.494 306.629 574.953 306.317C574.443 306.023 573.933 306.188 573.179 306.4L572.128 306.7C571.068 307.006 570.027 307.324 569.048 306.759C568.131 306.229 568.253 305.475 569.436 304.792C570.629 304.103 572.098 303.997 573.434 304.616L572.607 305.093C571.761 304.71 570.864 304.804 570.129 305.228C569.466 305.611 569.375 306.005 569.844 306.276C570.405 306.6 571.108 306.323 571.71 306.152L572.689 305.87C574.005 305.487 574.933 305.34 575.83 305.858C576.778 306.406 576.656 307.136 575.341 307.895ZM572.394 302.178C572.037 302.384 571.486 302.384 571.129 302.178C570.773 301.972 570.783 301.66 571.14 301.454C571.497 301.247 572.027 301.247 572.384 301.454C572.741 301.66 572.751 301.972 572.394 302.178ZM579.125 305.581L578.278 306.07L572.873 302.949L573.72 302.46L579.125 305.581ZM585.027 304.67C583.569 305.512 581.876 305.677 580.733 305.017L581.58 304.528C582.222 304.899 583.365 304.805 584.313 304.258C585.425 303.616 585.343 302.898 584.415 302.362L583.538 301.855C583.722 302.397 583.436 302.986 582.61 303.463C581.172 304.293 579.041 304.252 577.45 303.333C575.828 302.397 575.747 301.149 577.174 300.325C578.041 299.824 579.153 299.653 580.173 299.818L579.326 299.223L579.989 298.841L585.251 301.879C586.618 302.668 586.638 303.739 585.027 304.67ZM581.998 302.968C583.018 302.379 582.916 301.496 581.743 300.819C580.581 300.148 579.051 300.089 578.031 300.678C577.021 301.261 577.134 302.138 578.317 302.821C579.479 303.492 580.988 303.551 581.998 302.968ZM587.66 300.653L586.814 301.142L579.165 296.726L580.012 296.237L582.949 297.933C582.847 297.426 583.183 296.855 583.918 296.431C585.08 295.76 586.61 295.748 587.803 296.437L591.383 298.504L590.536 298.992L586.987 296.944C586.233 296.508 585.264 296.514 584.499 296.955C583.479 297.544 583.561 298.274 584.377 298.757L587.66 300.653ZM595.424 296.171L594.822 296.518C593.772 297.124 592.671 297.136 591.671 296.559L588.52 294.74L587.521 295.317L586.807 294.905L587.806 294.328L585.96 293.262L586.807 292.773L588.652 293.839L590.111 292.997L590.825 293.409L589.366 294.251L592.518 296.07C593.058 296.382 593.609 296.394 594.108 296.106L594.71 295.758L595.424 296.171ZM598.645 294.441C597.36 295.182 595.738 295.341 594.525 294.723L595.351 294.246C596.116 294.617 597.146 294.47 597.961 293.999C598.726 293.557 598.798 293.175 598.257 292.863C597.747 292.568 597.237 292.733 596.483 292.945L595.432 293.245C594.372 293.552 593.331 293.869 592.352 293.304C591.435 292.774 591.557 292.021 592.74 291.338C593.933 290.649 595.402 290.543 596.738 291.161L595.912 291.638C595.065 291.255 594.168 291.349 593.433 291.773C592.771 292.156 592.679 292.551 593.148 292.821C593.709 293.145 594.412 292.869 595.014 292.698L595.993 292.415C597.309 292.032 598.237 291.885 599.134 292.403C600.083 292.951 599.96 293.681 598.645 294.441Z" fill="#D1DCDF"/>
<g clip-path="url(#clip2_866_10606)">
<path opacity="0.26" d="M554.656 198.208L403.253 285.621" stroke="#5B5B5B" stroke-width="0.647504"/>
<path opacity="0.26" d="M565.872 204.683L414.468 292.096" stroke="#5B5B5B" stroke-width="0.647504"/>
<path opacity="0.26" d="M577.087 211.159L425.683 298.572" stroke="#5B5B5B" stroke-width="0.647504"/>
<path opacity="0.26" d="M588.302 217.634L436.898 305.047" stroke="#5B5B5B" stroke-width="0.647504"/>
<path opacity="0.26" d="M599.517 224.108L448.114 311.521" stroke="#5B5B5B" stroke-width="0.647504"/>
<path opacity="0.26" d="M621.947 237.058L470.544 324.471" stroke="#5B5B5B" stroke-width="0.647504"/>
<path opacity="0.26" d="M610.732 230.584L459.328 317.997" stroke="#5B5B5B" stroke-width="0.647504"/>
<path d="M340.233 383.577C331.253 376.079 322.273 368.581 326.683 368.813C331.092 369.045 348.892 377.008 349.81 375.224C350.728 373.44 334.765 361.911 335.037 359.755C335.309 357.598 351.815 364.814 360.609 367.577C369.403 370.341 370.484 368.652 372.733 367.637C374.98 366.621 378.396 366.279 376.298 362.754C374.2 359.23 366.589 352.521 361.526 347.284C356.462 342.048 353.947 338.282 361.424 340.285C368.9 342.288 386.368 350.06 395.554 353.049C404.738 356.038 405.639 354.245 405.232 351.696C404.825 349.147 403.108 345.843 405.131 344.697C407.152 343.55 412.911 344.562 414.809 343.344C416.707 342.126 414.743 338.679 413.485 335.638C412.225 332.598 411.67 329.964 412.16 327.933C412.649 325.902 414.183 324.473 423.061 327.286C431.939 330.098 448.161 337.15 443.742 332.285C439.325 327.421 414.266 310.64 414.299 308.346C414.333 306.051 439.457 318.243 449.651 321.816C459.846 325.388 455.111 320.34 448.327 314.11C441.544 307.88 432.713 300.468 437.222 300.758C441.732 301.048 459.583 309.04 462.794 308.581C466.006 308.122 454.579 299.21 457.802 298.758C461.026 298.306 478.901 306.312 478.483 303.758C478.066 301.203 459.356 288.088 456.375 284.053C453.394 280.018 466.143 285.065 466.054 282.7C465.965 280.335 453.04 270.559 456.171 270.053C459.304 269.548 478.494 278.314 489.079 282.112C499.664 285.909 501.646 284.74 506.093 284.994C510.54 285.248 517.452 286.925 515.771 283.641C514.091 280.357 503.817 272.112 503.444 269.583C503.071 267.054 512.6 270.242 516.79 270.348C520.981 270.453 519.834 267.478 526.469 268.995C533.103 270.512 547.52 276.522 542.26 271.171C537 265.821 512.064 249.11 507.926 244.408C503.789 239.706 520.451 247.012 527.386 248.702C534.32 250.392 531.529 246.467 530.951 243.82C530.373 241.173 532.01 239.804 534.517 238.938C537.024 238.072 540.404 237.709 549.086 240.408C557.767 243.107 571.75 248.866 575.881 248.937C580.01 249.008 574.287 243.39 575.779 241.938C577.27 240.485 585.975 243.197 592.793 244.82C599.609 246.442 604.538 246.974 601.248 242.761C597.959 238.548 586.45 229.59 586.476 227.292C586.502 224.993 598.063 229.354 601.044 228.762C604.027 228.17 598.429 222.624 603.387 223.174C608.346 223.723 623.861 230.367 619.179 225.351C614.498 220.334 589.619 203.656 589.735 201.41C589.852 199.164 614.964 211.348 628.756 216.998C642.548 222.647 645.021 221.761 642.102 217.762C639.184 213.764 630.872 206.652 629.774 203.704C628.677 200.757 634.793 201.975 641.899 203.763C649.004 205.552 657.098 207.912 651.577 202.411C646.056 196.909 626.919 183.547 631.914 184.117C636.909 184.688 666.035 199.19 668.489 198.293C670.942 197.396 646.722 181.099 647.604 179.294C648.485 177.489 674.467 190.176 682.956 192.764C691.445 195.351 682.441 187.84 675.518 181.529C668.596 175.218 663.753 170.109 666.859 169.588C669.964 169.068 681.018 173.136 678.983 169.648C676.947 166.159 661.824 155.114 665.432 154.883C669.041 154.653 691.38 165.238 705.675 171.177C719.969 177.116 726.218 178.41 717.799 171.236C709.38 164.061 686.293 148.419 690.801 148.707C695.308 148.996 727.41 165.217 732.266 165.706C737.121 166.196 714.731 150.956 707.713 144.59C700.694 138.224 709.048 140.734 717.392 143.237C725.734 145.74 734.066 148.237 728.292 142.59C722.518 136.943 702.639 123.152 708.629 124.297C714.62 125.442 746.481 141.524 757.43 145.532C768.378 149.539 758.415 141.473 748.77 133.591C739.126 125.709 729.802 118.012 735.22 118.827C740.638 119.641 760.801 128.968 770.572 132.297C780.344 135.625 779.727 132.955 769.248 124.591C758.768 116.227 738.427 102.169 743.472 102.769C748.517 103.368 778.95 118.625 792.273 124.003C805.595 129.381 801.809 124.882 797.061 119.827C792.314 114.772 786.604 109.163 779.843 102.946C773.082 96.728 765.267 89.9029 772.406 91.7105C779.544 93.5182 801.635 103.959 813.871 108.71C826.107 113.46 828.487 112.521 824.772 108.063C821.058 103.605 811.25 95.6287 801.441 87.6519L850.344 115.886C848.34 117.043 846.337 118.199 844.333 119.356C842.33 120.513 840.326 121.67 838.322 122.827C836.319 123.984 834.315 125.14 832.311 126.297C830.308 127.454 828.304 128.611 826.301 129.768C824.297 130.924 822.293 132.081 820.29 133.238C818.286 134.395 816.283 135.551 814.279 136.708C812.275 137.865 810.272 139.022 808.268 140.179C806.264 141.335 804.261 142.492 802.257 143.649C800.254 144.806 798.25 145.963 796.246 147.12C794.243 148.276 792.239 149.433 790.235 150.59C788.232 151.747 786.228 152.903 784.224 154.06C782.221 155.217 780.217 156.374 778.213 157.531C776.21 158.687 774.206 159.844 772.202 161.001C770.199 162.158 768.195 163.315 766.192 164.471C764.188 165.628 762.184 166.785 760.181 167.942C758.177 169.099 756.173 170.255 754.17 171.412C752.166 172.569 750.162 173.726 748.159 174.883C746.155 176.039 744.152 177.196 742.148 178.353C740.144 179.51 738.141 180.667 736.137 181.823C734.133 182.98 732.13 184.137 730.126 185.294C728.123 186.451 726.119 187.608 724.115 188.764C722.112 189.921 720.108 191.078 718.105 192.235C716.101 193.391 714.097 194.548 712.094 195.705C710.09 196.862 708.087 198.018 706.083 199.175C704.079 200.332 702.076 201.489 700.072 202.646C698.068 203.803 696.065 204.959 694.061 206.116C692.057 207.273 690.054 208.43 688.05 209.587C686.046 210.743 684.043 211.9 682.039 213.057C680.035 214.214 678.032 215.37 676.028 216.527C674.024 217.684 672.021 218.841 670.017 219.998C668.014 221.155 666.01 222.311 664.006 223.468C662.003 224.625 659.999 225.782 657.995 226.939C655.992 228.095 653.988 229.252 651.985 230.409C649.981 231.566 647.977 232.722 645.974 233.879C643.97 235.036 641.966 236.193 639.963 237.35C637.959 238.506 635.956 239.663 633.952 240.82C631.948 241.977 629.945 243.134 627.941 244.291C625.938 245.447 623.934 246.604 621.93 247.761C619.927 248.918 617.923 250.075 615.919 251.231C613.916 252.388 611.912 253.545 609.908 254.702C607.905 255.858 605.901 257.015 603.898 258.172C601.894 259.329 599.89 260.486 597.887 261.642C595.883 262.799 593.879 263.956 591.876 265.113C589.872 266.27 587.868 267.427 585.865 268.583C583.861 269.74 581.857 270.897 579.854 272.054C577.85 273.21 575.846 274.367 573.843 275.524C571.839 276.681 569.836 277.838 567.832 278.994C565.828 280.151 563.825 281.308 561.821 282.465C559.818 283.622 557.814 284.779 555.81 285.935C553.807 287.092 551.803 288.249 549.799 289.406C547.796 290.562 545.792 291.719 543.789 292.876C541.785 294.033 539.781 295.189 537.778 296.346C535.774 297.503 533.77 298.66 531.767 299.817C529.763 300.974 527.76 302.13 525.756 303.287C523.752 304.444 521.749 305.601 519.745 306.758C517.741 307.914 515.738 309.071 513.734 310.228C511.73 311.385 509.727 312.542 507.723 313.698C505.719 314.855 503.716 316.012 501.712 317.169C499.708 318.326 497.705 319.482 495.701 320.639C493.698 321.796 491.694 322.953 489.69 324.11C487.687 325.266 485.683 326.423 483.679 327.58C481.676 328.737 479.672 329.894 477.668 331.05C475.665 332.207 473.661 333.364 471.658 334.521C469.654 335.677 467.65 336.834 465.647 337.991C463.643 339.148 461.64 340.305 459.636 341.462C457.632 342.618 455.629 343.775 453.625 344.932C451.621 346.089 449.618 347.246 447.614 348.402C445.611 349.559 443.607 350.716 441.603 351.873C439.6 353.029 437.596 354.186 435.593 355.343C433.589 356.5 431.585 357.657 429.582 358.813C427.578 359.97 425.574 361.127 423.571 362.284C421.567 363.441 419.563 364.598 417.56 365.754C415.556 366.911 413.552 368.068 411.549 369.225C409.545 370.381 407.541 371.538 405.538 372.695C403.534 373.852 401.53 375.009 399.527 376.165C397.523 377.322 395.52 378.479 393.516 379.636C391.512 380.793 389.509 381.949 387.505 383.106C385.501 384.263 383.498 385.42 381.494 386.577C379.491 387.733 377.487 388.89 375.483 390.047C373.48 391.204 371.476 392.361 369.472 393.517C367.469 394.674 365.465 395.831 363.462 396.988L340.233 383.577Z" fill="url(#paint3_linear_866_10606)" fill-opacity="0.6"/>
<path d="M340.671 383.83C331.439 376.186 322.206 368.542 326.671 368.806C331.136 369.07 349.299 377.243 350.192 375.445C351.085 373.647 334.709 361.879 334.941 359.699C335.173 357.519 352.013 364.929 360.962 367.782C369.913 370.636 370.973 368.934 373.227 367.922C375.481 366.91 378.929 366.587 376.736 363.007C374.544 359.428 366.712 352.592 361.486 347.262C356.26 341.931 353.641 338.105 361.244 340.181C368.845 342.257 386.67 350.234 396.02 353.318C405.37 356.403 406.246 354.595 405.783 352.014C405.32 349.433 403.518 346.079 405.541 344.934C407.562 343.787 413.408 344.849 415.304 343.629C417.199 342.41 415.144 338.91 413.811 335.826C412.476 332.743 411.862 330.075 412.317 328.024C412.771 325.972 414.294 324.538 423.33 327.441C432.366 330.345 448.915 337.586 444.349 332.636C439.784 327.687 414.103 310.546 414.091 308.225C414.079 305.905 439.735 318.404 450.118 322.085C460.501 325.766 455.61 320.629 448.625 314.282C441.639 307.935 432.559 300.379 437.126 300.703C441.694 301.026 459.909 309.229 463.148 308.785C466.387 308.342 454.651 299.252 457.902 298.816C461.155 298.38 479.395 306.598 478.921 304.011C478.449 301.424 459.263 288.034 456.167 283.933C453.071 279.832 466.067 285.021 465.93 282.628C465.793 280.236 452.524 270.262 455.682 269.771C458.84 269.281 478.425 278.275 489.208 282.186C499.991 286.098 501.972 284.928 506.475 285.215C510.978 285.501 518.003 287.244 516.238 283.911C514.472 280.577 503.916 272.169 503.489 269.609C503.061 267.049 512.763 270.336 517.004 270.471C521.245 270.606 520.025 267.589 526.767 269.167C533.507 270.745 548.209 276.92 542.783 271.473C537.355 266.026 511.8 248.958 507.521 244.174C503.242 239.39 520.241 246.891 527.29 248.647C534.338 250.402 531.437 246.414 530.799 243.732C530.162 241.051 531.79 239.677 534.309 238.817C536.828 237.958 540.239 237.614 549.075 240.402C557.909 243.189 572.168 249.107 576.347 249.206C580.526 249.306 574.625 243.585 576.105 242.126C577.584 240.666 586.443 243.468 593.371 245.154C600.299 246.84 605.295 247.411 601.883 243.128C598.472 238.845 586.652 229.707 586.633 227.382C586.613 225.057 598.394 229.545 601.398 228.966C604.403 228.387 598.631 222.741 603.657 223.33C608.684 223.918 624.509 230.741 619.674 225.636C614.838 220.531 589.342 203.496 589.415 201.225C589.488 198.954 615.131 211.445 629.194 217.251C643.258 223.057 645.741 222.177 642.709 218.113C639.677 214.049 631.129 206.8 629.96 203.811C628.791 200.823 635.002 202.095 642.224 203.952C649.447 205.808 657.681 208.249 651.987 202.648C646.293 197.046 626.67 183.404 631.734 184.013C636.798 184.623 666.547 199.486 669.011 198.595C671.475 197.703 646.652 181.058 647.508 179.239C648.363 177.419 674.896 190.425 683.535 193.098C692.173 195.772 682.916 188.114 675.788 181.685C668.66 175.256 663.66 170.055 666.791 169.549C669.922 169.043 681.183 173.232 679.056 169.69C676.927 166.147 661.41 154.875 665.055 154.666C668.701 154.457 691.508 165.311 706.086 171.414C720.662 177.516 727.008 178.867 718.35 171.554C709.691 164.241 686.027 148.265 690.592 148.587C695.157 148.909 727.951 165.529 732.872 166.057C737.793 166.585 714.842 151.02 707.617 144.535C700.39 138.049 708.891 140.643 717.38 143.231C725.868 145.818 734.346 148.399 728.393 142.648C722.44 136.898 702.057 122.816 708.139 124.014C714.222 125.213 746.77 141.691 757.924 145.817C769.078 149.943 758.84 141.718 748.927 133.682C739.015 125.645 729.431 117.798 734.927 118.658C740.424 119.518 761.004 129.086 770.954 132.517C780.905 135.949 780.228 133.244 769.461 124.715C758.695 116.185 737.839 101.83 742.955 102.47C748.07 103.11 779.156 118.744 792.739 124.272C806.322 129.801 802.403 125.224 797.499 120.08C792.597 114.936 786.71 109.224 779.747 102.89C772.784 96.5563 764.744 89.6008 772 91.4767C779.257 93.3525 801.81 104.06 814.282 108.947C826.752 113.833 829.141 112.899 825.295 108.364C821.449 103.831 811.37 95.6978 801.289 87.5642" stroke="black" stroke-width="0.306712"/>
</g>
<rect x="0.739209" width="140.4" height="102.747" rx="13.2303" transform="matrix(0.866025 -0.5 0.866025 0.5 389.894 278.221)" stroke="#6C6969" stroke-width="0.853565"/>
</g>
<defs>
<filter id="filter0_f_866_10606" x="-64.6514" y="6.07983" width="768.644" height="612.837" filterUnits="userSpaceOnUse" color-interpolation-filters="sRGB">
<feFlood flood-opacity="0" result="BackgroundImageFix"/>
<feBlend mode="normal" in="SourceGraphic" in2="BackgroundImageFix" result="shape"/>
<feGaussianBlur stdDeviation="100" result="effect1_foregroundBlur_866_10606"/>
</filter>
<linearGradient id="paint0_linear_866_10606" x1="68.2105" y1="301.642" x2="189.839" y2="298.111" gradientUnits="userSpaceOnUse">
<stop stop-color="#8EA0A5" stop-opacity="0.3"/>
<stop offset="1" stop-color="#8EA0A5"/>
</linearGradient>
<linearGradient id="paint1_linear_866_10606" x1="185.829" y1="374.144" x2="186.225" y2="374.824" gradientUnits="userSpaceOnUse">
<stop stop-color="#8EA0A5" stop-opacity="0.3"/>
<stop offset="1" stop-color="#8EA0A5"/>
</linearGradient>
<linearGradient id="paint2_linear_866_10606" x1="254.294" y1="408.494" x2="274.438" y2="351.049" gradientUnits="userSpaceOnUse">
<stop stop-color="#8EA0A5" stop-opacity="0.3"/>
<stop offset="1" stop-color="#8EA0A5"/>
</linearGradient>
<linearGradient id="paint3_linear_866_10606" x1="298.385" y1="359.416" x2="330.923" y2="415.774" gradientUnits="userSpaceOnUse">
<stop offset="0.05"/>
<stop offset="0.95" stop-opacity="0.1"/>
</linearGradient>
<clipPath id="clip0_866_10606">
<rect width="628" height="603" rx="20" fill="white"/>
</clipPath>
<clipPath id="clip1_866_10606">
<rect width="32.4262" height="32.4262" fill="white" transform="matrix(0.866025 -0.5 0.866025 0.5 210.532 456.862)"/>
</clipPath>
<clipPath id="clip2_866_10606">
<rect width="141.254" height="98.7614" fill="white" transform="matrix(0.866025 -0.5 0.866025 0.5 394.281 280.441)"/>
</clipPath>
</defs>
</svg>
