<svg width="24" height="24" viewBox="0 0 24 24" fill="none" xmlns="http://www.w3.org/2000/svg">
<path d="M8.75 3.25H2.75C1.92157 3.25 1.25 3.92157 1.25 4.75V19.75C1.25 20.5784 1.92157 21.25 2.75 21.25H8.75C9.57843 21.25 10.25 20.5784 10.25 19.75V4.75C10.25 3.92157 9.57843 3.25 8.75 3.25Z" stroke="#01242D" stroke-width="1.5" stroke-miterlimit="10" stroke-linecap="square"/>
<path d="M16.25 3.25H15.75C15.3522 3.25 14.9706 3.40804 14.6893 3.68934C14.408 3.97064 14.25 4.35218 14.25 4.75V5.25" stroke="#01242D" stroke-width="1.5" stroke-miterlimit="10" stroke-linecap="square"/>
<path d="M21.25 3.25H21.75C22.1478 3.25 22.5294 3.40804 22.8107 3.68934C23.092 3.97064 23.25 4.35218 23.25 4.75V5.25" stroke="#01242D" stroke-width="1.5" stroke-miterlimit="10" stroke-linecap="square"/>
<path d="M21.25 21.25H21.75C22.1478 21.25 22.5294 21.092 22.8107 20.8107C23.092 20.5294 23.25 20.1478 23.25 19.75V19.25" stroke="#01242D" stroke-width="1.5" stroke-miterlimit="10" stroke-linecap="square"/>
<path d="M16.25 21.25H15.75C15.3522 21.25 14.9706 21.092 14.6893 20.8107C14.408 20.5294 14.25 20.1478 14.25 19.75V19.25" stroke="#01242D" stroke-width="1.5" stroke-miterlimit="10" stroke-linecap="square"/>
<path d="M14.25 9.25V10.25" stroke="#01242D" stroke-width="1.5" stroke-miterlimit="10" stroke-linecap="square"/>
<path d="M23.25 9.25V10.25" stroke="#01242D" stroke-width="1.5" stroke-miterlimit="10" stroke-linecap="square"/>
<path d="M14.25 14.25V15.25" stroke="#01242D" stroke-width="1.5" stroke-miterlimit="10" stroke-linecap="square"/>
<path d="M23.25 14.25V15.25" stroke="#01242D" stroke-width="1.5" stroke-miterlimit="10" stroke-linecap="square"/>
</svg>
