<svg width="24" height="24" viewBox="0 0 24 24" fill="none" xmlns="http://www.w3.org/2000/svg">
<g clip-path="url(#clip0_579_18488)">
<path d="M5.25 10.25V13.032L2.25 14.25" stroke="#01242D" stroke-width="1.5" stroke-miterlimit="10" stroke-linecap="square"/>
<path d="M12.25 7.25C12.8023 7.25 13.25 6.80228 13.25 6.25C13.25 5.69772 12.8023 5.25 12.25 5.25C11.6977 5.25 11.25 5.69772 11.25 6.25C11.25 6.80228 11.6977 7.25 12.25 7.25Z" fill="#01242D"/>
<path d="M15.25 12.2221V8.87012C15.7592 8.29277 16.0909 7.58077 16.2055 6.81955C16.32 6.05833 16.2125 5.28023 15.8958 4.57861C15.579 3.877 15.0666 3.28168 14.4199 2.86408C13.7732 2.44649 13.0198 2.22437 12.25 2.22437C11.4802 2.22437 10.7268 2.44649 10.0801 2.86408C9.43342 3.28168 8.92097 3.877 8.60425 4.57861C8.28753 5.28023 8.17999 6.05833 8.29453 6.81955C8.40907 7.58077 8.74083 8.29277 9.25 8.87012V19.2501C9.24822 19.9611 9.49968 20.6495 9.95931 21.1919C10.4189 21.7343 11.0567 22.0953 11.7583 22.2103C12.4599 22.3252 13.1796 22.1865 13.7882 21.8191C14.3969 21.4517 14.8549 20.8795 15.08 20.2051" stroke="#01242D" stroke-width="1.5" stroke-miterlimit="10" stroke-linecap="square"/>
<path d="M5.81335 3.49805C3.56735 3.94305 1.92535 4.97705 1.41335 6.50805C0.713353 8.60205 2.31335 11.085 5.24935 13.032" stroke="#01242D" stroke-width="1.5" stroke-miterlimit="10"/>
<path d="M13.25 16.0261C18.083 16.7631 22.217 15.5961 23.086 12.9921C23.706 11.1361 22.519 8.97705 20.196 7.15405" stroke="#01242D" stroke-width="1.5" stroke-miterlimit="10" stroke-linecap="square"/>
</g>
<defs>
<clipPath id="clip0_579_18488">
<rect width="24" height="24" fill="white"/>
</clipPath>
</defs>
</svg>
