<svg width="24" height="24" viewBox="0 0 24 24" fill="none" xmlns="http://www.w3.org/2000/svg">
<path d="M2.25 12.25C2.25 12.25 6.25 6.25 12.25 6.25C18.25 6.25 22.25 12.25 22.25 12.25C22.25 12.25 18.25 18.25 12.25 18.25C6.25 18.25 2.25 12.25 2.25 12.25Z" stroke="#01242D" stroke-width="1.5" stroke-miterlimit="10" stroke-linecap="square"/>
<path d="M12.25 14.25C13.3546 14.25 14.25 13.3546 14.25 12.25C14.25 11.1454 13.3546 10.25 12.25 10.25C11.1454 10.25 10.25 11.1454 10.25 12.25C10.25 13.3546 11.1454 14.25 12.25 14.25Z" stroke="#01242D" stroke-width="1.5" stroke-miterlimit="10" stroke-linecap="square"/>
<path d="M2.25 6.25V2.25H6.25" stroke="#01242D" stroke-width="1.5" stroke-miterlimit="10" stroke-linecap="square"/>
<path d="M22.25 6.25V2.25H18.25" stroke="#01242D" stroke-width="1.5" stroke-miterlimit="10" stroke-linecap="square"/>
<path d="M2.25 18.25V22.25H6.25" stroke="#01242D" stroke-width="1.5" stroke-miterlimit="10" stroke-linecap="square"/>
<path d="M22.25 18.25V22.25H18.25" stroke="#01242D" stroke-width="1.5" stroke-miterlimit="10" stroke-linecap="square"/>
</svg>
