<svg width="151" height="19" viewBox="0 0 151 19" fill="none" xmlns="http://www.w3.org/2000/svg">
<g clip-path="url(#clip0_597_9651)">
<path d="M40.8047 9.95406C38.2058 9.95406 36.9134 11.8659 36.9134 14.4463C36.9134 17.1321 38.155 19.0093 40.8047 19.0093C43.4566 19.0093 44.6946 17.1321 44.6946 14.4463C44.6946 11.8659 43.4036 9.95406 40.8047 9.95406ZM40.8047 17.2529C40.1139 17.2529 39.8068 16.6328 39.8068 14.4456C39.8068 12.4484 40.0116 11.709 40.8047 11.709C41.5964 11.709 41.8019 12.4484 41.8019 14.4456C41.8019 16.635 41.4925 17.2529 40.8047 17.2529ZM46.4915 9.21689V10.1824H45.3544V12.1464H46.4915V18.8223H49.2804V12.1464H50.7982V10.1824H49.2804V9.30599C49.2804 8.78091 49.5455 8.4937 50.2797 8.4937C50.4344 8.4937 50.6406 8.52758 50.7975 8.56366V6.42947C50.3475 6.37792 49.9336 6.32489 49.385 6.32489C47.5431 6.32563 46.4915 7.09962 46.4915 9.21689ZM16.7593 12.6097C16.7593 10.6993 15.022 9.97836 13.3495 9.97836C11.7677 9.97836 10.2167 10.6647 9.90817 12.3688L12.334 12.8689C12.3642 12.3637 12.5785 11.734 13.2479 11.734C13.7296 11.734 13.9696 12.0765 13.9696 12.592V13.3351C12.1271 13.5486 9.58782 14.2129 9.5267 16.462C9.48398 18.0505 10.5437 18.9902 11.9341 18.9902C12.7567 18.9902 13.5801 18.5358 14.0558 18.0343C14.0727 18.1779 14.0911 18.5859 14.1434 18.8245H17.0185C16.9132 18.7066 16.7585 18.4113 16.7585 17.4304L16.7593 12.6097ZM13.9704 16.6218C13.7332 16.934 13.393 17.1586 13.0756 17.1586C12.5756 17.1586 12.2662 16.8449 12.2662 16.2425C12.2662 15.1401 12.9953 14.7696 13.9696 14.6761L13.9704 16.6218ZM23.5986 9.97689C22.5108 9.97689 21.7427 10.4806 21.1683 11.0661H21.1322L21.1182 10.1824H18.389V18.823H21.1779V12.6435C21.4327 12.3173 21.7715 12.1067 22.0852 12.1067C22.5513 12.1067 22.7281 12.3799 22.7281 12.8726V18.8215H25.517V11.9874C25.5177 10.8024 24.8196 9.97689 23.5986 9.97689ZM34.8985 10.1816H32.1251L30.0733 12.793H30.0395V6.56718H27.2491V18.8223H30.0395V15.7277L30.6257 15.0532H30.6595L32.019 18.8223H34.9117L32.5654 12.8416L34.8985 10.1816ZM6.55443 12.4484V12.3526C7.44257 12.0058 8.5546 11.1626 8.5546 9.5608C8.5546 7.86847 7.12738 6.56644 4.95636 6.56644H0.111328V18.823H4.83264C7.15978 18.823 8.84549 17.6417 8.84549 15.5444C8.84549 13.9735 7.88223 12.8858 6.55443 12.4484ZM3.12189 8.73599H4.20666C4.9107 8.73599 5.69942 8.92526 5.69942 10.0947C5.69942 10.8194 5.25682 11.421 4.1367 11.421H3.12189V8.73599ZM4.25821 16.5518H3.12189V13.4868H4.25821C5.25682 13.4868 5.82094 14.0899 5.82094 15.0023C5.82094 16.258 4.92837 16.5518 4.25821 16.5518ZM110.109 17.4304V12.6097C110.109 10.6993 108.374 9.97836 106.702 9.97836C105.119 9.97836 103.568 10.6647 103.258 12.3688L105.686 12.8689C105.715 12.3637 105.928 11.734 106.6 11.734C107.078 11.734 107.322 12.0765 107.322 12.592V13.3351C105.477 13.5486 102.936 14.2129 102.876 16.462C102.833 18.0505 103.892 18.9902 105.285 18.9902C106.108 18.9902 106.929 18.5358 107.408 18.0343C107.423 18.1779 107.442 18.5859 107.493 18.8245H110.367C110.266 18.7052 110.109 18.4113 110.109 17.4304ZM107.324 16.6218C107.083 16.934 106.744 17.1586 106.427 17.1586C105.927 17.1586 105.617 16.8449 105.617 16.2425C105.617 15.1401 106.346 14.7696 107.322 14.6761L107.324 16.6218ZM79.7041 9.95406C77.1384 9.95406 75.8629 12.0198 75.8629 14.4647C75.8629 16.8574 77.0684 19.01 79.7365 19.01C80.489 19.0329 81.2293 18.8169 81.8514 18.393C82.4734 17.9691 82.9453 17.3591 83.1993 16.6505L81.3192 15.9612C81.1807 16.6571 80.6129 17.1476 79.9398 17.1476C78.8175 17.1476 78.6135 15.8706 78.651 15.101H83.3186V14.5156C83.3186 12.2613 82.3899 9.95406 79.7041 9.95406ZM80.7359 13.447H78.6518C78.6091 12.634 78.8933 11.7097 79.6857 11.7097C80.649 11.7097 80.7631 12.6465 80.7359 13.447ZM90.8398 10.1824H93.6273V18.823H90.8398V10.1824ZM90.8398 6.56644H93.6273V9.0453H90.8398V6.56644ZM98.8692 11.7097C99.3185 11.7097 99.5408 11.9513 99.6778 12.2937C99.8001 12.6214 99.8163 13.0346 99.8163 13.38H102.194C102.194 12.5191 101.746 9.95553 98.7867 9.95553C96.1525 9.95553 94.8453 12.3143 94.8453 14.6717C94.8453 16.8052 96.151 19.0108 98.666 19.0108C100.698 19.0108 101.903 17.9098 102.11 15.8095L99.9407 15.4987C99.9407 16.1534 99.8546 17.1483 98.8722 17.1483C98.1512 17.1483 97.8411 16.5143 97.8411 14.5671C97.836 12.8461 97.9413 11.7097 98.8692 11.7097ZM55.6454 6.56718L52.7711 18.823H55.4562L55.9908 16.3456H58.8313L59.3136 18.823H62.3264L59.7076 6.56718H55.6454ZM56.4216 14.1761L57.4571 9.18301H57.5189L58.4004 14.1761H56.4216ZM87.2401 11.3518H87.1937L87.1657 10.1816H84.4667V18.8223H87.2585V13.2268C87.5855 12.8372 88.076 12.5581 88.7881 12.5581C89.2683 12.5581 89.6078 12.6745 89.9252 12.7967V9.97615C88.8492 9.97689 87.8086 10.4394 87.2401 11.3518ZM72.7058 9.97689C71.5378 9.97689 70.7049 10.6058 70.2173 11.1324H70.1813C69.9176 10.4659 69.352 9.97689 68.5044 9.97689C67.4653 9.97689 66.5911 10.5138 66.0079 11.0631H65.9725L65.9578 10.1831H63.2359V18.8237H65.9725V12.6612C66.2074 12.3431 66.6265 12.1288 66.9188 12.1288C67.4365 12.1288 67.5735 12.4381 67.5735 12.9035V18.8237H70.3116V12.6612C70.4928 12.4226 70.8912 12.1288 71.2653 12.1288C71.7727 12.1288 71.9141 12.4381 71.9141 12.9035V18.8237H74.65V11.9351C74.65 10.7421 73.8649 9.97689 72.7058 9.97689ZM127.255 4.62593C128.361 5.0631 129.454 5.53166 130.534 6.03105C127.104 7.42301 123.786 9.07499 120.607 10.9726C119.535 10.4105 118.447 9.8798 117.344 9.38111C120.515 7.53383 123.829 5.94368 127.255 4.62593ZM123.162 3.1803C119.605 4.3073 116.168 5.78215 112.9 7.58346C113.938 7.95905 114.968 8.35893 115.982 8.78681C119.148 6.92441 122.482 5.36413 125.94 4.12662C125.022 3.78951 124.095 3.47398 123.162 3.1803Z" fill="#B9CED3"/>
<path d="M134.706 4.48668C131.895 3.12686 128.984 1.98664 125.997 1.07624C124.944 1.37965 123.9 1.71031 122.866 2.07043C125.941 2.98123 128.939 4.13494 131.831 5.52064C132.782 5.15514 133.74 4.81041 134.706 4.48668ZM139.282 3.1228C136.404 1.86836 133.44 0.821421 130.413 -0.0100098C129.448 0.18967 128.488 0.412137 127.533 0.657204C130.536 1.53489 133.466 2.64461 136.297 3.97633C137.285 3.67026 138.281 3.38569 139.282 3.1228ZM146.628 5.59061C139.485 7.99947 132.732 11.4389 126.583 15.7999C128.107 16.7372 129.596 17.7306 131.047 18.778C136.841 14.1807 143.235 10.3965 150.054 7.53039C148.931 6.85066 147.788 6.20379 146.628 5.59061ZM141.677 3.23842C134.257 5.20421 127.208 8.37288 120.812 12.6184C122.24 13.3206 123.644 14.072 125.02 14.8712C131.286 10.5306 138.195 7.20183 145.495 5.00661C144.241 4.37725 142.968 3.78756 141.677 3.23842ZM133.395 18.007C133.395 17.5761 133.758 17.2256 134.203 17.2256C134.649 17.2256 135.011 17.5761 135.011 18.007C135.011 18.4459 134.649 18.7964 134.203 18.7964C133.758 18.7964 133.395 18.4459 133.395 18.007ZM133.548 18.007C133.548 18.3656 133.839 18.6418 134.203 18.6418C134.563 18.6418 134.856 18.3656 134.856 18.007C134.856 17.6601 134.564 17.381 134.203 17.381C133.84 17.381 133.548 17.6601 133.548 18.007Z" fill="#B9CED3"/>
<path d="M134.605 18.4481H134.454L134.195 18.0438H134.035V18.4481H133.902V17.571H134.296C134.372 17.5659 134.449 17.5809 134.518 17.6145C134.549 17.6351 134.575 17.6634 134.592 17.6966C134.61 17.7299 134.618 17.767 134.617 17.8045C134.617 17.9753 134.492 18.0402 134.332 18.0446L134.605 18.4481ZM134.185 17.9363C134.31 17.9363 134.483 17.9577 134.483 17.8008C134.483 17.6867 134.383 17.6712 134.27 17.6712H134.037V17.9348L134.185 17.9363Z" fill="#B9CED3"/>
</g>
<defs>
<clipPath id="clip0_597_9651">
<rect width="150" height="19.02" fill="white" transform="translate(0.0820312 -0.0100098)"/>
</clipPath>
</defs>
</svg>
