<svg width="97" height="29" viewBox="0 0 97 29" fill="none" xmlns="http://www.w3.org/2000/svg">
<g clip-path="url(#clip0_597_9641)">
<path d="M0.427734 5.72107H3.77498V13.1577H10.8345V5.72107H14.1861V23.9757H10.8345V16.3829H3.77498V23.9757H0.427734V5.72107ZM24.7902 18.0299C24.7902 19.558 23.5452 20.8015 22.0174 20.8015C20.4891 20.8015 19.2449 19.558 19.2449 18.0299V10.1706H16.0705V18.0299C16.0705 21.3087 18.7384 23.9757 22.0174 23.9757C25.2957 23.9757 27.9634 21.3087 27.9634 18.0299V10.1706H24.7902V18.0299ZM36.825 10.2627C35.2504 10.2627 34.1513 10.7196 33.0899 11.7616V5.72107H29.9052V16.9158C29.9052 21.106 32.9348 23.9757 36.3385 23.9757C40.1224 23.9757 43.4378 21.0548 43.4378 17.1194C43.4378 13.2338 40.3806 10.2627 36.825 10.2627ZM36.9042 21.0295C34.7462 21.0295 33.096 19.2273 33.096 17.1194C33.096 15.0111 34.7462 13.2083 36.9042 13.2083C38.7327 13.2083 40.3838 15.0111 40.3838 17.1194C40.3838 19.2273 38.7327 21.0295 36.9042 21.0295ZM48.7866 11.065C48.7866 9.46413 49.8533 8.95657 51.021 8.95657C51.9612 8.95657 53.2052 9.66757 54.0171 10.5312L56.0989 8.09351C55.0585 6.69701 52.9512 5.73176 51.2243 5.73176C47.7704 5.73176 45.2817 7.73801 45.2817 11.065C45.2817 17.2356 52.8749 15.2796 52.8749 18.7341C52.8749 19.7995 51.834 20.74 50.6412 20.74C48.7613 20.74 48.1515 19.8258 47.2885 18.8605L44.9772 21.2472C46.4509 23.0504 48.2787 23.965 50.4629 23.965C53.7385 23.965 56.3796 21.9334 56.3796 18.7587C56.3796 11.9026 48.7866 14.0359 48.7866 11.065ZM64.7635 10.0838C61.3602 10.0838 58.3302 12.9518 58.3302 17.143V28.3666H61.5147V22.2974C62.5763 23.3386 63.6749 23.7963 65.25 23.7963C68.8054 23.7963 71.863 20.8255 71.863 16.9399C71.863 13.0039 68.5467 10.0838 64.7635 10.0838ZM65.3294 20.851C63.1716 20.851 61.5212 19.0463 61.5212 16.9399C61.5212 14.8317 63.1716 13.0289 65.3294 13.0289C67.1575 13.0289 68.8088 14.8317 68.8088 16.9399C68.8088 19.0463 67.1575 20.851 65.3294 20.851ZM95.3044 21.0295C93.426 21.0295 92.8928 20.2173 92.8928 18.9724V13.4622H95.8125V10.6692H92.8928V6.98669L89.6687 8.43382V19.6581C89.6687 22.528 91.6487 23.9757 94.3647 23.9757C94.771 23.9757 95.3303 23.9494 95.6354 23.8743L96.4227 20.9796C96.0672 21.0042 95.661 21.0295 95.3044 21.0295Z" fill="#B9CED3"/>
<path d="M86.9059 13.6247C86.2954 12.5743 85.4366 11.7322 84.363 11.0983C83.5607 10.6312 82.7287 10.3348 81.7912 10.2075V6.86999C82.7287 6.47193 83.3106 5.59086 83.3106 4.56299C83.3106 3.16199 82.1871 2.02668 80.7872 2.02668C79.3862 2.02668 78.243 3.16199 78.243 4.56299C78.243 5.59086 78.7912 6.47193 79.7287 6.86999V10.209C78.9787 10.3174 78.201 10.5512 77.4907 10.9104C76.0401 9.80868 71.2832 6.19424 68.5005 4.08318C68.5665 3.84524 68.6173 3.59999 68.6173 3.34124C68.6173 1.78949 67.3607 0.531738 65.8084 0.531738C64.2561 0.531738 63 1.78949 63 3.34124C63 4.8928 64.2574 6.15093 65.8097 6.15093C66.3392 6.15093 66.8289 5.99605 67.2516 5.74143L67.8388 6.18693L75.9081 12.0009C75.4815 12.3926 75.0842 12.8381 74.7664 13.338C74.1223 14.3571 73.7287 15.4783 73.7287 16.7014V16.9566C73.7287 17.8151 73.8919 18.6257 74.1697 19.3871C74.4144 20.052 74.7722 20.6565 75.2153 21.2031L72.5372 23.8877C72.1491 23.7432 71.7276 23.7136 71.323 23.8023C70.9185 23.891 70.5481 24.0943 70.2561 24.3879C70.0539 24.5891 69.8936 24.8285 69.7845 25.0921C69.6755 25.3557 69.6198 25.6383 69.6208 25.9236C69.621 26.5035 69.8469 27.0486 70.2572 27.4586C70.4583 27.661 70.6975 27.8214 70.961 27.9307C71.2246 28.0399 71.5072 28.0957 71.7924 28.095C72.0778 28.0957 72.3605 28.0399 72.6241 27.9306C72.8877 27.8214 73.127 27.661 73.3283 27.4586C73.5303 27.2574 73.6905 27.0182 73.7996 26.7547C73.9087 26.4912 73.9646 26.2087 73.9639 25.9236C73.9639 25.6991 73.9292 25.4801 73.8639 25.272L76.632 22.5036C77.0115 22.7657 77.4214 22.9864 77.862 23.1767C78.7311 23.5524 79.6903 23.7814 80.7401 23.7814H80.9325C82.0931 23.7814 83.1879 23.5087 84.2171 22.9511C85.3016 22.3618 86.1504 21.5559 86.7917 20.5271C87.4363 19.4955 87.7912 18.3557 87.7912 17.1017V17.0391C87.7912 15.8055 87.5057 14.6674 86.9059 13.6247ZM83.5237 19.4321C82.7724 20.2671 81.9088 20.7814 80.9325 20.7814H80.7716C80.214 20.7814 79.6686 20.6272 79.1346 20.3469C78.5327 20.0383 78.0752 19.5981 77.7007 19.0406C77.3137 18.4935 77.1037 17.8961 77.1037 17.2627V17.0704C77.1037 16.4477 77.2232 15.8572 77.5243 15.2996C77.8463 14.6901 78.2811 14.2161 78.8593 13.8392C79.4271 13.4649 80.0334 13.2814 80.7088 13.2814H80.7716C81.384 13.2814 81.9638 13.4021 82.5109 13.6821C83.0683 13.9806 83.5237 14.3884 83.8768 14.9248C84.2197 15.4614 84.4238 16.0402 84.4894 16.6708C84.4997 16.8019 84.5049 16.9361 84.5049 17.0644C84.5049 17.9201 84.1779 18.7127 83.5237 19.4321Z" fill="#B9CED3"/>
</g>
<defs>
<clipPath id="clip0_597_9641">
<rect width="96" height="27.9552" fill="white" transform="translate(0.416016 0.522461)"/>
</clipPath>
</defs>
</svg>
