<svg width="117" height="27" viewBox="0 0 117 27" fill="none" xmlns="http://www.w3.org/2000/svg">
<path fill-rule="evenodd" clip-rule="evenodd" d="M15.0859 26.4303L15.5218 24.0325H17.1745L17.0968 24.464H16.0252L15.9267 25.0178H16.9228L16.8473 25.4443H15.8382L15.6599 26.431L15.0859 26.4303ZM17.9311 24.4489L18.0037 24.0325H18.541L18.4727 24.4489H17.9311ZM17.5895 26.4303L17.8952 24.6524H18.431L18.1267 26.4303H17.5895ZM19.0063 26.4303L19.3149 24.6524H19.8068L19.7564 24.9257C19.8629 24.8099 19.9701 24.7258 20.0779 24.674C20.1858 24.6222 20.3059 24.597 20.4411 24.597C20.6238 24.597 20.7705 24.6409 20.8806 24.7286C20.9343 24.7709 20.9777 24.8249 21.0075 24.8864C21.0373 24.948 21.0527 25.0155 21.0525 25.0839C21.0549 25.1534 21.0494 25.2229 21.0359 25.2911L20.8353 26.431H20.2944L20.4886 25.304C20.492 25.2828 20.4949 25.2614 20.4972 25.24C20.4994 25.2206 20.5001 25.2033 20.4994 25.1904C20.5002 25.1618 20.4942 25.1334 20.482 25.1075C20.4697 25.0816 20.4515 25.059 20.4289 25.0415C20.3721 25.0041 20.3047 24.9861 20.2369 24.9904C20.1086 24.9871 19.984 25.0332 19.8888 25.1192C19.7891 25.2133 19.7247 25.3387 19.7061 25.4745L19.5393 26.4317H19.0063V26.4303ZM22.9734 25.5773C22.8929 25.5989 22.7821 25.6219 22.6426 25.6456C22.3729 25.6902 22.2406 25.7808 22.2442 25.9175C22.2443 25.9427 22.2506 25.9675 22.2623 25.9898C22.2741 26.0121 22.2911 26.0312 22.3118 26.0455C22.3549 26.0779 22.4132 26.093 22.4865 26.093C22.6016 26.093 22.7016 26.0635 22.785 26.0052C22.8244 25.9803 22.8581 25.9475 22.8841 25.9089C22.9101 25.8703 22.9278 25.8267 22.9361 25.7808L22.9734 25.5773ZM22.8936 26.2519C22.8163 26.3232 22.7266 26.3798 22.629 26.4188C22.5342 26.4541 22.4337 26.4714 22.3326 26.4698C22.1456 26.4698 21.9961 26.4238 21.8839 26.3303C21.8287 26.2853 21.7843 26.2286 21.7539 26.1643C21.7234 26.0999 21.7076 26.0297 21.7077 25.9585C21.7019 25.7607 21.7637 25.6111 21.8918 25.5104C22.0205 25.4104 22.2399 25.3457 22.5513 25.3155L22.6728 25.3047C22.9181 25.2839 23.0389 25.222 23.036 25.1185C23.0346 25.071 23.0058 25.0329 22.9483 25.0034C22.8771 24.9707 22.7992 24.9555 22.721 24.9588C22.647 24.9545 22.5733 24.9702 22.5074 25.0041C22.4826 25.0195 22.4615 25.0402 22.4456 25.0647C22.4297 25.0892 22.4194 25.1169 22.4153 25.1458H21.8946C21.9234 24.9609 22.0061 24.825 22.1449 24.7373C22.2837 24.6495 22.4822 24.6049 22.7404 24.6049C22.9972 24.6049 23.2 24.6495 23.3482 24.7387C23.4956 24.8279 23.5718 24.9494 23.5761 25.1055L23.5754 25.1544C23.5737 25.172 23.5711 25.1896 23.5675 25.2069L23.4057 26.1484L23.3992 26.2095C23.3983 26.2258 23.398 26.2421 23.3985 26.2584C23.3982 26.2836 23.4031 26.3086 23.4129 26.3318C23.4232 26.3525 23.4382 26.3704 23.4568 26.3843L23.4582 26.4288H22.8987L22.8936 26.2519ZM24.2572 26.4303L24.5658 24.6524H25.0577L25.0074 24.9257C25.1138 24.8099 25.2217 24.7258 25.3288 24.674C25.4367 24.6222 25.5568 24.597 25.692 24.597C25.8747 24.597 26.0214 24.6409 26.1315 24.7286C26.1852 24.7709 26.2286 24.8249 26.2584 24.8864C26.2882 24.948 26.3036 25.0155 26.3034 25.0839C26.3052 25.1534 26.2997 25.2228 26.2868 25.2911L26.0862 26.431H25.5453L25.7395 25.304C25.7431 25.2817 25.7467 25.2601 25.7481 25.24C25.7503 25.2206 25.751 25.2033 25.7503 25.1904C25.7511 25.1618 25.7451 25.1335 25.733 25.1077C25.7209 25.0818 25.7029 25.0592 25.6805 25.0415C25.6238 25.0041 25.5564 24.9861 25.4885 24.9904C25.3603 24.9871 25.2356 25.0332 25.1404 25.1192C25.041 25.2135 24.9766 25.3387 24.9577 25.4745L24.7909 26.4317H24.2572V26.4303ZM28.3876 25.7931H28.9285C28.914 25.8936 28.8796 25.9903 28.8272 26.0774C28.7748 26.1645 28.7056 26.2402 28.6235 26.3001C28.4581 26.4202 28.2431 26.4806 27.9791 26.4806C27.6835 26.4806 27.4534 26.4065 27.2887 26.2598C27.124 26.1138 27.0377 25.906 27.0305 25.637C27.0219 25.3292 27.1118 25.0796 27.3031 24.889C27.4936 24.6977 27.749 24.6035 28.0697 24.6035C28.3416 24.6035 28.5545 24.661 28.7069 24.7761C28.8601 24.8912 28.9436 25.0566 28.9594 25.2724H28.42C28.4199 25.2321 28.4113 25.1923 28.3947 25.1556C28.3781 25.1188 28.3539 25.0861 28.3236 25.0595C28.2654 25.0099 28.1812 24.9854 28.0726 24.9854C27.9996 24.9839 27.9275 25.0007 27.8626 25.0342C27.7978 25.0678 27.7424 25.117 27.7015 25.1774C27.6094 25.3054 27.5663 25.4716 27.572 25.6758C27.5764 25.8082 27.6145 25.9103 27.6857 25.9822C27.7569 26.0541 27.8583 26.0887 27.9863 26.0887C28.0782 26.092 28.1687 26.0649 28.2438 26.0117C28.3159 25.958 28.3668 25.8806 28.3876 25.7931ZM29.9296 24.4489L30.0022 24.0325H30.5395L30.4712 24.4489H29.9296ZM29.5887 26.4303L29.8944 24.6524H30.4302L30.1252 26.4303H29.5887ZM32.2605 25.5773C32.18 25.5989 32.0692 25.6219 31.9297 25.6456C31.66 25.6902 31.5277 25.7808 31.5313 25.9175C31.5314 25.9427 31.5376 25.9675 31.5494 25.9898C31.5612 26.0121 31.5781 26.0312 31.5989 26.0455C31.642 26.0779 31.7003 26.093 31.7736 26.093C31.8798 26.0955 31.9842 26.0648 32.0721 26.0052C32.1113 25.9802 32.1448 25.9474 32.1707 25.9087C32.1966 25.8701 32.2142 25.8266 32.2224 25.7808L32.2605 25.5773ZM32.1814 26.2519C32.1041 26.3232 32.0144 26.3798 31.9168 26.4188C31.822 26.4541 31.7215 26.4714 31.6204 26.4698C31.4335 26.4698 31.2839 26.4238 31.1709 26.3303C31.1159 26.2852 31.0716 26.2285 31.0413 26.1642C31.0109 26.0999 30.9953 26.0296 30.9955 25.9585C30.9897 25.7607 31.0516 25.6111 31.1796 25.5104C31.309 25.4104 31.5284 25.3457 31.8391 25.3155L31.9606 25.3047C32.2059 25.2839 32.3267 25.222 32.3238 25.1185C32.3224 25.071 32.2936 25.0329 32.2361 25.0034C32.1785 24.9739 32.103 24.9588 32.0088 24.9588C31.9348 24.9545 31.8611 24.9702 31.7952 25.0041C31.7705 25.0196 31.7495 25.0404 31.7336 25.0648C31.7177 25.0893 31.7073 25.1169 31.7031 25.1458H31.1824C31.2112 24.9609 31.2939 24.825 31.4327 24.7373C31.5715 24.6495 31.7693 24.6049 32.0282 24.6049C32.285 24.6049 32.4878 24.6495 32.636 24.7387C32.7834 24.8279 32.8596 24.9494 32.8647 25.1055C32.8647 25.1213 32.8647 25.1386 32.8632 25.1544C32.8619 25.1721 32.8593 25.1896 32.8553 25.2069L32.6935 26.1484C32.6875 26.1847 32.6851 26.2216 32.6863 26.2584C32.686 26.2836 32.6909 26.3086 32.7007 26.3318C32.7112 26.3523 32.7262 26.3702 32.7446 26.3843L32.746 26.4288H32.1865L32.1814 26.2519ZM33.5565 26.4303L33.9665 24.0325H34.5037L34.0938 26.4303H33.5565ZM36.1205 25.6701H36.68L36.6808 25.6931C36.6796 25.747 36.6913 25.8003 36.715 25.8488C36.7386 25.8972 36.7735 25.9392 36.8167 25.9714C36.9037 26.0354 37.0274 26.0678 37.1885 26.0678C37.3324 26.0678 37.4417 26.0405 37.5165 25.9865C37.5532 25.9604 37.5824 25.9252 37.6013 25.8843C37.6203 25.8435 37.6282 25.7984 37.6244 25.7535C37.6232 25.7227 37.6154 25.6925 37.6013 25.665C37.5873 25.6376 37.5674 25.6135 37.5431 25.5946C37.4906 25.5507 37.3719 25.4946 37.1849 25.4256C36.826 25.2896 36.5959 25.1717 36.4909 25.0739C36.4399 25.0253 36.3992 24.967 36.3713 24.9023C36.3434 24.8377 36.3288 24.7681 36.3284 24.6977C36.3218 24.5963 36.3407 24.4949 36.3834 24.4026C36.4261 24.3104 36.4913 24.2304 36.5729 24.1698C36.7412 24.0382 36.9728 23.972 37.2662 23.972C37.5826 23.972 37.8322 24.0353 38.0127 24.1633C38.0995 24.2215 38.1705 24.3002 38.2195 24.3924C38.2686 24.4846 38.2941 24.5875 38.2939 24.692L38.2947 24.725H37.7517C37.7513 24.6762 37.7392 24.6282 37.7166 24.5849C37.694 24.5416 37.6614 24.5044 37.6215 24.4762C37.5395 24.4179 37.4251 24.3892 37.2784 24.3892C37.1562 24.3892 37.0612 24.4115 36.9951 24.4568C36.9635 24.4766 36.9378 24.5045 36.9207 24.5377C36.9036 24.5708 36.8958 24.608 36.898 24.6452C36.9016 24.7589 37.0332 24.8631 37.2942 24.9581C37.3396 24.9739 37.3748 24.9876 37.4 24.9969C37.6941 25.1048 37.8962 25.212 38.0077 25.3191C38.1192 25.427 38.1774 25.5615 38.1825 25.7233C38.1897 25.965 38.1026 26.1556 37.9243 26.2929C37.7445 26.4303 37.4949 26.5 37.1741 26.5C36.8577 26.5 36.6045 26.4296 36.4147 26.2893C36.3237 26.2249 36.2495 26.1397 36.1984 26.0407C36.1472 25.9417 36.1205 25.8319 36.1205 25.7204V25.6701ZM40.038 24.9832C39.9574 24.9827 39.8778 25.0009 39.8054 25.0364C39.7331 25.0718 39.6699 25.1235 39.6209 25.1875C39.5088 25.3253 39.4519 25.4999 39.4612 25.6773C39.4599 25.7342 39.47 25.7908 39.4909 25.8438C39.5117 25.8968 39.543 25.9451 39.5828 25.9858C39.6604 26.0606 39.7669 26.0973 39.9014 26.0973C40.0682 26.0973 40.2063 26.0311 40.3156 25.9002C40.4249 25.7693 40.4767 25.6061 40.4703 25.4097C40.4732 25.2934 40.43 25.1807 40.3501 25.0962C40.2746 25.0206 40.1696 24.9832 40.038 24.9832ZM38.916 25.6672C38.9074 25.3558 39.0088 25.1012 39.2224 24.902C39.4353 24.7013 39.7136 24.6013 40.0574 24.6013C40.3501 24.6013 40.5817 24.6733 40.7515 24.8185C40.9212 24.9638 41.0089 25.1638 41.0168 25.4205C41.0255 25.7298 40.9255 25.9844 40.7141 26.1843C40.5033 26.385 40.2286 26.4849 39.8899 26.4849C39.5979 26.4849 39.3648 26.4109 39.1893 26.2634C39.0146 26.1153 38.9232 25.9161 38.916 25.6672ZM41.6835 26.4303L41.9295 24.9861H41.6505L41.7044 24.6524H41.9892L42.0201 24.4568C42.0293 24.3879 42.052 24.3215 42.087 24.2614C42.1219 24.2013 42.1684 24.1486 42.2237 24.1065C42.3323 24.0253 42.4754 23.9835 42.6502 23.9835C42.6825 23.9835 42.7214 23.9864 42.7667 23.9907C42.8113 23.9951 42.8645 24.0015 42.9285 24.0102L42.8666 24.369C42.8356 24.3636 42.8044 24.3589 42.7731 24.3547C42.7505 24.3514 42.7277 24.3497 42.7048 24.3496C42.6581 24.3496 42.6235 24.3633 42.5998 24.3906C42.5689 24.4375 42.5503 24.4914 42.5459 24.5474L42.5265 24.6524H42.8163L42.7602 24.9861H42.4704L42.2201 26.4303H41.6835ZM44.1425 26.4468C44.0972 26.4612 44.0512 26.4713 44.0044 26.4778C43.957 26.4844 43.9092 26.4878 43.8613 26.4878C43.6808 26.4878 43.547 26.4605 43.4621 26.4073C43.3766 26.3526 43.3327 26.2677 43.3291 26.152C43.3277 26.1031 43.3308 26.0542 43.3384 26.006L43.511 24.9897H43.227L43.2823 24.6531H43.5671L43.6585 24.1274H44.1928L44.0994 24.6531H44.3913L44.3388 24.9897H44.049L43.9009 25.8405C43.8934 25.885 43.8855 25.9293 43.8771 25.9736C43.8778 26.0103 43.8901 26.0376 43.9116 26.0527C43.9332 26.0685 43.9677 26.0772 44.0152 26.0772C44.0372 26.0766 44.059 26.0745 44.0807 26.0707C44.108 26.0656 44.1519 26.057 44.213 26.0426L44.1425 26.4468ZM45.1789 26.4303L44.9085 24.6524H45.4277L45.5658 25.883L46.0822 24.6524H46.6079L46.7194 25.8693L47.2595 24.6524H47.8076L46.923 26.4303H46.3828L46.2598 25.2306L45.7427 26.4303H45.1789ZM49.4459 25.5773C49.3654 25.5989 49.2546 25.6219 49.1151 25.6456C48.8454 25.6902 48.7123 25.7808 48.7166 25.9175C48.7168 25.9427 48.723 25.9675 48.7348 25.9898C48.7466 26.0121 48.7635 26.0312 48.7842 26.0455C48.8274 26.0779 48.8864 26.093 48.9597 26.093C49.0659 26.0955 49.1703 26.0648 49.2582 26.0052C49.2976 25.9803 49.3313 25.9475 49.3573 25.9089C49.3833 25.8703 49.401 25.8267 49.4092 25.7808L49.4459 25.5773ZM49.3661 26.2519C49.2888 26.3232 49.1991 26.3798 49.1014 26.4188C49.0067 26.4541 48.9062 26.4714 48.8051 26.4698C48.6181 26.4698 48.4685 26.4238 48.3563 26.3303C48.3012 26.2853 48.2568 26.2286 48.2263 26.1643C48.1959 26.0999 48.1801 26.0297 48.1801 25.9585C48.1744 25.7607 48.2362 25.6111 48.3642 25.5104C48.493 25.4104 48.713 25.3457 49.0237 25.3155L49.1453 25.3047C49.3905 25.2839 49.5114 25.222 49.5085 25.1185C49.5071 25.071 49.4783 25.0329 49.4207 25.0034C49.3496 24.9708 49.2717 24.9555 49.1935 24.9588C49.1195 24.9545 49.0457 24.9702 48.9799 25.0041C48.9551 25.0195 48.934 25.0402 48.9181 25.0647C48.9022 25.0892 48.8918 25.1169 48.8878 25.1458H48.3678C48.3966 24.9609 48.4793 24.825 48.6174 24.7373C48.7562 24.6495 48.9547 24.6049 49.2129 24.6049C49.4697 24.6049 49.6725 24.6495 49.8206 24.7387C49.9681 24.8279 50.0443 24.9494 50.0486 25.1055L50.0479 25.1544C50.0462 25.172 50.0436 25.1896 50.04 25.2069L49.8782 26.1484L49.8717 26.2095C49.8704 26.2258 49.8701 26.2421 49.871 26.2584C49.8707 26.2836 49.8755 26.3086 49.8853 26.3318C49.8959 26.3523 49.9109 26.3702 49.9292 26.3843L49.9307 26.4288H49.3711L49.3661 26.2519ZM50.7412 26.4303L51.0548 24.6524H51.5417L51.4712 24.9991C51.5496 24.8588 51.6366 24.7574 51.7344 24.6956C51.8424 24.6308 51.9668 24.5986 52.0926 24.6028C52.1207 24.6028 52.1488 24.604 52.1767 24.6064L52.0897 25.1005C52.0291 25.0877 51.9675 25.08 51.9056 25.0775C51.8475 25.0749 51.7895 25.0848 51.7355 25.1065C51.6816 25.1282 51.6329 25.1612 51.5927 25.2033C51.5143 25.2868 51.4583 25.4155 51.4259 25.5903L51.2777 26.4303H50.7412ZM53.2066 25.3673H54.0316L54.0323 25.3371L54.033 25.3076C54.0294 25.1976 53.9978 25.1141 53.9352 25.0573C53.8733 25.0019 53.7834 24.9732 53.6655 24.9732C53.5552 24.9692 53.4474 25.0061 53.3627 25.0767C53.2793 25.1531 53.2242 25.2556 53.2066 25.3673ZM53.9208 25.9204H54.507C54.4566 26.0966 54.3459 26.2347 54.1747 26.3339C54.0035 26.4332 53.7928 26.4835 53.5432 26.4835C53.2627 26.4835 53.0441 26.4094 52.8844 26.262C52.7248 26.1146 52.6406 25.9089 52.6327 25.6435C52.6241 25.3393 52.7154 25.0911 52.906 24.8977C53.0973 24.7035 53.3476 24.6071 53.6576 24.6071C53.9381 24.6071 54.1596 24.6769 54.3221 24.815C54.4847 24.953 54.5695 25.1436 54.5767 25.3867C54.5774 25.4205 54.5767 25.4594 54.5738 25.5011C54.5702 25.5449 54.5631 25.609 54.5516 25.696H53.1685L53.1692 25.7075C53.1728 25.8333 53.2088 25.9312 53.2757 25.998C53.3142 26.0333 53.3593 26.0605 53.4085 26.078C53.4576 26.0956 53.5098 26.1031 53.5619 26.1002C53.6446 26.1002 53.7166 26.0851 53.7755 26.0556C53.8345 26.0261 53.882 25.9815 53.9208 25.9204ZM115.938 9.62605V9.89862H116.062C116.115 9.90224 116.168 9.8913 116.215 9.86698C116.248 9.8454 116.263 9.81232 116.263 9.76629C116.263 9.7181 116.246 9.68286 116.213 9.65985C116.164 9.63377 116.109 9.62205 116.054 9.62605H115.938ZM115.753 9.50881H116.087C116.207 9.50881 116.3 9.52895 116.361 9.56851C116.391 9.58682 116.415 9.61275 116.432 9.64361C116.448 9.67447 116.456 9.70913 116.454 9.744C116.457 9.80058 116.439 9.85615 116.404 9.90079C116.368 9.94475 116.317 9.97393 116.261 9.98277L116.455 10.3755H116.247L116.076 10.013H115.94V10.3755H115.754V9.50881H115.753ZM116.069 9.30024C115.984 9.2991 115.9 9.31513 115.821 9.34739C115.742 9.37964 115.671 9.42745 115.611 9.48796C115.548 9.55062 115.498 9.62487 115.464 9.7066C115.414 9.82571 115.401 9.95692 115.425 10.0836C115.45 10.2104 115.512 10.3269 115.603 10.4186C115.663 10.4804 115.735 10.53 115.815 10.5646C115.892 10.5982 115.975 10.6156 116.059 10.6157C116.19 10.6159 116.318 10.5783 116.427 10.5073C116.537 10.4363 116.624 10.3351 116.677 10.2158C116.742 10.0537 116.743 9.87267 116.679 9.7102C116.647 9.63032 116.6 9.55765 116.54 9.49659C116.478 9.43442 116.404 9.38484 116.323 9.35059C116.243 9.31676 116.157 9.29962 116.069 9.30024ZM116.068 9.18445C116.171 9.18254 116.274 9.20207 116.369 9.24181C116.464 9.28154 116.55 9.34063 116.622 9.41532C116.695 9.48796 116.75 9.56995 116.787 9.66273C116.864 9.85357 116.863 10.0667 116.784 10.2568C116.746 10.3503 116.69 10.4323 116.616 10.5042C116.543 10.576 116.456 10.6331 116.361 10.6725C116.268 10.7116 116.168 10.7317 116.067 10.7314C115.966 10.7312 115.866 10.7106 115.773 10.6711C115.583 10.5906 115.433 10.4391 115.353 10.2489C115.315 10.1564 115.296 10.0574 115.297 9.9576C115.297 9.85459 115.317 9.75255 115.357 9.65754C115.396 9.56252 115.455 9.47648 115.529 9.40453C115.599 9.33376 115.683 9.27784 115.776 9.24004C115.869 9.20225 115.968 9.18335 116.068 9.18445Z" fill="#B9CED3"/>
<path fill-rule="evenodd" clip-rule="evenodd" d="M75.7917 9.78998C79.492 9.78998 81.4094 12.5733 80.6284 16.562C79.8487 20.5507 76.6022 22.8867 73.3536 22.8867C70.105 22.8867 67.979 19.9243 68.6227 16.2938C69.2649 12.6618 72.09 9.78998 75.7917 9.78998ZM27.8553 9.86334H32.282L30.2337 22.4696H25.807L27.8553 9.86334ZM13.7805 22.7896L13.2411 26.1001H11.31C10.0277 26.1001 9.32934 25.8009 8.69284 24.5394C8.39509 23.9497 8.17573 23.2398 8.05706 22.4991C7.30389 22.7212 6.52288 22.8348 5.73763 22.8364C1.90139 22.8364 -0.331016 18.8915 0.519084 14.0556C1.36846 9.21965 4.77677 5.39492 9.14594 5.39492C13.5151 5.39492 15.7101 9.10098 14.6896 14.4137C14.1581 17.3611 12.7966 19.5208 11.072 20.9146L11.0482 21.0297C10.6685 23.0557 12.4212 22.7896 13.7805 22.7896ZM45.414 5.49992H49.5364L48.0419 14.6993L52.4528 9.86334H56.5832L52.1119 14.3699L54.5133 22.4703H49.8536L48.8144 17.6919L47.3091 19.208L46.779 22.4696H42.6565L45.414 5.49992ZM16.2452 9.86334H20.564L19.2047 18.2831C19.1033 18.9124 19.5312 19.4259 20.1562 19.4259C20.7805 19.4259 21.3746 18.9124 21.476 18.2831L22.836 9.86334H27.0966L25.049 22.4696H20.7726L21.0653 20.6672C19.8916 22.4696 18.707 22.8119 17.2298 22.8119C15.7252 22.8119 14.3249 21.6871 14.6924 19.4252L16.2452 9.86334ZM38.4434 9.78998C41.2807 9.78998 42.9867 11.6916 43.0845 14.6051L39.0958 14.9913C39.1238 13.7852 38.8419 13.0041 38.0997 13.0041C37.1108 13.0041 36.4966 14.3965 36.2484 16.155C35.9989 17.9141 36.1391 19.3885 37.174 19.3885C37.9522 19.3885 38.4111 18.7484 38.7146 17.6099L42.6127 17.8098C41.5461 21.0319 38.8656 22.886 36.1823 22.886C33.1695 22.886 31.1967 19.9236 31.7937 16.293C32.3899 12.6618 35.0114 9.78998 38.4434 9.78998ZM8.62523 9.25561C10.2053 9.25561 10.4211 11.355 9.87233 14.2778C9.3243 17.2007 8.52454 18.9131 6.87181 18.9131C5.21836 18.9131 5.0587 16.6828 5.53194 14.0211C6.00661 11.3607 7.04442 9.25561 8.62523 9.25561ZM28.5637 5.49992H32.9904L32.4589 8.77303H28.0322L28.5637 5.49992ZM104.467 18.8779L107.901 18.5643C108.011 19.7416 109.057 19.9423 110.212 19.9423C111.722 19.9423 112.551 18.4039 110.472 18.0457C108.659 17.7336 105.488 17.7581 105.669 14.2354C105.816 11.3744 108.786 9.72597 111.24 9.72597C113.487 9.72597 116.187 10.4862 116.207 13.1645L112.939 13.6859C112.737 12.7445 111.945 12.505 111.053 12.505C109.696 12.505 108.82 13.7291 110.53 14.0513C112.334 14.3907 115.992 14.1822 115.81 18.1213C115.678 21.0132 112.954 22.8615 109.878 22.8615C107.212 22.8615 104.485 21.8273 104.467 18.8779ZM57.7267 5.49992H65.1856C67.3907 5.49992 69.1858 7.30009 69.1736 9.50014C69.1606 11.5801 67.5374 13.3011 65.4963 13.4838C65.2784 13.4996 65.2899 13.4996 65.4877 13.5557C67.336 13.8966 68.4688 15.7579 68.0653 17.9853C67.6172 20.4522 65.4452 22.4703 63.2387 22.4703H54.97L57.7267 5.49992ZM61.2357 9.28079H63.3229C64.1543 9.28079 64.7699 9.96331 64.6908 10.7976C64.6124 11.6319 63.8666 12.3137 63.033 12.3137H60.7416L61.2357 9.28079ZM60.1922 15.7004H62.5325C63.2991 15.7004 63.8134 16.4491 63.676 17.3647C63.5386 18.2802 62.7978 19.0296 62.0297 19.0296H59.6513L60.1922 15.7004ZM95.7561 5.49992H99.8786L98.3841 14.6993L102.796 9.86334H106.926L102.453 14.3699L104.855 22.4703H100.196L99.1565 17.6919L97.6505 19.208L97.1211 22.4696H93.0001L95.7561 5.49992ZM88.536 9.78998C92.2363 9.78998 94.1537 12.5733 93.3727 16.562C92.593 20.5507 89.3465 22.8867 86.0979 22.8867C82.8493 22.8867 80.7233 19.9243 81.367 16.2938C82.0099 12.6618 84.8364 9.78998 88.536 9.78998ZM87.9872 12.8308C89.1409 12.8308 89.3415 14.3303 89.0013 16.4196C88.6626 18.5082 88.1153 19.7316 86.9084 19.7316C85.7016 19.7316 85.5391 18.1371 85.8296 16.2362C86.1202 14.3354 86.8336 12.8308 87.9872 12.8308ZM75.2422 12.8308C76.3958 12.8308 76.5965 14.3303 76.2563 16.4196C75.9176 18.5082 75.3688 19.7316 74.1634 19.7316C72.9566 19.7316 72.7941 18.1371 73.0846 16.2362C73.3752 14.3354 74.0886 12.8308 75.2422 12.8308ZM15.6173 1.34866V1.41483H15.6483C15.6648 1.41483 15.6777 1.41339 15.6857 1.40764C15.6936 1.40188 15.6972 1.39326 15.6972 1.38247C15.6972 1.37168 15.6929 1.36233 15.6849 1.35729C15.6726 1.35127 15.6591 1.34831 15.6454 1.34866H15.6173ZM4.2273 3.59187L4.28699 3.21285C4.14747 3.51132 3.84756 3.63142 3.56923 3.63142C3.41028 3.63142 3.2499 3.59259 3.12979 3.47176C3.01041 3.3121 3.03054 3.11288 3.07082 2.89424L3.34987 1.31846H4.16761L3.92811 2.6943C3.90869 2.85468 3.86914 2.99421 4.04822 2.99421C4.12733 2.99421 4.2273 2.95393 4.26758 2.87482C4.32655 2.79427 4.34597 2.71515 4.36683 2.63532L4.58618 1.31918H5.40392L5.00548 3.5933H4.2273V3.59187ZM0.358701 2.07578C0.199037 2.91294 0.538502 3.63142 1.35696 3.63142C1.47563 3.63142 1.59501 3.63142 1.71512 3.59259C1.73526 4.01044 1.93448 4.14997 2.3135 4.14997L2.6731 4.13055L2.79321 3.4322C2.71338 3.45162 2.6321 3.47176 2.55371 3.47176C2.45374 3.47176 2.31422 3.45162 2.31422 3.3121C2.73279 3.05318 2.97229 2.53391 3.05212 2.09592C3.21178 1.19763 2.87232 0.5 1.99489 0.5C1.57631 0.5 1.23685 0.640246 0.898104 0.978272C0.606303 1.27753 0.417375 1.66194 0.358701 2.07578ZM1.55546 2.95321C1.11674 2.95321 1.23613 2.39511 1.29582 2.05564C1.35624 1.73632 1.43463 1.19763 1.87478 1.19763C2.074 1.19763 2.15383 1.33788 2.17469 1.5371C2.17469 1.7169 2.15383 1.95639 2.11428 2.13547C2.05315 2.45408 1.95461 2.95321 1.55546 2.95321ZM14.2393 1.31774L14.1796 1.63706H14.1998C14.3393 1.39757 14.5982 1.27818 14.8579 1.27818C15.0564 1.27818 15.257 1.33788 15.3563 1.51768C15.4562 1.69604 15.416 1.95639 15.3764 2.19517L15.1168 3.59187H14.299L14.5378 2.21531C14.5788 2.07506 14.5982 1.89526 14.4386 1.89526C14.1998 1.89526 14.1394 2.0952 14.1192 2.27428L13.8797 3.59187H13.0627L13.4619 1.31774H14.2393ZM13.0023 2.83382C12.7822 3.39265 12.2845 3.63142 11.7861 3.63142C11.4668 3.63142 11.1878 3.57173 10.9885 3.33223C10.7893 3.13301 10.7289 2.81369 10.7893 2.49508C10.849 2.17575 11.0281 1.8557 11.2482 1.63706C11.5071 1.39757 11.8458 1.27818 12.1457 1.27818C12.8635 1.27818 13.2022 1.77659 13.0627 2.51378L13.0426 2.63388H11.6272C11.5675 2.87338 11.6272 3.05318 11.8667 3.05318C12.0659 3.05318 12.1659 2.97335 12.2457 2.77269L13.0023 2.83382ZM12.3054 2.19517C12.345 1.97653 12.3054 1.79673 12.0659 1.79673C11.8458 1.79673 11.7264 1.97653 11.707 2.19517H12.3054ZM10.3499 2.11606L10.7893 3.59259H9.95073L9.71195 2.6943L9.45232 2.97407L9.35379 3.59259H8.53605L9.07474 0.561137H9.89103L9.59328 2.19589L9.81192 1.93697L10.4304 1.31918H11.1273L10.3499 2.11606ZM8.49578 2.73385C8.31598 3.33223 7.87726 3.63142 7.33858 3.63142C7.03939 3.63142 6.80061 3.57173 6.62009 3.33223C6.45573 3.07878 6.39833 2.77058 6.46043 2.47494C6.58054 1.77731 7.1185 1.2789 7.75715 1.2789C8.27498 1.2789 8.63458 1.61765 8.59431 2.17575L7.85712 2.23473V2.21603C7.85712 2.07578 7.85712 1.89598 7.67732 1.89598C7.41769 1.89598 7.358 2.25558 7.31844 2.45408C7.27744 2.67488 7.21847 3.01219 7.47882 3.01219C7.65718 3.01219 7.75787 2.85324 7.81685 2.67416L8.49578 2.73385ZM6.08213 3.59187H5.26511L5.68369 1.31774H6.48057L6.08213 3.59187ZM6.52084 1.11852H5.72324L5.82321 0.500724H6.64167L6.52084 1.11852ZM15.5727 1.3199H15.654C15.6842 1.3199 15.7072 1.32493 15.7216 1.335C15.729 1.33925 15.7351 1.34547 15.7391 1.35296C15.7432 1.36045 15.7451 1.36892 15.7446 1.37743C15.7452 1.39153 15.7406 1.40535 15.7317 1.41627C15.7224 1.42663 15.7101 1.4337 15.6964 1.43641L15.7439 1.53206H15.6929L15.6504 1.4436H15.6166V1.53206H15.5727V1.3199ZM15.6497 1.26883C15.6289 1.26837 15.6082 1.27215 15.5889 1.27994C15.5696 1.28773 15.5521 1.29937 15.5375 1.31414C15.5227 1.32981 15.5106 1.34779 15.5015 1.36736C15.4891 1.39631 15.4857 1.42832 15.4917 1.45924C15.4978 1.49016 15.513 1.51854 15.5353 1.54069C15.5497 1.55615 15.567 1.56848 15.5863 1.5769C15.6056 1.58532 15.6265 1.58964 15.6475 1.5896C15.691 1.58993 15.7329 1.57314 15.7641 1.54285C15.7792 1.52829 15.7909 1.51062 15.7986 1.49107C15.815 1.45181 15.8155 1.40771 15.8 1.36808C15.7874 1.33867 15.7664 1.31361 15.7397 1.29597C15.713 1.27833 15.6817 1.2689 15.6497 1.26883ZM15.6497 1.24079C15.6875 1.24014 15.7246 1.251 15.7561 1.27194C15.7875 1.29288 15.8119 1.3229 15.8259 1.35801C15.8356 1.381 15.8406 1.40571 15.8406 1.43066C15.8406 1.45561 15.8356 1.4803 15.8259 1.50329C15.8167 1.52633 15.8027 1.54716 15.7849 1.56443C15.7667 1.58119 15.7458 1.59481 15.7231 1.6047C15.7002 1.61494 15.6755 1.62023 15.6504 1.62023C15.6254 1.62023 15.6006 1.61494 15.5778 1.6047C15.5543 1.5956 15.5332 1.58135 15.5159 1.56299C15.4982 1.54608 15.4844 1.52545 15.4757 1.50258C15.4653 1.48029 15.4601 1.45595 15.4605 1.43138C15.4605 1.40548 15.4649 1.38103 15.4757 1.35873C15.4848 1.33504 15.4988 1.3135 15.5166 1.29544C15.5346 1.27894 15.5549 1.26535 15.5771 1.25517C15.5999 1.24497 15.6247 1.24006 15.6497 1.24079Z" fill="#B9CED3"/>
</svg>
