<svg width="97" height="27" viewBox="0 0 97 27" fill="none" xmlns="http://www.w3.org/2000/svg">
<g clip-path="url(#clip0_597_9659)">
<mask id="mask0_597_9659" style="mask-type:luminance" maskUnits="userSpaceOnUse" x="0" y="0" width="97" height="27">
<path d="M0.75 0.515869H96.75V26.4843H0.75V0.515869Z" fill="white"/>
</mask>
<g mask="url(#mask0_597_9659)">
<path d="M7.39257 9.29302C5.10295 9.29302 3.97899 11.3399 3.97899 14.073V20.9222H0.75V6.46869H3.92241V10.2185H3.9775C4.65485 7.913 6.0051 6.05005 8.08779 6.05005C9.55267 6.05005 10.1705 6.56886 10.1705 6.56886L8.71304 9.5457C8.71304 9.5442 8.24857 9.29302 7.39257 9.29302ZM46.4277 11.2771V20.9208H43.2821V12.4508C43.2821 10.0197 42.5303 8.73234 40.6099 8.73234C38.621 8.73234 37.6593 10.3605 37.6593 13.4839V20.9193H34.542V12.4508C34.542 10.1138 33.7991 8.73234 31.898 8.73234C29.7275 8.73234 28.8923 10.6611 28.8923 13.4839V20.9193H25.7199V6.46869H28.8923V9.74156H28.9206C29.4149 7.47642 30.7636 6.07846 33.0399 6.07846C35.2967 6.07846 36.7676 7.30896 37.3258 9.49038C37.8573 7.39119 39.2715 6.07846 41.445 6.07846C44.4775 6.07846 46.4277 8.00719 46.4277 11.2771ZM16.5168 6.05005C13.5975 6.05005 11.6875 7.44053 10.8166 9.95088L13.5037 10.9422C13.9935 9.42758 15.0147 8.56488 16.5734 8.56488C18.3271 8.56488 19.3572 9.34834 19.3572 10.5504C19.3572 11.7794 18.537 12.0366 16.685 12.3401C14.6247 12.6765 9.72536 12.7872 9.72536 16.9796C9.72536 19.4361 11.75 21.2841 14.7914 21.2841C17.078 21.2841 18.6352 20.3362 19.3557 18.5719H19.384V20.9208H22.5296V12.0321C22.5282 8.14325 20.5988 6.05005 16.5168 6.05005ZM19.4391 14.1178C19.4391 17.1485 17.9608 19.0952 15.5983 19.0952C13.928 19.0952 12.9261 18.1443 12.9261 16.7732C12.9261 15.4874 13.9562 14.5948 15.9317 14.227C17.9534 13.8502 18.9717 13.3852 19.4391 12.2698V14.1178ZM57.6168 6.07846C55.211 6.07846 53.6211 7.4196 52.9408 9.43506V6.46869H49.6001V26.4842H52.9125V17.9559H52.9408C53.6777 20.1388 55.2125 21.3394 57.6168 21.3394C61.4293 21.3394 64.1581 18.1532 64.1581 13.6514C64.1566 9.18088 61.4293 6.07846 57.6168 6.07846ZM56.795 18.6571C54.1541 18.6571 52.6892 16.7134 52.6892 13.6947C52.6892 10.676 54.3282 8.73234 56.795 8.73234C59.2603 8.73234 60.9008 10.7702 60.9008 13.6947C60.9008 16.6207 59.2618 18.6571 56.795 18.6571Z" fill="#B9CED3"/>
<path d="M96.9697 20.8553V20.9454L84.0415 20.95V20.8553C85.9057 19.7873 87.1925 18.6994 88.3504 17.5626H93.6589L96.9697 20.8553ZM93.7664 3.77641L90.4894 0.515869H90.3942C90.3942 0.515869 90.4495 6.59233 84.9475 12.1187C79.5637 17.5275 73.2324 17.5397 73.2324 17.5397V17.6345L76.5708 20.9515C76.5708 20.9515 82.8099 21.0142 88.3212 15.5305C93.8125 10.0652 93.7664 3.77641 93.7664 3.77641Z" fill="#B9CED3"/>
</g>
</g>
<defs>
<clipPath id="clip0_597_9659">
<rect width="96" height="26" fill="white" transform="translate(0.75 0.5)"/>
</clipPath>
</defs>
</svg>
