<svg width="129" height="13" viewBox="0 0 129 13" fill="none" xmlns="http://www.w3.org/2000/svg">
<path d="M40.4504 9.75293C40.1117 10.3863 39.3781 10.559 38.1365 10.559H35.5404V3.30457C35.5404 2.44095 35.7097 2.3258 36.7256 2.3258H37.5157V1.11673H31.1384V2.3258H31.7027C32.6057 2.3258 33.1136 2.44095 33.1136 3.36214V9.69536C33.1136 10.6166 32.7186 10.7317 31.8156 10.7317H31.1948V11.9408H42.1434V7.56509H40.9019C40.9019 8.54386 40.789 9.23476 40.4504 9.75293ZM26.5106 10.559H23.1244V6.81662H23.9145C25.269 6.81662 25.4383 7.04692 25.4947 8.94689H26.7363V3.47729H25.4947C25.3819 5.08938 25.2125 5.54998 23.8581 5.54998H23.068V2.3258H26.0591C28.2037 2.3258 28.768 2.72882 28.8809 5.26211H30.0661V1.05916H14.3768V2.26822H15.1104C15.7312 2.26822 16.0134 2.38337 16.0134 2.72882C16.0134 2.90155 16.0134 3.18942 15.9005 3.53487L13.8124 9.06204H13.6995C12.7401 6.29845 11.4985 3.18942 11.4985 3.18942C11.4421 3.0167 11.3856 2.84397 11.3856 2.72882C11.3856 2.38337 11.6114 2.26822 12.1193 2.26822H13.0223V1.05916H7.37865V2.26822H8.11232C9.0153 2.26822 9.29749 2.72882 9.41036 3.59244L7.32221 9.00446H7.1529C6.19349 6.06815 4.95189 3.13184 4.95189 3.13184C4.89545 2.95912 4.89545 2.84397 4.89545 2.7864C4.89545 2.44095 5.12119 2.26822 5.74199 2.26822H6.24992V1.05916H0.832031V2.26822H1.05778C1.84789 2.26822 2.35581 2.7864 2.75087 3.70759L5.9113 11.8832H7.88658L10.2005 5.83785L12.6272 11.8256H14.5461L17.5936 3.59244C17.9323 2.61367 18.2709 2.26822 19.1174 2.26822H19.2867C20.1897 2.26822 20.6976 2.38337 20.6976 3.24699V9.63778C20.6976 10.559 20.1897 10.6166 19.2867 10.6166H18.6659V11.8256H30.2918V7.44995H29.0502C28.8809 9.63778 28.4294 10.559 26.5106 10.559ZM51.8505 9.75293C51.5119 10.3863 50.7782 10.559 49.5366 10.559H46.9405V3.30457C46.9405 2.44095 47.1099 2.3258 48.1257 2.3258H48.9158V1.11673H42.5385V2.3258H43.2157C44.1187 2.3258 44.5702 2.44095 44.5702 3.36214V9.69536C44.5702 10.6166 44.1752 10.7317 43.2157 10.7317H43.0464V11.9408H53.5436V7.56509H52.302C52.302 8.54386 52.1891 9.23476 51.8505 9.75293ZM60.3724 5.26211L58.1714 4.85909C57.1555 4.68636 56.3654 4.57121 56.3654 3.76517C56.3654 2.90155 57.212 2.15308 58.4536 2.0955C60.2031 2.03793 62.2348 2.67125 62.4605 4.80151H63.6457V1.00158H62.6863L62.1784 1.92278C61.0496 1.00158 59.5259 0.828857 58.3971 0.828857C56.0268 0.828857 54.2773 2.15308 54.3337 4.11061C54.3901 5.89543 55.2931 6.70147 58.0021 7.21965L59.808 7.56509C61.0496 7.79539 62.517 7.68024 62.3477 9.06204C62.2348 10.2711 61.0496 10.6741 59.3565 10.6166C57.4377 10.5014 56.0268 9.63778 55.6882 7.56509H54.4466V11.8832H55.5189L55.8575 10.7317C56.1961 11.0772 57.8328 12.0559 59.5823 12.0559C62.4041 12.0559 64.3229 11.1923 64.3229 8.71659C64.3794 6.12573 62.6299 5.66513 60.3724 5.26211ZM74.5944 5.54998H73.7478V2.3258H76.4003C77.6419 2.3258 78.3756 2.44095 78.7707 3.07427C79.0528 3.65002 79.2221 4.39849 79.2221 5.26211H80.4637V1.05916H69.5715V2.26822H70.1923C71.0953 2.26822 71.4339 2.38337 71.4339 3.24699V9.63778C71.4339 10.559 71.0953 10.6166 70.1923 10.6166H69.5715V11.8256H76.1181V10.6166H74.8765C73.9736 10.6166 73.8043 10.5014 73.8043 9.63778V6.81662H74.6508C75.9488 6.81662 76.1746 7.16207 76.1746 9.00446H77.1904V3.59244H76.231C76.1181 5.31968 75.9488 5.54998 74.5944 5.54998ZM102.643 8.77416C102.7 10.0408 102.643 10.559 102.022 10.559C101.684 10.559 101.458 10.2711 101.402 9.63778V8.94689C101.289 7.50752 101.063 6.81662 99.1442 6.35603C101.176 6.06815 102.361 5.14696 102.361 3.59244C102.361 1.8652 101.119 1.00158 98.4105 1.00158H91.1302V2.21065H91.9768C92.8797 2.21065 93.049 2.3258 93.049 3.18942V9.58021C93.049 10.3863 92.5411 10.6166 91.9203 10.6166H91.1867C90.5659 10.6166 90.2272 10.3863 89.9451 9.58021L86.5589 1.05916H83.9628L80.4073 9.58021C80.0687 10.3287 79.8429 10.6166 78.9964 10.6166H78.4885V11.8256H84.0192V10.6166H82.8905C82.3261 10.6166 82.044 10.6166 82.044 10.2711C82.044 10.156 82.1004 9.98323 82.1568 9.75293L82.6648 8.42872H86.7846L87.2361 9.69536C87.3346 9.8507 87.3928 10.029 87.4054 10.2135C87.4054 10.559 87.1232 10.6741 86.5024 10.6741H85.3737V11.8832H97.3947V10.6741H96.4352C95.5322 10.6741 95.3629 10.559 95.3629 9.69536V6.81662H96.4352C98.2412 6.81662 98.862 7.16207 98.9184 9.00446L98.9749 10.2711C99.0313 11.768 99.9907 12.1711 101.458 12.1711C102.756 12.1711 103.603 11.365 103.603 9.40749V8.83174H102.643V8.77416ZM83.2856 7.16207L84.8658 3.0167L86.5024 7.16207H83.2856ZM97.7333 5.54998H95.4194V2.26822H97.6768C99.2006 2.26822 99.8779 2.61367 99.8779 3.88032C99.9343 5.08938 99.2006 5.54998 97.7333 5.54998ZM110.77 7.39237H111.278C112.294 7.39237 112.463 7.39237 112.463 8.14084V8.71659C112.463 9.98323 111.165 10.6741 109.754 10.6741C107.779 10.6741 106.707 9.11961 106.707 6.35603C106.707 3.59244 108.061 2.15308 109.754 2.15308C111.504 2.15308 112.576 2.90155 113.084 4.51364H114.156V0.886432H113.31L112.745 1.98035C111.955 1.11673 110.601 0.828857 109.359 0.828857C107.892 0.828857 106.537 1.34703 105.634 2.26822C104.562 3.36214 104.054 4.68636 104.054 6.35603C104.054 8.02569 104.619 9.46506 105.691 10.559C106.65 11.5953 107.892 12.1135 109.359 12.1135C110.601 12.1135 112.012 11.768 112.971 10.962L113.535 11.8832H114.382V8.25599C114.382 7.3348 114.495 7.39237 115.285 7.39237H115.68V6.12573H110.77V7.39237ZM122.791 0.828857C119.292 0.828857 116.583 3.0167 116.583 6.4136C116.583 9.81051 119.292 12.0559 122.847 12.0559C126.347 12.0559 128.999 9.81051 128.999 6.4136C128.943 3.0167 126.29 0.828857 122.791 0.828857ZM126.347 6.47118C126.347 9.29234 124.823 10.7893 122.791 10.7893C120.703 10.7893 119.179 9.29234 119.179 6.47118C119.179 3.65002 120.759 2.15308 122.791 2.15308C124.823 2.15308 126.347 3.65002 126.347 6.47118Z" fill="#B9CED3"/>
</svg>
