<svg width="91" height="37" viewBox="0 0 91 37" fill="none" xmlns="http://www.w3.org/2000/svg">
<path d="M46.2953 0.515619C49.5117 0.404312 52.7491 0.887991 55.7834 1.96463C60.3469 3.56678 64.4262 6.50325 67.4112 10.3066C68.7241 11.978 69.824 13.8062 70.6857 15.7491C70.8381 16.0729 70.9555 16.4352 70.8745 16.7948C70.774 17.3992 70.2445 17.8984 69.636 17.9584C69.0032 18.0508 68.3496 17.6562 68.1249 17.0612C66.4101 13.0272 63.4851 9.52405 59.8369 7.09891C57.5744 5.5881 55.0579 4.49761 52.4084 3.87978C48.986 3.08298 45.4264 3.08205 42.0036 3.87709C37.1364 4.99825 32.6794 7.78969 29.5365 11.6692C28.2027 13.3066 27.1044 15.1224 26.2735 17.0639C26.0941 17.5145 25.6819 17.868 25.2009 17.9469C24.9678 17.9902 24.7275 17.9748 24.5018 17.9022C24.276 17.8295 24.0719 17.7019 23.9078 17.5307C23.7196 17.3365 23.5906 17.0928 23.5356 16.828C23.4807 16.5632 23.5021 16.2882 23.5974 16.0352C25.8809 10.6378 30.1086 6.10322 35.3056 3.4042C38.7066 1.63184 42.4617 0.644546 46.2946 0.514944L46.2953 0.515619Z" fill="#B9CED3"/>
<path d="M42.0444 17.1348C42.0248 16.8541 42.29 16.6443 42.553 16.6383C42.8944 16.6288 43.2371 16.6315 43.5791 16.6362C43.8172 16.6443 44.0945 16.8029 44.0938 17.07C44.1059 20.2068 44.0864 23.3437 44.1039 26.4825C45.3748 25.0692 46.6566 23.6641 47.9322 22.2549C48.1831 22.0073 48.3815 21.6322 48.7727 21.5998C49.2989 21.5783 49.8264 21.5911 50.3533 21.5918C50.5563 21.5735 50.783 21.7597 50.7122 21.9763C50.6285 22.1436 50.4761 22.2582 50.3513 22.3911C48.9717 23.7693 47.5875 25.1421 46.2161 26.5264C47.5409 28.0395 48.8483 29.5674 50.1671 31.0866C50.3371 31.3024 50.5496 31.4852 50.6919 31.724C50.7965 31.9102 50.6231 32.1369 50.4235 32.1457C49.985 32.17 49.5465 32.1457 49.1073 32.1558C48.8787 32.1504 48.6317 32.1841 48.4247 32.0661C48.2061 31.9406 48.0739 31.7166 47.9167 31.5277C46.6444 29.9256 45.3802 28.3167 44.1032 26.7173C44.0898 28.2944 44.0992 29.8716 44.0979 31.4481C44.0931 31.6303 44.1302 31.8495 43.9717 31.9817C43.7194 32.2253 43.3443 32.1403 43.0293 32.1558C42.75 32.1463 42.4235 32.2077 42.1962 32.0013C42.07 31.9028 42.037 31.7348 42.041 31.5858C42.0451 26.7679 42.0404 21.9513 42.0444 17.1348ZM36.247 21.5654C36.8852 21.3604 37.6043 21.3212 38.2296 21.5918C38.4489 21.6943 38.7039 21.9142 38.6047 22.1847C38.5042 22.5247 38.4192 22.8681 38.2998 23.202C38.2114 23.4415 37.9335 23.5305 37.6994 23.4833C37.1732 23.3936 36.6565 23.2195 36.1168 23.2371C35.7397 23.2283 35.3923 23.43 35.1346 23.6917C34.7191 24.0985 34.5039 24.6672 34.4074 25.2311C34.3312 25.6386 34.3534 26.0541 34.3494 26.4663V31.6586C34.3737 31.9433 34.0796 32.1369 33.8225 32.1463C33.4697 32.1511 33.1176 32.1558 32.7648 32.1436C32.5105 32.1302 32.2238 31.9446 32.2568 31.6579C32.2555 28.4537 32.2534 25.25 32.2568 22.0457C32.2359 21.7273 32.5887 21.554 32.8653 21.5837C33.2127 21.6066 33.6876 21.4757 33.9129 21.8258C34.085 22.2306 34.1659 22.6691 34.3271 23.0779C34.8115 22.4134 35.4537 21.8272 36.247 21.5654ZM0.277344 21.8096C0.375159 21.6977 0.489839 21.5756 0.653089 21.587C1.13205 21.583 1.61168 21.5722 2.08996 21.5938C2.33281 21.6012 2.50011 21.815 2.53519 22.0404C3.00605 23.9535 3.46814 25.87 3.9363 27.7831C4.07392 28.3741 4.24122 28.9596 4.33026 29.5606C4.42268 30.1003 4.4409 30.6488 4.52927 31.1898C4.65002 30.4174 4.75863 29.6403 4.9664 28.8861C5.57892 26.6019 6.19077 24.3184 6.80397 22.035C6.8512 21.7746 7.09675 21.5897 7.35714 21.5897C7.89006 21.5762 8.42298 21.585 8.95591 21.585C9.24193 21.5715 9.54752 21.7388 9.61633 22.0309C10.0737 23.6965 10.5257 25.364 10.981 27.0309C11.2576 28.1103 11.6199 29.1714 11.7764 30.2784C11.8195 30.5833 11.8614 30.8896 11.9248 31.1925C12.0961 29.452 12.544 27.7595 12.9124 26.0562C13.2159 24.7002 13.5127 23.3437 13.821 21.9884C13.8662 21.7159 14.1543 21.5789 14.4079 21.5864C14.8383 21.5837 15.27 21.5715 15.7004 21.5931C15.9554 21.6005 16.1025 21.8832 16.0121 22.1112C15.1486 25.3 14.2872 28.4914 13.4223 31.6809C13.3996 31.8064 13.3346 31.9203 13.2382 32.0038C13.1417 32.0872 13.0196 32.1352 12.8921 32.1396C12.2243 32.1619 11.5558 32.1457 10.8886 32.149C10.6491 32.1639 10.3962 32.0357 10.3537 31.7834C9.75597 29.591 9.17043 27.3932 8.57814 25.1988C8.36429 24.4351 8.27727 23.6438 8.18688 22.858C8.0776 23.5575 8.02295 24.2678 7.83609 24.9552C7.23031 27.2151 6.62116 29.4757 6.01336 31.7362C5.94522 32.1025 5.52631 32.1747 5.21532 32.1511C4.5947 32.1403 3.97408 32.1659 3.35346 32.1403C3.1322 32.1403 2.9622 31.9689 2.92173 31.7598C2.05151 28.5832 1.18331 25.4052 0.311073 22.2306C0.280717 22.0916 0.28409 21.95 0.278018 21.8103L0.277344 21.8096ZM78.5699 21.5931C79.0239 21.5845 79.478 21.5845 79.9319 21.5931C80.2072 21.5972 80.4669 21.786 80.5539 22.0491C81.3364 24.0951 82.1135 26.1439 82.8947 28.1912C83.0586 28.6061 83.1726 29.0392 83.2455 29.4797C83.5693 28.2654 83.9997 27.0842 84.3774 25.8862C84.7977 24.591 85.2187 23.2951 85.6409 21.9992C85.7037 21.7739 85.9189 21.6201 86.1469 21.6012C86.5172 21.5735 86.8889 21.5972 87.26 21.5877C87.4772 21.5897 87.7349 21.5648 87.9008 21.7388C88.0074 21.8292 87.9845 21.9796 87.9399 22.0977C86.6893 25.6656 85.4419 29.2348 84.1926 32.8041C83.9754 33.3984 83.8088 34.021 83.4593 34.556C82.9581 35.3702 82.1452 35.9564 81.2521 36.2735C80.9398 36.3706 80.618 36.5844 80.282 36.4644C80.0439 36.4037 79.9528 36.1561 79.8253 35.9739C79.7343 35.8087 79.5656 35.6562 79.6007 35.4505C79.6176 35.2467 79.7808 35.0808 79.9731 35.0262C80.3495 34.8966 80.7327 34.7529 81.0376 34.4872C81.7796 33.8598 82.2377 32.9322 82.4124 31.9885C82.2936 31.5689 82.0751 31.1837 81.9159 30.7783C80.7232 28.0057 79.5305 25.2332 78.3345 22.4613C78.263 22.2805 78.1564 22.1071 78.1362 21.9108C78.1389 21.695 78.3871 21.5992 78.5699 21.5931ZM22.9543 22.9342C22.3033 23.0556 21.7097 23.4604 21.3798 24.0371C20.828 24.9728 20.7639 26.1014 20.7888 27.1625C20.8286 28.1231 20.9824 29.1478 21.5956 29.9243C22.0523 30.5084 22.8032 30.8012 23.5337 30.7904C24.236 30.8127 24.972 30.5746 25.4482 30.041C26.056 29.3758 26.251 28.453 26.3353 27.5828C26.3717 26.7274 26.3893 25.8572 26.1673 25.0227C25.9913 24.3171 25.6189 23.6128 24.974 23.2324C24.3743 22.8647 23.6336 22.8303 22.9543 22.9342ZM23.2288 21.413C24.406 21.3401 25.6398 21.585 26.6112 22.2825C27.4807 22.9005 28.071 23.8536 28.3469 24.8756C28.6748 26.0953 28.6734 27.3972 28.3759 28.623C28.096 29.7536 27.4409 30.8188 26.4534 31.4616C25.3969 32.1619 24.0707 32.344 22.8315 32.1949C21.7758 32.0647 20.747 31.6013 20.0117 30.8235C19.1482 29.9189 18.7192 28.6715 18.6302 27.4391C18.5216 26.0724 18.7313 24.626 19.4909 23.4583C20.0535 22.58 20.948 21.9344 21.9451 21.6403C22.3613 21.5101 22.7951 21.4494 23.2288 21.413ZM57.9586 22.8782C57.313 22.92 56.6904 23.2917 56.4016 23.8806C55.839 24.9701 55.8276 26.2383 55.8552 27.4357C55.9004 28.2189 55.9854 29.0277 56.3504 29.734C56.5966 30.2103 57.0452 30.586 57.5747 30.7014C58.3856 30.8963 59.3395 30.7311 59.9156 30.0909C60.4708 29.4588 60.6536 28.5994 60.7386 27.7858C60.7973 26.8589 60.8006 25.9125 60.5706 25.0052C60.4127 24.398 60.1449 23.7923 59.6639 23.3706C59.2032 22.9645 58.561 22.808 57.9586 22.8782ZM60.7359 17.0005C60.721 16.755 60.972 16.5978 61.1905 16.5789C61.5406 16.5593 61.8908 16.5688 62.2415 16.5722C62.5087 16.5701 62.8069 16.7685 62.7684 17.0646C62.7684 21.9048 62.7691 26.7436 62.7677 31.5817C62.7859 31.832 62.5397 32.0263 62.309 32.0404C62.0304 32.0559 61.7511 32.0559 61.4739 32.0364C61.2782 32.0242 61.088 31.8988 61.0219 31.7112C60.9167 31.3969 60.862 31.0704 60.7824 30.7506C60.3959 31.2748 59.898 31.7382 59.2788 31.9689C58.3957 32.2934 57.4128 32.2995 56.5062 32.0775C56.0516 31.9644 55.6258 31.7574 55.2561 31.4697C54.8864 31.182 54.581 30.8201 54.3597 30.4073C53.6696 29.1485 53.5879 27.6678 53.6311 26.2633C53.6554 25.0632 53.8848 23.7977 54.6659 22.8451C55.2555 22.0383 56.2222 21.5749 57.1977 21.4541C58.1063 21.3212 59.0905 21.4744 59.842 22.0242C60.1982 22.2738 60.4829 22.6097 60.7372 22.9605C60.7298 20.9745 60.7318 18.9872 60.7359 17.0005ZM70.5086 22.9389C70.1848 23.005 69.8711 23.1345 69.6094 23.3376C69.0859 23.745 68.8255 24.3926 68.6865 25.022C68.4842 26.0197 68.4875 27.0505 68.5921 28.059C68.6899 28.8011 68.8754 29.5917 69.4192 30.1401C69.8624 30.6049 70.5295 30.7749 71.1542 30.7445C71.8261 30.7688 72.5249 30.5186 72.9587 29.991C73.5004 29.3353 73.6535 28.4638 73.7325 27.6435C73.7824 26.6775 73.7831 25.6885 73.5119 24.7515C73.3405 24.1673 73.0268 23.5865 72.498 23.2539C71.9158 22.8714 71.1798 22.8364 70.5086 22.9389ZM69.6094 21.614C70.547 21.3582 71.5333 21.3383 72.4804 21.556C73.3554 21.7584 74.175 22.2495 74.7126 22.9767C75.2806 23.7228 75.568 24.647 75.6874 25.5684C75.7913 26.2788 75.7616 26.9986 75.7616 27.7136C75.7616 29.0055 75.7616 30.2973 75.7589 31.5885C75.7724 31.7456 75.6732 31.8853 75.5451 31.9676C75.3285 32.1005 75.0594 32.0418 74.8179 32.0566C74.5467 32.0546 74.1905 32.0789 74.0421 31.7962C73.8984 31.465 73.8687 31.0947 73.7763 30.7459C73.412 31.1878 73.0356 31.6438 72.5094 31.8994C71.7074 32.2961 70.7703 32.2725 69.9123 32.1052C68.8626 31.8974 67.8953 31.2768 67.3016 30.3823C66.5947 29.3407 66.3383 28.055 66.3478 26.8117C66.339 25.6002 66.5764 24.3481 67.2497 23.3227C67.7887 22.4849 68.6528 21.8785 69.6094 21.614ZM88.3852 29.5492C87.8522 29.7448 87.5163 30.3594 87.6526 30.9145C87.7915 31.5662 88.5498 32.0114 89.1819 31.7699C89.7654 31.5918 90.133 30.9267 89.9522 30.3405C89.793 29.6807 89.0105 29.2908 88.3852 29.5492ZM88.4594 29.2706C88.7751 29.2207 89.1184 29.2166 89.4119 29.3637C89.9111 29.5903 90.2706 30.1266 90.2167 30.6845C90.2585 31.3503 89.6986 31.9453 89.0598 32.0526C88.3406 32.205 87.5662 31.6842 87.4205 30.9665C87.2309 30.2447 87.7328 29.4318 88.4594 29.2706Z" fill="#B9CED3"/>
<path d="M88.6071 30.0814C88.6058 30.2325 88.6051 30.3836 88.6071 30.5354C88.7394 30.5273 88.8756 30.5354 89.0065 30.499C89.1293 30.4484 89.1171 30.2919 89.0834 30.1873C88.9566 30.0632 88.7677 30.0956 88.6071 30.0814ZM88.2071 29.8352C88.5896 29.8568 89.018 29.7495 89.362 29.9627C89.6399 30.1712 89.505 30.6238 89.192 30.7209C89.2824 30.9597 89.4079 31.1817 89.5225 31.409L89.0935 31.4171C88.9906 31.2059 88.8898 30.9936 88.7913 30.7803L88.6071 30.7769C88.6058 30.9894 88.6058 31.2019 88.6058 31.4144L88.2051 31.4097C88.2064 30.8849 88.2051 30.3594 88.2071 29.8352Z" fill="#B9CED3"/>
</svg>
