<svg width="604" height="272" viewBox="0 0 604 272" fill="none" xmlns="http://www.w3.org/2000/svg">
<g opacity="0.5">
<rect x="410" width="147" height="46" rx="6" fill="#01242D"/>
<rect x="410.5" y="0.5" width="146" height="45" rx="5.5" stroke="#355159" stroke-opacity="0.5"/>
<g opacity="0.5">
<path d="M425.125 12.125H443.125V33.125L440.125 31.125L437.125 33.125L434.125 31.125L431.125 33.125L428.125 31.125L425.125 33.125V12.125Z" stroke="#D1DCDF" stroke-miterlimit="10" stroke-linecap="square"/>
<path d="M429.125 18.125H434.125" stroke="#D1DCDF" stroke-miterlimit="10" stroke-linecap="square"/>
<path d="M438.125 18.125H439.125" stroke="#D1DCDF" stroke-miterlimit="10" stroke-linecap="square"/>
<path d="M429.125 22.125H434.125" stroke="#D1DCDF" stroke-miterlimit="10" stroke-linecap="square"/>
<path d="M438.125 22.125H439.125" stroke="#D1DCDF" stroke-miterlimit="10" stroke-linecap="square"/>
<path d="M429.125 26.125H434.125" stroke="#D1DCDF" stroke-miterlimit="10" stroke-linecap="square"/>
<path d="M438.125 26.125H439.125" stroke="#D1DCDF" stroke-miterlimit="10" stroke-linecap="square"/>
<path d="M460.492 27H459.12V17.2H460.646L465.938 25.04V17.2H467.296V27H465.77L460.492 19.16V27ZM472.674 27.168C471.946 27.168 471.297 27.0047 470.728 26.678C470.168 26.3513 469.734 25.894 469.426 25.306C469.118 24.718 468.964 24.0553 468.964 23.318C468.964 22.506 469.122 21.806 469.44 21.218C469.757 20.6207 470.186 20.168 470.728 19.86C471.278 19.552 471.88 19.398 472.534 19.398C473.57 19.398 474.4 19.734 475.026 20.406C475.651 21.078 475.973 22.0067 475.992 23.192V23.542H470.308C470.354 24.2887 470.588 24.8907 471.008 25.348C471.428 25.796 471.983 26.02 472.674 26.02C473.168 26.02 473.584 25.9033 473.92 25.67C474.256 25.4367 474.498 25.1007 474.648 24.662H475.964C475.786 25.4367 475.404 26.048 474.816 26.496C474.237 26.944 473.523 27.168 472.674 27.168ZM474.592 22.492C474.489 21.8853 474.256 21.4093 473.892 21.064C473.537 20.7187 473.084 20.546 472.534 20.546C471.983 20.546 471.516 20.7187 471.134 21.064C470.751 21.4093 470.499 21.8853 470.378 22.492H474.592ZM480.308 27H478.852L476.654 19.58H478.04L479.664 25.334L481.246 19.58H482.394L483.976 25.292L485.586 19.58H486.972L484.774 27H483.332L481.82 21.568L480.308 27ZM491.902 18.432C491.641 18.432 491.417 18.3433 491.23 18.166C491.053 17.9793 490.964 17.7507 490.964 17.48C490.964 17.2187 491.053 16.9993 491.23 16.822C491.408 16.6447 491.632 16.556 491.902 16.556C492.173 16.556 492.397 16.6447 492.574 16.822C492.752 16.99 492.84 17.2093 492.84 17.48C492.84 17.7507 492.752 17.9793 492.574 18.166C492.397 18.3433 492.173 18.432 491.902 18.432ZM492.574 27H491.23V19.58H492.574V27ZM494.389 27V19.58H495.467L495.593 20.7C495.835 20.308 496.181 19.9953 496.629 19.762C497.086 19.5193 497.59 19.398 498.141 19.398C498.934 19.398 499.573 19.6407 500.059 20.126C500.544 20.6113 500.787 21.2647 500.787 22.086V27H499.429V22.142C499.429 21.666 499.279 21.288 498.981 21.008C498.691 20.7187 498.285 20.574 497.763 20.574C497.156 20.574 496.666 20.7607 496.293 21.134C495.929 21.498 495.742 21.9553 495.733 22.506V27H494.389ZM506.141 27H504.727L501.633 19.58H503.103L505.441 25.418L507.765 19.58H509.235L506.141 27ZM513.402 27.168C512.627 27.168 511.96 27 511.4 26.664C510.849 26.3187 510.429 25.8473 510.14 25.25C509.85 24.6527 509.706 23.976 509.706 23.22C509.706 22.4173 509.864 21.7313 510.182 21.162C510.508 20.5833 510.952 20.1447 511.512 19.846C512.072 19.5473 512.702 19.398 513.402 19.398C514.176 19.398 514.839 19.566 515.39 19.902C515.95 20.238 516.374 20.6953 516.664 21.274C516.953 21.8527 517.098 22.5013 517.098 23.22C517.098 24.0413 516.939 24.7507 516.622 25.348C516.304 25.9453 515.866 26.398 515.306 26.706C514.755 27.014 514.12 27.168 513.402 27.168ZM513.402 26.02C514.12 26.02 514.685 25.7587 515.096 25.236C515.516 24.704 515.726 24.032 515.726 23.22C515.726 22.4173 515.511 21.7733 515.082 21.288C514.662 20.7933 514.102 20.546 513.402 20.546C512.702 20.546 512.137 20.7933 511.708 21.288C511.288 21.7733 511.078 22.4173 511.078 23.22C511.078 23.808 511.18 24.312 511.386 24.732C511.591 25.152 511.866 25.474 512.212 25.698C512.566 25.9127 512.963 26.02 513.402 26.02ZM519.205 18.432C518.944 18.432 518.72 18.3433 518.533 18.166C518.356 17.9793 518.267 17.7507 518.267 17.48C518.267 17.2187 518.356 16.9993 518.533 16.822C518.71 16.6447 518.934 16.556 519.205 16.556C519.476 16.556 519.7 16.6447 519.877 16.822C520.054 16.99 520.143 17.2093 520.143 17.48C520.143 17.7507 520.054 17.9793 519.877 18.166C519.7 18.3433 519.476 18.432 519.205 18.432ZM519.877 27H518.533V19.58H519.877V27ZM525.051 27.168C524.277 27.168 523.605 26.9953 523.035 26.65C522.475 26.3047 522.046 25.838 521.747 25.25C521.458 24.6527 521.313 23.9853 521.313 23.248C521.313 22.4453 521.477 21.7547 521.803 21.176C522.13 20.5973 522.573 20.1587 523.133 19.86C523.693 19.552 524.319 19.398 525.009 19.398C525.98 19.398 526.773 19.6733 527.389 20.224C528.015 20.7653 528.374 21.5027 528.467 22.436H527.151C527.058 21.8573 526.82 21.4 526.437 21.064C526.055 20.7187 525.574 20.546 524.995 20.546C524.295 20.546 523.731 20.7887 523.301 21.274C522.881 21.7593 522.671 22.4173 522.671 23.248C522.671 23.8267 522.774 24.326 522.979 24.746C523.194 25.1567 523.483 25.474 523.847 25.698C524.211 25.9127 524.617 26.02 525.065 26.02C525.625 26.02 526.087 25.852 526.451 25.516C526.815 25.18 527.049 24.7087 527.151 24.102H528.467C528.365 25.0633 528.01 25.8147 527.403 26.356C526.806 26.8973 526.022 27.168 525.051 27.168ZM533.24 27.168C532.512 27.168 531.863 27.0047 531.294 26.678C530.734 26.3513 530.3 25.894 529.992 25.306C529.684 24.718 529.53 24.0553 529.53 23.318C529.53 22.506 529.689 21.806 530.006 21.218C530.323 20.6207 530.753 20.168 531.294 19.86C531.845 19.552 532.447 19.398 533.1 19.398C534.136 19.398 534.967 19.734 535.592 20.406C536.217 21.078 536.539 22.0067 536.558 23.192V23.542H530.874C530.921 24.2887 531.154 24.8907 531.574 25.348C531.994 25.796 532.549 26.02 533.24 26.02C533.735 26.02 534.15 25.9033 534.486 25.67C534.822 25.4367 535.065 25.1007 535.214 24.662H536.53C536.353 25.4367 535.97 26.048 535.382 26.496C534.803 26.944 534.089 27.168 533.24 27.168ZM535.158 22.492C535.055 21.8853 534.822 21.4093 534.458 21.064C534.103 20.7187 533.651 20.546 533.1 20.546C532.549 20.546 532.083 20.7187 531.7 21.064C531.317 21.4093 531.065 21.8853 530.944 22.492H535.158ZM540.844 27.168C539.901 27.168 539.136 26.9487 538.548 26.51C537.969 26.062 537.656 25.4413 537.61 24.648H538.926C538.963 25.0867 539.159 25.432 539.514 25.684C539.868 25.9267 540.312 26.048 540.844 26.048C541.814 26.048 542.3 25.6933 542.3 24.984C542.3 24.7787 542.248 24.6153 542.146 24.494C542.052 24.3727 541.931 24.284 541.782 24.228C541.632 24.1627 541.39 24.0693 541.054 23.948L540.018 23.612C539.523 23.4533 539.126 23.2993 538.828 23.15C538.529 23.0007 538.282 22.7953 538.086 22.534C537.89 22.2727 537.792 21.932 537.792 21.512C537.792 20.8587 538.03 20.3453 538.506 19.972C538.982 19.5893 539.635 19.398 540.466 19.398C541.315 19.398 542.001 19.6173 542.524 20.056C543.056 20.4947 543.368 21.1247 543.462 21.946H542.174C542.118 21.4793 541.936 21.1247 541.628 20.882C541.32 20.6393 540.923 20.518 540.438 20.518C540.018 20.518 539.686 20.6067 539.444 20.784C539.21 20.952 539.094 21.1853 539.094 21.484C539.094 21.7547 539.187 21.96 539.374 22.1C539.57 22.2307 539.775 22.3333 539.99 22.408C540.214 22.4733 540.358 22.5153 540.424 22.534L541.404 22.856C541.917 23.024 542.332 23.1967 542.65 23.374C542.967 23.5513 543.21 23.7753 543.378 24.046C543.546 24.3073 543.63 24.6387 543.63 25.04C543.63 25.712 543.387 26.2347 542.902 26.608C542.426 26.9813 541.74 27.168 540.844 27.168Z" fill="#D1DCDF"/>
</g>
</g>
<rect x="344.5" y="25.5" width="178" height="45" rx="5.5" fill="#01242D"/>
<rect x="344.5" y="25.5" width="178" height="45" rx="5.5" stroke="#183B46"/>
<path d="M359.125 37.125H377.125V58.125L374.125 56.125L371.125 58.125L368.125 56.125L365.125 58.125L362.125 56.125L359.125 58.125V37.125Z" stroke="#D1DCDF" stroke-miterlimit="10" stroke-linecap="square"/>
<path d="M363.125 43.125H368.125" stroke="#D1DCDF" stroke-miterlimit="10" stroke-linecap="square"/>
<path d="M372.125 43.125H373.125" stroke="#D1DCDF" stroke-miterlimit="10" stroke-linecap="square"/>
<path d="M363.125 47.125H368.125" stroke="#D1DCDF" stroke-miterlimit="10" stroke-linecap="square"/>
<path d="M372.125 47.125H373.125" stroke="#D1DCDF" stroke-miterlimit="10" stroke-linecap="square"/>
<path d="M363.125 51.125H368.125" stroke="#D1DCDF" stroke-miterlimit="10" stroke-linecap="square"/>
<path d="M372.125 51.125H373.125" stroke="#D1DCDF" stroke-miterlimit="10" stroke-linecap="square"/>
<path d="M394.492 52H393.12V42.2H399.896V43.446H394.492V46.442H399.504V47.688H394.492V52ZM402.031 43.432C401.77 43.432 401.546 43.3433 401.359 43.166C401.182 42.9793 401.093 42.7507 401.093 42.48C401.093 42.2187 401.182 41.9993 401.359 41.822C401.537 41.6447 401.761 41.556 402.031 41.556C402.302 41.556 402.526 41.6447 402.703 41.822C402.881 41.99 402.969 42.2093 402.969 42.48C402.969 42.7507 402.881 42.9793 402.703 43.166C402.526 43.3433 402.302 43.432 402.031 43.432ZM402.703 52H401.359V44.58H402.703V52ZM404.517 52V44.58H405.595L405.721 45.7C405.964 45.308 406.309 44.9953 406.757 44.762C407.215 44.5193 407.719 44.398 408.269 44.398C409.063 44.398 409.702 44.6407 410.187 45.126C410.673 45.6113 410.915 46.2647 410.915 47.086V52H409.557V47.142C409.557 46.666 409.408 46.288 409.109 46.008C408.82 45.7187 408.414 45.574 407.891 45.574C407.285 45.574 406.795 45.7607 406.421 46.134C406.057 46.498 405.871 46.9553 405.861 47.506V52H404.517ZM415.061 52.126C414.211 52.126 413.535 51.93 413.031 51.538C412.527 51.1367 412.275 50.6 412.275 49.928C412.275 49.3867 412.424 48.962 412.723 48.654C413.021 48.346 413.39 48.1267 413.829 47.996C414.277 47.856 414.809 47.7533 415.425 47.688C415.593 47.6693 415.709 47.66 415.775 47.66C416.213 47.6133 416.535 47.576 416.741 47.548C416.955 47.5107 417.133 47.45 417.273 47.366C417.413 47.2727 417.483 47.142 417.483 46.974C417.483 46.5447 417.319 46.1947 416.993 45.924C416.675 45.6533 416.255 45.518 415.733 45.518C415.21 45.518 414.767 45.6487 414.403 45.91C414.048 46.1713 413.843 46.5167 413.787 46.946H412.443C412.489 46.4513 412.657 46.0127 412.947 45.63C413.245 45.238 413.637 44.9347 414.123 44.72C414.617 44.5053 415.163 44.398 415.761 44.398C416.377 44.398 416.913 44.51 417.371 44.734C417.837 44.958 418.192 45.2707 418.435 45.672C418.677 46.0733 418.799 46.5353 418.799 47.058V50.572C418.799 50.8053 418.925 50.922 419.177 50.922H419.583V52H418.883C418.491 52 418.187 51.916 417.973 51.748C417.758 51.58 417.641 51.3373 417.623 51.02C417.604 50.9267 417.595 50.8473 417.595 50.782C417.128 51.678 416.283 52.126 415.061 52.126ZM415.285 51.02C415.929 51.02 416.456 50.8427 416.867 50.488C417.277 50.124 417.483 49.6573 417.483 49.088V48.094C417.352 48.29 417.137 48.4253 416.839 48.5C416.54 48.5747 416.106 48.6447 415.537 48.71C414.911 48.7847 414.435 48.8967 414.109 49.046C413.782 49.186 413.619 49.452 413.619 49.844C413.619 50.208 413.768 50.4973 414.067 50.712C414.365 50.9173 414.771 51.02 415.285 51.02ZM420.814 52V44.58H421.892L422.018 45.7C422.261 45.308 422.606 44.9953 423.054 44.762C423.512 44.5193 424.016 44.398 424.566 44.398C425.36 44.398 425.999 44.6407 426.484 45.126C426.97 45.6113 427.212 46.2647 427.212 47.086V52H425.854V47.142C425.854 46.666 425.705 46.288 425.406 46.008C425.117 45.7187 424.711 45.574 424.188 45.574C423.582 45.574 423.092 45.7607 422.718 46.134C422.354 46.498 422.168 46.9553 422.158 47.506V52H420.814ZM431.357 52.126C430.508 52.126 429.831 51.93 429.327 51.538C428.823 51.1367 428.571 50.6 428.571 49.928C428.571 49.3867 428.721 48.962 429.019 48.654C429.318 48.346 429.687 48.1267 430.125 47.996C430.573 47.856 431.105 47.7533 431.721 47.688C431.889 47.6693 432.006 47.66 432.071 47.66C432.51 47.6133 432.832 47.576 433.037 47.548C433.252 47.5107 433.429 47.45 433.569 47.366C433.709 47.2727 433.779 47.142 433.779 46.974C433.779 46.5447 433.616 46.1947 433.289 45.924C432.972 45.6533 432.552 45.518 432.029 45.518C431.507 45.518 431.063 45.6487 430.699 45.91C430.345 46.1713 430.139 46.5167 430.083 46.946H428.739C428.786 46.4513 428.954 46.0127 429.243 45.63C429.542 45.238 429.934 44.9347 430.419 44.72C430.914 44.5053 431.46 44.398 432.057 44.398C432.673 44.398 433.21 44.51 433.667 44.734C434.134 44.958 434.489 45.2707 434.731 45.672C434.974 46.0733 435.095 46.5353 435.095 47.058V50.572C435.095 50.8053 435.221 50.922 435.473 50.922H435.879V52H435.179C434.787 52 434.484 51.916 434.269 51.748C434.055 51.58 433.938 51.3373 433.919 51.02C433.901 50.9267 433.891 50.8473 433.891 50.782C433.425 51.678 432.58 52.126 431.357 52.126ZM431.581 51.02C432.225 51.02 432.753 50.8427 433.163 50.488C433.574 50.124 433.779 49.6573 433.779 49.088V48.094C433.649 48.29 433.434 48.4253 433.135 48.5C432.837 48.5747 432.403 48.6447 431.833 48.71C431.208 48.7847 430.732 48.8967 430.405 49.046C430.079 49.186 429.915 49.452 429.915 49.844C429.915 50.208 430.065 50.4973 430.363 50.712C430.662 50.9173 431.068 51.02 431.581 51.02ZM440.471 52.168C439.697 52.168 439.025 51.9953 438.455 51.65C437.895 51.3047 437.466 50.838 437.167 50.25C436.878 49.6527 436.733 48.9853 436.733 48.248C436.733 47.4453 436.897 46.7547 437.223 46.176C437.55 45.5973 437.993 45.1587 438.553 44.86C439.113 44.552 439.739 44.398 440.429 44.398C441.4 44.398 442.193 44.6733 442.809 45.224C443.435 45.7653 443.794 46.5027 443.887 47.436H442.571C442.478 46.8573 442.24 46.4 441.857 46.064C441.475 45.7187 440.994 45.546 440.415 45.546C439.715 45.546 439.151 45.7887 438.721 46.274C438.301 46.7593 438.091 47.4173 438.091 48.248C438.091 48.8267 438.194 49.326 438.399 49.746C438.614 50.1567 438.903 50.474 439.267 50.698C439.631 50.9127 440.037 51.02 440.485 51.02C441.045 51.02 441.507 50.852 441.871 50.516C442.235 50.18 442.469 49.7087 442.571 49.102H443.887C443.785 50.0633 443.43 50.8147 442.823 51.356C442.226 51.8973 441.442 52.168 440.471 52.168ZM446 43.432C445.739 43.432 445.515 43.3433 445.328 43.166C445.151 42.9793 445.062 42.7507 445.062 42.48C445.062 42.2187 445.151 41.9993 445.328 41.822C445.505 41.6447 445.729 41.556 446 41.556C446.271 41.556 446.495 41.6447 446.672 41.822C446.849 41.99 446.938 42.2093 446.938 42.48C446.938 42.7507 446.849 42.9793 446.672 43.166C446.495 43.3433 446.271 43.432 446 43.432ZM446.672 52H445.328V44.58H446.672V52ZM450.908 52.126C450.059 52.126 449.382 51.93 448.878 51.538C448.374 51.1367 448.122 50.6 448.122 49.928C448.122 49.3867 448.272 48.962 448.57 48.654C448.869 48.346 449.238 48.1267 449.676 47.996C450.124 47.856 450.656 47.7533 451.272 47.688C451.44 47.6693 451.557 47.66 451.622 47.66C452.061 47.6133 452.383 47.576 452.588 47.548C452.803 47.5107 452.98 47.45 453.12 47.366C453.26 47.2727 453.33 47.142 453.33 46.974C453.33 46.5447 453.167 46.1947 452.84 45.924C452.523 45.6533 452.103 45.518 451.58 45.518C451.058 45.518 450.614 45.6487 450.25 45.91C449.896 46.1713 449.69 46.5167 449.634 46.946H448.29C448.337 46.4513 448.505 46.0127 448.794 45.63C449.093 45.238 449.485 44.9347 449.97 44.72C450.465 44.5053 451.011 44.398 451.608 44.398C452.224 44.398 452.761 44.51 453.218 44.734C453.685 44.958 454.04 45.2707 454.282 45.672C454.525 46.0733 454.646 46.5353 454.646 47.058V50.572C454.646 50.8053 454.772 50.922 455.024 50.922H455.43V52H454.73C454.338 52 454.035 51.916 453.82 51.748C453.606 51.58 453.489 51.3373 453.47 51.02C453.452 50.9267 453.442 50.8473 453.442 50.782C452.976 51.678 452.131 52.126 450.908 52.126ZM451.132 51.02C451.776 51.02 452.304 50.8427 452.714 50.488C453.125 50.124 453.33 49.6573 453.33 49.088V48.094C453.2 48.29 452.985 48.4253 452.686 48.5C452.388 48.5747 451.954 48.6447 451.384 48.71C450.759 48.7847 450.283 48.8967 449.956 49.046C449.63 49.186 449.466 49.452 449.466 49.844C449.466 50.208 449.616 50.4973 449.914 50.712C450.213 50.9173 450.619 51.02 451.132 51.02ZM458.048 52H456.69V41.5H458.048V52ZM463.006 52V44.58H464.084L464.238 46.008C464.723 45.0187 465.582 44.524 466.814 44.524H467.08V45.84H466.814C466.039 45.84 465.432 46.05 464.994 46.47C464.564 46.8807 464.35 47.4547 464.35 48.192V52H463.006ZM471.355 52.168C470.627 52.168 469.979 52.0047 469.409 51.678C468.849 51.3513 468.415 50.894 468.107 50.306C467.799 49.718 467.645 49.0553 467.645 48.318C467.645 47.506 467.804 46.806 468.121 46.218C468.439 45.6207 468.868 45.168 469.409 44.86C469.96 44.552 470.562 44.398 471.215 44.398C472.251 44.398 473.082 44.734 473.707 45.406C474.333 46.078 474.655 47.0067 474.673 48.192V48.542H468.989C469.036 49.2887 469.269 49.8907 469.689 50.348C470.109 50.796 470.665 51.02 471.355 51.02C471.85 51.02 472.265 50.9033 472.601 50.67C472.937 50.4367 473.18 50.1007 473.329 49.662H474.645C474.468 50.4367 474.085 51.048 473.497 51.496C472.919 51.944 472.205 52.168 471.355 52.168ZM473.273 47.492C473.171 46.8853 472.937 46.4093 472.573 46.064C472.219 45.7187 471.766 45.546 471.215 45.546C470.665 45.546 470.198 45.7187 469.815 46.064C469.433 46.4093 469.181 46.8853 469.059 47.492H473.273ZM476.145 54.8V44.58H477.223L477.349 45.882C477.61 45.4247 477.974 45.0653 478.441 44.804C478.917 44.5333 479.449 44.398 480.037 44.398C480.681 44.398 481.255 44.5613 481.759 44.888C482.272 45.2147 482.669 45.672 482.949 46.26C483.238 46.8387 483.383 47.5013 483.383 48.248C483.383 49.0133 483.238 49.6947 482.949 50.292C482.669 50.88 482.272 51.342 481.759 51.678C481.255 52.0047 480.681 52.168 480.037 52.168C479.486 52.168 478.987 52.0513 478.539 51.818C478.1 51.5847 477.75 51.258 477.489 50.838V54.8H476.145ZM479.785 51.02C480.214 51.02 480.592 50.9033 480.919 50.67C481.255 50.4367 481.516 50.11 481.703 49.69C481.89 49.27 481.983 48.7893 481.983 48.248C481.983 47.7253 481.89 47.2587 481.703 46.848C481.516 46.4373 481.255 46.12 480.919 45.896C480.583 45.6627 480.2 45.546 479.771 45.546C479.332 45.546 478.94 45.658 478.595 45.882C478.25 46.106 477.979 46.4233 477.783 46.834C477.587 47.2353 477.489 47.6927 477.489 48.206C477.489 48.7473 477.587 49.2327 477.783 49.662C477.979 50.0913 478.25 50.4273 478.595 50.67C478.95 50.9033 479.346 51.02 479.785 51.02ZM488.13 52.168C487.356 52.168 486.688 52 486.128 51.664C485.578 51.3187 485.158 50.8473 484.868 50.25C484.579 49.6527 484.434 48.976 484.434 48.22C484.434 47.4173 484.593 46.7313 484.91 46.162C485.237 45.5833 485.68 45.1447 486.24 44.846C486.8 44.5473 487.43 44.398 488.13 44.398C488.905 44.398 489.568 44.566 490.118 44.902C490.678 45.238 491.103 45.6953 491.392 46.274C491.682 46.8527 491.826 47.5013 491.826 48.22C491.826 49.0413 491.668 49.7507 491.35 50.348C491.033 50.9453 490.594 51.398 490.034 51.706C489.484 52.014 488.849 52.168 488.13 52.168ZM488.13 51.02C488.849 51.02 489.414 50.7587 489.824 50.236C490.244 49.704 490.454 49.032 490.454 48.22C490.454 47.4173 490.24 46.7733 489.81 46.288C489.39 45.7933 488.83 45.546 488.13 45.546C487.43 45.546 486.866 45.7933 486.436 46.288C486.016 46.7733 485.806 47.4173 485.806 48.22C485.806 48.808 485.909 49.312 486.114 49.732C486.32 50.152 486.595 50.474 486.94 50.698C487.295 50.9127 487.692 51.02 488.13 51.02ZM493.262 52V44.58H494.34L494.494 46.008C494.979 45.0187 495.838 44.524 497.07 44.524H497.336V45.84H497.07C496.295 45.84 495.688 46.05 495.25 46.47C494.82 46.8807 494.606 47.4547 494.606 48.192V52H493.262ZM501.716 52C500.96 52 500.386 51.818 499.994 51.454C499.602 51.0807 499.406 50.5393 499.406 49.83V45.714H498.062V44.58H499.406V42.046H500.75V44.58H502.724V45.714H500.75V49.788C500.75 50.1427 500.834 50.4133 501.002 50.6C501.179 50.7773 501.431 50.866 501.758 50.866H502.584V52H501.716ZM506.863 52.168C505.921 52.168 505.155 51.9487 504.567 51.51C503.989 51.062 503.676 50.4413 503.629 49.648H504.945C504.983 50.0867 505.179 50.432 505.533 50.684C505.888 50.9267 506.331 51.048 506.863 51.048C507.834 51.048 508.319 50.6933 508.319 49.984C508.319 49.7787 508.268 49.6153 508.165 49.494C508.072 49.3727 507.951 49.284 507.801 49.228C507.652 49.1627 507.409 49.0693 507.073 48.948L506.037 48.612C505.543 48.4533 505.146 48.2993 504.847 48.15C504.549 48.0007 504.301 47.7953 504.105 47.534C503.909 47.2727 503.811 46.932 503.811 46.512C503.811 45.8587 504.049 45.3453 504.525 44.972C505.001 44.5893 505.655 44.398 506.485 44.398C507.335 44.398 508.021 44.6173 508.543 45.056C509.075 45.4947 509.388 46.1247 509.481 46.946H508.193C508.137 46.4793 507.955 46.1247 507.647 45.882C507.339 45.6393 506.943 45.518 506.457 45.518C506.037 45.518 505.706 45.6067 505.463 45.784C505.23 45.952 505.113 46.1853 505.113 46.484C505.113 46.7547 505.207 46.96 505.393 47.1C505.589 47.2307 505.795 47.3333 506.009 47.408C506.233 47.4733 506.378 47.5153 506.443 47.534L507.423 47.856C507.937 48.024 508.352 48.1967 508.669 48.374C508.987 48.5513 509.229 48.7753 509.397 49.046C509.565 49.3073 509.649 49.6387 509.649 50.04C509.649 50.712 509.407 51.2347 508.921 51.608C508.445 51.9813 507.759 52.168 506.863 52.168Z" fill="#D1DCDF"/>
<path d="M253 139H369H377C388.046 139 397 130.046 397 119V68" stroke="#355159" stroke-dasharray="4 4"/>
<path d="M478 97.5H598C601.038 97.5 603.5 99.9624 603.5 103V194C603.5 197.038 601.038 199.5 598 199.5H478C474.962 199.5 472.5 197.038 472.5 194V103L472.507 102.717C472.654 99.8108 475.057 97.5 478 97.5Z" fill="#01242D"/>
<path d="M478 97.5H598C601.038 97.5 603.5 99.9624 603.5 103V194C603.5 197.038 601.038 199.5 598 199.5H478C474.962 199.5 472.5 197.038 472.5 194V103L472.507 102.717C472.654 99.8108 475.057 97.5 478 97.5Z" stroke="#183B46"/>
<rect x="524.338" y="132" width="6" height="20" rx="3" fill="#355159"/>
<rect x="536" y="124" width="5" height="28" rx="2.5" fill="#8EA0A5"/>
<rect x="546.662" y="117" width="5" height="35" rx="2.5" fill="#C1D3D8"/>
<path d="M489.502 175H488.046L484.238 165.2H485.708L488.774 173.124L491.742 165.2H493.198L489.502 175ZM496.109 175.126C495.26 175.126 494.583 174.93 494.079 174.538C493.575 174.137 493.323 173.6 493.323 172.928C493.323 172.387 493.473 171.962 493.771 171.654C494.07 171.346 494.439 171.127 494.877 170.996C495.325 170.856 495.857 170.753 496.473 170.688C496.641 170.669 496.758 170.66 496.823 170.66C497.262 170.613 497.584 170.576 497.789 170.548C498.004 170.511 498.181 170.45 498.321 170.366C498.461 170.273 498.531 170.142 498.531 169.974C498.531 169.545 498.368 169.195 498.041 168.924C497.724 168.653 497.304 168.518 496.781 168.518C496.259 168.518 495.815 168.649 495.451 168.91C495.097 169.171 494.891 169.517 494.835 169.946H493.491C493.538 169.451 493.706 169.013 493.995 168.63C494.294 168.238 494.686 167.935 495.171 167.72C495.666 167.505 496.212 167.398 496.809 167.398C497.425 167.398 497.962 167.51 498.419 167.734C498.886 167.958 499.241 168.271 499.483 168.672C499.726 169.073 499.847 169.535 499.847 170.058V173.572C499.847 173.805 499.973 173.922 500.225 173.922H500.631V175H499.931C499.539 175 499.236 174.916 499.021 174.748C498.807 174.58 498.69 174.337 498.671 174.02C498.653 173.927 498.643 173.847 498.643 173.782C498.177 174.678 497.332 175.126 496.109 175.126ZM496.333 174.02C496.977 174.02 497.505 173.843 497.915 173.488C498.326 173.124 498.531 172.657 498.531 172.088V171.094C498.401 171.29 498.186 171.425 497.887 171.5C497.589 171.575 497.155 171.645 496.585 171.71C495.96 171.785 495.484 171.897 495.157 172.046C494.831 172.186 494.667 172.452 494.667 172.844C494.667 173.208 494.817 173.497 495.115 173.712C495.414 173.917 495.82 174.02 496.333 174.02ZM503.249 175H501.891V164.5H503.249V175ZM505.775 166.432C505.514 166.432 505.29 166.343 505.103 166.166C504.926 165.979 504.837 165.751 504.837 165.48C504.837 165.219 504.926 164.999 505.103 164.822C505.281 164.645 505.505 164.556 505.775 164.556C506.046 164.556 506.27 164.645 506.447 164.822C506.625 164.99 506.713 165.209 506.713 165.48C506.713 165.751 506.625 165.979 506.447 166.166C506.27 166.343 506.046 166.432 505.775 166.432ZM506.447 175H505.103V167.58H506.447V175ZM511.286 175.168C510.623 175.168 510.035 175.005 509.522 174.678C509.008 174.342 508.607 173.88 508.318 173.292C508.028 172.695 507.884 172.013 507.884 171.248C507.884 170.501 508.024 169.834 508.304 169.246C508.593 168.658 508.99 168.205 509.494 167.888C510.007 167.561 510.59 167.398 511.244 167.398C511.785 167.398 512.275 167.505 512.714 167.72C513.162 167.935 513.516 168.233 513.778 168.616V164.5H515.122V175H514.058L513.918 173.614C513.675 174.099 513.325 174.482 512.868 174.762C512.41 175.033 511.883 175.168 511.286 175.168ZM511.51 174.02C511.948 174.02 512.34 173.903 512.686 173.67C513.031 173.427 513.297 173.096 513.484 172.676C513.68 172.247 513.778 171.761 513.778 171.22C513.778 170.697 513.684 170.235 513.498 169.834C513.311 169.423 513.05 169.106 512.714 168.882C512.378 168.649 511.995 168.532 511.566 168.532C511.118 168.532 510.721 168.649 510.376 168.882C510.03 169.106 509.76 169.428 509.564 169.848C509.368 170.259 509.27 170.725 509.27 171.248C509.27 171.789 509.363 172.27 509.55 172.69C509.736 173.11 509.998 173.437 510.334 173.67C510.679 173.903 511.071 174.02 511.51 174.02ZM519.406 175.126C518.557 175.126 517.88 174.93 517.376 174.538C516.872 174.137 516.62 173.6 516.62 172.928C516.62 172.387 516.77 171.962 517.068 171.654C517.367 171.346 517.736 171.127 518.174 170.996C518.622 170.856 519.154 170.753 519.77 170.688C519.938 170.669 520.055 170.66 520.12 170.66C520.559 170.613 520.881 170.576 521.086 170.548C521.301 170.511 521.478 170.45 521.618 170.366C521.758 170.273 521.828 170.142 521.828 169.974C521.828 169.545 521.665 169.195 521.338 168.924C521.021 168.653 520.601 168.518 520.078 168.518C519.556 168.518 519.112 168.649 518.748 168.91C518.394 169.171 518.188 169.517 518.132 169.946H516.788C516.835 169.451 517.003 169.013 517.292 168.63C517.591 168.238 517.983 167.935 518.468 167.72C518.963 167.505 519.509 167.398 520.106 167.398C520.722 167.398 521.259 167.51 521.716 167.734C522.183 167.958 522.538 168.271 522.78 168.672C523.023 169.073 523.144 169.535 523.144 170.058V173.572C523.144 173.805 523.27 173.922 523.522 173.922H523.928V175H523.228C522.836 175 522.533 174.916 522.318 174.748C522.104 174.58 521.987 174.337 521.968 174.02C521.95 173.927 521.94 173.847 521.94 173.782C521.474 174.678 520.629 175.126 519.406 175.126ZM519.63 174.02C520.274 174.02 520.802 173.843 521.212 173.488C521.623 173.124 521.828 172.657 521.828 172.088V171.094C521.698 171.29 521.483 171.425 521.184 171.5C520.886 171.575 520.452 171.645 519.882 171.71C519.257 171.785 518.781 171.897 518.454 172.046C518.128 172.186 517.964 172.452 517.964 172.844C517.964 173.208 518.114 173.497 518.412 173.712C518.711 173.917 519.117 174.02 519.63 174.02ZM528.105 175C527.349 175 526.775 174.818 526.383 174.454C525.991 174.081 525.795 173.539 525.795 172.83V168.714H524.451V167.58H525.795V165.046H527.139V167.58H529.113V168.714H527.139V172.788C527.139 173.143 527.223 173.413 527.391 173.6C527.568 173.777 527.82 173.866 528.147 173.866H528.973V175H528.105ZM533.578 175.168C532.85 175.168 532.201 175.005 531.632 174.678C531.072 174.351 530.638 173.894 530.33 173.306C530.022 172.718 529.868 172.055 529.868 171.318C529.868 170.506 530.027 169.806 530.344 169.218C530.661 168.621 531.091 168.168 531.632 167.86C532.183 167.552 532.785 167.398 533.438 167.398C534.474 167.398 535.305 167.734 535.93 168.406C536.555 169.078 536.877 170.007 536.896 171.192V171.542H531.212C531.259 172.289 531.492 172.891 531.912 173.348C532.332 173.796 532.887 174.02 533.578 174.02C534.073 174.02 534.488 173.903 534.824 173.67C535.16 173.437 535.403 173.101 535.552 172.662H536.868C536.691 173.437 536.308 174.048 535.72 174.496C535.141 174.944 534.427 175.168 533.578 175.168ZM535.496 170.492C535.393 169.885 535.16 169.409 534.796 169.064C534.441 168.719 533.989 168.546 533.438 168.546C532.887 168.546 532.421 168.719 532.038 169.064C531.655 169.409 531.403 169.885 531.282 170.492H535.496ZM541.364 175.168C540.701 175.168 540.113 175.005 539.6 174.678C539.086 174.342 538.685 173.88 538.396 173.292C538.106 172.695 537.962 172.013 537.962 171.248C537.962 170.501 538.102 169.834 538.382 169.246C538.671 168.658 539.068 168.205 539.572 167.888C540.085 167.561 540.668 167.398 541.322 167.398C541.863 167.398 542.353 167.505 542.792 167.72C543.24 167.935 543.594 168.233 543.856 168.616V164.5H545.2V175H544.136L543.996 173.614C543.753 174.099 543.403 174.482 542.946 174.762C542.488 175.033 541.961 175.168 541.364 175.168ZM541.588 174.02C542.026 174.02 542.418 173.903 542.764 173.67C543.109 173.427 543.375 173.096 543.562 172.676C543.758 172.247 543.856 171.761 543.856 171.22C543.856 170.697 543.762 170.235 543.576 169.834C543.389 169.423 543.128 169.106 542.792 168.882C542.456 168.649 542.073 168.532 541.644 168.532C541.196 168.532 540.799 168.649 540.454 168.882C540.108 169.106 539.838 169.428 539.642 169.848C539.446 170.259 539.348 170.725 539.348 171.248C539.348 171.789 539.441 172.27 539.628 172.69C539.814 173.11 540.076 173.437 540.412 173.67C540.757 173.903 541.149 174.02 541.588 174.02ZM553.526 175.168C552.751 175.168 552.079 174.995 551.51 174.65C550.95 174.305 550.521 173.838 550.222 173.25C549.933 172.653 549.788 171.985 549.788 171.248C549.788 170.445 549.951 169.755 550.278 169.176C550.605 168.597 551.048 168.159 551.608 167.86C552.168 167.552 552.793 167.398 553.484 167.398C554.455 167.398 555.248 167.673 555.864 168.224C556.489 168.765 556.849 169.503 556.942 170.436H555.626C555.533 169.857 555.295 169.4 554.912 169.064C554.529 168.719 554.049 168.546 553.47 168.546C552.77 168.546 552.205 168.789 551.776 169.274C551.356 169.759 551.146 170.417 551.146 171.248C551.146 171.827 551.249 172.326 551.454 172.746C551.669 173.157 551.958 173.474 552.322 173.698C552.686 173.913 553.092 174.02 553.54 174.02C554.1 174.02 554.562 173.852 554.926 173.516C555.29 173.18 555.523 172.709 555.626 172.102H556.942C556.839 173.063 556.485 173.815 555.878 174.356C555.281 174.897 554.497 175.168 553.526 175.168ZM558.411 175V164.5H559.769V168.476C560.03 168.149 560.371 167.888 560.791 167.692C561.22 167.496 561.677 167.398 562.163 167.398C562.965 167.398 563.605 167.641 564.081 168.126C564.566 168.611 564.809 169.265 564.809 170.086V175H563.465V170.142C563.465 169.666 563.315 169.288 563.017 169.008C562.727 168.719 562.34 168.574 561.855 168.574C561.22 168.574 560.716 168.756 560.343 169.12C559.969 169.484 559.778 169.946 559.769 170.506V175H558.411ZM568.967 175.126C568.117 175.126 567.441 174.93 566.937 174.538C566.433 174.137 566.181 173.6 566.181 172.928C566.181 172.387 566.33 171.962 566.629 171.654C566.927 171.346 567.296 171.127 567.735 170.996C568.183 170.856 568.715 170.753 569.331 170.688C569.499 170.669 569.615 170.66 569.681 170.66C570.119 170.613 570.441 170.576 570.647 170.548C570.861 170.511 571.039 170.45 571.179 170.366C571.319 170.273 571.389 170.142 571.389 169.974C571.389 169.545 571.225 169.195 570.899 168.924C570.581 168.653 570.161 168.518 569.639 168.518C569.116 168.518 568.673 168.649 568.309 168.91C567.954 169.171 567.749 169.517 567.693 169.946H566.349C566.395 169.451 566.563 169.013 566.853 168.63C567.151 168.238 567.543 167.935 568.029 167.72C568.523 167.505 569.069 167.398 569.667 167.398C570.283 167.398 570.819 167.51 571.277 167.734C571.743 167.958 572.098 168.271 572.341 168.672C572.583 169.073 572.705 169.535 572.705 170.058V173.572C572.705 173.805 572.831 173.922 573.083 173.922H573.489V175H572.789C572.397 175 572.093 174.916 571.879 174.748C571.664 174.58 571.547 174.337 571.529 174.02C571.51 173.927 571.501 173.847 571.501 173.782C571.034 174.678 570.189 175.126 568.967 175.126ZM569.191 174.02C569.835 174.02 570.362 173.843 570.773 173.488C571.183 173.124 571.389 172.657 571.389 172.088V171.094C571.258 171.29 571.043 171.425 570.745 171.5C570.446 171.575 570.012 171.645 569.443 171.71C568.817 171.785 568.341 171.897 568.015 172.046C567.688 172.186 567.525 172.452 567.525 172.844C567.525 173.208 567.674 173.497 567.973 173.712C568.271 173.917 568.677 174.02 569.191 174.02ZM574.721 175V167.58H575.799L575.953 169.008C576.438 168.019 577.297 167.524 578.529 167.524H578.795V168.84H578.529C577.754 168.84 577.147 169.05 576.709 169.47C576.279 169.881 576.065 170.455 576.065 171.192V175H574.721ZM583.175 175C582.419 175 581.845 174.818 581.453 174.454C581.061 174.081 580.865 173.539 580.865 172.83V168.714H579.521V167.58H580.865V165.046H582.209V167.58H584.183V168.714H582.209V172.788C582.209 173.143 582.293 173.413 582.461 173.6C582.638 173.777 582.89 173.866 583.217 173.866H584.043V175H583.175ZM588.322 175.168C587.38 175.168 586.614 174.949 586.026 174.51C585.448 174.062 585.135 173.441 585.088 172.648H586.404C586.442 173.087 586.638 173.432 586.992 173.684C587.347 173.927 587.79 174.048 588.322 174.048C589.293 174.048 589.778 173.693 589.778 172.984C589.778 172.779 589.727 172.615 589.624 172.494C589.531 172.373 589.41 172.284 589.26 172.228C589.111 172.163 588.868 172.069 588.532 171.948L587.496 171.612C587.002 171.453 586.605 171.299 586.306 171.15C586.008 171.001 585.76 170.795 585.564 170.534C585.368 170.273 585.27 169.932 585.27 169.512C585.27 168.859 585.508 168.345 585.984 167.972C586.46 167.589 587.114 167.398 587.944 167.398C588.794 167.398 589.48 167.617 590.002 168.056C590.534 168.495 590.847 169.125 590.94 169.946H589.652C589.596 169.479 589.414 169.125 589.106 168.882C588.798 168.639 588.402 168.518 587.916 168.518C587.496 168.518 587.165 168.607 586.922 168.784C586.689 168.952 586.572 169.185 586.572 169.484C586.572 169.755 586.666 169.96 586.852 170.1C587.048 170.231 587.254 170.333 587.468 170.408C587.692 170.473 587.837 170.515 587.902 170.534L588.882 170.856C589.396 171.024 589.811 171.197 590.128 171.374C590.446 171.551 590.688 171.775 590.856 172.046C591.024 172.307 591.108 172.639 591.108 173.04C591.108 173.712 590.866 174.235 590.38 174.608C589.904 174.981 589.218 175.168 588.322 175.168Z" fill="#D1DCDF"/>
<path d="M253 146L472 146" stroke="#355159" stroke-dasharray="4 4"/>
<path d="M61 147H116" stroke="#355159" stroke-dasharray="4 4"/>
<rect x="306.5" y="226.5" width="110" height="45" rx="5.5" fill="#01242D"/>
<rect x="306.5" y="226.5" width="110" height="45" rx="5.5" stroke="#183B46"/>
<g clip-path="url(#clip0_271_3558)">
<path opacity="0.4" d="M330 260C336.075 260 341 255.075 341 249C341 242.925 336.075 238 330 238C323.925 238 319 242.925 319 249C319 255.075 323.925 260 330 260Z" stroke="#D1DCDF" stroke-width="2" stroke-miterlimit="10" stroke-linecap="square"/>
<path d="M330 238C332.917 238 335.715 239.159 337.778 241.222C339.841 243.285 341 246.083 341 249" stroke="#D1DCDF" stroke-width="2" stroke-miterlimit="10"/>
</g>
<path d="M358.998 253.168C358.177 253.168 357.444 253.037 356.8 252.776C356.156 252.505 355.647 252.132 355.274 251.656C354.901 251.18 354.695 250.629 354.658 250.004H356.086C356.161 250.601 356.455 251.077 356.968 251.432C357.491 251.777 358.167 251.95 358.998 251.95C359.698 251.95 360.23 251.819 360.594 251.558C360.967 251.287 361.154 250.914 361.154 250.438C361.154 250.018 361.005 249.696 360.706 249.472C360.417 249.248 359.997 249.052 359.446 248.884L357.78 248.366C357.715 248.347 357.411 248.254 356.87 248.086C356.329 247.918 355.876 247.624 355.512 247.204C355.148 246.784 354.966 246.285 354.966 245.706C354.966 245.174 355.101 244.707 355.372 244.306C355.652 243.905 356.049 243.592 356.562 243.368C357.075 243.144 357.673 243.032 358.354 243.032C359.502 243.032 360.417 243.317 361.098 243.886C361.779 244.455 362.153 245.258 362.218 246.294H360.818C360.771 245.65 360.529 245.151 360.09 244.796C359.651 244.432 359.054 244.25 358.298 244.25C357.701 244.25 357.22 244.376 356.856 244.628C356.501 244.871 356.324 245.207 356.324 245.636C356.324 245.944 356.413 246.191 356.59 246.378C356.767 246.565 356.963 246.7 357.178 246.784C357.393 246.868 357.743 246.985 358.228 247.134L359.768 247.61C360.337 247.787 360.809 247.969 361.182 248.156C361.565 248.343 361.887 248.618 362.148 248.982C362.409 249.337 362.54 249.799 362.54 250.368C362.54 251.236 362.223 251.922 361.588 252.426C360.963 252.921 360.099 253.168 358.998 253.168ZM367.362 253.168C366.587 253.168 365.915 252.995 365.346 252.65C364.786 252.305 364.356 251.838 364.058 251.25C363.768 250.653 363.624 249.985 363.624 249.248C363.624 248.445 363.787 247.755 364.114 247.176C364.44 246.597 364.884 246.159 365.444 245.86C366.004 245.552 366.629 245.398 367.32 245.398C368.29 245.398 369.084 245.673 369.7 246.224C370.325 246.765 370.684 247.503 370.778 248.436H369.462C369.368 247.857 369.13 247.4 368.748 247.064C368.365 246.719 367.884 246.546 367.306 246.546C366.606 246.546 366.041 246.789 365.612 247.274C365.192 247.759 364.982 248.417 364.982 249.248C364.982 249.827 365.084 250.326 365.29 250.746C365.504 251.157 365.794 251.474 366.158 251.698C366.522 251.913 366.928 252.02 367.376 252.02C367.936 252.02 368.398 251.852 368.762 251.516C369.126 251.18 369.359 250.709 369.462 250.102H370.778C370.675 251.063 370.32 251.815 369.714 252.356C369.116 252.897 368.332 253.168 367.362 253.168ZM375.537 253.168C374.762 253.168 374.095 253 373.535 252.664C372.984 252.319 372.564 251.847 372.275 251.25C371.985 250.653 371.841 249.976 371.841 249.22C371.841 248.417 371.999 247.731 372.317 247.162C372.643 246.583 373.087 246.145 373.647 245.846C374.207 245.547 374.837 245.398 375.537 245.398C376.311 245.398 376.974 245.566 377.525 245.902C378.085 246.238 378.509 246.695 378.799 247.274C379.088 247.853 379.233 248.501 379.233 249.22C379.233 250.041 379.074 250.751 378.757 251.348C378.439 251.945 378.001 252.398 377.441 252.706C376.89 253.014 376.255 253.168 375.537 253.168ZM375.537 252.02C376.255 252.02 376.82 251.759 377.231 251.236C377.651 250.704 377.861 250.032 377.861 249.22C377.861 248.417 377.646 247.773 377.217 247.288C376.797 246.793 376.237 246.546 375.537 246.546C374.837 246.546 374.272 246.793 373.843 247.288C373.423 247.773 373.213 248.417 373.213 249.22C373.213 249.808 373.315 250.312 373.521 250.732C373.726 251.152 374.001 251.474 374.347 251.698C374.701 251.913 375.098 252.02 375.537 252.02ZM380.668 253V245.58H381.746L381.9 247.008C382.385 246.019 383.244 245.524 384.476 245.524H384.742V246.84H384.476C383.701 246.84 383.094 247.05 382.656 247.47C382.226 247.881 382.012 248.455 382.012 249.192V253H380.668ZM386.658 244.432C386.397 244.432 386.173 244.343 385.986 244.166C385.809 243.979 385.72 243.751 385.72 243.48C385.72 243.219 385.809 242.999 385.986 242.822C386.164 242.645 386.388 242.556 386.658 242.556C386.929 242.556 387.153 242.645 387.33 242.822C387.508 242.99 387.596 243.209 387.596 243.48C387.596 243.751 387.508 243.979 387.33 244.166C387.153 244.343 386.929 244.432 386.658 244.432ZM387.33 253H385.986V245.58H387.33V253ZM389.144 253V245.58H390.222L390.348 246.7C390.591 246.308 390.936 245.995 391.384 245.762C391.842 245.519 392.346 245.398 392.896 245.398C393.69 245.398 394.329 245.641 394.814 246.126C395.3 246.611 395.542 247.265 395.542 248.086V253H394.184V248.142C394.184 247.666 394.035 247.288 393.736 247.008C393.447 246.719 393.041 246.574 392.518 246.574C391.912 246.574 391.422 246.761 391.048 247.134C390.684 247.498 390.498 247.955 390.488 248.506V253H389.144ZM400.555 255.982C399.883 255.982 399.286 255.875 398.763 255.66C398.25 255.455 397.849 255.161 397.559 254.778C397.279 254.395 397.139 253.943 397.139 253.42H398.483C398.493 253.84 398.689 254.185 399.071 254.456C399.454 254.736 399.949 254.876 400.555 254.876C401.255 254.876 401.797 254.685 402.179 254.302C402.562 253.919 402.753 253.415 402.753 252.79V251.656C402.492 252.039 402.151 252.337 401.731 252.552C401.311 252.767 400.826 252.874 400.275 252.874C399.622 252.874 399.039 252.72 398.525 252.412C398.012 252.095 397.611 251.656 397.321 251.096C397.032 250.527 396.887 249.883 396.887 249.164C396.887 248.436 397.032 247.787 397.321 247.218C397.611 246.639 398.012 246.191 398.525 245.874C399.048 245.557 399.631 245.398 400.275 245.398C400.854 245.398 401.372 245.524 401.829 245.776C402.296 246.028 402.651 246.373 402.893 246.812L403.033 245.58H404.083V252.79C404.083 253.425 403.943 253.98 403.663 254.456C403.383 254.941 402.977 255.315 402.445 255.576C401.913 255.847 401.283 255.982 400.555 255.982ZM400.499 251.726C400.938 251.726 401.325 251.619 401.661 251.404C402.007 251.18 402.273 250.872 402.459 250.48C402.655 250.088 402.753 249.64 402.753 249.136C402.753 248.632 402.655 248.184 402.459 247.792C402.273 247.4 402.007 247.097 401.661 246.882C401.325 246.658 400.938 246.546 400.499 246.546C400.07 246.546 399.683 246.658 399.337 246.882C399.001 247.097 398.74 247.405 398.553 247.806C398.367 248.198 398.273 248.646 398.273 249.15C398.273 249.915 398.479 250.536 398.889 251.012C399.3 251.488 399.837 251.726 400.499 251.726Z" fill="#D1DCDF"/>
<path d="M42.0001 129.667H4.66675V171.667H42.0001V129.667Z" stroke="#D1DCDF" stroke-width="2" stroke-miterlimit="10" stroke-linecap="square"/>
<path d="M11.6667 120.333H51.3334V167" stroke="#D1DCDF" stroke-width="2" stroke-miterlimit="10" stroke-linecap="square"/>
<path d="M14 141.333H32.6667" stroke="#D1DCDF" stroke-width="2" stroke-miterlimit="10" stroke-linecap="square"/>
<path d="M14 150.667H32.6667" stroke="#D1DCDF" stroke-width="2" stroke-miterlimit="10" stroke-linecap="square"/>
<path d="M14 160H23.3333" stroke="#D1DCDF" stroke-width="2" stroke-miterlimit="10" stroke-linecap="square"/>
<rect x="116" y="123" width="136" height="48" rx="13" fill="#355159"/>
<path fill-rule="evenodd" clip-rule="evenodd" d="M147.5 143L149 147L153 148.5L149 150L147.5 154L146 150L142 148.5L146 147L147.5 143Z" fill="#D1DCDF"/>
<path d="M143.9 142.1L143 140L142.1 142.1L140 143L142.1 143.9L143 146L143.9 143.9L146 143L143.9 142.1Z" fill="#D1DCDF"/>
<path d="M161.288 152.5L165.864 141.3H167.768L172.36 152.5H170.392L169.256 149.732H164.392L163.272 152.5H161.288ZM165.096 148.052H168.568L166.824 143.78L165.096 148.052ZM173.824 152.5V141.3H175.728V152.5H173.824ZM181.543 152.5V141.3H187.015C187.708 141.3 188.327 141.433 188.871 141.7C189.426 141.967 189.852 142.34 190.151 142.82C190.46 143.3 190.615 143.849 190.615 144.468C190.615 145.151 190.386 145.759 189.927 146.292C189.479 146.815 188.887 147.172 188.151 147.364C188.514 147.428 188.823 147.572 189.079 147.796C189.346 148.02 189.543 148.303 189.671 148.644L191.127 152.5H189.079L187.783 148.964C187.708 148.74 187.58 148.569 187.399 148.452C187.218 148.335 186.999 148.276 186.743 148.276H183.447V152.5H181.543ZM186.919 146.596C187.303 146.596 187.628 146.516 187.895 146.356C188.162 146.185 188.364 145.961 188.503 145.684C188.642 145.396 188.711 145.087 188.711 144.756C188.711 144.244 188.546 143.828 188.215 143.508C187.895 143.188 187.463 143.028 186.919 143.028H183.447V146.596H186.919ZM196.005 152.724C195.162 152.724 194.41 152.537 193.749 152.164C193.087 151.791 192.57 151.268 192.197 150.596C191.834 149.913 191.653 149.145 191.653 148.292C191.653 147.385 191.834 146.591 192.197 145.908C192.57 145.215 193.077 144.687 193.717 144.324C194.357 143.961 195.066 143.78 195.845 143.78C196.645 143.78 197.343 143.956 197.941 144.308C198.549 144.66 199.023 145.172 199.365 145.844C199.717 146.505 199.898 147.289 199.909 148.196V148.644H193.525C193.589 149.401 193.845 150.009 194.293 150.468C194.741 150.916 195.317 151.14 196.021 151.14C196.522 151.14 196.949 151.028 197.301 150.804C197.653 150.569 197.898 150.239 198.037 149.812H199.877C199.663 150.719 199.215 151.433 198.533 151.956C197.85 152.468 197.007 152.724 196.005 152.724ZM197.957 147.316C197.839 146.708 197.594 146.233 197.221 145.892C196.858 145.54 196.399 145.364 195.845 145.364C195.29 145.364 194.815 145.54 194.421 145.892C194.026 146.233 193.759 146.708 193.621 147.316H197.957ZM204.182 152.676C203.201 152.676 202.417 152.452 201.83 152.004C201.243 151.556 200.955 150.937 200.966 150.148C200.966 149.529 201.142 149.044 201.494 148.692C201.846 148.329 202.278 148.073 202.79 147.924C203.313 147.764 203.915 147.641 204.598 147.556C204.683 147.545 204.763 147.54 204.838 147.54C204.923 147.529 205.009 147.519 205.094 147.508C205.51 147.465 205.83 147.417 206.054 147.364C206.289 147.311 206.475 147.231 206.614 147.124C206.763 147.017 206.838 146.873 206.838 146.692C206.838 146.415 206.769 146.175 206.63 145.972C206.491 145.759 206.289 145.599 206.022 145.492C205.755 145.375 205.441 145.316 205.078 145.316C204.523 145.316 204.059 145.455 203.686 145.732C203.323 145.999 203.11 146.356 203.046 146.804H201.158C201.211 146.217 201.414 145.695 201.766 145.236C202.129 144.777 202.598 144.42 203.174 144.164C203.75 143.908 204.395 143.78 205.11 143.78C205.867 143.78 206.513 143.908 207.046 144.164C207.579 144.42 207.985 144.777 208.262 145.236C208.539 145.695 208.678 146.223 208.678 146.82V150.66C208.678 150.788 208.71 150.884 208.774 150.948C208.849 151.012 208.955 151.044 209.094 151.044H209.542V152.5H208.646C208.219 152.5 207.873 152.415 207.606 152.244C207.35 152.073 207.19 151.828 207.126 151.508C207.105 151.465 207.089 151.423 207.078 151.38C207.067 151.327 207.057 151.273 207.046 151.22C206.79 151.689 206.422 152.052 205.942 152.308C205.473 152.553 204.886 152.676 204.182 152.676ZM204.566 151.204C205.227 151.204 205.771 151.033 206.198 150.692C206.625 150.34 206.838 149.881 206.838 149.316V148.132C206.699 148.345 206.475 148.5 206.166 148.596C205.857 148.692 205.425 148.772 204.87 148.836C204.859 148.836 204.849 148.841 204.838 148.852C204.827 148.852 204.811 148.852 204.79 148.852C204.353 148.905 204.001 148.969 203.734 149.044C203.478 149.108 203.265 149.22 203.094 149.38C202.934 149.529 202.854 149.748 202.854 150.036C202.854 150.399 202.998 150.687 203.286 150.9C203.585 151.103 204.011 151.204 204.566 151.204ZM214.292 152.724C213.534 152.724 212.857 152.532 212.26 152.148C211.662 151.764 211.193 151.231 210.852 150.548C210.521 149.865 210.356 149.087 210.356 148.212C210.356 147.348 210.521 146.58 210.852 145.908C211.182 145.236 211.641 144.713 212.228 144.34C212.814 143.967 213.481 143.78 214.228 143.78C214.814 143.78 215.348 143.892 215.828 144.116C216.318 144.34 216.713 144.655 217.012 145.06V140.5H218.9V152.5H217.38L217.204 150.996C216.958 151.529 216.58 151.951 216.068 152.26C215.556 152.569 214.964 152.724 214.292 152.724ZM214.628 151.156C215.097 151.156 215.508 151.033 215.86 150.788C216.222 150.532 216.505 150.18 216.708 149.732C216.91 149.284 217.012 148.772 217.012 148.196C217.012 147.641 216.91 147.151 216.708 146.724C216.516 146.287 216.244 145.951 215.892 145.716C215.54 145.471 215.134 145.348 214.676 145.348C214.206 145.348 213.79 145.471 213.428 145.716C213.076 145.961 212.798 146.303 212.596 146.74C212.393 147.167 212.292 147.663 212.292 148.228C212.292 148.793 212.388 149.3 212.58 149.748C212.782 150.185 213.06 150.532 213.412 150.788C213.764 151.033 214.169 151.156 214.628 151.156ZM224.211 152.724C223.059 152.724 222.152 152.468 221.491 151.956C220.829 151.444 220.472 150.724 220.419 149.796H222.227C222.259 150.244 222.445 150.591 222.787 150.836C223.139 151.071 223.587 151.188 224.131 151.188C224.611 151.188 224.973 151.103 225.219 150.932C225.475 150.751 225.603 150.495 225.603 150.164C225.603 149.972 225.555 149.817 225.459 149.7C225.373 149.583 225.256 149.492 225.107 149.428C224.957 149.364 224.749 149.284 224.483 149.188C224.451 149.177 224.424 149.172 224.403 149.172C224.381 149.161 224.355 149.151 224.323 149.14L223.203 148.772C223.181 148.761 223.16 148.756 223.139 148.756C223.128 148.745 223.112 148.735 223.091 148.724C222.547 148.543 222.099 148.361 221.747 148.18C221.405 147.999 221.123 147.753 220.899 147.444C220.685 147.135 220.579 146.74 220.579 146.26C220.579 145.759 220.701 145.321 220.947 144.948C221.203 144.575 221.571 144.287 222.051 144.084C222.531 143.881 223.101 143.78 223.763 143.78C224.755 143.78 225.56 144.036 226.179 144.548C226.808 145.06 227.176 145.785 227.283 146.724H225.507C225.453 146.255 225.272 145.903 224.963 145.668C224.664 145.433 224.259 145.316 223.747 145.316C223.331 145.316 223.005 145.401 222.771 145.572C222.536 145.732 222.419 145.956 222.419 146.244C222.419 146.511 222.52 146.713 222.723 146.852C222.925 146.98 223.219 147.108 223.603 147.236C223.624 147.247 223.651 147.257 223.683 147.268C223.715 147.268 223.741 147.273 223.763 147.284L224.803 147.636C225.432 147.849 225.933 148.057 226.307 148.26C226.68 148.463 226.968 148.719 227.171 149.028C227.373 149.337 227.475 149.732 227.475 150.212C227.475 150.735 227.347 151.183 227.091 151.556C226.835 151.929 226.461 152.217 225.971 152.42C225.491 152.623 224.904 152.724 224.211 152.724Z" fill="#D1DCDF"/>
<path d="M252.5 154C256.194 154 321.46 154 364.015 154C375.06 154 384 162.954 384 174L384 224" stroke="#355159" stroke-dasharray="4 4"/>
<circle cx="313" cy="148" r="20" fill="#6CE331"/>
<circle cx="313" cy="148" r="21.5" stroke="#55AD28" stroke-opacity="0.25" stroke-width="3"/>
<path d="M305.5 148L310.5 153L320.5 143" stroke="#01242D" stroke-width="2" stroke-miterlimit="10" stroke-linecap="square"/>
<defs>
<clipPath id="clip0_271_3558">
<rect width="24" height="24" fill="white" transform="translate(318 237)"/>
</clipPath>
</defs>
</svg>
