<svg width="297" height="168" viewBox="0 0 297 168" fill="none" xmlns="http://www.w3.org/2000/svg">
<rect opacity="0.5" x="116" y="54" width="63" height="2" rx="1" fill="#183B46"/>
<rect x="116" y="65" width="34" height="2" rx="1" fill="#183B46"/>
<rect x="90" y="144" width="119" height="2" rx="1" fill="#183B46"/>
<rect opacity="0.5" x="90" y="155" width="58" height="2" rx="1" fill="#183B46"/>
<path d="M49 94.5H7V143.5H49V94.5Z" stroke="#183B46" stroke-width="2" stroke-miterlimit="10" stroke-linecap="square"/>
<path d="M21 80.5H63V129.5" stroke="#183B46" stroke-width="2" stroke-miterlimit="10" stroke-linecap="square"/>
<path d="M35 66.5H77V115.5" stroke="#183B46" stroke-width="2" stroke-miterlimit="10" stroke-linecap="square"/>
<rect x="227.5" y="46.5" width="55" height="55" rx="7.5" stroke="#183B46"/>
<g filter="url(#filter0_d_271_3660)">
<rect x="64" y="77" width="173" height="48" rx="13" fill="#77EB3D"/>
<path d="M90 101L94 105L102 97" stroke="#01242D" stroke-width="2" stroke-miterlimit="10" stroke-linecap="square"/>
<path d="M116.288 106.5L120.864 95.3H122.768L127.36 106.5H125.392L124.256 103.732H119.392L118.272 106.5H116.288ZM120.096 102.052H123.568L121.824 97.78L120.096 102.052ZM128.632 109.7V98.02H130.152L130.328 99.428C130.616 98.916 131.022 98.516 131.544 98.228C132.078 97.9293 132.675 97.78 133.336 97.78C134.072 97.78 134.734 97.9667 135.32 98.34C135.907 98.7133 136.36 99.236 136.68 99.908C137 100.58 137.16 101.348 137.16 102.212C137.16 103.087 136.995 103.871 136.664 104.564C136.344 105.247 135.891 105.78 135.304 106.164C134.728 106.537 134.067 106.724 133.32 106.724C132.723 106.724 132.179 106.601 131.688 106.356C131.208 106.111 130.819 105.764 130.52 105.316V109.7H128.632ZM132.904 105.14C133.363 105.14 133.768 105.017 134.12 104.772C134.472 104.527 134.744 104.185 134.936 103.748C135.139 103.3 135.24 102.788 135.24 102.212C135.24 101.657 135.139 101.167 134.936 100.74C134.744 100.303 134.472 99.9667 134.12 99.732C133.768 99.4867 133.363 99.364 132.904 99.364C132.435 99.364 132.019 99.4813 131.656 99.716C131.304 99.9507 131.027 100.281 130.824 100.708C130.622 101.135 130.52 101.62 130.52 102.164C130.52 102.751 130.622 103.268 130.824 103.716C131.027 104.164 131.31 104.516 131.672 104.772C132.035 105.017 132.446 105.14 132.904 105.14ZM138.664 109.7V98.02H140.184L140.36 99.428C140.648 98.916 141.053 98.516 141.576 98.228C142.109 97.9293 142.706 97.78 143.368 97.78C144.104 97.78 144.765 97.9667 145.352 98.34C145.938 98.7133 146.392 99.236 146.712 99.908C147.032 100.58 147.192 101.348 147.192 102.212C147.192 103.087 147.026 103.871 146.696 104.564C146.376 105.247 145.922 105.78 145.336 106.164C144.76 106.537 144.098 106.724 143.352 106.724C142.754 106.724 142.21 106.601 141.72 106.356C141.24 106.111 140.85 105.764 140.552 105.316V109.7H138.664ZM142.936 105.14C143.394 105.14 143.8 105.017 144.152 104.772C144.504 104.527 144.776 104.185 144.968 103.748C145.17 103.3 145.272 102.788 145.272 102.212C145.272 101.657 145.17 101.167 144.968 100.74C144.776 100.303 144.504 99.9667 144.152 99.732C143.8 99.4867 143.394 99.364 142.936 99.364C142.466 99.364 142.05 99.4813 141.688 99.716C141.336 99.9507 141.058 100.281 140.856 100.708C140.653 101.135 140.552 101.62 140.552 102.164C140.552 102.751 140.653 103.268 140.856 103.716C141.058 104.164 141.341 104.516 141.704 104.772C142.066 105.017 142.477 105.14 142.936 105.14ZM148.679 106.5V98.02H150.183L150.423 99.684C150.7 99.108 151.084 98.676 151.575 98.388C152.065 98.0893 152.657 97.94 153.351 97.94H153.687V99.764H153.351C152.476 99.764 151.793 99.988 151.303 100.436C150.812 100.884 150.567 101.508 150.567 102.308V106.5H148.679ZM158.567 106.724C157.671 106.724 156.897 106.532 156.247 106.148C155.596 105.753 155.095 105.215 154.743 104.532C154.401 103.839 154.231 103.055 154.231 102.18C154.231 101.273 154.417 100.489 154.791 99.828C155.175 99.1667 155.692 98.66 156.343 98.308C157.004 97.956 157.745 97.78 158.567 97.78C159.463 97.78 160.236 97.972 160.887 98.356C161.537 98.74 162.039 99.268 162.391 99.94C162.743 100.601 162.919 101.348 162.919 102.18C162.919 103.119 162.732 103.929 162.359 104.612C161.985 105.295 161.468 105.817 160.807 106.18C160.156 106.543 159.409 106.724 158.567 106.724ZM158.567 105.124C159.079 105.124 159.516 105.001 159.879 104.756C160.241 104.5 160.519 104.153 160.711 103.716C160.903 103.268 160.999 102.756 160.999 102.18C160.999 101.337 160.775 100.66 160.327 100.148C159.889 99.636 159.303 99.38 158.567 99.38C158.087 99.38 157.66 99.4973 157.287 99.732C156.924 99.956 156.641 100.281 156.439 100.708C156.247 101.135 156.151 101.625 156.151 102.18C156.151 102.799 156.252 103.327 156.455 103.764C156.668 104.201 156.956 104.537 157.319 104.772C157.681 105.007 158.097 105.124 158.567 105.124ZM166.822 106.5L163.286 98.02H165.334L167.798 104.276L170.278 98.02H172.326L168.79 106.5H166.822ZM177.036 106.724C176.193 106.724 175.441 106.537 174.78 106.164C174.119 105.791 173.601 105.268 173.228 104.596C172.865 103.913 172.684 103.145 172.684 102.292C172.684 101.385 172.865 100.591 173.228 99.908C173.601 99.2147 174.108 98.6867 174.748 98.324C175.388 97.9613 176.097 97.78 176.876 97.78C177.676 97.78 178.375 97.956 178.972 98.308C179.58 98.66 180.055 99.172 180.396 99.844C180.748 100.505 180.929 101.289 180.94 102.196V102.644H174.556C174.62 103.401 174.876 104.009 175.324 104.468C175.772 104.916 176.348 105.14 177.052 105.14C177.553 105.14 177.98 105.028 178.332 104.804C178.684 104.569 178.929 104.239 179.068 103.812H180.908C180.695 104.719 180.247 105.433 179.564 105.956C178.881 106.468 178.039 106.724 177.036 106.724ZM178.988 101.316C178.871 100.708 178.625 100.233 178.252 99.892C177.889 99.54 177.431 99.364 176.876 99.364C176.321 99.364 175.847 99.54 175.452 99.892C175.057 100.233 174.791 100.708 174.652 101.316H178.988ZM185.898 106.5V98.02H187.402L187.578 99.268C187.834 98.82 188.218 98.4627 188.73 98.196C189.242 97.9187 189.807 97.78 190.426 97.78C191.332 97.78 192.058 98.0627 192.602 98.628C193.156 99.1933 193.434 99.9453 193.434 100.884V106.5H191.546V100.98C191.546 100.5 191.396 100.121 191.098 99.844C190.799 99.556 190.383 99.412 189.85 99.412C189.455 99.412 189.098 99.4973 188.778 99.668C188.468 99.8387 188.223 100.073 188.042 100.372C187.871 100.671 187.786 101.001 187.786 101.364V106.5H185.898ZM199.129 106.724C198.233 106.724 197.46 106.532 196.809 106.148C196.159 105.753 195.657 105.215 195.305 104.532C194.964 103.839 194.793 103.055 194.793 102.18C194.793 101.273 194.98 100.489 195.353 99.828C195.737 99.1667 196.255 98.66 196.905 98.308C197.567 97.956 198.308 97.78 199.129 97.78C200.025 97.78 200.799 97.972 201.449 98.356C202.1 98.74 202.601 99.268 202.953 99.94C203.305 100.601 203.481 101.348 203.481 102.18C203.481 103.119 203.295 103.929 202.921 104.612C202.548 105.295 202.031 105.817 201.369 106.18C200.719 106.543 199.972 106.724 199.129 106.724ZM199.129 105.124C199.641 105.124 200.079 105.001 200.441 104.756C200.804 104.5 201.081 104.153 201.273 103.716C201.465 103.268 201.561 102.756 201.561 102.18C201.561 101.337 201.337 100.66 200.889 100.148C200.452 99.636 199.865 99.38 199.129 99.38C198.649 99.38 198.223 99.4973 197.849 99.732C197.487 99.956 197.204 100.281 197.001 100.708C196.809 101.135 196.713 101.625 196.713 102.18C196.713 102.799 196.815 103.327 197.017 103.764C197.231 104.201 197.519 104.537 197.881 104.772C198.244 105.007 198.66 105.124 199.129 105.124ZM206.579 106.5L204.067 98.02H206.003L207.699 104.164L209.395 98.02H210.947L212.643 104.116L214.339 98.02H216.259L213.747 106.5H211.795L210.179 100.708L208.563 106.5H206.579Z" fill="#01242D"/>
</g>
<defs>
<filter id="filter0_d_271_3660" x="4.7" y="0.700001" width="291.6" height="166.6" filterUnits="userSpaceOnUse" color-interpolation-filters="sRGB">
<feFlood flood-opacity="0" result="BackgroundImageFix"/>
<feColorMatrix in="SourceAlpha" type="matrix" values="0 0 0 0 0 0 0 0 0 0 0 0 0 0 0 0 0 0 127 0" result="hardAlpha"/>
<feOffset dy="-17"/>
<feGaussianBlur stdDeviation="29.65"/>
<feComposite in2="hardAlpha" operator="out"/>
<feColorMatrix type="matrix" values="0 0 0 0 0 0 0 0 0 0.0484163 0 0 0 0 0.0608661 0 0 0 0.44 0"/>
<feBlend mode="normal" in2="BackgroundImageFix" result="effect1_dropShadow_271_3660"/>
<feBlend mode="normal" in="SourceGraphic" in2="effect1_dropShadow_271_3660" result="shape"/>
</filter>
</defs>
</svg>
