<svg width="554" height="234" viewBox="0 0 554 234" fill="none" xmlns="http://www.w3.org/2000/svg">
<path d="M377.031 70.5V90.2863H396.817L377.031 70.5Z" fill="#D1DCDF"/>
<path d="M377.031 70.5V90.2863H396.817" stroke="#D1DCDF" stroke-width="1.5" stroke-miterlimit="10"/>
<path d="M377.031 70.5H325V158.5H397V89.9198L377.031 70.5Z" fill="#01242D" stroke="#D1DCDF" stroke-width="1.5" stroke-miterlimit="10" stroke-linecap="square"/>
<path d="M353 117.5H376" stroke="#D1DCDF" stroke-width="1.5" stroke-miterlimit="10" stroke-linecap="square"/>
<path d="M338 117.5L340 119.5L346 113.5" fill="#01242D"/>
<path d="M338 117.5L340 119.5L346 113.5" stroke="#D1DCDF" stroke-width="1.5" stroke-miterlimit="10" stroke-linecap="square"/>
<path d="M353 103.5H376" stroke="#D1DCDF" stroke-width="1.5" stroke-miterlimit="10" stroke-linecap="square"/>
<path d="M338 103.5L340 105.5L346 99.5" fill="#01242D"/>
<path d="M338 103.5L340 105.5L346 99.5" stroke="#D1DCDF" stroke-width="1.5" stroke-miterlimit="10" stroke-linecap="square"/>
<path d="M353 89.5H376" stroke="#D1DCDF" stroke-width="1.5" stroke-miterlimit="10" stroke-linecap="square"/>
<path d="M338 89.5L340 91.5L346 85.5" fill="#01242D"/>
<path d="M338 89.5L340 91.5L346 85.5" stroke="#D1DCDF" stroke-width="1.5" stroke-miterlimit="10" stroke-linecap="square"/>
<path d="M353 130.5H376" stroke="#D1DCDF" stroke-width="1.5" stroke-miterlimit="10" stroke-linecap="square"/>
<path d="M344 127.5H338V133.5H344V127.5Z" fill="#01242D" stroke="#D1DCDF" stroke-width="1.5" stroke-miterlimit="10" stroke-linecap="square"/>
<path d="M353 144.5H376" stroke="#D1DCDF" stroke-width="1.5" stroke-miterlimit="10" stroke-linecap="square"/>
<path d="M344 141.5H338V147.5H344V141.5Z" fill="#01242D" stroke="#D1DCDF" stroke-width="1.5" stroke-miterlimit="10" stroke-linecap="square"/>
<circle cx="397" cy="150.5" r="22" fill="#77EB3D"/>
<path fill-rule="evenodd" clip-rule="evenodd" d="M397.5 141.912L400.125 148.375L406.588 151L400.125 153.625L397.5 160.088L394.875 153.625L388.412 151L394.875 148.375L397.5 141.912Z" fill="#01242D"/>
<path d="M391.856 143.519L390.938 141.375L390.019 143.519L387.875 144.438L390.019 145.356L390.938 147.5L391.856 145.356L394 144.438L391.856 143.519Z" fill="#01242D"/>
<path d="M152.5 24.5H251C262.046 24.5 271 33.4543 271 44.5V90.5C271 101.546 279.954 110.5 291 110.5H324.5" stroke="#355159" stroke-dasharray="4 4"/>
<path d="M155 211H252.5C263.546 211 272.5 202.046 272.5 191V147C272.5 135.954 281.454 127 292.5 127H323.5" stroke="#355159" stroke-dasharray="4 4"/>
<rect x="31.5" y="0.5" width="119" height="45" rx="5.5" fill="#01242D"/>
<rect x="31.5" y="0.5" width="119" height="45" rx="5.5" stroke="#183B46"/>
<path d="M65.25 27.25H59.25" stroke="#D1DCDF" stroke-width="1.5" stroke-linecap="square"/>
<path d="M48.1033 20.1129C43.7524 18.1776 44.8441 12.7288 49.2232 13.2498C53.0125 13.7005 55.382 22.3052 54.7635 29.1158C54.25 34.1233 50.25 34.6233 48.75 31.6233C46.3023 26.2434 54.7791 16.9898 57.9213 18.6358C59.6629 19.5481 58.5295 22.6486 59.8957 22.9486C60.888 23.1671 61.7626 21.1027 62.6749 21.3335C63.5873 21.5643 63.2624 23.0576 64.1701 23.313C64.5747 23.4268 64.99 23.3221 65.25 23.0575" stroke="#D1DCDF" stroke-width="1.5" stroke-linecap="square"/>
<path d="M84.516 27.168C83.5267 27.168 82.668 26.9533 81.94 26.524C81.212 26.0947 80.652 25.4973 80.26 24.732C79.868 23.9573 79.672 23.0707 79.672 22.072C79.672 21.092 79.8633 20.224 80.246 19.468C80.638 18.7027 81.198 18.1053 81.926 17.676C82.6633 17.2467 83.5267 17.032 84.516 17.032C85.776 17.032 86.812 17.3773 87.624 18.068C88.4453 18.7587 88.9633 19.7247 89.178 20.966H87.764C87.596 20.1167 87.2227 19.454 86.644 18.978C86.0747 18.502 85.3653 18.264 84.516 18.264C83.816 18.264 83.2093 18.4227 82.696 18.74C82.1827 19.048 81.786 19.4867 81.506 20.056C81.2353 20.6253 81.1 21.2973 81.1 22.072C81.1 23.276 81.4033 24.2233 82.01 24.914C82.626 25.5953 83.4613 25.936 84.516 25.936C85.3933 25.936 86.1073 25.7027 86.658 25.236C87.218 24.7693 87.5867 24.102 87.764 23.234H89.178C88.9633 24.5033 88.4547 25.4787 87.652 26.16C86.8493 26.832 85.804 27.168 84.516 27.168ZM94.0835 27.168C93.3088 27.168 92.6415 27 92.0815 26.664C91.5308 26.3187 91.1108 25.8473 90.8215 25.25C90.5321 24.6527 90.3875 23.976 90.3875 23.22C90.3875 22.4173 90.5461 21.7313 90.8635 21.162C91.1901 20.5833 91.6335 20.1447 92.1935 19.846C92.7535 19.5473 93.3835 19.398 94.0835 19.398C94.8581 19.398 95.5208 19.566 96.0715 19.902C96.6315 20.238 97.0561 20.6953 97.3455 21.274C97.6348 21.8527 97.7795 22.5013 97.7795 23.22C97.7795 24.0413 97.6208 24.7507 97.3035 25.348C96.9861 25.9453 96.5475 26.398 95.9875 26.706C95.4368 27.014 94.8021 27.168 94.0835 27.168ZM94.0835 26.02C94.8021 26.02 95.3668 25.7587 95.7775 25.236C96.1975 24.704 96.4075 24.032 96.4075 23.22C96.4075 22.4173 96.1928 21.7733 95.7635 21.288C95.3435 20.7933 94.7835 20.546 94.0835 20.546C93.3835 20.546 92.8188 20.7933 92.3895 21.288C91.9695 21.7733 91.7595 22.4173 91.7595 23.22C91.7595 23.808 91.8621 24.312 92.0675 24.732C92.2728 25.152 92.5481 25.474 92.8935 25.698C93.2481 25.9127 93.6448 26.02 94.0835 26.02ZM99.2147 27V19.58H100.293L100.419 20.7C100.661 20.308 101.007 19.9953 101.455 19.762C101.912 19.5193 102.416 19.398 102.967 19.398C103.76 19.398 104.399 19.6407 104.885 20.126C105.37 20.6113 105.613 21.2647 105.613 22.086V27H104.255V22.142C104.255 21.666 104.105 21.288 103.807 21.008C103.517 20.7187 103.111 20.574 102.589 20.574C101.982 20.574 101.492 20.7607 101.119 21.134C100.755 21.498 100.568 21.9553 100.559 22.506V27H99.2147ZM110.308 27C109.552 27 108.978 26.818 108.586 26.454C108.194 26.0807 107.998 25.5393 107.998 24.83V20.714H106.654V19.58H107.998V17.046H109.342V19.58H111.316V20.714H109.342V24.788C109.342 25.1427 109.426 25.4133 109.594 25.6C109.771 25.7773 110.023 25.866 110.35 25.866H111.176V27H110.308ZM112.613 27V19.58H113.691L113.845 21.008C114.33 20.0187 115.189 19.524 116.421 19.524H116.687V20.84H116.421C115.646 20.84 115.04 21.05 114.601 21.47C114.172 21.8807 113.957 22.4547 113.957 23.192V27H112.613ZM120.203 27.126C119.354 27.126 118.677 26.93 118.173 26.538C117.669 26.1367 117.417 25.6 117.417 24.928C117.417 24.3867 117.566 23.962 117.865 23.654C118.164 23.346 118.532 23.1267 118.971 22.996C119.419 22.856 119.951 22.7533 120.567 22.688C120.735 22.6693 120.852 22.66 120.917 22.66C121.356 22.6133 121.678 22.576 121.883 22.548C122.098 22.5107 122.275 22.45 122.415 22.366C122.555 22.2727 122.625 22.142 122.625 21.974C122.625 21.5447 122.462 21.1947 122.135 20.924C121.818 20.6533 121.398 20.518 120.875 20.518C120.352 20.518 119.909 20.6487 119.545 20.91C119.19 21.1713 118.985 21.5167 118.929 21.946H117.585C117.632 21.4513 117.8 21.0127 118.089 20.63C118.388 20.238 118.78 19.9347 119.265 19.72C119.76 19.5053 120.306 19.398 120.903 19.398C121.519 19.398 122.056 19.51 122.513 19.734C122.98 19.958 123.334 20.2707 123.577 20.672C123.82 21.0733 123.941 21.5353 123.941 22.058V25.572C123.941 25.8053 124.067 25.922 124.319 25.922H124.725V27H124.025C123.633 27 123.33 26.916 123.115 26.748C122.9 26.58 122.784 26.3373 122.765 26.02C122.746 25.9267 122.737 25.8473 122.737 25.782C122.27 26.678 121.426 27.126 120.203 27.126ZM120.427 26.02C121.071 26.02 121.598 25.8427 122.009 25.488C122.42 25.124 122.625 24.6573 122.625 24.088V23.094C122.494 23.29 122.28 23.4253 121.981 23.5C121.682 23.5747 121.248 23.6447 120.679 23.71C120.054 23.7847 119.578 23.8967 119.251 24.046C118.924 24.186 118.761 24.452 118.761 24.844C118.761 25.208 118.91 25.4973 119.209 25.712C119.508 25.9173 119.914 26.02 120.427 26.02ZM129.317 27.168C128.542 27.168 127.87 26.9953 127.301 26.65C126.741 26.3047 126.312 25.838 126.013 25.25C125.724 24.6527 125.579 23.9853 125.579 23.248C125.579 22.4453 125.742 21.7547 126.069 21.176C126.396 20.5973 126.839 20.1587 127.399 19.86C127.959 19.552 128.584 19.398 129.275 19.398C130.246 19.398 131.039 19.6733 131.655 20.224C132.28 20.7653 132.64 21.5027 132.733 22.436H131.417C131.324 21.8573 131.086 21.4 130.703 21.064C130.32 20.7187 129.84 20.546 129.261 20.546C128.561 20.546 127.996 20.7887 127.567 21.274C127.147 21.7593 126.937 22.4173 126.937 23.248C126.937 23.8267 127.04 24.326 127.245 24.746C127.46 25.1567 127.749 25.474 128.113 25.698C128.477 25.9127 128.883 26.02 129.331 26.02C129.891 26.02 130.353 25.852 130.717 25.516C131.081 25.18 131.314 24.7087 131.417 24.102H132.733C132.63 25.0633 132.276 25.8147 131.669 26.356C131.072 26.8973 130.288 27.168 129.317 27.168ZM137.105 27C136.349 27 135.775 26.818 135.383 26.454C134.991 26.0807 134.795 25.5393 134.795 24.83V20.714H133.451V19.58H134.795V17.046H136.139V19.58H138.113V20.714H136.139V24.788C136.139 25.1427 136.223 25.4133 136.391 25.6C136.568 25.7773 136.82 25.866 137.147 25.866H137.973V27H137.105Z" fill="#D1DCDF"/>
<path d="M224 118H324" stroke="#355159" stroke-dasharray="4 4"/>
<path d="M398 118H498" stroke="#355159" stroke-dasharray="4 4"/>
<rect x="0.5" y="95.5" width="223" height="45" rx="5.5" fill="#01242D"/>
<rect x="0.5" y="95.5" width="223" height="45" rx="5.5" stroke="#183B46"/>
<path d="M18.25 109.25L21.25 116.25C21.25 117.907 20.25 120.25 17.25 120.25C14.25 120.25 13.25 117.907 13.25 116.25L18.25 109.25ZM18.25 109.25H30.25M30.25 109.25L35.25 116.25C35.25 117.907 34.25 120.25 31.25 120.25C28.25 120.25 27.25 117.907 27.25 116.25L30.25 109.25Z" stroke="#D1DCDF" stroke-width="1.5" stroke-miterlimit="10"/>
<path d="M24.25 109.25V128.25" stroke="#D1DCDF" stroke-width="1.5" stroke-miterlimit="10" stroke-linecap="square"/>
<path d="M17.25 128.25H31.25" stroke="#D1DCDF" stroke-width="1.5" stroke-miterlimit="10" stroke-linecap="square"/>
<path d="M13.25 116.25H21.25" stroke="#D1DCDF" stroke-width="1.5" stroke-miterlimit="10"/>
<path d="M27.25 116.25H35.25" stroke="#D1DCDF" stroke-width="1.5" stroke-miterlimit="10"/>
<path d="M49.12 122V112.2H53.712C54.328 112.2 54.874 112.317 55.35 112.55C55.826 112.774 56.1947 113.096 56.456 113.516C56.7173 113.927 56.848 114.398 56.848 114.93C56.848 115.518 56.6613 116.041 56.288 116.498C55.9147 116.946 55.42 117.263 54.804 117.45C55.3827 117.59 55.77 117.931 55.966 118.472L57.296 122H55.84L54.622 118.71C54.4633 118.29 54.1507 118.08 53.684 118.08H50.492V122H49.12ZM53.712 116.876C54.2627 116.876 54.692 116.708 55 116.372C55.3173 116.027 55.476 115.602 55.476 115.098C55.476 114.575 55.3127 114.169 54.986 113.88C54.6593 113.591 54.2347 113.446 53.712 113.446H50.492V116.876H53.712ZM61.6756 122.168C60.9476 122.168 60.2989 122.005 59.7296 121.678C59.1696 121.351 58.7356 120.894 58.4276 120.306C58.1196 119.718 57.9656 119.055 57.9656 118.318C57.9656 117.506 58.1243 116.806 58.4416 116.218C58.7589 115.621 59.1883 115.168 59.7296 114.86C60.2803 114.552 60.8823 114.398 61.5356 114.398C62.5716 114.398 63.4023 114.734 64.0276 115.406C64.6529 116.078 64.9749 117.007 64.9936 118.192V118.542H59.3096C59.3563 119.289 59.5896 119.891 60.0096 120.348C60.4296 120.796 60.9849 121.02 61.6756 121.02C62.1703 121.02 62.5856 120.903 62.9216 120.67C63.2576 120.437 63.5003 120.101 63.6496 119.662H64.9656C64.7883 120.437 64.4056 121.048 63.8176 121.496C63.2389 121.944 62.5249 122.168 61.6756 122.168ZM63.5936 117.492C63.4909 116.885 63.2576 116.409 62.8936 116.064C62.5389 115.719 62.0863 115.546 61.5356 115.546C60.9849 115.546 60.5183 115.719 60.1356 116.064C59.7529 116.409 59.5009 116.885 59.3796 117.492H63.5936ZM69.7273 124.982C69.0553 124.982 68.458 124.875 67.9353 124.66C67.422 124.455 67.0207 124.161 66.7313 123.778C66.4513 123.395 66.3113 122.943 66.3113 122.42H67.6553C67.6647 122.84 67.8607 123.185 68.2433 123.456C68.626 123.736 69.1207 123.876 69.7273 123.876C70.4273 123.876 70.9687 123.685 71.3513 123.302C71.734 122.919 71.9253 122.415 71.9253 121.79V120.656C71.664 121.039 71.3233 121.337 70.9033 121.552C70.4833 121.767 69.998 121.874 69.4473 121.874C68.794 121.874 68.2107 121.72 67.6973 121.412C67.184 121.095 66.7827 120.656 66.4933 120.096C66.204 119.527 66.0593 118.883 66.0593 118.164C66.0593 117.436 66.204 116.787 66.4933 116.218C66.7827 115.639 67.184 115.191 67.6973 114.874C68.22 114.557 68.8033 114.398 69.4473 114.398C70.026 114.398 70.544 114.524 71.0013 114.776C71.468 115.028 71.8227 115.373 72.0653 115.812L72.2053 114.58H73.2553V121.79C73.2553 122.425 73.1153 122.98 72.8353 123.456C72.5553 123.941 72.1493 124.315 71.6173 124.576C71.0853 124.847 70.4553 124.982 69.7273 124.982ZM69.6713 120.726C70.11 120.726 70.4973 120.619 70.8333 120.404C71.1787 120.18 71.4447 119.872 71.6313 119.48C71.8273 119.088 71.9253 118.64 71.9253 118.136C71.9253 117.632 71.8273 117.184 71.6313 116.792C71.4447 116.4 71.1787 116.097 70.8333 115.882C70.4973 115.658 70.11 115.546 69.6713 115.546C69.242 115.546 68.8547 115.658 68.5093 115.882C68.1733 116.097 67.912 116.405 67.7253 116.806C67.5387 117.198 67.4453 117.646 67.4453 118.15C67.4453 118.915 67.6507 119.536 68.0613 120.012C68.472 120.488 69.0087 120.726 69.6713 120.726ZM77.766 122.168C76.8886 122.168 76.198 121.925 75.694 121.44C75.19 120.945 74.938 120.306 74.938 119.522V114.58H76.296V119.466C76.296 119.951 76.4453 120.329 76.744 120.6C77.052 120.861 77.458 120.992 77.962 120.992C78.5873 120.992 79.0773 120.81 79.432 120.446C79.796 120.082 79.9826 119.625 79.992 119.074V114.58H81.336V122H80.258L80.146 120.894C79.922 121.305 79.6 121.622 79.18 121.846C78.76 122.061 78.2886 122.168 77.766 122.168ZM84.544 122H83.186V111.5H84.544V122ZM88.8203 122.126C87.9709 122.126 87.2943 121.93 86.7903 121.538C86.2863 121.137 86.0343 120.6 86.0343 119.928C86.0343 119.387 86.1836 118.962 86.4823 118.654C86.7809 118.346 87.1496 118.127 87.5883 117.996C88.0363 117.856 88.5683 117.753 89.1843 117.688C89.3523 117.669 89.4689 117.66 89.5343 117.66C89.9729 117.613 90.2949 117.576 90.5003 117.548C90.7149 117.511 90.8923 117.45 91.0323 117.366C91.1723 117.273 91.2423 117.142 91.2423 116.974C91.2423 116.545 91.0789 116.195 90.7523 115.924C90.4349 115.653 90.0149 115.518 89.4923 115.518C88.9696 115.518 88.5263 115.649 88.1623 115.91C87.8076 116.171 87.6023 116.517 87.5463 116.946H86.2023C86.2489 116.451 86.4169 116.013 86.7063 115.63C87.0049 115.238 87.3969 114.935 87.8823 114.72C88.3769 114.505 88.9229 114.398 89.5203 114.398C90.1363 114.398 90.6729 114.51 91.1303 114.734C91.5969 114.958 91.9516 115.271 92.1943 115.672C92.4369 116.073 92.5583 116.535 92.5583 117.058V120.572C92.5583 120.805 92.6843 120.922 92.9363 120.922H93.3423V122H92.6423C92.2503 122 91.9469 121.916 91.7323 121.748C91.5176 121.58 91.4009 121.337 91.3823 121.02C91.3636 120.927 91.3543 120.847 91.3543 120.782C90.8876 121.678 90.0429 122.126 88.8203 122.126ZM89.0443 121.02C89.6883 121.02 90.2156 120.843 90.6263 120.488C91.0369 120.124 91.2423 119.657 91.2423 119.088V118.094C91.1116 118.29 90.8969 118.425 90.5983 118.5C90.2996 118.575 89.8656 118.645 89.2963 118.71C88.6709 118.785 88.1949 118.897 87.8683 119.046C87.5416 119.186 87.3783 119.452 87.3783 119.844C87.3783 120.208 87.5276 120.497 87.8263 120.712C88.1249 120.917 88.5309 121.02 89.0443 121.02ZM97.5187 122C96.7627 122 96.1887 121.818 95.7967 121.454C95.4047 121.081 95.2087 120.539 95.2087 119.83V115.714H93.8647V114.58H95.2087V112.046H96.5527V114.58H98.5267V115.714H96.5527V119.788C96.5527 120.143 96.6367 120.413 96.8047 120.6C96.982 120.777 97.234 120.866 97.5607 120.866H98.3867V122H97.5187ZM102.978 122.168C102.203 122.168 101.536 122 100.976 121.664C100.425 121.319 100.005 120.847 99.716 120.25C99.4267 119.653 99.282 118.976 99.282 118.22C99.282 117.417 99.4407 116.731 99.758 116.162C100.085 115.583 100.528 115.145 101.088 114.846C101.648 114.547 102.278 114.398 102.978 114.398C103.753 114.398 104.415 114.566 104.966 114.902C105.526 115.238 105.951 115.695 106.24 116.274C106.529 116.853 106.674 117.501 106.674 118.22C106.674 119.041 106.515 119.751 106.198 120.348C105.881 120.945 105.442 121.398 104.882 121.706C104.331 122.014 103.697 122.168 102.978 122.168ZM102.978 121.02C103.697 121.02 104.261 120.759 104.672 120.236C105.092 119.704 105.302 119.032 105.302 118.22C105.302 117.417 105.087 116.773 104.658 116.288C104.238 115.793 103.678 115.546 102.978 115.546C102.278 115.546 101.713 115.793 101.284 116.288C100.864 116.773 100.654 117.417 100.654 118.22C100.654 118.808 100.757 119.312 100.962 119.732C101.167 120.152 101.443 120.474 101.788 120.698C102.143 120.913 102.539 121.02 102.978 121.02ZM108.109 122V114.58H109.187L109.341 116.008C109.827 115.019 110.685 114.524 111.917 114.524H112.183V115.84H111.917C111.143 115.84 110.536 116.05 110.097 116.47C109.668 116.881 109.453 117.455 109.453 118.192V122H108.109ZM113.408 124.8V123.666H114.654C115 123.666 115.261 123.605 115.438 123.484C115.625 123.372 115.76 123.204 115.844 122.98L116.208 122H115.914L112.974 114.58H114.43L116.726 120.6L118.966 114.58H120.352L117.048 123.456C116.88 123.904 116.6 124.24 116.208 124.464C115.826 124.688 115.308 124.8 114.654 124.8H113.408ZM124.598 122V114.58H125.676L125.83 116.008C126.315 115.019 127.174 114.524 128.406 114.524H128.672V115.84H128.406C127.631 115.84 127.024 116.05 126.586 116.47C126.156 116.881 125.942 117.455 125.942 118.192V122H124.598ZM132.947 122.168C132.219 122.168 131.57 122.005 131.001 121.678C130.441 121.351 130.007 120.894 129.699 120.306C129.391 119.718 129.237 119.055 129.237 118.318C129.237 117.506 129.396 116.806 129.713 116.218C130.03 115.621 130.46 115.168 131.001 114.86C131.552 114.552 132.154 114.398 132.807 114.398C133.843 114.398 134.674 114.734 135.299 115.406C135.924 116.078 136.246 117.007 136.265 118.192V118.542H130.581C130.628 119.289 130.861 119.891 131.281 120.348C131.701 120.796 132.256 121.02 132.947 121.02C133.442 121.02 133.857 120.903 134.193 120.67C134.529 120.437 134.772 120.101 134.921 119.662H136.237C136.06 120.437 135.677 121.048 135.089 121.496C134.51 121.944 133.796 122.168 132.947 122.168ZM134.865 117.492C134.762 116.885 134.529 116.409 134.165 116.064C133.81 115.719 133.358 115.546 132.807 115.546C132.256 115.546 131.79 115.719 131.407 116.064C131.024 116.409 130.772 116.885 130.651 117.492H134.865ZM143.225 120.852C142.973 121.263 142.627 121.585 142.189 121.818C141.759 122.051 141.274 122.168 140.733 122.168C140.07 122.168 139.482 122.005 138.969 121.678C138.455 121.342 138.054 120.88 137.765 120.292C137.475 119.695 137.331 119.013 137.331 118.248C137.331 117.501 137.471 116.834 137.751 116.246C138.04 115.658 138.437 115.205 138.941 114.888C139.454 114.561 140.037 114.398 140.691 114.398C141.288 114.398 141.82 114.524 142.287 114.776C142.763 115.028 143.122 115.378 143.365 115.826L143.505 114.58H144.569V124.8H143.225V120.852ZM140.957 121.02C141.395 121.02 141.787 120.903 142.133 120.67C142.478 120.427 142.744 120.096 142.931 119.676C143.127 119.247 143.225 118.761 143.225 118.22C143.225 117.697 143.131 117.235 142.945 116.834C142.758 116.423 142.497 116.106 142.161 115.882C141.825 115.649 141.442 115.532 141.013 115.532C140.565 115.532 140.168 115.649 139.823 115.882C139.477 116.106 139.207 116.428 139.011 116.848C138.815 117.259 138.717 117.725 138.717 118.248C138.717 118.789 138.81 119.27 138.997 119.69C139.183 120.11 139.445 120.437 139.781 120.67C140.126 120.903 140.518 121.02 140.957 121.02ZM149.106 122.168C148.228 122.168 147.538 121.925 147.034 121.44C146.53 120.945 146.278 120.306 146.278 119.522V114.58H147.636V119.466C147.636 119.951 147.785 120.329 148.084 120.6C148.392 120.861 148.798 120.992 149.302 120.992C149.927 120.992 150.417 120.81 150.772 120.446C151.136 120.082 151.322 119.625 151.332 119.074V114.58H152.676V122H151.598L151.486 120.894C151.262 121.305 150.94 121.622 150.52 121.846C150.1 122.061 149.628 122.168 149.106 122.168ZM155.17 113.432C154.909 113.432 154.685 113.343 154.498 113.166C154.321 112.979 154.232 112.751 154.232 112.48C154.232 112.219 154.321 111.999 154.498 111.822C154.675 111.645 154.899 111.556 155.17 111.556C155.441 111.556 155.665 111.645 155.842 111.822C156.019 111.99 156.108 112.209 156.108 112.48C156.108 112.751 156.019 112.979 155.842 113.166C155.665 113.343 155.441 113.432 155.17 113.432ZM155.842 122H154.498V114.58H155.842V122ZM157.656 122V114.58H158.734L158.888 116.008C159.373 115.019 160.232 114.524 161.464 114.524H161.73V115.84H161.464C160.689 115.84 160.083 116.05 159.644 116.47C159.215 116.881 159 117.455 159 118.192V122H157.656ZM166.006 122.168C165.278 122.168 164.629 122.005 164.06 121.678C163.5 121.351 163.066 120.894 162.758 120.306C162.45 119.718 162.296 119.055 162.296 118.318C162.296 117.506 162.454 116.806 162.772 116.218C163.089 115.621 163.518 115.168 164.06 114.86C164.61 114.552 165.212 114.398 165.866 114.398C166.902 114.398 167.732 114.734 168.358 115.406C168.983 116.078 169.305 117.007 169.324 118.192V118.542H163.64C163.686 119.289 163.92 119.891 164.34 120.348C164.76 120.796 165.315 121.02 166.006 121.02C166.5 121.02 166.916 120.903 167.252 120.67C167.588 120.437 167.83 120.101 167.98 119.662H169.296C169.118 120.437 168.736 121.048 168.148 121.496C167.569 121.944 166.855 122.168 166.006 122.168ZM167.924 117.492C167.821 116.885 167.588 116.409 167.224 116.064C166.869 115.719 166.416 115.546 165.866 115.546C165.315 115.546 164.848 115.719 164.466 116.064C164.083 116.409 163.831 116.885 163.71 117.492H167.924ZM170.767 122V114.58H171.845L171.957 115.686C172.209 115.294 172.555 114.981 172.993 114.748C173.441 114.515 173.936 114.398 174.477 114.398C175.019 114.398 175.49 114.524 175.891 114.776C176.293 115.028 176.591 115.378 176.787 115.826C177.011 115.406 177.357 115.065 177.823 114.804C178.299 114.533 178.817 114.398 179.377 114.398C180.152 114.398 180.773 114.645 181.239 115.14C181.715 115.625 181.953 116.26 181.953 117.044V122H180.595V117.1C180.595 116.633 180.46 116.265 180.189 115.994C179.919 115.714 179.555 115.574 179.097 115.574C178.472 115.574 177.973 115.756 177.599 116.12C177.226 116.484 177.035 116.941 177.025 117.492V122H175.695V117.1C175.695 116.633 175.56 116.265 175.289 115.994C175.019 115.714 174.655 115.574 174.197 115.574C173.563 115.574 173.059 115.756 172.685 116.12C172.312 116.484 172.121 116.941 172.111 117.492V122H170.767ZM187.006 122.168C186.278 122.168 185.629 122.005 185.06 121.678C184.5 121.351 184.066 120.894 183.758 120.306C183.45 119.718 183.296 119.055 183.296 118.318C183.296 117.506 183.454 116.806 183.772 116.218C184.089 115.621 184.518 115.168 185.06 114.86C185.61 114.552 186.212 114.398 186.866 114.398C187.902 114.398 188.732 114.734 189.358 115.406C189.983 116.078 190.305 117.007 190.324 118.192V118.542H184.64C184.686 119.289 184.92 119.891 185.34 120.348C185.76 120.796 186.315 121.02 187.006 121.02C187.5 121.02 187.916 120.903 188.252 120.67C188.588 120.437 188.83 120.101 188.98 119.662H190.296C190.118 120.437 189.736 121.048 189.148 121.496C188.569 121.944 187.855 122.168 187.006 122.168ZM188.924 117.492C188.821 116.885 188.588 116.409 188.224 116.064C187.869 115.719 187.416 115.546 186.866 115.546C186.315 115.546 185.848 115.719 185.466 116.064C185.083 116.409 184.831 116.885 184.71 117.492H188.924ZM191.767 122V114.58H192.845L192.971 115.7C193.214 115.308 193.559 114.995 194.007 114.762C194.465 114.519 194.969 114.398 195.519 114.398C196.313 114.398 196.952 114.641 197.437 115.126C197.923 115.611 198.165 116.265 198.165 117.086V122H196.807V117.142C196.807 116.666 196.658 116.288 196.359 116.008C196.07 115.719 195.664 115.574 195.141 115.574C194.535 115.574 194.045 115.761 193.671 116.134C193.307 116.498 193.121 116.955 193.111 117.506V122H191.767ZM202.86 122C202.104 122 201.53 121.818 201.138 121.454C200.746 121.081 200.55 120.539 200.55 119.83V115.714H199.206V114.58H200.55V112.046H201.894V114.58H203.868V115.714H201.894V119.788C201.894 120.143 201.978 120.413 202.146 120.6C202.324 120.777 202.576 120.866 202.902 120.866H203.728V122H202.86ZM208.008 122.168C207.065 122.168 206.3 121.949 205.712 121.51C205.133 121.062 204.821 120.441 204.774 119.648H206.09C206.127 120.087 206.323 120.432 206.678 120.684C207.033 120.927 207.476 121.048 208.008 121.048C208.979 121.048 209.464 120.693 209.464 119.984C209.464 119.779 209.413 119.615 209.31 119.494C209.217 119.373 209.095 119.284 208.946 119.228C208.797 119.163 208.554 119.069 208.218 118.948L207.182 118.612C206.687 118.453 206.291 118.299 205.992 118.15C205.693 118.001 205.446 117.795 205.25 117.534C205.054 117.273 204.956 116.932 204.956 116.512C204.956 115.859 205.194 115.345 205.67 114.972C206.146 114.589 206.799 114.398 207.63 114.398C208.479 114.398 209.165 114.617 209.688 115.056C210.22 115.495 210.533 116.125 210.626 116.946H209.338C209.282 116.479 209.1 116.125 208.792 115.882C208.484 115.639 208.087 115.518 207.602 115.518C207.182 115.518 206.851 115.607 206.608 115.784C206.375 115.952 206.258 116.185 206.258 116.484C206.258 116.755 206.351 116.96 206.538 117.1C206.734 117.231 206.939 117.333 207.154 117.408C207.378 117.473 207.523 117.515 207.588 117.534L208.568 117.856C209.081 118.024 209.497 118.197 209.814 118.374C210.131 118.551 210.374 118.775 210.542 119.046C210.71 119.307 210.794 119.639 210.794 120.04C210.794 120.712 210.551 121.235 210.066 121.608C209.59 121.981 208.904 122.168 208.008 122.168Z" fill="#D1DCDF"/>
<rect x="70.5" y="188.5" width="83" height="45" rx="5.5" fill="#01242D"/>
<rect x="70.5" y="188.5" width="83" height="45" rx="5.5" stroke="#183B46"/>
<path d="M88.25 220.25L100.25 202.25" stroke="#D1DCDF" stroke-width="1.5" stroke-miterlimit="10" stroke-linecap="square"/>
<path d="M88.75 208.25C90.683 208.25 92.25 206.683 92.25 204.75C92.25 202.817 90.683 201.25 88.75 201.25C86.817 201.25 85.25 202.817 85.25 204.75C85.25 206.683 86.817 208.25 88.75 208.25Z" stroke="#D1DCDF" stroke-width="1.5" stroke-miterlimit="10" stroke-linecap="square"/>
<path d="M99.75 221.25C101.683 221.25 103.25 219.683 103.25 217.75C103.25 215.817 101.683 214.25 99.75 214.25C97.817 214.25 96.25 215.817 96.25 217.75C96.25 219.683 97.817 221.25 99.75 221.25Z" stroke="#D1DCDF" stroke-width="1.5" stroke-miterlimit="10" stroke-linecap="square"/>
<path d="M123.166 215H121.808V206.446H118.462V205.2H126.512V206.446H123.166V215ZM128.92 215.126C128.071 215.126 127.394 214.93 126.89 214.538C126.386 214.137 126.134 213.6 126.134 212.928C126.134 212.387 126.283 211.962 126.582 211.654C126.881 211.346 127.249 211.127 127.688 210.996C128.136 210.856 128.668 210.753 129.284 210.688C129.452 210.669 129.569 210.66 129.634 210.66C130.073 210.613 130.395 210.576 130.6 210.548C130.815 210.511 130.992 210.45 131.132 210.366C131.272 210.273 131.342 210.142 131.342 209.974C131.342 209.545 131.179 209.195 130.852 208.924C130.535 208.653 130.115 208.518 129.592 208.518C129.069 208.518 128.626 208.649 128.262 208.91C127.907 209.171 127.702 209.517 127.646 209.946H126.302C126.349 209.451 126.517 209.013 126.806 208.63C127.105 208.238 127.497 207.935 127.982 207.72C128.477 207.505 129.023 207.398 129.62 207.398C130.236 207.398 130.773 207.51 131.23 207.734C131.697 207.958 132.051 208.271 132.294 208.672C132.537 209.073 132.658 209.535 132.658 210.058V213.572C132.658 213.805 132.784 213.922 133.036 213.922H133.442V215H132.742C132.35 215 132.047 214.916 131.832 214.748C131.617 214.58 131.501 214.337 131.482 214.02C131.463 213.927 131.454 213.847 131.454 213.782C130.987 214.678 130.143 215.126 128.92 215.126ZM129.144 214.02C129.788 214.02 130.315 213.843 130.726 213.488C131.137 213.124 131.342 212.657 131.342 212.088V211.094C131.211 211.29 130.997 211.425 130.698 211.5C130.399 211.575 129.965 211.645 129.396 211.71C128.771 211.785 128.295 211.897 127.968 212.046C127.641 212.186 127.478 212.452 127.478 212.844C127.478 213.208 127.627 213.497 127.926 213.712C128.225 213.917 128.631 214.02 129.144 214.02ZM135.748 215H134.236L136.91 211.304L134.264 207.58H135.776L137.68 210.296L139.57 207.58H141.068L138.422 211.304L141.11 215H139.584L137.68 212.256L135.748 215Z" fill="#D1DCDF"/>
<rect x="498" y="89.5" width="56" height="56" rx="8" fill="#355159"/>
<path d="M518 118.5L523.333 123.834L534 113.167" stroke="#D1DCDF" stroke-width="2" stroke-miterlimit="10" stroke-linecap="square"/>
</svg>
