<svg width="322" height="230" viewBox="0 0 322 230" fill="none" xmlns="http://www.w3.org/2000/svg">
<rect x="0.5" y="0.5" width="213" height="87" rx="3.5" stroke="#77EB3D"/>
<path d="M23.2917 18.625H65.2917V67.625L58.2917 62.9583L51.2917 67.625L44.2917 62.9583L37.2917 67.625L30.2917 62.9583L23.2917 67.625V18.625Z" stroke="#D1DCDF" stroke-width="1.75" stroke-miterlimit="10" stroke-linecap="square"/>
<path d="M32.625 32.625H44.2917" stroke="#D1DCDF" stroke-width="1.75" stroke-miterlimit="10" stroke-linecap="square"/>
<path d="M53.625 32.625H55.9583" stroke="#D1DCDF" stroke-width="1.75" stroke-miterlimit="10" stroke-linecap="square"/>
<path d="M32.625 41.958H44.2917" stroke="#D1DCDF" stroke-width="1.75" stroke-miterlimit="10" stroke-linecap="square"/>
<path d="M53.625 41.958H55.9583" stroke="#D1DCDF" stroke-width="1.75" stroke-miterlimit="10" stroke-linecap="square"/>
<path d="M32.625 51.292H44.2917" stroke="#D1DCDF" stroke-width="1.75" stroke-miterlimit="10" stroke-linecap="square"/>
<path d="M53.625 51.292H55.9583" stroke="#D1DCDF" stroke-width="1.75" stroke-miterlimit="10" stroke-linecap="square"/>
<path d="M109.625 34.375H104.375V53.625H109.625V34.375Z" stroke="#D1DCDF" stroke-width="1.75" stroke-miterlimit="10" stroke-linecap="square"/>
<path d="M98.25 46.625H93V53.625H98.25V46.625Z" stroke="#D1DCDF" stroke-width="1.75" stroke-miterlimit="10" stroke-linecap="square"/>
<path d="M121 42.25H115.75V53.625H121V42.25Z" stroke="#D1DCDF" stroke-width="1.75" stroke-miterlimit="10" stroke-linecap="square"/>
<path d="M128 18.625H86V69.375H128V18.625Z" stroke="#D1DCDF" stroke-width="1.75" stroke-miterlimit="10" stroke-linecap="square"/>
<path d="M191 18.625H149V69.375H191V18.625Z" stroke="#D1DCDF" stroke-width="1.75" stroke-miterlimit="10" stroke-linecap="square"/>
<path d="M174.375 30.875H182.25" stroke="#D1DCDF" stroke-width="1.75" stroke-miterlimit="10" stroke-linecap="square"/>
<path d="M174.375 39.625H182.25" stroke="#D1DCDF" stroke-width="1.75" stroke-miterlimit="10" stroke-linecap="square"/>
<path d="M157.75 48.375H182.25" stroke="#D1DCDF" stroke-width="1.75" stroke-miterlimit="10" stroke-linecap="square"/>
<path d="M157.75 57.125H182.25" stroke="#D1DCDF" stroke-width="1.75" stroke-miterlimit="10" stroke-linecap="square"/>
<path d="M168.25 30H157.75V40.5H168.25V30Z" stroke="#D1DCDF" stroke-width="1.75" stroke-miterlimit="10" stroke-linecap="square"/>
<path d="M239.019 13V1.8H241.371L244.875 10.712L248.379 1.8H250.747V13H248.827V5.112L245.707 13H244.043L240.923 5.128V13H239.019ZM255.673 13.176C254.692 13.176 253.908 12.952 253.321 12.504C252.735 12.056 252.447 11.4373 252.457 10.648C252.457 10.0293 252.633 9.544 252.985 9.192C253.337 8.82933 253.769 8.57333 254.281 8.424C254.804 8.264 255.407 8.14133 256.089 8.056C256.175 8.04533 256.255 8.04 256.329 8.04C256.415 8.02933 256.5 8.01867 256.585 8.008C257.001 7.96533 257.321 7.91733 257.545 7.864C257.78 7.81067 257.967 7.73067 258.105 7.624C258.255 7.51733 258.329 7.37333 258.329 7.192C258.329 6.91467 258.26 6.67467 258.121 6.472C257.983 6.25867 257.78 6.09867 257.513 5.992C257.247 5.87467 256.932 5.816 256.569 5.816C256.015 5.816 255.551 5.95467 255.177 6.232C254.815 6.49867 254.601 6.856 254.537 7.304H252.649C252.703 6.71733 252.905 6.19467 253.257 5.736C253.62 5.27733 254.089 4.92 254.665 4.664C255.241 4.408 255.887 4.28 256.601 4.28C257.359 4.28 258.004 4.408 258.537 4.664C259.071 4.92 259.476 5.27733 259.753 5.736C260.031 6.19467 260.169 6.72267 260.169 7.32V11.16C260.169 11.288 260.201 11.384 260.265 11.448C260.34 11.512 260.447 11.544 260.585 11.544H261.033V13H260.137C259.711 13 259.364 12.9147 259.097 12.744C258.841 12.5733 258.681 12.328 258.617 12.008C258.596 11.9653 258.58 11.9227 258.569 11.88C258.559 11.8267 258.548 11.7733 258.537 11.72C258.281 12.1893 257.913 12.552 257.433 12.808C256.964 13.0533 256.377 13.176 255.673 13.176ZM256.057 11.704C256.719 11.704 257.263 11.5333 257.689 11.192C258.116 10.84 258.329 10.3813 258.329 9.816V8.632C258.191 8.84533 257.967 9 257.657 9.096C257.348 9.192 256.916 9.272 256.361 9.336C256.351 9.336 256.34 9.34133 256.329 9.352C256.319 9.352 256.303 9.352 256.281 9.352C255.844 9.40533 255.492 9.46933 255.225 9.544C254.969 9.608 254.756 9.72 254.585 9.88C254.425 10.0293 254.345 10.248 254.345 10.536C254.345 10.8987 254.489 11.1867 254.777 11.4C255.076 11.6027 255.503 11.704 256.057 11.704ZM265.821 13C264.904 13 264.205 12.7813 263.725 12.344C263.245 11.9067 263.005 11.2667 263.005 10.424V6.12H261.517V4.52H263.005V1.624H264.893V4.52H267.069V6.12H264.893V10.28C264.893 10.6533 264.984 10.936 265.165 11.128C265.346 11.3093 265.608 11.4 265.949 11.4H266.909V13H265.821ZM272.215 13.224C271.33 13.224 270.551 13.032 269.879 12.648C269.218 12.2533 268.711 11.7147 268.359 11.032C268.018 10.3387 267.847 9.56533 267.847 8.712C267.847 7.79467 268.034 7.00533 268.407 6.344C268.791 5.672 269.309 5.16 269.959 4.808C270.621 4.456 271.362 4.28 272.183 4.28C272.941 4.28 273.613 4.424 274.199 4.712C274.797 5 275.271 5.41067 275.623 5.944C275.975 6.47733 276.173 7.096 276.215 7.8H274.375C274.29 7.21333 274.05 6.74933 273.655 6.408C273.261 6.056 272.765 5.88 272.167 5.88C271.687 5.88 271.266 5.99733 270.903 6.232C270.541 6.456 270.258 6.78133 270.055 7.208C269.853 7.624 269.751 8.12533 269.751 8.712C269.751 9.30933 269.858 9.832 270.071 10.28C270.285 10.7173 270.578 11.0533 270.951 11.288C271.335 11.512 271.762 11.624 272.231 11.624C272.807 11.624 273.282 11.4533 273.655 11.112C274.039 10.76 274.279 10.28 274.375 9.672H276.215C276.151 10.3973 275.943 11.0267 275.591 11.56C275.25 12.0933 274.786 12.504 274.199 12.792C273.623 13.08 272.962 13.224 272.215 13.224ZM277.734 13V0.999999H279.622V5.432C279.91 5.08 280.288 4.80267 280.758 4.6C281.227 4.38667 281.728 4.28 282.262 4.28C283.168 4.28 283.894 4.56267 284.438 5.128C284.992 5.69333 285.27 6.44533 285.27 7.384V13H283.382V7.48C283.382 7.01067 283.232 6.632 282.934 6.344C282.646 6.056 282.251 5.912 281.75 5.912C281.323 5.912 280.95 5.99733 280.63 6.168C280.31 6.33867 280.059 6.57333 279.878 6.872C279.707 7.17067 279.622 7.50133 279.622 7.864V13H277.734ZM287.077 13V4.52H288.965V13H287.077ZM288.021 3.384C287.679 3.384 287.391 3.26667 287.157 3.032C286.922 2.78667 286.805 2.49333 286.805 2.152C286.805 1.81067 286.922 1.528 287.157 1.304C287.391 1.06933 287.679 0.952 288.021 0.952C288.362 0.952 288.65 1.06933 288.885 1.304C289.119 1.528 289.237 1.81067 289.237 2.152C289.237 2.49333 289.119 2.78667 288.885 3.032C288.65 3.26667 288.362 3.384 288.021 3.384ZM290.873 13V4.52H292.377L292.553 5.768C292.809 5.32 293.193 4.96267 293.705 4.696C294.217 4.41867 294.783 4.28 295.401 4.28C296.308 4.28 297.033 4.56267 297.577 5.128C298.132 5.69333 298.409 6.44533 298.409 7.384V13H296.521V7.48C296.521 7 296.372 6.62133 296.073 6.344C295.775 6.056 295.359 5.912 294.825 5.912C294.431 5.912 294.073 5.99733 293.753 6.168C293.444 6.33867 293.199 6.57333 293.017 6.872C292.847 7.17067 292.761 7.50133 292.761 7.864V13H290.873ZM304.089 16.44C303.3 16.44 302.601 16.3173 301.993 16.072C301.396 15.8373 300.927 15.496 300.585 15.048C300.255 14.6 300.089 14.0773 300.089 13.48H301.961C301.972 13.8853 302.169 14.2267 302.553 14.504C302.948 14.7813 303.455 14.92 304.073 14.92C304.82 14.92 305.391 14.7227 305.785 14.328C306.18 13.9333 306.377 13.4107 306.377 12.76V11.544C306.089 11.96 305.716 12.2853 305.257 12.52C304.799 12.7547 304.271 12.872 303.673 12.872C302.927 12.872 302.255 12.6907 301.657 12.328C301.071 11.9653 300.607 11.464 300.265 10.824C299.935 10.1733 299.769 9.432 299.769 8.6C299.769 7.75733 299.935 7.01067 300.265 6.36C300.607 5.69867 301.071 5.18667 301.657 4.824C302.255 4.46133 302.921 4.28 303.657 4.28C304.319 4.28 304.905 4.41867 305.417 4.696C305.929 4.97333 306.319 5.35733 306.585 5.848L306.745 4.52H308.233V12.744C308.233 13.48 308.063 14.1253 307.721 14.68C307.391 15.2453 306.911 15.6773 306.281 15.976C305.663 16.2853 304.932 16.44 304.089 16.44ZM304.025 11.288C304.484 11.288 304.889 11.176 305.241 10.952C305.604 10.7173 305.881 10.3973 306.073 9.992C306.276 9.576 306.377 9.10133 306.377 8.568C306.377 8.04533 306.276 7.576 306.073 7.16C305.881 6.744 305.604 6.424 305.241 6.2C304.889 5.976 304.484 5.864 304.025 5.864C303.577 5.864 303.177 5.98133 302.825 6.216C302.473 6.44 302.196 6.76 301.993 7.176C301.801 7.58133 301.705 8.05067 301.705 8.584C301.705 9.10667 301.801 9.576 301.993 9.992C302.196 10.3973 302.473 10.7173 302.825 10.952C303.177 11.176 303.577 11.288 304.025 11.288ZM256.077 33.224C254.925 33.224 254.019 32.968 253.357 32.456C252.696 31.944 252.339 31.224 252.285 30.296H254.093C254.125 30.744 254.312 31.0907 254.653 31.336C255.005 31.5707 255.453 31.688 255.997 31.688C256.477 31.688 256.84 31.6027 257.085 31.432C257.341 31.2507 257.469 30.9947 257.469 30.664C257.469 30.472 257.421 30.3173 257.325 30.2C257.24 30.0827 257.123 29.992 256.973 29.928C256.824 29.864 256.616 29.784 256.349 29.688C256.317 29.6773 256.291 29.672 256.269 29.672C256.248 29.6613 256.221 29.6507 256.189 29.64L255.069 29.272C255.048 29.2613 255.027 29.256 255.005 29.256C254.995 29.2453 254.979 29.2347 254.957 29.224C254.413 29.0427 253.965 28.8613 253.613 28.68C253.272 28.4987 252.989 28.2533 252.765 27.944C252.552 27.6347 252.445 27.24 252.445 26.76C252.445 26.2587 252.568 25.8213 252.813 25.448C253.069 25.0747 253.437 24.7867 253.917 24.584C254.397 24.3813 254.968 24.28 255.629 24.28C256.621 24.28 257.427 24.536 258.045 25.048C258.675 25.56 259.043 26.2853 259.149 27.224H257.373C257.32 26.7547 257.139 26.4027 256.829 26.168C256.531 25.9333 256.125 25.816 255.613 25.816C255.197 25.816 254.872 25.9013 254.637 26.072C254.403 26.232 254.285 26.456 254.285 26.744C254.285 27.0107 254.387 27.2133 254.589 27.352C254.792 27.48 255.085 27.608 255.469 27.736C255.491 27.7467 255.517 27.7573 255.549 27.768C255.581 27.768 255.608 27.7733 255.629 27.784L256.669 28.136C257.299 28.3493 257.8 28.5573 258.173 28.76C258.547 28.9627 258.835 29.2187 259.037 29.528C259.24 29.8373 259.341 30.232 259.341 30.712C259.341 31.2347 259.213 31.6827 258.957 32.056C258.701 32.4293 258.328 32.7173 257.837 32.92C257.357 33.1227 256.771 33.224 256.077 33.224ZM264.227 33C263.31 33 262.611 32.7813 262.131 32.344C261.651 31.9067 261.411 31.2667 261.411 30.424V26.12H259.923V24.52H261.411V21.624H263.299V24.52H265.475V26.12H263.299V30.28C263.299 30.6533 263.39 30.936 263.571 31.128C263.753 31.3093 264.014 31.4 264.355 31.4H265.315V33H264.227ZM269.658 33.176C268.676 33.176 267.892 32.952 267.306 32.504C266.719 32.056 266.431 31.4373 266.442 30.648C266.442 30.0293 266.618 29.544 266.97 29.192C267.322 28.8293 267.754 28.5733 268.266 28.424C268.788 28.264 269.391 28.1413 270.074 28.056C270.159 28.0453 270.239 28.04 270.314 28.04C270.399 28.0293 270.484 28.0187 270.57 28.008C270.986 27.9653 271.306 27.9173 271.53 27.864C271.764 27.8107 271.951 27.7307 272.09 27.624C272.239 27.5173 272.314 27.3733 272.314 27.192C272.314 26.9147 272.244 26.6747 272.106 26.472C271.967 26.2587 271.764 26.0987 271.498 25.992C271.231 25.8747 270.916 25.816 270.554 25.816C269.999 25.816 269.535 25.9547 269.162 26.232C268.799 26.4987 268.586 26.856 268.522 27.304H266.634C266.687 26.7173 266.89 26.1947 267.242 25.736C267.604 25.2773 268.074 24.92 268.65 24.664C269.226 24.408 269.871 24.28 270.586 24.28C271.343 24.28 271.988 24.408 272.522 24.664C273.055 24.92 273.46 25.2773 273.738 25.736C274.015 26.1947 274.154 26.7227 274.154 27.32V31.16C274.154 31.288 274.186 31.384 274.25 31.448C274.324 31.512 274.431 31.544 274.57 31.544H275.018V33H274.122C273.695 33 273.348 32.9147 273.082 32.744C272.826 32.5733 272.666 32.328 272.602 32.008C272.58 31.9653 272.564 31.9227 272.554 31.88C272.543 31.8267 272.532 31.7733 272.522 31.72C272.266 32.1893 271.898 32.552 271.418 32.808C270.948 33.0533 270.362 33.176 269.658 33.176ZM270.042 31.704C270.703 31.704 271.247 31.5333 271.674 31.192C272.1 30.84 272.314 30.3813 272.314 29.816V28.632C272.175 28.8453 271.951 29 271.642 29.096C271.332 29.192 270.9 29.272 270.346 29.336C270.335 29.336 270.324 29.3413 270.314 29.352C270.303 29.352 270.287 29.352 270.266 29.352C269.828 29.4053 269.476 29.4693 269.21 29.544C268.954 29.608 268.74 29.72 268.57 29.88C268.41 30.0293 268.33 30.248 268.33 30.536C268.33 30.8987 268.474 31.1867 268.762 31.4C269.06 31.6027 269.487 31.704 270.042 31.704ZM279.805 33C278.888 33 278.189 32.7813 277.709 32.344C277.229 31.9067 276.989 31.2667 276.989 30.424V26.12H275.501V24.52H276.989V21.624H278.877V24.52H281.053V26.12H278.877V30.28C278.877 30.6533 278.968 30.936 279.149 31.128C279.331 31.3093 279.592 31.4 279.933 31.4H280.893V33H279.805ZM285.476 33.224C284.815 33.224 284.244 33.096 283.764 32.84C283.284 32.584 282.916 32.2213 282.66 31.752C282.415 31.2827 282.292 30.7493 282.292 30.152V24.52H284.18V30.056C284.18 30.536 284.329 30.9147 284.628 31.192C284.937 31.4587 285.348 31.592 285.86 31.592C286.489 31.592 286.991 31.4107 287.364 31.048C287.737 30.6747 287.929 30.2053 287.94 29.64V24.52H289.828V33H288.308L288.164 31.768C287.908 32.2267 287.54 32.584 287.06 32.84C286.591 33.096 286.063 33.224 285.476 33.224ZM295.093 33.224C293.941 33.224 293.034 32.968 292.373 32.456C291.711 31.944 291.354 31.224 291.301 30.296H293.109C293.141 30.744 293.327 31.0907 293.669 31.336C294.021 31.5707 294.469 31.688 295.013 31.688C295.493 31.688 295.855 31.6027 296.101 31.432C296.357 31.2507 296.485 30.9947 296.485 30.664C296.485 30.472 296.437 30.3173 296.341 30.2C296.255 30.0827 296.138 29.992 295.989 29.928C295.839 29.864 295.631 29.784 295.365 29.688C295.333 29.6773 295.306 29.672 295.285 29.672C295.263 29.6613 295.237 29.6507 295.205 29.64L294.085 29.272C294.063 29.2613 294.042 29.256 294.021 29.256C294.01 29.2453 293.994 29.2347 293.973 29.224C293.429 29.0427 292.981 28.8613 292.629 28.68C292.287 28.4987 292.005 28.2533 291.781 27.944C291.567 27.6347 291.461 27.24 291.461 26.76C291.461 26.2587 291.583 25.8213 291.829 25.448C292.085 25.0747 292.453 24.7867 292.933 24.584C293.413 24.3813 293.983 24.28 294.645 24.28C295.637 24.28 296.442 24.536 297.061 25.048C297.69 25.56 298.058 26.2853 298.165 27.224H296.389C296.335 26.7547 296.154 26.4027 295.845 26.168C295.546 25.9333 295.141 25.816 294.629 25.816C294.213 25.816 293.887 25.9013 293.653 26.072C293.418 26.232 293.301 26.456 293.301 26.744C293.301 27.0107 293.402 27.2133 293.605 27.352C293.807 27.48 294.101 27.608 294.485 27.736C294.506 27.7467 294.533 27.7573 294.565 27.768C294.597 27.768 294.623 27.7733 294.645 27.784L295.685 28.136C296.314 28.3493 296.815 28.5573 297.189 28.76C297.562 28.9627 297.85 29.2187 298.053 29.528C298.255 29.8373 298.357 30.232 298.357 30.712C298.357 31.2347 298.229 31.6827 297.973 32.056C297.717 32.4293 297.343 32.7173 296.853 32.92C296.373 33.1227 295.786 33.224 295.093 33.224Z" fill="#D1DCDF"/>
<rect x="239.265" y="47" width="72" height="34" rx="17" fill="#77EB3D"/>
<path d="M260.935 70.252C259.903 70.252 259.003 70.09 258.235 69.766C257.479 69.442 256.897 68.998 256.489 68.434C256.093 67.87 255.895 67.24 255.895 66.544C255.895 65.824 256.129 65.194 256.597 64.654C257.065 64.114 257.713 63.706 258.541 63.43C257.881 63.142 257.371 62.746 257.011 62.242C256.651 61.726 256.471 61.162 256.471 60.55C256.471 59.926 256.651 59.356 257.011 58.84C257.371 58.324 257.887 57.916 258.559 57.616C259.231 57.304 260.023 57.148 260.935 57.148C261.835 57.148 262.615 57.304 263.275 57.616C263.947 57.916 264.457 58.324 264.805 58.84C265.165 59.344 265.345 59.908 265.345 60.532C265.345 61.144 265.165 61.708 264.805 62.224C264.457 62.728 263.953 63.13 263.293 63.43C264.121 63.694 264.769 64.102 265.237 64.654C265.705 65.194 265.939 65.824 265.939 66.544C265.939 67.228 265.741 67.852 265.345 68.416C264.949 68.98 264.373 69.43 263.617 69.766C262.861 70.09 261.967 70.252 260.935 70.252ZM260.935 68.326C261.499 68.326 261.991 68.236 262.411 68.056C262.831 67.876 263.149 67.636 263.365 67.336C263.593 67.024 263.707 66.676 263.707 66.292C263.707 65.92 263.593 65.584 263.365 65.284C263.149 64.972 262.831 64.726 262.411 64.546C261.991 64.366 261.499 64.276 260.935 64.276C260.371 64.276 259.879 64.366 259.459 64.546C259.039 64.726 258.715 64.972 258.487 65.284C258.259 65.584 258.145 65.92 258.145 66.292C258.145 66.676 258.259 67.024 258.487 67.336C258.715 67.636 259.039 67.876 259.459 68.056C259.879 68.236 260.371 68.326 260.935 68.326ZM260.935 62.728C261.619 62.728 262.171 62.554 262.591 62.206C263.023 61.846 263.239 61.39 263.239 60.838C263.239 60.298 263.023 59.86 262.591 59.524C262.171 59.176 261.619 59.002 260.935 59.002C260.479 59.002 260.077 59.08 259.729 59.236C259.381 59.392 259.105 59.608 258.901 59.884C258.709 60.16 258.613 60.478 258.613 60.838C258.613 61.39 258.829 61.846 259.261 62.206C259.693 62.554 260.251 62.728 260.935 62.728ZM272.742 70.252C271.638 70.252 270.672 69.976 269.844 69.424C269.028 68.872 268.398 68.098 267.954 67.102C267.522 66.106 267.306 64.96 267.306 63.664C267.306 62.344 267.528 61.192 267.972 60.208C268.428 59.212 269.064 58.456 269.88 57.94C270.708 57.412 271.674 57.148 272.778 57.148C273.63 57.148 274.392 57.316 275.064 57.652C275.736 57.976 276.276 58.444 276.684 59.056C277.104 59.656 277.344 60.352 277.404 61.144H275.208C275.148 60.532 274.89 60.034 274.434 59.65C273.978 59.266 273.414 59.074 272.742 59.074C271.722 59.074 270.906 59.464 270.294 60.244C269.694 61.024 269.37 62.068 269.322 63.376C269.31 63.484 269.304 63.586 269.304 63.682C269.304 63.778 269.31 63.874 269.322 63.97C269.598 63.262 270.078 62.68 270.762 62.224C271.446 61.768 272.25 61.54 273.174 61.54C273.966 61.54 274.674 61.72 275.298 62.08C275.934 62.44 276.426 62.944 276.774 63.592C277.134 64.24 277.314 64.978 277.314 65.806C277.314 66.682 277.122 67.456 276.738 68.128C276.354 68.788 275.814 69.31 275.118 69.694C274.434 70.066 273.642 70.252 272.742 70.252ZM272.634 68.326C273.078 68.326 273.486 68.236 273.858 68.056C274.242 67.864 274.548 67.576 274.776 67.192C275.016 66.808 275.136 66.352 275.136 65.824C275.136 65.272 275.022 64.81 274.794 64.438C274.566 64.066 274.26 63.784 273.876 63.592C273.504 63.4 273.102 63.304 272.67 63.304C272.226 63.304 271.806 63.406 271.41 63.61C271.026 63.802 270.708 64.09 270.456 64.474C270.216 64.846 270.096 65.296 270.096 65.824C270.096 66.352 270.216 66.808 270.456 67.192C270.696 67.564 271.008 67.846 271.392 68.038C271.788 68.23 272.202 68.326 272.634 68.326ZM282.528 70.504L280.98 69.766L290.052 56.662L291.618 57.382L282.528 70.504ZM281.592 63.826C281.016 63.826 280.5 63.688 280.044 63.412C279.588 63.136 279.228 62.746 278.964 62.242C278.712 61.738 278.586 61.168 278.586 60.532C278.586 59.872 278.712 59.29 278.964 58.786C279.228 58.27 279.582 57.868 280.026 57.58C280.482 57.292 281.004 57.148 281.592 57.148C282.18 57.148 282.702 57.286 283.158 57.562C283.614 57.838 283.968 58.228 284.22 58.732C284.472 59.224 284.598 59.788 284.598 60.424C284.598 61.084 284.472 61.672 284.22 62.188C283.968 62.704 283.614 63.106 283.158 63.394C282.702 63.682 282.18 63.826 281.592 63.826ZM281.592 62.386C281.88 62.386 282.132 62.308 282.348 62.152C282.564 61.984 282.732 61.756 282.852 61.468C282.972 61.18 283.032 60.844 283.032 60.46C283.032 59.896 282.9 59.44 282.636 59.092C282.372 58.744 282.03 58.57 281.61 58.57C281.322 58.57 281.07 58.654 280.854 58.822C280.638 58.978 280.464 59.2 280.332 59.488C280.212 59.776 280.152 60.106 280.152 60.478C280.152 61.042 280.284 61.504 280.548 61.864C280.824 62.212 281.172 62.386 281.592 62.386ZM290.844 70.252C290.268 70.252 289.752 70.114 289.296 69.838C288.84 69.562 288.48 69.178 288.216 68.686C287.964 68.182 287.838 67.606 287.838 66.958C287.838 66.298 287.964 65.71 288.216 65.194C288.48 64.678 288.834 64.282 289.278 64.006C289.734 63.718 290.256 63.574 290.844 63.574C291.432 63.586 291.954 63.736 292.41 64.024C292.866 64.3 293.22 64.684 293.472 65.176C293.736 65.668 293.868 66.232 293.868 66.868C293.868 67.528 293.736 68.116 293.472 68.632C293.22 69.136 292.866 69.532 292.41 69.82C291.954 70.108 291.432 70.252 290.844 70.252ZM290.844 68.83C291.132 68.83 291.384 68.752 291.6 68.596C291.816 68.428 291.984 68.2 292.104 67.912C292.236 67.624 292.302 67.288 292.302 66.904C292.302 66.34 292.17 65.884 291.906 65.536C291.642 65.188 291.294 65.014 290.862 65.014C290.586 65.014 290.334 65.098 290.106 65.266C289.89 65.422 289.716 65.644 289.584 65.932C289.464 66.22 289.404 66.55 289.404 66.922C289.404 67.486 289.536 67.948 289.8 68.308C290.076 68.656 290.424 68.83 290.844 68.83Z" fill="#01242D"/>
<rect x="33.4302" y="117.43" width="168.14" height="39.1395" rx="4.73256" fill="#01242D"/>
<rect x="33.4302" y="117.43" width="168.14" height="39.1395" rx="4.73256" stroke="#355159" stroke-width="0.860465"/>
<path d="M46.0146 127.642H61.503V145.712L58.9216 143.991L56.3402 145.712L53.7588 143.991L51.1774 145.712L48.596 143.991L46.0146 145.712V127.642Z" stroke="#D1DCDF" stroke-width="0.860465" stroke-miterlimit="10" stroke-linecap="square"/>
<path d="M49.4564 132.805H53.7587" stroke="#D1DCDF" stroke-width="0.860465" stroke-miterlimit="10" stroke-linecap="square"/>
<path d="M57.2006 132.805H58.061" stroke="#D1DCDF" stroke-width="0.860465" stroke-miterlimit="10" stroke-linecap="square"/>
<path d="M49.4564 136.247H53.7587" stroke="#D1DCDF" stroke-width="0.860465" stroke-miterlimit="10" stroke-linecap="square"/>
<path d="M57.2006 136.247H58.061" stroke="#D1DCDF" stroke-width="0.860465" stroke-miterlimit="10" stroke-linecap="square"/>
<path d="M49.4564 139.689H53.7587" stroke="#D1DCDF" stroke-width="0.860465" stroke-miterlimit="10" stroke-linecap="square"/>
<path d="M57.2006 139.689H58.061" stroke="#D1DCDF" stroke-width="0.860465" stroke-miterlimit="10" stroke-linecap="square"/>
<path d="M75.4222 141V131.2H80.1962C80.8496 131.2 81.4142 131.331 81.8902 131.592C82.3662 131.853 82.7302 132.208 82.9822 132.656C83.2342 133.104 83.3602 133.603 83.3602 134.154C83.3602 134.798 83.2202 135.353 82.9402 135.82C82.6602 136.287 82.2822 136.641 81.8062 136.884C81.3302 137.127 80.7936 137.248 80.1962 137.248H76.7942V141H75.4222ZM80.1962 136.016C80.7469 136.016 81.1762 135.839 81.4842 135.484C81.8016 135.129 81.9602 134.686 81.9602 134.154C81.9602 133.631 81.7922 133.216 81.4562 132.908C81.1296 132.6 80.7096 132.446 80.1962 132.446H76.7942V136.016H80.1962ZM87.4842 141.168C86.6069 141.168 85.9162 140.925 85.4122 140.44C84.9082 139.945 84.6562 139.306 84.6562 138.522V133.58H86.0142V138.466C86.0142 138.951 86.1636 139.329 86.4622 139.6C86.7702 139.861 87.1762 139.992 87.6802 139.992C88.3056 139.992 88.7956 139.81 89.1502 139.446C89.5142 139.082 89.7009 138.625 89.7102 138.074V133.58H91.0542V141H89.9762L89.8642 139.894C89.6402 140.305 89.3182 140.622 88.8982 140.846C88.4782 141.061 88.0069 141.168 87.4842 141.168ZM92.8763 141V133.58H93.9543L94.1083 135.008C94.5936 134.019 95.4523 133.524 96.6843 133.524H96.9503V134.84H96.6843C95.9096 134.84 95.303 135.05 94.8643 135.47C94.435 135.881 94.2203 136.455 94.2203 137.192V141H92.8763ZM101.254 141.168C100.479 141.168 99.8072 140.995 99.2379 140.65C98.6779 140.305 98.2486 139.838 97.9499 139.25C97.6606 138.653 97.5159 137.985 97.5159 137.248C97.5159 136.445 97.6792 135.755 98.0059 135.176C98.3326 134.597 98.7759 134.159 99.3359 133.86C99.8959 133.552 100.521 133.398 101.212 133.398C102.183 133.398 102.976 133.673 103.592 134.224C104.217 134.765 104.577 135.503 104.67 136.436H103.354C103.261 135.857 103.023 135.4 102.64 135.064C102.257 134.719 101.777 134.546 101.198 134.546C100.498 134.546 99.9332 134.789 99.5039 135.274C99.0839 135.759 98.8739 136.417 98.8739 137.248C98.8739 137.827 98.9766 138.326 99.1819 138.746C99.3966 139.157 99.6859 139.474 100.05 139.698C100.414 139.913 100.82 140.02 101.268 140.02C101.828 140.02 102.29 139.852 102.654 139.516C103.018 139.18 103.251 138.709 103.354 138.102H104.67C104.567 139.063 104.213 139.815 103.606 140.356C103.009 140.897 102.225 141.168 101.254 141.168ZM106.139 141V130.5H107.497V134.476C107.758 134.149 108.099 133.888 108.519 133.692C108.948 133.496 109.405 133.398 109.891 133.398C110.693 133.398 111.333 133.641 111.809 134.126C112.294 134.611 112.537 135.265 112.537 136.086V141H111.193V136.142C111.193 135.666 111.043 135.288 110.745 135.008C110.455 134.719 110.068 134.574 109.583 134.574C108.948 134.574 108.444 134.756 108.071 135.12C107.697 135.484 107.506 135.946 107.497 136.506V141H106.139ZM116.695 141.126C115.845 141.126 115.169 140.93 114.665 140.538C114.161 140.137 113.909 139.6 113.909 138.928C113.909 138.387 114.058 137.962 114.357 137.654C114.655 137.346 115.024 137.127 115.463 136.996C115.911 136.856 116.443 136.753 117.059 136.688C117.227 136.669 117.343 136.66 117.409 136.66C117.847 136.613 118.169 136.576 118.375 136.548C118.589 136.511 118.767 136.45 118.907 136.366C119.047 136.273 119.117 136.142 119.117 135.974C119.117 135.545 118.953 135.195 118.627 134.924C118.309 134.653 117.889 134.518 117.367 134.518C116.844 134.518 116.401 134.649 116.037 134.91C115.682 135.171 115.477 135.517 115.421 135.946H114.077C114.123 135.451 114.291 135.013 114.581 134.63C114.879 134.238 115.271 133.935 115.757 133.72C116.251 133.505 116.797 133.398 117.395 133.398C118.011 133.398 118.547 133.51 119.005 133.734C119.471 133.958 119.826 134.271 120.069 134.672C120.311 135.073 120.433 135.535 120.433 136.058V139.572C120.433 139.805 120.559 139.922 120.811 139.922H121.217V141H120.517C120.125 141 119.821 140.916 119.607 140.748C119.392 140.58 119.275 140.337 119.257 140.02C119.238 139.927 119.229 139.847 119.229 139.782C118.762 140.678 117.917 141.126 116.695 141.126ZM116.919 140.02C117.563 140.02 118.09 139.843 118.501 139.488C118.911 139.124 119.117 138.657 119.117 138.088V137.094C118.986 137.29 118.771 137.425 118.473 137.5C118.174 137.575 117.74 137.645 117.171 137.71C116.545 137.785 116.069 137.897 115.743 138.046C115.416 138.186 115.253 138.452 115.253 138.844C115.253 139.208 115.402 139.497 115.701 139.712C115.999 139.917 116.405 140.02 116.919 140.02ZM122.449 141V133.58H123.527L123.681 135.008C124.166 134.019 125.025 133.524 126.257 133.524H126.523V134.84H126.257C125.482 134.84 124.875 135.05 124.437 135.47C124.007 135.881 123.793 136.455 123.793 137.192V141H122.449ZM130.472 141.168C129.53 141.168 128.764 140.949 128.176 140.51C127.598 140.062 127.285 139.441 127.238 138.648H128.554C128.592 139.087 128.788 139.432 129.142 139.684C129.497 139.927 129.94 140.048 130.472 140.048C131.443 140.048 131.928 139.693 131.928 138.984C131.928 138.779 131.877 138.615 131.774 138.494C131.681 138.373 131.56 138.284 131.41 138.228C131.261 138.163 131.018 138.069 130.682 137.948L129.646 137.612C129.152 137.453 128.755 137.299 128.456 137.15C128.158 137.001 127.91 136.795 127.714 136.534C127.518 136.273 127.42 135.932 127.42 135.512C127.42 134.859 127.658 134.345 128.134 133.972C128.61 133.589 129.264 133.398 130.094 133.398C130.944 133.398 131.63 133.617 132.152 134.056C132.684 134.495 132.997 135.125 133.09 135.946H131.802C131.746 135.479 131.564 135.125 131.256 134.882C130.948 134.639 130.552 134.518 130.066 134.518C129.646 134.518 129.315 134.607 129.072 134.784C128.839 134.952 128.722 135.185 128.722 135.484C128.722 135.755 128.816 135.96 129.002 136.1C129.198 136.231 129.404 136.333 129.618 136.408C129.842 136.473 129.987 136.515 130.052 136.534L131.032 136.856C131.546 137.024 131.961 137.197 132.278 137.374C132.596 137.551 132.838 137.775 133.006 138.046C133.174 138.307 133.258 138.639 133.258 139.04C133.258 139.712 133.016 140.235 132.53 140.608C132.054 140.981 131.368 141.168 130.472 141.168ZM137.935 141.168C137.207 141.168 136.558 141.005 135.989 140.678C135.429 140.351 134.995 139.894 134.687 139.306C134.379 138.718 134.225 138.055 134.225 137.318C134.225 136.506 134.384 135.806 134.701 135.218C135.018 134.621 135.448 134.168 135.989 133.86C136.54 133.552 137.142 133.398 137.795 133.398C138.831 133.398 139.662 133.734 140.287 134.406C140.912 135.078 141.234 136.007 141.253 137.192V137.542H135.569C135.616 138.289 135.849 138.891 136.269 139.348C136.689 139.796 137.244 140.02 137.935 140.02C138.43 140.02 138.845 139.903 139.181 139.67C139.517 139.437 139.76 139.101 139.909 138.662H141.225C141.048 139.437 140.665 140.048 140.077 140.496C139.498 140.944 138.784 141.168 137.935 141.168ZM139.853 136.492C139.75 135.885 139.517 135.409 139.153 135.064C138.798 134.719 138.346 134.546 137.795 134.546C137.244 134.546 136.778 134.719 136.395 135.064C136.012 135.409 135.76 135.885 135.639 136.492H139.853ZM150.35 141.168C149.407 141.168 148.572 140.958 147.844 140.538C147.125 140.118 146.565 139.525 146.164 138.76C145.763 137.985 145.562 137.089 145.562 136.072C145.562 135.092 145.753 134.224 146.136 133.468C146.528 132.703 147.083 132.105 147.802 131.676C148.53 131.247 149.379 131.032 150.35 131.032C151.293 131.032 152.128 131.242 152.856 131.662C153.584 132.073 154.149 132.661 154.55 133.426C154.951 134.182 155.152 135.064 155.152 136.072C155.152 137.061 154.956 137.943 154.564 138.718C154.181 139.483 153.626 140.085 152.898 140.524C152.179 140.953 151.33 141.168 150.35 141.168ZM150.35 139.936C151.041 139.936 151.643 139.782 152.156 139.474C152.679 139.157 153.075 138.709 153.346 138.13C153.626 137.542 153.766 136.856 153.766 136.072C153.766 135.307 153.626 134.639 153.346 134.07C153.066 133.491 152.669 133.048 152.156 132.74C151.643 132.423 151.041 132.264 150.35 132.264C149.659 132.264 149.057 132.423 148.544 132.74C148.04 133.048 147.648 133.491 147.368 134.07C147.097 134.639 146.962 135.307 146.962 136.072C146.962 136.856 147.097 137.542 147.368 138.13C147.648 138.709 148.04 139.157 148.544 139.474C149.057 139.782 149.659 139.936 150.35 139.936ZM156.751 141V133.58H157.829L157.983 135.008C158.469 134.019 159.327 133.524 160.559 133.524H160.825V134.84H160.559C159.785 134.84 159.178 135.05 158.739 135.47C158.31 135.881 158.095 136.455 158.095 137.192V141H156.751ZM164.793 141.168C164.13 141.168 163.542 141.005 163.029 140.678C162.516 140.342 162.114 139.88 161.825 139.292C161.536 138.695 161.391 138.013 161.391 137.248C161.391 136.501 161.531 135.834 161.811 135.246C162.1 134.658 162.497 134.205 163.001 133.888C163.514 133.561 164.098 133.398 164.751 133.398C165.292 133.398 165.782 133.505 166.221 133.72C166.669 133.935 167.024 134.233 167.285 134.616V130.5H168.629V141H167.565L167.425 139.614C167.182 140.099 166.832 140.482 166.375 140.762C165.918 141.033 165.39 141.168 164.793 141.168ZM165.017 140.02C165.456 140.02 165.848 139.903 166.193 139.67C166.538 139.427 166.804 139.096 166.991 138.676C167.187 138.247 167.285 137.761 167.285 137.22C167.285 136.697 167.192 136.235 167.005 135.834C166.818 135.423 166.557 135.106 166.221 134.882C165.885 134.649 165.502 134.532 165.073 134.532C164.625 134.532 164.228 134.649 163.883 134.882C163.538 135.106 163.267 135.428 163.071 135.848C162.875 136.259 162.777 136.725 162.777 137.248C162.777 137.789 162.87 138.27 163.057 138.69C163.244 139.11 163.505 139.437 163.841 139.67C164.186 139.903 164.578 140.02 165.017 140.02ZM173.824 141.168C173.096 141.168 172.447 141.005 171.878 140.678C171.318 140.351 170.884 139.894 170.576 139.306C170.268 138.718 170.114 138.055 170.114 137.318C170.114 136.506 170.272 135.806 170.59 135.218C170.907 134.621 171.336 134.168 171.878 133.86C172.428 133.552 173.03 133.398 173.684 133.398C174.72 133.398 175.55 133.734 176.176 134.406C176.801 135.078 177.123 136.007 177.142 137.192V137.542H171.458C171.504 138.289 171.738 138.891 172.158 139.348C172.578 139.796 173.133 140.02 173.824 140.02C174.318 140.02 174.734 139.903 175.07 139.67C175.406 139.437 175.648 139.101 175.798 138.662H177.114C176.936 139.437 176.554 140.048 175.966 140.496C175.387 140.944 174.673 141.168 173.824 141.168ZM175.742 136.492C175.639 135.885 175.406 135.409 175.042 135.064C174.687 134.719 174.234 134.546 173.684 134.546C173.133 134.546 172.666 134.719 172.284 135.064C171.901 135.409 171.649 135.885 171.528 136.492H175.742ZM178.585 141V133.58H179.663L179.817 135.008C180.303 134.019 181.161 133.524 182.393 133.524H182.659V134.84H182.393C181.619 134.84 181.012 135.05 180.573 135.47C180.144 135.881 179.929 136.455 179.929 137.192V141H178.585ZM186.609 141.168C185.666 141.168 184.901 140.949 184.313 140.51C183.734 140.062 183.422 139.441 183.375 138.648H184.691C184.728 139.087 184.924 139.432 185.279 139.684C185.634 139.927 186.077 140.048 186.609 140.048C187.58 140.048 188.065 139.693 188.065 138.984C188.065 138.779 188.014 138.615 187.911 138.494C187.818 138.373 187.696 138.284 187.547 138.228C187.398 138.163 187.155 138.069 186.819 137.948L185.783 137.612C185.288 137.453 184.892 137.299 184.593 137.15C184.294 137.001 184.047 136.795 183.851 136.534C183.655 136.273 183.557 135.932 183.557 135.512C183.557 134.859 183.795 134.345 184.271 133.972C184.747 133.589 185.4 133.398 186.231 133.398C187.08 133.398 187.766 133.617 188.289 134.056C188.821 134.495 189.134 135.125 189.227 135.946H187.939C187.883 135.479 187.701 135.125 187.393 134.882C187.085 134.639 186.688 134.518 186.203 134.518C185.783 134.518 185.452 134.607 185.209 134.784C184.976 134.952 184.859 135.185 184.859 135.484C184.859 135.755 184.952 135.96 185.139 136.1C185.335 136.231 185.54 136.333 185.755 136.408C185.979 136.473 186.124 136.515 186.189 136.534L187.169 136.856C187.682 137.024 188.098 137.197 188.415 137.374C188.732 137.551 188.975 137.775 189.143 138.046C189.311 138.307 189.395 138.639 189.395 139.04C189.395 139.712 189.152 140.235 188.667 140.608C188.191 140.981 187.505 141.168 186.609 141.168Z" fill="#D1DCDF"/>
<g opacity="0.5">
<rect x="191.43" y="170.43" width="98.093" height="38.7209" rx="4.73256" fill="#01242D"/>
<rect x="191.43" y="170.43" width="98.093" height="38.7209" rx="4.73256" stroke="#355159" stroke-width="0.860465"/>
<path d="M219.395 180.433H203.907V199.148H219.395V180.433Z" stroke="#D1DCDF" stroke-width="0.860465" stroke-miterlimit="10" stroke-linecap="square"/>
<path d="M213.264 184.951H216.168" stroke="#D1DCDF" stroke-width="0.860465" stroke-miterlimit="10" stroke-linecap="square"/>
<path d="M213.264 188.178H216.168" stroke="#D1DCDF" stroke-width="0.860465" stroke-miterlimit="10" stroke-linecap="square"/>
<path d="M207.134 191.404H216.169" stroke="#D1DCDF" stroke-width="0.860465" stroke-miterlimit="10" stroke-linecap="square"/>
<path d="M207.134 194.631H216.169" stroke="#D1DCDF" stroke-width="0.860465" stroke-miterlimit="10" stroke-linecap="square"/>
<path d="M211.006 184.628H207.134V188.501H211.006V184.628Z" stroke="#D1DCDF" stroke-width="0.860465" stroke-miterlimit="10" stroke-linecap="square"/>
<path d="M234.447 192.791H233.266V184.358H234.447V192.791ZM236.191 192.791V186.406H237.119L237.227 187.37C237.436 187.033 237.733 186.764 238.118 186.563C238.512 186.354 238.946 186.25 239.419 186.25C240.102 186.25 240.652 186.459 241.07 186.876C241.487 187.294 241.696 187.856 241.696 188.563V192.791H240.528V188.611C240.528 188.201 240.399 187.876 240.142 187.635C239.893 187.386 239.544 187.262 239.094 187.262C238.572 187.262 238.151 187.422 237.829 187.744C237.516 188.057 237.356 188.45 237.347 188.924V192.791H236.191ZM246.303 192.791H245.087L242.424 186.406H243.689L245.701 191.43L247.701 186.406H248.965L246.303 192.791ZM252.551 192.936C251.885 192.936 251.311 192.791 250.829 192.502C250.355 192.205 249.993 191.799 249.744 191.285C249.496 190.771 249.371 190.189 249.371 189.538C249.371 188.848 249.508 188.258 249.781 187.768C250.062 187.27 250.443 186.892 250.925 186.635C251.407 186.378 251.949 186.25 252.551 186.25C253.218 186.25 253.788 186.394 254.262 186.683C254.744 186.973 255.109 187.366 255.358 187.864C255.607 188.362 255.732 188.92 255.732 189.538C255.732 190.245 255.595 190.856 255.322 191.37C255.049 191.884 254.671 192.273 254.19 192.538C253.716 192.803 253.17 192.936 252.551 192.936ZM252.551 191.948C253.17 191.948 253.656 191.723 254.009 191.273C254.37 190.815 254.551 190.237 254.551 189.538C254.551 188.848 254.366 188.294 253.997 187.876C253.635 187.45 253.154 187.238 252.551 187.238C251.949 187.238 251.463 187.45 251.094 187.876C250.732 188.294 250.552 188.848 250.552 189.538C250.552 190.044 250.64 190.478 250.817 190.839C250.993 191.201 251.23 191.478 251.527 191.671C251.833 191.855 252.174 191.948 252.551 191.948ZM257.545 185.419C257.32 185.419 257.127 185.342 256.967 185.19C256.814 185.029 256.738 184.832 256.738 184.599C256.738 184.375 256.814 184.186 256.967 184.033C257.119 183.881 257.312 183.804 257.545 183.804C257.778 183.804 257.97 183.881 258.123 184.033C258.276 184.178 258.352 184.366 258.352 184.599C258.352 184.832 258.276 185.029 258.123 185.19C257.97 185.342 257.778 185.419 257.545 185.419ZM258.123 192.791H256.967V186.406H258.123V192.791ZM262.575 192.936C261.909 192.936 261.33 192.787 260.841 192.49C260.359 192.193 259.989 191.791 259.732 191.285C259.483 190.771 259.359 190.197 259.359 189.563C259.359 188.872 259.499 188.278 259.78 187.78C260.062 187.282 260.443 186.904 260.925 186.647C261.407 186.382 261.945 186.25 262.539 186.25C263.374 186.25 264.057 186.487 264.587 186.961C265.125 187.426 265.434 188.061 265.515 188.864H264.382C264.302 188.366 264.097 187.972 263.768 187.683C263.439 187.386 263.025 187.238 262.527 187.238C261.925 187.238 261.439 187.446 261.069 187.864C260.708 188.282 260.527 188.848 260.527 189.563C260.527 190.06 260.616 190.49 260.792 190.852C260.977 191.205 261.226 191.478 261.539 191.671C261.852 191.855 262.202 191.948 262.587 191.948C263.069 191.948 263.467 191.803 263.78 191.514C264.093 191.225 264.294 190.819 264.382 190.297H265.515C265.426 191.125 265.121 191.771 264.599 192.237C264.085 192.703 263.41 192.936 262.575 192.936ZM269.621 192.936C268.995 192.936 268.437 192.795 267.947 192.514C267.465 192.233 267.092 191.839 266.827 191.333C266.562 190.827 266.429 190.257 266.429 189.623C266.429 188.924 266.566 188.322 266.839 187.816C267.112 187.302 267.481 186.912 267.947 186.647C268.421 186.382 268.939 186.25 269.501 186.25C270.392 186.25 271.107 186.539 271.645 187.117C272.183 187.695 272.46 188.494 272.476 189.514V189.816H267.586C267.626 190.458 267.826 190.976 268.188 191.37C268.549 191.755 269.027 191.948 269.621 191.948C270.047 191.948 270.404 191.847 270.694 191.647C270.983 191.446 271.191 191.157 271.32 190.779H272.452C272.3 191.446 271.97 191.972 271.465 192.357C270.967 192.743 270.352 192.936 269.621 192.936ZM271.272 188.912C271.183 188.39 270.983 187.98 270.669 187.683C270.364 187.386 269.975 187.238 269.501 187.238C269.027 187.238 268.626 187.386 268.296 187.683C267.967 187.98 267.75 188.39 267.646 188.912H271.272ZM276.164 192.936C275.353 192.936 274.694 192.747 274.189 192.369C273.691 191.984 273.422 191.45 273.381 190.767H274.514C274.546 191.145 274.715 191.442 275.02 191.659C275.325 191.867 275.706 191.972 276.164 191.972C276.999 191.972 277.417 191.667 277.417 191.056C277.417 190.88 277.373 190.739 277.284 190.635C277.204 190.53 277.1 190.454 276.971 190.406C276.843 190.35 276.634 190.269 276.345 190.165L275.453 189.876C275.028 189.739 274.686 189.607 274.429 189.478C274.172 189.35 273.96 189.173 273.791 188.948C273.622 188.723 273.538 188.43 273.538 188.069C273.538 187.507 273.743 187.065 274.152 186.744C274.562 186.414 275.124 186.25 275.839 186.25C276.57 186.25 277.16 186.438 277.61 186.816C278.068 187.193 278.337 187.735 278.417 188.442H277.309C277.26 188.041 277.104 187.735 276.839 187.527C276.574 187.318 276.232 187.213 275.815 187.213C275.453 187.213 275.168 187.29 274.96 187.442C274.759 187.587 274.658 187.788 274.658 188.045C274.658 188.278 274.739 188.454 274.899 188.575C275.068 188.687 275.245 188.776 275.429 188.84C275.622 188.896 275.747 188.932 275.803 188.948L276.646 189.225C277.088 189.37 277.445 189.518 277.718 189.671C277.991 189.824 278.2 190.016 278.345 190.249C278.489 190.474 278.561 190.759 278.561 191.105C278.561 191.683 278.353 192.132 277.935 192.454C277.525 192.775 276.935 192.936 276.164 192.936Z" fill="#D1DCDF"/>
</g>
<g opacity="0.3">
<rect x="78.4302" y="190.43" width="84.3256" height="38.7209" rx="4.73256" fill="#01242D"/>
<rect x="78.4302" y="190.43" width="84.3256" height="38.7209" rx="4.73256" stroke="#355159" stroke-width="0.860465"/>
<path d="M99.619 206.241H97.683V213.34H99.619V206.241Z" stroke="#D1DCDF" stroke-width="0.860465" stroke-miterlimit="10" stroke-linecap="square"/>
<path d="M95.4243 210.759H93.4883V213.34H95.4243V210.759Z" stroke="#D1DCDF" stroke-width="0.860465" stroke-miterlimit="10" stroke-linecap="square"/>
<path d="M103.814 209.146H101.878V213.34H103.814V209.146Z" stroke="#D1DCDF" stroke-width="0.860465" stroke-miterlimit="10" stroke-linecap="square"/>
<path d="M106.395 200.433H90.9069V219.148H106.395V200.433Z" stroke="#D1DCDF" stroke-width="0.860465" stroke-miterlimit="10" stroke-linecap="square"/>
<path d="M123.88 212.936C123.101 212.936 122.41 212.755 121.808 212.393C121.206 212.032 120.732 211.522 120.386 210.864C120.049 210.197 119.88 209.426 119.88 208.551C119.88 207.707 120.045 206.961 120.374 206.31C120.712 205.651 121.194 205.137 121.82 204.768C122.446 204.399 123.181 204.214 124.024 204.214C125.101 204.214 125.992 204.515 126.699 205.117C127.414 205.72 127.859 206.547 128.036 207.599H126.831C126.679 206.868 126.353 206.298 125.856 205.888C125.366 205.479 124.755 205.274 124.024 205.274C123.43 205.274 122.912 205.407 122.47 205.672C122.037 205.937 121.7 206.318 121.459 206.816C121.226 207.306 121.109 207.884 121.109 208.551C121.109 209.225 121.226 209.816 121.459 210.321C121.7 210.819 122.033 211.205 122.458 211.478C122.884 211.743 123.378 211.875 123.94 211.875C124.422 211.875 124.848 211.775 125.217 211.574C125.587 211.366 125.868 211.08 126.06 210.719C126.261 210.358 126.362 209.944 126.362 209.478H123.639V208.466H126.566C127.048 208.466 127.414 208.587 127.663 208.828C127.911 209.061 128.036 209.402 128.036 209.852V212.791H127V210.02H126.976C126.888 210.928 126.574 211.643 126.036 212.165C125.506 212.679 124.787 212.936 123.88 212.936ZM129.748 212.791V204.358H133.699C134.229 204.358 134.699 204.459 135.109 204.66C135.518 204.852 135.835 205.129 136.06 205.491C136.285 205.844 136.398 206.25 136.398 206.708C136.398 207.213 136.237 207.663 135.916 208.057C135.594 208.442 135.169 208.715 134.639 208.876C135.137 208.996 135.47 209.289 135.639 209.755L136.783 212.791H135.53L134.482 209.96C134.346 209.599 134.077 209.418 133.675 209.418H130.928V212.791H129.748ZM133.699 208.382C134.173 208.382 134.542 208.237 134.807 207.948C135.08 207.651 135.217 207.286 135.217 206.852C135.217 206.402 135.076 206.053 134.795 205.804C134.514 205.555 134.149 205.431 133.699 205.431H130.928V208.382H133.699ZM139.281 212.791H138.1V204.358H139.414L143.967 211.105V204.358H145.136V212.791H143.823L139.281 206.045V212.791ZM149.341 212.936C148.53 212.936 147.872 212.747 147.366 212.369C146.868 211.984 146.599 211.45 146.559 210.767H147.691C147.723 211.145 147.892 211.442 148.197 211.659C148.502 211.867 148.883 211.972 149.341 211.972C150.176 211.972 150.594 211.667 150.594 211.056C150.594 210.88 150.55 210.739 150.462 210.635C150.381 210.53 150.277 210.454 150.148 210.406C150.02 210.35 149.811 210.269 149.522 210.165L148.631 209.876C148.205 209.739 147.864 209.607 147.607 209.478C147.35 209.35 147.137 209.173 146.968 208.948C146.799 208.723 146.715 208.43 146.715 208.069C146.715 207.507 146.92 207.065 147.329 206.744C147.739 206.414 148.301 206.25 149.016 206.25C149.747 206.25 150.337 206.438 150.787 206.816C151.245 207.193 151.514 207.735 151.594 208.442H150.486C150.437 208.041 150.281 207.735 150.016 207.527C149.751 207.318 149.41 207.213 148.992 207.213C148.631 207.213 148.345 207.29 148.137 207.442C147.936 207.587 147.835 207.788 147.835 208.045C147.835 208.278 147.916 208.454 148.076 208.575C148.245 208.687 148.422 208.776 148.606 208.84C148.799 208.896 148.924 208.932 148.98 208.948L149.823 209.225C150.265 209.37 150.622 209.518 150.895 209.671C151.168 209.824 151.377 210.016 151.522 210.249C151.666 210.474 151.739 210.759 151.739 211.105C151.739 211.683 151.53 212.132 151.112 212.454C150.703 212.775 150.112 212.936 149.341 212.936Z" fill="#D1DCDF"/>
</g>
</svg>
