<svg width="344" height="56" viewBox="0 0 344 56" fill="none" xmlns="http://www.w3.org/2000/svg">
<rect x="0.391702" y="0.391702" width="55.2166" height="55.2166" rx="12.1428" stroke="#A2C5CD" stroke-width="0.783404"/>
<rect x="96" width="56" height="56" rx="12.5345" fill="white"/>
<path d="M124.026 16.0002C128.003 16.0002 131.237 18.7511 131.312 22.5797C131.349 23.6575 130.569 24.2527 129.713 24.2527C128.896 24.2527 128.189 23.6583 128.152 22.6542C128.115 20.4977 126.294 18.8992 123.988 18.8992C121.832 18.8992 120.197 20.4232 120.197 22.5052C120.197 24.7725 121.721 25.7767 124.881 26.929C128.263 28.1558 131.349 29.6053 131.349 33.9173C131.349 37.6722 128.412 40.683 124.324 40.683C120.309 40.683 117 37.8577 117 34.0291C117 31.6499 118.152 29.9769 119.267 29.9769C120.234 29.9769 120.829 30.6086 120.829 31.4637C120.829 32.2071 120.197 32.5415 120.197 33.8801C120.197 36.2592 122.13 37.7832 124.324 37.7832C126.628 37.7832 128.152 36.1847 128.152 34.2517C128.152 31.8726 126.628 30.8693 123.468 29.7534C119.937 28.491 117 26.9662 117 22.7659C117 18.9746 120.048 16.0002 124.026 16.0002Z" fill="#033642"/>
<rect x="192" width="56" height="56" rx="12.5345" fill="white"/>
<path d="M231.737 38.3394V38.4295L218.809 38.4341V38.3394C220.673 37.2714 221.96 36.1835 223.118 35.0467H228.426L231.737 38.3394ZM228.534 21.2605L225.257 18H225.162C225.162 18 225.217 24.0765 219.715 29.6028C214.331 35.0116 208 35.0238 208 35.0238V35.1186L211.338 38.4356C211.338 38.4356 217.577 38.4983 223.089 33.0146C228.58 27.5494 228.534 21.2605 228.534 21.2605Z" fill="#033642"/>
<path d="M300.534 0.391602H331.466C338.172 0.391758 343.608 5.82814 343.608 12.5342V43.4658C343.608 50.1719 338.172 55.6082 331.466 55.6084H300.534C293.828 55.6082 288.392 50.1719 288.392 43.4658V12.5342C288.392 5.82814 293.828 0.391757 300.534 0.391602Z" stroke="#A2C5CD" stroke-width="0.783404"/>
</svg>
