<svg width="440" height="56" viewBox="0 0 440 56" fill="none" xmlns="http://www.w3.org/2000/svg">
<path d="M43.4658 0.391602H12.5342C5.82814 0.391758 0.391757 5.82814 0.391602 12.5342V43.4658C0.391758 50.1719 5.82815 55.6082 12.5342 55.6084H43.4658C50.1719 55.6082 55.6082 50.1719 55.6084 43.4658V12.5342C55.6082 5.82814 50.1719 0.391757 43.4658 0.391602Z" stroke="url(#paint0_linear_597_8086)" stroke-width="0.783404"/>
<rect x="96" width="56" height="56" rx="12.5345" fill="white"/>
<path d="M123.562 14.1236C119.916 14.5264 117.205 15.7099 114.808 17.9508C111.983 20.6072 110.406 24.2582 110.406 28.2113C110.406 31.9 111.718 35.2363 114.228 37.8927C118.516 42.4501 125.441 43.6209 131.028 40.7253C134.245 39.0509 136.729 36.1553 137.89 32.7561C138.848 29.9487 138.848 26.4739 137.89 23.6665C136.263 18.895 132.05 15.244 127.169 14.3628C126.059 14.1739 124.255 14.048 123.562 14.1236ZM126.21 19.109C126.513 19.2727 126.879 19.5623 127.018 19.7511C127.27 20.1036 127.282 20.2799 127.32 25.8319L127.358 31.5475H128.708C129.855 31.5475 130.146 31.4972 130.7 31.2454C132.706 30.3138 133.261 27.7077 131.798 26.0207C131.167 25.2779 130.499 24.9632 129.364 24.8877L128.418 24.8121L128.38 23.7042L128.342 22.6089H128.884C131.306 22.6089 133.286 23.8049 134.27 25.8696C134.711 26.7887 134.724 26.8768 134.724 28.2113C134.724 29.5458 134.711 29.6339 134.27 30.553C133.475 32.2148 131.924 33.3982 130.183 33.6878C129.767 33.7507 128.481 33.8137 127.32 33.8137H125.201V26.3229C125.201 17.8627 125.1 18.5551 126.21 19.109ZM123.814 30.0997C123.814 37.2128 123.801 37.5905 123.587 37.5905C123.208 37.5905 122.262 37.0492 121.998 36.6715C121.745 36.319 121.733 36.1427 121.695 30.5907L121.657 24.8751H120.307C119.16 24.8751 118.87 24.9254 118.315 25.1772C116.309 26.1088 115.754 28.7149 117.217 30.4019C117.848 31.1447 118.516 31.4594 119.652 31.5349L120.598 31.6105L120.635 32.7058L120.673 33.8137H120.131C117.709 33.8137 115.729 32.6176 114.745 30.553C114.304 29.6339 114.291 29.5458 114.291 28.2113C114.291 26.8768 114.304 26.7887 114.745 25.8696C115.3 24.7114 116.221 23.7672 117.318 23.2258C118.352 22.7222 118.92 22.6467 121.581 22.6215L123.814 22.6089V30.0997Z" fill="#033642"/>
<path d="M204.534 0.391602H235.466C242.172 0.391758 247.608 5.82814 247.608 12.5342V43.4658C247.608 50.1719 242.172 55.6082 235.466 55.6084H204.534C197.828 55.6082 192.392 50.1719 192.392 43.4658V12.5342C192.392 5.82814 197.828 0.391757 204.534 0.391602Z" stroke="#A2C5CD" stroke-width="0.783404"/>
<rect x="288" width="56" height="56" rx="12.5345" fill="white"/>
<path d="M305.094 22.3404H309.805V33.5323H312.151V37.9057H305.094V22.3404ZM326.901 32.6378H322.19V21.4459H319.844V17.0725H326.901V32.6378Z" fill="#033642"/>
<path d="M304 16H318.889V28.7822L313.164 21.4071H304V16ZM327.974 39H313.085V26.2178L318.81 33.5929H327.974" fill="#033642"/>
<path d="M396.534 0.391602H427.466C434.172 0.391758 439.608 5.82814 439.608 12.5342V43.4658C439.608 50.1719 434.172 55.6082 427.466 55.6084H396.534C389.828 55.6082 384.392 50.1719 384.392 43.4658V12.5342C384.392 5.82814 389.828 0.391757 396.534 0.391602Z" stroke="url(#paint1_linear_597_8086)" stroke-width="0.783404"/>
<defs>
<linearGradient id="paint0_linear_597_8086" x1="51.5" y1="19.5" x2="6.5" y2="19.5" gradientUnits="userSpaceOnUse">
<stop stop-color="#A2C5CD"/>
<stop offset="1" stop-color="#A2C5CD" stop-opacity="0"/>
</linearGradient>
<linearGradient id="paint1_linear_597_8086" x1="388.5" y1="19.5" x2="433.5" y2="19.5" gradientUnits="userSpaceOnUse">
<stop stop-color="#A2C5CD"/>
<stop offset="1" stop-color="#A2C5CD" stop-opacity="0"/>
</linearGradient>
</defs>
</svg>
