<svg width="440" height="219" viewBox="0 0 440 219" fill="none" xmlns="http://www.w3.org/2000/svg">
<path d="M43.4658 0.391602H12.5342C5.82814 0.391758 0.391757 5.82814 0.391602 12.5342V43.4658C0.391758 50.1719 5.82815 55.6082 12.5342 55.6084H43.4658C50.1719 55.6082 55.6082 50.1719 55.6084 43.4658V12.5342C55.6082 5.82814 50.1719 0.391757 43.4658 0.391602Z" stroke="url(#paint0_linear_579_19756)" stroke-width="0.783404"/>
<rect x="96" width="56" height="56" rx="12.5345" fill="white"/>
<path d="M123.562 14.1236C119.916 14.5264 117.205 15.7099 114.808 17.9508C111.983 20.6072 110.406 24.2582 110.406 28.2113C110.406 31.9 111.718 35.2363 114.228 37.8927C118.516 42.4501 125.441 43.6209 131.028 40.7253C134.245 39.0509 136.729 36.1553 137.89 32.7561C138.848 29.9487 138.848 26.4739 137.89 23.6665C136.263 18.895 132.05 15.244 127.169 14.3628C126.059 14.1739 124.255 14.048 123.562 14.1236ZM126.21 19.109C126.513 19.2727 126.879 19.5623 127.018 19.7511C127.27 20.1036 127.282 20.2799 127.32 25.8319L127.358 31.5475H128.708C129.855 31.5475 130.146 31.4972 130.7 31.2454C132.706 30.3138 133.261 27.7077 131.798 26.0207C131.167 25.2779 130.499 24.9632 129.364 24.8877L128.418 24.8121L128.38 23.7042L128.342 22.6089H128.884C131.306 22.6089 133.286 23.8049 134.27 25.8696C134.711 26.7887 134.724 26.8768 134.724 28.2113C134.724 29.5458 134.711 29.6339 134.27 30.553C133.475 32.2148 131.924 33.3982 130.183 33.6878C129.767 33.7507 128.481 33.8137 127.32 33.8137H125.201V26.3229C125.201 17.8627 125.1 18.5551 126.21 19.109ZM123.814 30.0997C123.814 37.2128 123.801 37.5905 123.587 37.5905C123.208 37.5905 122.262 37.0492 121.998 36.6715C121.745 36.319 121.733 36.1427 121.695 30.5907L121.657 24.8751H120.307C119.16 24.8751 118.87 24.9254 118.315 25.1772C116.309 26.1088 115.754 28.7149 117.217 30.4019C117.848 31.1447 118.516 31.4594 119.652 31.5349L120.598 31.6105L120.635 32.7058L120.673 33.8137H120.131C117.709 33.8137 115.729 32.6176 114.745 30.553C114.304 29.6339 114.291 29.5458 114.291 28.2113C114.291 26.8768 114.304 26.7887 114.745 25.8696C115.3 24.7114 116.221 23.7672 117.318 23.2258C118.352 22.7222 118.92 22.6467 121.581 22.6215L123.814 22.6089V30.0997Z" fill="#033642"/>
<path d="M204.534 0.391602H235.466C242.172 0.391758 247.608 5.82814 247.608 12.5342V43.4658C247.608 50.1719 242.172 55.6082 235.466 55.6084H204.534C197.828 55.6082 192.392 50.1719 192.392 43.4658V12.5342C192.392 5.82814 197.828 0.391757 204.534 0.391602Z" stroke="#ACC3CA" stroke-width="0.783404"/>
<rect x="288" width="56" height="56" rx="12.5345" fill="white"/>
<path d="M305.094 22.3404H309.805V33.5323H312.151V37.9057H305.094V22.3404ZM326.901 32.6378H322.19V21.4459H319.844V17.0725H326.901V32.6378Z" fill="#033642"/>
<path d="M304 16H318.889V28.7822L313.164 21.4071H304V16ZM327.974 39H313.085V26.2178L318.81 33.5929H327.974" fill="#033642"/>
<path d="M396.534 0.391602H427.466C434.172 0.391758 439.608 5.82814 439.608 12.5342V43.4658C439.608 50.1719 434.172 55.6082 427.466 55.6084H396.534C389.828 55.6082 384.392 50.1719 384.392 43.4658V12.5342C384.392 5.82814 389.828 0.391757 396.534 0.391602Z" stroke="url(#paint1_linear_579_19756)" stroke-width="0.783404"/>
<rect x="48.3917" y="163.392" width="55.2166" height="55.2166" rx="12.1428" stroke="#ACC3CA" stroke-width="0.783404"/>
<rect x="144" y="163" width="56" height="56" rx="12.5345" fill="white"/>
<path d="M172.026 179C176.003 179 179.237 181.751 179.312 185.58C179.349 186.657 178.569 187.253 177.713 187.253C176.896 187.253 176.189 186.658 176.152 185.654C176.115 183.498 174.294 181.899 171.988 181.899C169.832 181.899 168.197 183.423 168.197 185.505C168.197 187.773 169.721 188.777 172.881 189.929C176.263 191.156 179.349 192.605 179.349 196.917C179.349 200.672 176.412 203.683 172.324 203.683C168.309 203.683 165 200.858 165 197.029C165 194.65 166.152 192.977 167.267 192.977C168.234 192.977 168.829 193.609 168.829 194.464C168.829 195.207 168.197 195.542 168.197 196.88C168.197 199.259 170.13 200.783 172.324 200.783C174.628 200.783 176.152 199.185 176.152 197.252C176.152 194.873 174.628 193.869 171.468 192.753C167.937 191.491 165 189.966 165 185.766C165 181.975 168.048 179 172.026 179Z" fill="#033642"/>
<rect x="240" y="163" width="56" height="56" rx="12.5345" fill="white"/>
<path d="M279.737 201.339V201.43L266.809 201.434V201.339C268.673 200.271 269.96 199.184 271.118 198.047H276.426L279.737 201.339ZM276.534 184.261L273.257 181H273.162C273.162 181 273.217 187.076 267.715 192.603C262.331 198.012 256 198.024 256 198.024V198.119L259.338 201.436C259.338 201.436 265.577 201.498 271.089 196.015C276.58 190.549 276.534 184.261 276.534 184.261Z" fill="#033642"/>
<path d="M348.534 163.392H379.466C386.172 163.392 391.608 168.828 391.608 175.534V206.466C391.608 213.172 386.172 218.608 379.466 218.608H348.534C341.828 218.608 336.392 213.172 336.392 206.466V175.534C336.392 168.828 341.828 163.392 348.534 163.392Z" stroke="#ACC3CA" stroke-width="0.783404"/>
<path d="M143 93C143 84.1634 150.163 77 159 77H282C290.837 77 298 84.1634 298 93V125C298 133.837 290.837 141 282 141H159C150.163 141 143 133.837 143 125V93Z" fill="#A2C5CD" fill-opacity="0.3"/>
<rect x="151" y="85" width="139" height="48" rx="13" fill="#A2C5CD"/>
<path fill-rule="evenodd" clip-rule="evenodd" d="M182.5 105L184 109L188 110.5L184 112L182.5 116L181 112L177 110.5L181 109L182.5 105Z" fill="#01242D"/>
<path d="M178.9 104.1L178 102L177.1 104.1L175 105L177.1 105.9L178 108L178.9 105.9L181 105L178.9 104.1Z" fill="#01242D"/>
<path d="M199.088 114.5H197.168V103.3H199.088V114.5ZM201.194 114.5V106.02H202.714L202.874 107.268C203.141 106.82 203.53 106.457 204.042 106.18C204.554 105.903 205.12 105.764 205.738 105.764C206.645 105.764 207.37 106.047 207.914 106.612C208.458 107.177 208.73 107.935 208.73 108.884V114.5H206.842V108.98C206.842 108.5 206.693 108.121 206.394 107.844C206.096 107.556 205.685 107.412 205.162 107.412C204.554 107.412 204.058 107.599 203.674 107.972C203.29 108.335 203.093 108.799 203.082 109.364V114.5H201.194ZM214.08 114.5C213.162 114.5 212.458 114.281 211.968 113.844C211.488 113.396 211.248 112.751 211.248 111.908V107.62H209.76V106.02H211.248V103.124H213.136V106.02H215.328V107.62H213.136V111.78C213.136 112.143 213.226 112.42 213.408 112.612C213.589 112.804 213.856 112.9 214.208 112.9H215.168V114.5H214.08ZM220.458 114.74C219.605 114.74 218.847 114.553 218.186 114.18C217.525 113.796 217.007 113.268 216.634 112.596C216.271 111.913 216.09 111.145 216.09 110.292C216.09 109.385 216.271 108.591 216.634 107.908C217.007 107.215 217.514 106.687 218.154 106.324C218.794 105.951 219.509 105.764 220.298 105.764C221.098 105.764 221.797 105.945 222.394 106.308C223.002 106.66 223.477 107.172 223.818 107.844C224.159 108.505 224.335 109.289 224.346 110.196V110.644H217.978C218.042 111.401 218.293 112.009 218.73 112.468C219.178 112.916 219.759 113.14 220.474 113.14C220.965 113.14 221.386 113.028 221.738 112.804C222.09 112.569 222.335 112.239 222.474 111.812H224.314C224.101 112.729 223.653 113.449 222.97 113.972C222.287 114.484 221.45 114.74 220.458 114.74ZM222.394 109.316C222.277 108.697 222.031 108.217 221.658 107.876C221.295 107.535 220.842 107.364 220.298 107.364C219.743 107.364 219.269 107.54 218.874 107.892C218.479 108.233 218.207 108.708 218.058 109.316H222.394ZM229.691 117.956C228.902 117.956 228.203 117.833 227.595 117.588C226.998 117.343 226.529 116.996 226.187 116.548C225.857 116.1 225.691 115.577 225.691 114.98H227.579C227.579 115.385 227.777 115.727 228.171 116.004C228.566 116.281 229.073 116.42 229.691 116.42C230.427 116.42 230.993 116.223 231.387 115.828C231.782 115.433 231.979 114.905 231.979 114.244V113.044C231.702 113.46 231.329 113.785 230.859 114.02C230.401 114.255 229.873 114.372 229.275 114.372C228.529 114.372 227.857 114.191 227.259 113.828C226.673 113.465 226.209 112.959 225.867 112.308C225.537 111.657 225.371 110.916 225.371 110.084C225.371 109.252 225.537 108.511 225.867 107.86C226.198 107.199 226.657 106.687 227.243 106.324C227.841 105.951 228.513 105.764 229.259 105.764C229.91 105.764 230.491 105.908 231.003 106.196C231.526 106.473 231.921 106.852 232.187 107.332L232.347 106.02H233.851V114.244C233.851 114.991 233.681 115.641 233.339 116.196C233.009 116.761 232.529 117.193 231.899 117.492C231.281 117.801 230.545 117.956 229.691 117.956ZM229.643 112.788C230.326 112.788 230.886 112.537 231.323 112.036C231.761 111.524 231.979 110.868 231.979 110.068C231.979 109.268 231.761 108.617 231.323 108.116C230.897 107.615 230.337 107.364 229.643 107.364C228.95 107.364 228.39 107.615 227.963 108.116C227.537 108.617 227.323 109.273 227.323 110.084C227.323 110.884 227.537 111.535 227.963 112.036C228.401 112.537 228.961 112.788 229.643 112.788ZM235.757 114.5V106.02H237.277L237.501 107.684C238.056 106.511 239.037 105.924 240.445 105.924H240.765V107.764H240.445C239.56 107.764 238.872 107.988 238.381 108.436C237.89 108.884 237.645 109.508 237.645 110.308V114.5H235.757ZM244.666 114.676C243.685 114.676 242.901 114.457 242.314 114.02C241.738 113.572 241.45 112.959 241.45 112.18C241.45 111.284 241.781 110.655 242.442 110.292C243.114 109.929 243.994 109.684 245.082 109.556C245.178 109.545 245.466 109.513 245.946 109.46C246.437 109.407 246.789 109.321 247.002 109.204C247.216 109.076 247.322 108.905 247.322 108.692C247.312 108.276 247.152 107.945 246.842 107.7C246.533 107.444 246.112 107.316 245.578 107.316C245.024 107.316 244.56 107.455 244.186 107.732C243.813 107.999 243.6 108.356 243.546 108.804H241.642C241.696 108.217 241.898 107.695 242.25 107.236C242.602 106.767 243.066 106.404 243.642 106.148C244.229 105.892 244.885 105.764 245.61 105.764C246.73 105.764 247.6 106.041 248.218 106.596C248.848 107.151 249.162 107.892 249.162 108.82V112.66C249.162 112.905 249.301 113.028 249.578 113.028H250.042V114.5H249.146C248.72 114.5 248.373 114.415 248.106 114.244C247.85 114.073 247.685 113.828 247.61 113.508C247.578 113.412 247.552 113.316 247.53 113.22C247.008 114.191 246.053 114.676 244.666 114.676ZM245.05 113.188C245.712 113.188 246.256 113.017 246.682 112.676C247.109 112.335 247.322 111.881 247.322 111.316V110.132C247.184 110.356 246.954 110.516 246.634 110.612C246.314 110.697 245.866 110.777 245.29 110.852C244.629 110.927 244.138 111.039 243.818 111.188C243.509 111.337 243.354 111.615 243.354 112.02C243.354 112.393 243.498 112.681 243.786 112.884C244.085 113.087 244.506 113.188 245.05 113.188ZM254.83 114.5C253.912 114.5 253.208 114.281 252.718 113.844C252.238 113.396 251.998 112.751 251.998 111.908V107.62H250.51V106.02H251.998V103.124H253.886V106.02H256.078V107.62H253.886V111.78C253.886 112.143 253.976 112.42 254.158 112.612C254.339 112.804 254.606 112.9 254.958 112.9H255.918V114.5H254.83ZM261.208 114.74C260.355 114.74 259.597 114.553 258.936 114.18C258.275 113.796 257.757 113.268 257.384 112.596C257.021 111.913 256.84 111.145 256.84 110.292C256.84 109.385 257.021 108.591 257.384 107.908C257.757 107.215 258.264 106.687 258.904 106.324C259.544 105.951 260.259 105.764 261.048 105.764C261.848 105.764 262.547 105.945 263.144 106.308C263.752 106.66 264.227 107.172 264.568 107.844C264.909 108.505 265.085 109.289 265.096 110.196V110.644H258.728C258.792 111.401 259.043 112.009 259.48 112.468C259.928 112.916 260.509 113.14 261.224 113.14C261.715 113.14 262.136 113.028 262.488 112.804C262.84 112.569 263.085 112.239 263.224 111.812H265.064C264.851 112.729 264.403 113.449 263.72 113.972C263.037 114.484 262.2 114.74 261.208 114.74ZM263.144 109.316C263.027 108.697 262.781 108.217 262.408 107.876C262.045 107.535 261.592 107.364 261.048 107.364C260.493 107.364 260.019 107.54 259.624 107.892C259.229 108.233 258.957 108.708 258.808 109.316H263.144Z" fill="#01242D"/>
<defs>
<linearGradient id="paint0_linear_579_19756" x1="51.5" y1="19.5" x2="6.5" y2="19.5" gradientUnits="userSpaceOnUse">
<stop stop-color="#A2C5CD"/>
<stop offset="1" stop-color="#A2C5CD" stop-opacity="0"/>
</linearGradient>
<linearGradient id="paint1_linear_579_19756" x1="388.5" y1="19.5" x2="433.5" y2="19.5" gradientUnits="userSpaceOnUse">
<stop stop-color="#A2C5CD"/>
<stop offset="1" stop-color="#A2C5CD" stop-opacity="0"/>
</linearGradient>
</defs>
</svg>
