<svg width="467" height="249" viewBox="0 0 467 249" fill="none" xmlns="http://www.w3.org/2000/svg">
<path d="M420.989 0V0.5H423C423.635 0.5 424.255 0.562097 424.854 0.680664L424.95 0.191406C426.263 0.45089 427.482 0.96696 428.556 1.68555L428.278 2.09961C429.314 2.79329 430.207 3.68557 430.9 4.72168L431.313 4.44336C432.032 5.51661 432.548 6.73632 432.808 8.04883L432.319 8.14551C432.438 8.74489 432.5 9.36494 432.5 10V11.9834H433V15.9502H432.5V19.917H433V23.8838H432.5V27.8506H433V31.8164H432.5V35.7832H433V39.75H432.5V43.7168H433V47.6836H432.5V51.6504H433V55.6172H432.5V59.583H433V63.5498H432.5V67.5166H433V71.4834H432.5V75.4502H433V79.417H432.5V83.3838H433V87.3496H432.5V91.3164H433V95.2832H432.5V99.25H433V103.217H432.5V107.184H433V111.15H432.5V115.116H433V119.083H432.5V123.05H433V127.017H432.5V130.983H433V134.95H432.5V138.917H433V142.884H432.5V146.85H433V150.816H432.5V154.783H433V158.75H432.5V162.717H433V166.684H432.5V170.65H433V174.616H432.5V178.583H433V182.55H432.5V186.517H433V190.483H432.5V194.45H433V198.417H432.5V202.384H433V206.35H432.5V210.316H433V214.283H432.5V218.25H433V222.217H432.5V226.184H433V230.15H432.5V234.116H433V238.083H432.5V242.05H433V246.017H432.5V247.5H431.01V248H427.031V247.5H423.052V248H419.073V247.5H415.094V248H411.114V247.5H407.136V248H403.156V247.5H399.177V248H395.198V247.5H391.219V248H387.239V247.5H383.261V248H379.281V247.5H375.302V248H371.323V247.5H367.344V248H363.364V247.5H359.386V248H355.406V247.5H351.427V248H347.448V247.5H343.469V248H339.489V247.5H335.511V248H331.531V247.5H327.552V248H323.573V247.5H319.594V248H315.614V247.5H311.636V248H307.656V247.5H303.677V248H299.698V247.5H295.719V248H291.739V247.5H287.761V248H283.781V247.5H279.802V248H275.823V247.5H271.844V248H267.864V247.5H263.886V248H259.906V247.5H255.927V248H251.948V247.5H247.969V248H243.989V247.5H240.011V248H236.031V247.5H232.052V248H228.073V247.5H224.094V248H220.114V247.5H216.136V248H212.156V247.5H208.177V248H204.198V247.5H200.219V248H196.239V247.5H192.261V248H188.281V247.5H184.302V248H180.323V247.5H176.344V248H172.364V247.5H168.386V248H164.406V247.5H160.427V248H156.448V247.5H152.469V248H148.489V247.5H144.511V248H140.531V247.5H136.552V248H132.573V247.5H128.594V248H124.614V247.5H120.636V248H116.656V247.5H112.677V248H108.698V247.5H104.719V248H100.739V247.5H96.7607V248H92.7812V247.5H88.8018V248H84.8232V247.5H80.8438V248H76.8643V247.5H72.8857V248H68.9062V247.5H64.9268V248H60.9482V247.5H56.9688V248H52.9893V247.5H51.5V246.017H51V242.05H51.5V238.083H51V234.116H51.5V230.149H51V226.184H51.5V222.217H51V218.25H51.5V214.283H51V210.316H51.5V206.35H51V202.383H51.5V198.417H51V194.45H51.5V190.483H51V186.517H51.5V182.55H51V178.583H51.5V174.616H51V170.65H51.5V166.684H51V162.717H51.5V158.75H51V154.783H51.5V150.816H51V146.85H51.5V142.884H51V138.917H51.5V134.95H51V130.983H51.5V127.017H51V123.05H51.5V119.083H51V115.116H51.5V111.15H51V107.184H51.5V103.217H51V99.25H51.5V95.2832H51V91.3164H51.5V87.3496H51V83.3838H51.5V79.417H51V75.4502H51.5V71.4834H51V67.5166H51.5V63.5498H51V59.583H51.5V55.6162H51V51.6504H51.5V47.6836H51V43.7168H51.5V39.75H51V35.7832H51.5V31.8164H51V27.8496H51.5V23.8838H51V19.917H51.5V15.9502H51V11.9834H51.5V10C51.5 9.36494 51.5621 8.74489 51.6807 8.14551L51.1914 8.04883C51.451 6.73643 51.9669 5.51655 52.6855 4.44336L53.0996 4.72168C53.7933 3.68557 54.6856 2.79329 55.7217 2.09961L55.4434 1.68555C56.5166 0.966895 57.7364 0.451006 59.0488 0.191406L59.1455 0.680664C59.7449 0.562097 60.3649 0.5 61 0.5H63.0117V0H67.0332V0.5H71.0557V0H75.0781V0.5H79.1006V0H83.1221V0.5H87.1445V0H91.167V0.5H95.1895V0H99.2109V0.5H103.233V0H107.256V0.5H111.278V0H115.3V0.5H119.322V0H123.345V0.5H127.367V0H131.389V0.5H135.411V0H139.434V0.5H143.456V0H147.478V0.5H151.5V0H155.522V0.5H159.545V0H163.566V0.5H167.589V0H171.611V0.5H175.634V0H179.655V0.5H183.678V0H187.7V0.5H191.723V0H195.744V0.5H199.767V0H203.789V0.5H207.812V0H211.833V0.5H215.855V0H219.878V0.5H223.9V0H227.922V0.5H231.944V0H235.967V0.5H239.989V0H244.011V0.5H248.033V0H252.056V0.5H256.078V0H260.1V0.5H264.122V0H268.145V0.5H272.167V0H276.188V0.5H280.211V0H284.233V0.5H288.256V0H292.277V0.5H296.3V0H300.322V0.5H304.345V0H308.366V0.5H312.389V0H316.411V0.5H320.434V0H324.455V0.5H328.478V0H332.5V0.5H336.522V0H340.545V0.5H344.566V0H348.589V0.5H352.611V0H356.634V0.5H360.655V0H364.678V0.5H368.7V0H372.723V0.5H376.744V0H380.767V0.5H384.789V0H388.812V0.5H392.833V0H396.855V0.5H400.878V0H404.9V0.5H408.922V0H412.944V0.5H416.967V0H420.989Z" fill="#C1D3D8" stroke="#A2C5CD" stroke-dasharray="4 4"/>
<g clip-path="url(#clip0_704_9651)">
<rect x="64" y="11" width="356" height="238" rx="6.69412" fill="white"/>
<path fill-rule="evenodd" clip-rule="evenodd" d="M224.061 224.657C223.566 224.657 223.164 225.058 223.164 225.554V228.245C223.164 228.74 223.566 229.142 224.061 229.142H226.752C227.247 229.142 227.649 228.74 227.649 228.245V225.554C227.649 225.058 227.247 224.657 226.752 224.657H224.061ZM225.282 225.982C225.282 225.905 225.219 225.841 225.142 225.852C224.658 225.924 224.285 226.365 224.285 226.897V227.804C224.285 227.881 224.348 227.944 224.425 227.944H225.142C225.219 227.944 225.282 227.881 225.282 227.804V227.169C225.282 227.092 225.219 227.029 225.142 227.029H224.784V226.878C224.784 226.638 224.936 226.435 225.144 226.371C225.218 226.349 225.282 226.288 225.282 226.211V225.982ZM226.528 225.982C226.528 225.905 226.465 225.841 226.388 225.852C225.904 225.924 225.531 226.365 225.531 226.897V227.804C225.531 227.881 225.594 227.944 225.671 227.944H226.388C226.465 227.944 226.528 227.881 226.528 227.804V227.169C226.528 227.092 226.465 227.029 226.388 227.029H226.029V226.878C226.029 226.638 226.182 226.435 226.39 226.371C226.464 226.349 226.528 226.288 226.528 226.211V225.982Z" fill="#8B919E"/>
<path d="M230.735 228.76V225.498H231.837C232.093 225.498 232.302 225.544 232.464 225.637C232.628 225.728 232.749 225.852 232.828 226.008C232.906 226.164 232.945 226.338 232.945 226.53C232.945 226.722 232.906 226.897 232.828 227.054C232.75 227.211 232.63 227.336 232.468 227.43C232.305 227.522 232.097 227.568 231.843 227.568H231.053V227.218H231.831C232.006 227.218 232.146 227.188 232.253 227.127C232.359 227.067 232.436 226.985 232.484 226.882C232.532 226.778 232.557 226.661 232.557 226.53C232.557 226.399 232.532 226.283 232.484 226.18C232.436 226.077 232.358 225.996 232.251 225.938C232.144 225.878 232.002 225.848 231.824 225.848H231.13V228.76H230.735ZM233.907 225.498V228.76H233.531V225.498H233.907ZM235.621 228.811C235.385 228.811 235.182 228.759 235.011 228.655C234.841 228.55 234.71 228.403 234.617 228.215C234.526 228.026 234.48 227.806 234.48 227.556C234.48 227.305 234.526 227.084 234.617 226.893C234.71 226.701 234.838 226.551 235.003 226.444C235.168 226.336 235.362 226.282 235.582 226.282C235.71 226.282 235.836 226.303 235.96 226.345C236.084 226.388 236.197 226.457 236.299 226.552C236.401 226.647 236.482 226.772 236.543 226.928C236.603 227.084 236.634 227.276 236.634 227.505V227.664H234.748V227.339H236.251C236.251 227.201 236.224 227.078 236.169 226.97C236.114 226.861 236.037 226.776 235.936 226.713C235.836 226.651 235.718 226.619 235.582 226.619C235.433 226.619 235.303 226.656 235.194 226.731C235.086 226.804 235.002 226.9 234.944 227.017C234.885 227.135 234.856 227.262 234.856 227.396V227.613C234.856 227.798 234.888 227.954 234.952 228.083C235.017 228.21 235.106 228.307 235.221 228.374C235.336 228.44 235.469 228.473 235.621 228.473C235.719 228.473 235.809 228.459 235.888 228.432C235.969 228.403 236.038 228.361 236.097 228.304C236.155 228.247 236.2 228.176 236.232 228.091L236.595 228.193C236.557 228.316 236.493 228.424 236.403 228.518C236.312 228.61 236.201 228.682 236.068 228.734C235.935 228.785 235.786 228.811 235.621 228.811ZM237.925 228.817C237.77 228.817 237.63 228.788 237.503 228.73C237.377 228.67 237.276 228.585 237.202 228.473C237.128 228.361 237.091 228.225 237.091 228.065C237.091 227.925 237.118 227.812 237.173 227.725C237.229 227.636 237.302 227.567 237.395 227.518C237.487 227.468 237.589 227.43 237.701 227.406C237.813 227.381 237.926 227.36 238.04 227.345C238.189 227.326 238.309 227.312 238.401 227.302C238.495 227.292 238.563 227.274 238.605 227.25C238.649 227.226 238.671 227.183 238.671 227.123V227.11C238.671 226.953 238.628 226.831 238.542 226.743C238.457 226.656 238.328 226.613 238.155 226.613C237.975 226.613 237.834 226.652 237.733 226.731C237.631 226.809 237.559 226.893 237.517 226.982L237.161 226.855C237.224 226.706 237.309 226.591 237.416 226.508C237.523 226.424 237.64 226.365 237.766 226.333C237.893 226.299 238.019 226.282 238.142 226.282C238.22 226.282 238.311 226.291 238.413 226.31C238.516 226.328 238.615 226.366 238.71 226.423C238.807 226.481 238.887 226.567 238.951 226.683C239.015 226.799 239.046 226.954 239.046 227.148V228.76H238.671V228.428H238.651C238.626 228.482 238.584 228.538 238.524 228.599C238.465 228.659 238.385 228.711 238.287 228.753C238.188 228.796 238.067 228.817 237.925 228.817ZM237.983 228.479C238.131 228.479 238.256 228.45 238.358 228.392C238.461 228.333 238.539 228.258 238.591 228.166C238.644 228.073 238.671 227.976 238.671 227.874V227.53C238.655 227.549 238.62 227.567 238.565 227.583C238.512 227.598 238.451 227.611 238.381 227.623C238.312 227.633 238.244 227.643 238.178 227.651C238.114 227.659 238.061 227.665 238.021 227.67C237.923 227.683 237.832 227.704 237.747 227.733C237.663 227.76 237.595 227.802 237.543 227.858C237.492 227.914 237.467 227.989 237.467 228.084C237.467 228.215 237.515 228.314 237.611 228.381C237.709 228.447 237.833 228.479 237.983 228.479ZM241.465 226.861L241.128 226.957C241.106 226.901 241.075 226.846 241.034 226.793C240.993 226.739 240.938 226.694 240.868 226.659C240.798 226.624 240.708 226.607 240.599 226.607C240.449 226.607 240.324 226.641 240.225 226.71C240.126 226.778 240.076 226.865 240.076 226.97C240.076 227.063 240.11 227.137 240.178 227.191C240.246 227.245 240.353 227.29 240.497 227.326L240.86 227.416C241.079 227.469 241.242 227.55 241.349 227.659C241.456 227.768 241.51 227.907 241.51 228.078C241.51 228.218 241.47 228.344 241.389 228.454C241.309 228.564 241.198 228.651 241.054 228.715C240.911 228.779 240.744 228.811 240.554 228.811C240.305 228.811 240.098 228.757 239.935 228.648C239.771 228.54 239.668 228.382 239.624 228.174L239.981 228.084C240.015 228.216 240.079 228.315 240.174 228.381C240.269 228.447 240.394 228.479 240.548 228.479C240.723 228.479 240.862 228.442 240.965 228.368C241.069 228.293 241.121 228.202 241.121 228.097C241.121 228.012 241.092 227.941 241.032 227.884C240.973 227.825 240.881 227.782 240.758 227.753L240.35 227.658C240.126 227.605 239.962 227.522 239.857 227.411C239.753 227.298 239.701 227.158 239.701 226.989C239.701 226.851 239.739 226.729 239.817 226.622C239.895 226.516 240.002 226.433 240.137 226.372C240.273 226.312 240.427 226.282 240.599 226.282C240.841 226.282 241.031 226.335 241.169 226.441C241.308 226.547 241.407 226.687 241.465 226.861ZM243.101 228.811C242.866 228.811 242.662 228.759 242.491 228.655C242.321 228.55 242.19 228.403 242.098 228.215C242.007 228.026 241.961 227.806 241.961 227.556C241.961 227.305 242.007 227.084 242.098 226.893C242.19 226.701 242.319 226.551 242.483 226.444C242.649 226.336 242.842 226.282 243.063 226.282C243.19 226.282 243.316 226.303 243.441 226.345C243.565 226.388 243.678 226.457 243.78 226.552C243.882 226.647 243.963 226.772 244.023 226.928C244.084 227.084 244.114 227.276 244.114 227.505V227.664H242.229V227.339H243.732C243.732 227.201 243.704 227.078 243.649 226.97C243.595 226.861 243.518 226.776 243.417 226.713C243.317 226.651 243.199 226.619 243.063 226.619C242.913 226.619 242.784 226.656 242.674 226.731C242.566 226.804 242.483 226.9 242.424 227.017C242.366 227.135 242.337 227.262 242.337 227.396V227.613C242.337 227.798 242.369 227.954 242.432 228.083C242.497 228.21 242.587 228.307 242.702 228.374C242.816 228.44 242.949 228.473 243.101 228.473C243.2 228.473 243.289 228.459 243.369 228.432C243.45 228.403 243.519 228.361 243.578 228.304C243.636 228.247 243.681 228.176 243.713 228.091L244.076 228.193C244.038 228.316 243.974 228.424 243.883 228.518C243.793 228.61 243.682 228.682 243.549 228.734C243.416 228.785 243.267 228.811 243.101 228.811ZM245.947 229.677V226.313H246.31V226.702H246.355C246.383 226.66 246.421 226.605 246.47 226.54C246.52 226.473 246.591 226.413 246.683 226.361C246.777 226.308 246.903 226.282 247.062 226.282C247.268 226.282 247.45 226.333 247.607 226.436C247.764 226.539 247.887 226.685 247.975 226.874C248.063 227.063 248.107 227.286 248.107 227.543C248.107 227.802 248.063 228.027 247.975 228.217C247.887 228.406 247.765 228.552 247.608 228.656C247.452 228.759 247.272 228.811 247.069 228.811C246.911 228.811 246.786 228.785 246.691 228.733C246.597 228.68 246.524 228.62 246.473 228.553C246.422 228.485 246.383 228.428 246.355 228.384H246.323V229.677H245.947ZM246.317 227.537C246.317 227.721 246.344 227.884 246.398 228.026C246.452 228.166 246.531 228.276 246.635 228.355C246.739 228.434 246.867 228.473 247.018 228.473C247.175 228.473 247.306 228.432 247.411 228.349C247.517 228.265 247.597 228.152 247.65 228.011C247.704 227.869 247.731 227.711 247.731 227.537C247.731 227.365 247.705 227.21 247.651 227.072C247.599 226.932 247.52 226.823 247.414 226.742C247.309 226.66 247.177 226.619 247.018 226.619C246.865 226.619 246.736 226.658 246.632 226.736C246.528 226.812 246.45 226.919 246.396 227.057C246.343 227.194 246.317 227.354 246.317 227.537ZM249.4 228.817C249.245 228.817 249.105 228.788 248.978 228.73C248.852 228.67 248.751 228.585 248.677 228.473C248.603 228.361 248.566 228.225 248.566 228.065C248.566 227.925 248.593 227.812 248.648 227.725C248.704 227.636 248.777 227.567 248.87 227.518C248.962 227.468 249.064 227.43 249.176 227.406C249.288 227.381 249.401 227.36 249.515 227.345C249.664 227.326 249.784 227.312 249.876 227.302C249.97 227.292 250.038 227.274 250.08 227.25C250.124 227.226 250.146 227.183 250.146 227.123V227.11C250.146 226.953 250.103 226.831 250.017 226.743C249.932 226.656 249.803 226.613 249.63 226.613C249.45 226.613 249.309 226.652 249.208 226.731C249.106 226.809 249.034 226.893 248.992 226.982L248.636 226.855C248.699 226.706 248.784 226.591 248.891 226.508C248.998 226.424 249.115 226.365 249.241 226.333C249.368 226.299 249.494 226.282 249.617 226.282C249.695 226.282 249.786 226.291 249.888 226.31C249.991 226.328 250.09 226.366 250.185 226.423C250.282 226.481 250.362 226.567 250.426 226.683C250.49 226.799 250.521 226.954 250.521 227.148V228.76H250.146V228.428H250.126C250.101 228.482 250.059 228.538 249.999 228.599C249.94 228.659 249.86 228.711 249.762 228.753C249.663 228.796 249.542 228.817 249.4 228.817ZM249.458 228.479C249.606 228.479 249.731 228.45 249.833 228.392C249.936 228.333 250.014 228.258 250.066 228.166C250.119 228.073 250.146 227.976 250.146 227.874V227.53C250.13 227.549 250.095 227.567 250.04 227.583C249.987 227.598 249.926 227.611 249.856 227.623C249.787 227.633 249.719 227.643 249.653 227.651C249.589 227.659 249.536 227.665 249.496 227.67C249.398 227.683 249.307 227.704 249.222 227.733C249.138 227.76 249.07 227.802 249.018 227.858C248.967 227.914 248.942 227.989 248.942 228.084C248.942 228.215 248.99 228.314 249.086 228.381C249.184 228.447 249.308 228.479 249.458 228.479ZM251.362 229.677C251.298 229.677 251.241 229.672 251.192 229.661C251.142 229.652 251.107 229.642 251.088 229.633L251.184 229.301C251.275 229.325 251.356 229.333 251.426 229.327C251.496 229.32 251.558 229.289 251.612 229.233C251.667 229.178 251.718 229.088 251.763 228.964L251.833 228.773L250.929 226.313H251.336L252.012 228.263H252.037L252.713 226.313H253.12L252.082 229.117C252.035 229.243 251.977 229.347 251.908 229.43C251.839 229.514 251.759 229.576 251.668 229.617C251.577 229.657 251.476 229.677 251.362 229.677ZM255.432 228.76L254.687 226.313H255.082L255.61 228.186H255.636L256.158 226.313H256.56L257.076 228.18H257.101L257.63 226.313H258.025L257.279 228.76H256.91L256.375 226.88H256.337L255.801 228.76H255.432ZM258.522 228.76V226.313H258.898V228.76H258.522ZM258.713 225.906C258.64 225.906 258.576 225.881 258.523 225.831C258.471 225.781 258.445 225.721 258.445 225.651C258.445 225.581 258.471 225.521 258.523 225.471C258.576 225.421 258.64 225.396 258.713 225.396C258.786 225.396 258.849 225.421 258.901 225.471C258.954 225.521 258.98 225.581 258.98 225.651C258.98 225.721 258.954 225.781 258.901 225.831C258.849 225.881 258.786 225.906 258.713 225.906ZM260.65 226.313V226.632H259.382V226.313H260.65ZM259.752 225.727H260.127V228.059C260.127 228.165 260.143 228.245 260.174 228.298C260.206 228.35 260.246 228.385 260.295 228.403C260.345 228.42 260.397 228.428 260.452 228.428C260.494 228.428 260.528 228.426 260.554 228.422C260.581 228.417 260.602 228.413 260.618 228.409L260.694 228.747C260.669 228.757 260.633 228.766 260.588 228.776C260.542 228.786 260.484 228.792 260.414 228.792C260.308 228.792 260.204 228.769 260.102 228.723C260.001 228.677 259.917 228.608 259.85 228.514C259.785 228.421 259.752 228.303 259.752 228.161V225.727ZM261.644 227.288V228.76H261.268V225.498H261.644V226.696H261.676C261.733 226.569 261.819 226.469 261.934 226.395C262.049 226.319 262.203 226.282 262.395 226.282C262.562 226.282 262.708 226.315 262.833 226.382C262.959 226.448 263.056 226.549 263.125 226.686C263.195 226.822 263.23 226.995 263.23 227.205V228.76H262.854V227.231C262.854 227.037 262.804 226.886 262.703 226.78C262.603 226.673 262.464 226.619 262.287 226.619C262.164 226.619 262.054 226.645 261.956 226.697C261.859 226.749 261.783 226.825 261.726 226.925C261.671 227.025 261.644 227.146 261.644 227.288ZM263.918 228.76V226.313H264.293V228.76H263.918ZM264.109 225.906C264.035 225.906 263.972 225.881 263.919 225.831C263.867 225.781 263.841 225.721 263.841 225.651C263.841 225.581 263.867 225.521 263.919 225.471C263.972 225.421 264.035 225.396 264.109 225.396C264.182 225.396 264.245 225.421 264.297 225.471C264.35 225.521 264.376 225.581 264.376 225.651C264.376 225.721 264.35 225.781 264.297 225.831C264.245 225.881 264.182 225.906 264.109 225.906ZM265.358 227.288V228.76H264.982V226.313H265.345V226.696H265.377C265.434 226.571 265.521 226.472 265.638 226.396C265.755 226.32 265.906 226.282 266.09 226.282C266.256 226.282 266.401 226.316 266.525 226.384C266.649 226.45 266.746 226.552 266.815 226.689C266.884 226.825 266.919 226.997 266.919 227.205V228.76H266.543V227.231C266.543 227.039 266.493 226.889 266.393 226.782C266.293 226.673 266.156 226.619 265.982 226.619C265.862 226.619 265.755 226.645 265.66 226.697C265.567 226.749 265.493 226.825 265.439 226.925C265.385 227.025 265.358 227.146 265.358 227.288ZM270.007 225.498V228.76H269.612V225.912H269.593L268.797 226.441V226.04L269.612 225.498H270.007ZM271.964 228.804C271.778 228.804 271.609 228.767 271.46 228.693C271.31 228.619 271.19 228.517 271.1 228.387C271.009 228.258 270.96 228.11 270.951 227.944H271.334C271.349 228.092 271.415 228.214 271.534 228.311C271.654 228.406 271.798 228.454 271.964 228.454C272.098 228.454 272.217 228.423 272.321 228.36C272.426 228.297 272.509 228.211 272.568 228.102C272.629 227.992 272.659 227.867 272.659 227.728C272.659 227.585 272.627 227.459 272.565 227.347C272.503 227.235 272.418 227.146 272.31 227.081C272.202 227.016 272.078 226.983 271.939 226.982C271.839 226.981 271.737 226.997 271.632 227.029C271.526 227.059 271.44 227.099 271.372 227.148L271.002 227.103L271.2 225.498H272.895V225.848H271.531L271.417 226.81H271.436C271.503 226.757 271.586 226.713 271.687 226.678C271.788 226.643 271.893 226.626 272.003 226.626C272.202 226.626 272.38 226.673 272.536 226.769C272.693 226.863 272.816 226.993 272.906 227.158C272.996 227.322 273.041 227.51 273.041 227.721C273.041 227.929 272.994 228.115 272.901 228.279C272.808 228.441 272.681 228.57 272.519 228.664C272.356 228.758 272.171 228.804 271.964 228.804ZM275.865 228.811C275.661 228.811 275.481 228.759 275.325 228.656C275.169 228.552 275.047 228.406 274.959 228.217C274.871 228.027 274.827 227.802 274.827 227.543C274.827 227.286 274.871 227.063 274.959 226.874C275.047 226.685 275.17 226.539 275.327 226.436C275.484 226.333 275.666 226.282 275.872 226.282C276.031 226.282 276.157 226.308 276.249 226.361C276.342 226.413 276.414 226.473 276.462 226.54C276.512 226.605 276.551 226.66 276.579 226.702H276.611V225.498H276.986V228.76H276.623V228.384H276.579C276.551 228.428 276.512 228.485 276.461 228.553C276.41 228.62 276.337 228.68 276.243 228.733C276.148 228.785 276.022 228.811 275.865 228.811ZM275.916 228.473C276.067 228.473 276.194 228.434 276.298 228.355C276.402 228.276 276.482 228.166 276.536 228.026C276.59 227.884 276.617 227.721 276.617 227.537C276.617 227.354 276.59 227.194 276.537 227.057C276.484 226.919 276.406 226.812 276.302 226.736C276.198 226.658 276.069 226.619 275.916 226.619C275.757 226.619 275.624 226.66 275.518 226.742C275.413 226.823 275.334 226.932 275.281 227.072C275.229 227.21 275.203 227.365 275.203 227.537C275.203 227.711 275.229 227.869 275.282 228.011C275.336 228.152 275.416 228.265 275.521 228.349C275.627 228.432 275.759 228.473 275.916 228.473ZM278.447 228.817C278.292 228.817 278.151 228.788 278.025 228.73C277.898 228.67 277.798 228.585 277.724 228.473C277.649 228.361 277.612 228.225 277.612 228.065C277.612 227.925 277.64 227.812 277.695 227.725C277.75 227.636 277.824 227.567 277.917 227.518C278.009 227.468 278.111 227.43 278.222 227.406C278.335 227.381 278.448 227.36 278.562 227.345C278.71 227.326 278.831 227.312 278.923 227.302C279.016 227.292 279.084 227.274 279.127 227.25C279.17 227.226 279.192 227.183 279.192 227.123V227.11C279.192 226.953 279.149 226.831 279.063 226.743C278.978 226.656 278.849 226.613 278.676 226.613C278.497 226.613 278.356 226.652 278.254 226.731C278.152 226.809 278.081 226.893 278.039 226.982L277.682 226.855C277.746 226.706 277.831 226.591 277.937 226.508C278.044 226.424 278.161 226.365 278.288 226.333C278.415 226.299 278.54 226.282 278.663 226.282C278.742 226.282 278.832 226.291 278.934 226.31C279.037 226.328 279.136 226.366 279.232 226.423C279.329 226.481 279.409 226.567 279.473 226.683C279.536 226.799 279.568 226.954 279.568 227.148V228.76H279.192V228.428H279.173C279.148 228.482 279.105 228.538 279.046 228.599C278.986 228.659 278.907 228.711 278.808 228.753C278.71 228.796 278.589 228.817 278.447 228.817ZM278.504 228.479C278.653 228.479 278.778 228.45 278.88 228.392C278.983 228.333 279.061 228.258 279.113 228.166C279.166 228.073 279.192 227.976 279.192 227.874V227.53C279.176 227.549 279.141 227.567 279.087 227.583C279.034 227.598 278.972 227.611 278.902 227.623C278.833 227.633 278.766 227.643 278.7 227.651C278.635 227.659 278.583 227.665 278.542 227.67C278.445 227.683 278.353 227.704 278.268 227.733C278.185 227.76 278.117 227.802 278.065 227.858C278.014 227.914 277.988 227.989 277.988 228.084C277.988 228.215 278.036 228.314 278.133 228.381C278.231 228.447 278.354 228.479 278.504 228.479ZM280.409 229.677C280.345 229.677 280.288 229.672 280.238 229.661C280.188 229.652 280.154 229.642 280.135 229.633L280.23 229.301C280.322 229.325 280.402 229.333 280.472 229.327C280.542 229.32 280.604 229.289 280.659 229.233C280.714 229.178 280.764 229.088 280.81 228.964L280.88 228.773L279.975 226.313H280.383L281.058 228.263H281.084L281.759 226.313H282.167L281.128 229.117C281.082 229.243 281.024 229.347 280.955 229.43C280.886 229.514 280.806 229.576 280.714 229.617C280.624 229.657 280.522 229.677 280.409 229.677ZM284.396 226.861L284.058 226.957C284.037 226.901 284.006 226.846 283.964 226.793C283.924 226.739 283.869 226.694 283.799 226.659C283.728 226.624 283.639 226.607 283.529 226.607C283.38 226.607 283.255 226.641 283.155 226.71C283.056 226.778 283.007 226.865 283.007 226.97C283.007 227.063 283.041 227.137 283.109 227.191C283.177 227.245 283.283 227.29 283.427 227.326L283.791 227.416C284.009 227.469 284.172 227.55 284.28 227.659C284.387 227.768 284.44 227.907 284.44 228.078C284.44 228.218 284.4 228.344 284.319 228.454C284.24 228.564 284.128 228.651 283.985 228.715C283.842 228.779 283.675 228.811 283.485 228.811C283.235 228.811 283.029 228.757 282.865 228.648C282.702 228.54 282.598 228.382 282.555 228.174L282.911 228.084C282.945 228.216 283.01 228.315 283.104 228.381C283.2 228.447 283.324 228.479 283.478 228.479C283.654 228.479 283.793 228.442 283.896 228.368C284 228.293 284.052 228.202 284.052 228.097C284.052 228.012 284.022 227.941 283.963 227.884C283.903 227.825 283.812 227.782 283.689 227.753L283.281 227.658C283.057 227.605 282.892 227.522 282.787 227.411C282.683 227.298 282.631 227.158 282.631 226.989C282.631 226.851 282.67 226.729 282.747 226.622C282.826 226.516 282.933 226.433 283.068 226.372C283.203 226.312 283.357 226.282 283.529 226.282C283.771 226.282 283.962 226.335 284.1 226.441C284.239 226.547 284.337 226.687 284.396 226.861ZM287.261 228.811C287.041 228.811 286.847 228.758 286.68 228.653C286.514 228.548 286.385 228.401 286.291 228.212C286.199 228.023 286.153 227.802 286.153 227.549C286.153 227.295 286.199 227.072 286.291 226.882C286.385 226.692 286.514 226.544 286.68 226.439C286.847 226.334 287.041 226.282 287.261 226.282C287.482 226.282 287.675 226.334 287.841 226.439C288.008 226.544 288.137 226.692 288.23 226.882C288.323 227.072 288.37 227.295 288.37 227.549C288.37 227.802 288.323 228.023 288.23 228.212C288.137 228.401 288.008 228.548 287.841 228.653C287.675 228.758 287.482 228.811 287.261 228.811ZM287.261 228.473C287.429 228.473 287.567 228.43 287.675 228.344C287.784 228.258 287.864 228.145 287.916 228.005C287.968 227.865 287.994 227.713 287.994 227.549C287.994 227.386 287.968 227.233 287.916 227.092C287.864 226.951 287.784 226.837 287.675 226.75C287.567 226.663 287.429 226.619 287.261 226.619C287.094 226.619 286.956 226.663 286.847 226.75C286.739 226.837 286.659 226.951 286.607 227.092C286.555 227.233 286.529 227.386 286.529 227.549C286.529 227.713 286.555 227.865 286.607 228.005C286.659 228.145 286.739 228.258 286.847 228.344C286.956 228.43 287.094 228.473 287.261 228.473ZM290.033 226.313V226.632H288.714V226.313H290.033ZM289.109 228.76V225.976C289.109 225.836 289.142 225.719 289.208 225.625C289.274 225.532 289.359 225.462 289.464 225.415C289.569 225.368 289.68 225.345 289.797 225.345C289.89 225.345 289.965 225.353 290.023 225.367C290.082 225.382 290.125 225.396 290.154 225.409L290.046 225.734C290.027 225.727 290 225.719 289.966 225.71C289.933 225.7 289.89 225.696 289.835 225.696C289.711 225.696 289.622 225.727 289.566 225.789C289.512 225.852 289.485 225.944 289.485 226.065V228.76H289.109ZM291.821 228.76V226.313H292.184V226.683H292.21C292.254 226.562 292.335 226.464 292.452 226.388C292.569 226.313 292.7 226.275 292.847 226.275C292.874 226.275 292.909 226.276 292.95 226.277C292.992 226.278 293.023 226.279 293.044 226.282V226.664C293.031 226.661 293.002 226.656 292.957 226.65C292.912 226.642 292.865 226.638 292.815 226.638C292.696 226.638 292.59 226.663 292.496 226.713C292.404 226.762 292.331 226.83 292.277 226.917C292.223 227.003 292.197 227.101 292.197 227.212V228.76H291.821ZM294.441 228.811C294.205 228.811 294.002 228.759 293.831 228.655C293.661 228.55 293.53 228.403 293.438 228.215C293.346 228.026 293.301 227.806 293.301 227.556C293.301 227.305 293.346 227.084 293.438 226.893C293.53 226.701 293.658 226.551 293.823 226.444C293.989 226.336 294.182 226.282 294.403 226.282C294.53 226.282 294.656 226.303 294.78 226.345C294.904 226.388 295.018 226.457 295.119 226.552C295.221 226.647 295.303 226.772 295.363 226.928C295.424 227.084 295.454 227.276 295.454 227.505V227.664H293.568V227.339H295.072C295.072 227.201 295.044 227.078 294.989 226.97C294.935 226.861 294.857 226.776 294.756 226.713C294.657 226.651 294.539 226.619 294.403 226.619C294.253 226.619 294.124 226.656 294.014 226.731C293.906 226.804 293.823 226.9 293.764 227.017C293.706 227.135 293.677 227.262 293.677 227.396V227.613C293.677 227.798 293.708 227.954 293.772 228.083C293.837 228.21 293.927 228.307 294.041 228.374C294.156 228.44 294.289 228.473 294.441 228.473C294.54 228.473 294.629 228.459 294.709 228.432C294.789 228.403 294.859 228.361 294.917 228.304C294.976 228.247 295.021 228.176 295.053 228.091L295.416 228.193C295.377 228.316 295.313 228.424 295.223 228.518C295.133 228.61 295.021 228.682 294.889 228.734C294.756 228.785 294.607 228.811 294.441 228.811ZM297.019 228.811C296.79 228.811 296.593 228.757 296.427 228.648C296.261 228.54 296.134 228.391 296.045 228.201C295.956 228.011 295.911 227.794 295.911 227.549C295.911 227.301 295.957 227.082 296.048 226.892C296.14 226.7 296.269 226.551 296.433 226.444C296.599 226.336 296.792 226.282 297.013 226.282C297.185 226.282 297.34 226.313 297.478 226.377C297.616 226.441 297.729 226.53 297.817 226.645C297.906 226.759 297.96 226.893 297.981 227.046H297.606C297.577 226.935 297.513 226.836 297.414 226.75C297.317 226.663 297.185 226.619 297.019 226.619C296.873 226.619 296.744 226.657 296.634 226.734C296.525 226.809 296.439 226.916 296.378 227.054C296.317 227.191 296.287 227.352 296.287 227.537C296.287 227.726 296.317 227.89 296.376 228.03C296.437 228.17 296.522 228.279 296.631 228.357C296.741 228.434 296.871 228.473 297.019 228.473C297.117 228.473 297.206 228.456 297.285 228.422C297.365 228.388 297.433 228.339 297.488 228.276C297.543 228.212 297.582 228.135 297.606 228.046H297.981C297.96 228.191 297.908 228.321 297.824 228.436C297.741 228.551 297.631 228.642 297.494 228.71C297.358 228.777 297.2 228.811 297.019 228.811ZM299.557 228.811C299.321 228.811 299.118 228.759 298.947 228.655C298.777 228.55 298.646 228.403 298.553 228.215C298.462 228.026 298.416 227.806 298.416 227.556C298.416 227.305 298.462 227.084 298.553 226.893C298.646 226.701 298.774 226.551 298.939 226.444C299.104 226.336 299.297 226.282 299.518 226.282C299.646 226.282 299.772 226.303 299.896 226.345C300.02 226.388 300.133 226.457 300.235 226.552C300.337 226.647 300.418 226.772 300.479 226.928C300.539 227.084 300.569 227.276 300.569 227.505V227.664H298.684V227.339H300.187C300.187 227.201 300.16 227.078 300.104 226.97C300.05 226.861 299.973 226.776 299.872 226.713C299.772 226.651 299.654 226.619 299.518 226.619C299.369 226.619 299.239 226.656 299.13 226.731C299.021 226.804 298.938 226.9 298.88 227.017C298.821 227.135 298.792 227.262 298.792 227.396V227.613C298.792 227.798 298.824 227.954 298.888 228.083C298.952 228.21 299.042 228.307 299.157 228.374C299.271 228.44 299.405 228.473 299.557 228.473C299.655 228.473 299.744 228.459 299.824 228.432C299.905 228.403 299.974 228.361 300.033 228.304C300.091 228.247 300.136 228.176 300.168 228.091L300.531 228.193C300.493 228.316 300.429 228.424 300.339 228.518C300.248 228.61 300.137 228.682 300.004 228.734C299.871 228.785 299.722 228.811 299.557 228.811ZM301.141 228.76V226.313H301.517V228.76H301.141ZM301.332 225.906C301.259 225.906 301.196 225.881 301.143 225.831C301.091 225.781 301.065 225.721 301.065 225.651C301.065 225.581 301.091 225.521 301.143 225.471C301.196 225.421 301.259 225.396 301.332 225.396C301.406 225.396 301.468 225.421 301.52 225.471C301.573 225.521 301.6 225.581 301.6 225.651C301.6 225.721 301.573 225.781 301.52 225.831C301.468 225.881 301.406 225.906 301.332 225.906ZM304.206 226.313L303.301 228.76H302.919L302.014 226.313H302.422L303.097 228.263H303.123L303.798 226.313H304.206ZM304.702 228.76V226.313H305.078V228.76H304.702ZM304.893 225.906C304.82 225.906 304.757 225.881 304.704 225.831C304.652 225.781 304.626 225.721 304.626 225.651C304.626 225.581 304.652 225.521 304.704 225.471C304.757 225.421 304.82 225.396 304.893 225.396C304.966 225.396 305.029 225.421 305.081 225.471C305.134 225.521 305.161 225.581 305.161 225.651C305.161 225.721 305.134 225.781 305.081 225.831C305.029 225.881 304.966 225.906 304.893 225.906ZM306.142 227.288V228.76H305.766V226.313H306.129V226.696H306.161C306.219 226.571 306.306 226.472 306.422 226.396C306.539 226.32 306.69 226.282 306.875 226.282C307.04 226.282 307.185 226.316 307.31 226.384C307.434 226.45 307.53 226.552 307.599 226.689C307.668 226.825 307.703 226.997 307.703 227.205V228.76H307.327V227.231C307.327 227.039 307.277 226.889 307.177 226.782C307.078 226.673 306.941 226.619 306.766 226.619C306.646 226.619 306.539 226.645 306.445 226.697C306.351 226.749 306.278 226.825 306.223 226.925C306.169 227.025 306.142 227.146 306.142 227.288ZM309.377 229.728C309.196 229.728 309.04 229.705 308.909 229.658C308.778 229.612 308.67 229.552 308.582 229.476C308.496 229.402 308.428 229.322 308.377 229.238L308.676 229.027C308.71 229.072 308.753 229.123 308.805 229.18C308.857 229.239 308.929 229.289 309.019 229.332C309.11 229.375 309.23 229.397 309.377 229.397C309.575 229.397 309.738 229.349 309.866 229.253C309.995 229.158 310.059 229.008 310.059 228.804V228.307H310.027C309.999 228.352 309.96 228.407 309.909 228.473C309.859 228.538 309.787 228.596 309.693 228.647C309.599 228.697 309.473 228.722 309.313 228.722C309.116 228.722 308.939 228.675 308.782 228.581C308.625 228.488 308.502 228.352 308.41 228.174C308.32 227.995 308.275 227.779 308.275 227.524C308.275 227.273 308.319 227.055 308.407 226.869C308.495 226.682 308.618 226.538 308.775 226.436C308.932 226.333 309.114 226.282 309.32 226.282C309.479 226.282 309.605 226.308 309.699 226.361C309.793 226.413 309.866 226.473 309.916 226.54C309.966 226.605 310.006 226.66 310.033 226.702H310.072V226.313H310.435V228.83C310.435 229.04 310.387 229.211 310.291 229.343C310.197 229.475 310.069 229.573 309.909 229.634C309.75 229.697 309.573 229.728 309.377 229.728ZM309.364 228.384C309.515 228.384 309.643 228.349 309.747 228.28C309.851 228.211 309.93 228.112 309.984 227.983C310.038 227.853 310.065 227.698 310.065 227.518C310.065 227.341 310.039 227.186 309.986 227.051C309.933 226.916 309.854 226.81 309.75 226.734C309.646 226.657 309.517 226.619 309.364 226.619C309.205 226.619 309.072 226.66 308.966 226.74C308.861 226.821 308.782 226.929 308.729 227.065C308.677 227.201 308.651 227.352 308.651 227.518C308.651 227.687 308.678 227.838 308.731 227.968C308.785 228.098 308.864 228.2 308.969 228.274C309.076 228.347 309.207 228.384 309.364 228.384ZM313.448 226.313V226.632H312.18V226.313H313.448ZM312.55 225.727H312.926V228.059C312.926 228.165 312.941 228.245 312.972 228.298C313.004 228.35 313.044 228.385 313.093 228.403C313.143 228.42 313.195 228.428 313.251 228.428C313.292 228.428 313.326 228.426 313.352 228.422C313.379 228.417 313.4 228.413 313.416 228.409L313.493 228.747C313.467 228.757 313.432 228.766 313.386 228.776C313.34 228.786 313.282 228.792 313.212 228.792C313.106 228.792 313.002 228.769 312.9 228.723C312.799 228.677 312.715 228.608 312.648 228.514C312.583 228.421 312.55 228.303 312.55 228.161V225.727ZM314.442 227.288V228.76H314.066V225.498H314.442V226.696H314.474C314.531 226.569 314.617 226.469 314.732 226.395C314.847 226.319 315.001 226.282 315.194 226.282C315.36 226.282 315.506 226.315 315.632 226.382C315.757 226.448 315.854 226.549 315.923 226.686C315.993 226.822 316.028 226.995 316.028 227.205V228.76H315.652V227.231C315.652 227.037 315.602 226.886 315.501 226.78C315.401 226.673 315.263 226.619 315.085 226.619C314.962 226.619 314.852 226.645 314.754 226.697C314.657 226.749 314.581 226.825 314.525 226.925C314.469 227.025 314.442 227.146 314.442 227.288ZM316.716 228.76V226.313H317.092V228.76H316.716ZM316.907 225.906C316.834 225.906 316.77 225.881 316.717 225.831C316.665 225.781 316.639 225.721 316.639 225.651C316.639 225.581 316.665 225.521 316.717 225.471C316.77 225.421 316.834 225.396 316.907 225.396C316.98 225.396 317.043 225.421 317.095 225.471C317.148 225.521 317.174 225.581 317.174 225.651C317.174 225.721 317.148 225.781 317.095 225.831C317.043 225.881 316.98 225.906 316.907 225.906ZM319.513 226.861L319.175 226.957C319.154 226.901 319.123 226.846 319.081 226.793C319.041 226.739 318.986 226.694 318.916 226.659C318.845 226.624 318.756 226.607 318.646 226.607C318.497 226.607 318.372 226.641 318.272 226.71C318.173 226.778 318.124 226.865 318.124 226.97C318.124 227.063 318.158 227.137 318.226 227.191C318.294 227.245 318.4 227.29 318.544 227.326L318.908 227.416C319.126 227.469 319.289 227.55 319.397 227.659C319.504 227.768 319.557 227.907 319.557 228.078C319.557 228.218 319.517 228.344 319.436 228.454C319.357 228.564 319.245 228.651 319.102 228.715C318.959 228.779 318.792 228.811 318.602 228.811C318.352 228.811 318.146 228.757 317.982 228.648C317.819 228.54 317.715 228.382 317.672 228.174L318.028 228.084C318.062 228.216 318.127 228.315 318.221 228.381C318.317 228.447 318.441 228.479 318.595 228.479C318.771 228.479 318.91 228.442 319.013 228.368C319.117 228.293 319.169 228.202 319.169 228.097C319.169 228.012 319.139 227.941 319.08 227.884C319.02 227.825 318.929 227.782 318.806 227.753L318.398 227.658C318.174 227.605 318.009 227.522 317.904 227.411C317.8 227.298 317.748 227.158 317.748 226.989C317.748 226.851 317.787 226.729 317.864 226.622C317.943 226.516 318.05 226.433 318.185 226.372C318.32 226.312 318.474 226.282 318.646 226.282C318.888 226.282 319.079 226.335 319.217 226.441C319.356 226.547 319.454 226.687 319.513 226.861ZM321.385 228.76V226.313H321.76V228.76H321.385ZM321.576 225.906C321.502 225.906 321.439 225.881 321.386 225.831C321.334 225.781 321.308 225.721 321.308 225.651C321.308 225.581 321.334 225.521 321.386 225.471C321.439 225.421 321.502 225.396 321.576 225.396C321.649 225.396 321.712 225.421 321.764 225.471C321.817 225.521 321.843 225.581 321.843 225.651C321.843 225.721 321.817 225.781 321.764 225.831C321.712 225.881 321.649 225.906 321.576 225.906ZM322.825 227.288V228.76H322.449V226.313H322.812V226.696H322.844C322.901 226.571 322.988 226.472 323.105 226.396C323.222 226.32 323.373 226.282 323.557 226.282C323.723 226.282 323.868 226.316 323.992 226.384C324.116 226.45 324.213 226.552 324.282 226.689C324.351 226.825 324.385 226.997 324.385 227.205V228.76H324.01V227.231C324.01 227.039 323.96 226.889 323.86 226.782C323.76 226.673 323.623 226.619 323.449 226.619C323.329 226.619 323.222 226.645 323.127 226.697C323.034 226.749 322.96 226.825 322.906 226.925C322.852 227.025 322.825 227.146 322.825 227.288ZM326.985 226.313L326.08 228.76H325.698L324.794 226.313H325.201L325.877 228.263H325.902L326.577 226.313H326.985ZM328.387 228.811C328.167 228.811 327.973 228.758 327.806 228.653C327.64 228.548 327.511 228.401 327.417 228.212C327.325 228.023 327.279 227.802 327.279 227.549C327.279 227.295 327.325 227.072 327.417 226.882C327.511 226.692 327.64 226.544 327.806 226.439C327.973 226.334 328.167 226.282 328.387 226.282C328.608 226.282 328.801 226.334 328.967 226.439C329.134 226.544 329.263 226.692 329.356 226.882C329.449 227.072 329.496 227.295 329.496 227.549C329.496 227.802 329.449 228.023 329.356 228.212C329.263 228.401 329.134 228.548 328.967 228.653C328.801 228.758 328.608 228.811 328.387 228.811ZM328.387 228.473C328.555 228.473 328.693 228.43 328.801 228.344C328.91 228.258 328.99 228.145 329.042 228.005C329.094 227.865 329.12 227.713 329.12 227.549C329.12 227.386 329.094 227.233 329.042 227.092C328.99 226.951 328.91 226.837 328.801 226.75C328.693 226.663 328.555 226.619 328.387 226.619C328.22 226.619 328.082 226.663 327.973 226.75C327.865 226.837 327.785 226.951 327.733 227.092C327.681 227.233 327.655 227.386 327.655 227.549C327.655 227.713 327.681 227.865 327.733 228.005C327.785 228.145 327.865 228.258 327.973 228.344C328.082 228.43 328.22 228.473 328.387 228.473ZM330.07 228.76V226.313H330.445V228.76H330.07ZM330.261 225.906C330.187 225.906 330.124 225.881 330.071 225.831C330.019 225.781 329.993 225.721 329.993 225.651C329.993 225.581 330.019 225.521 330.071 225.471C330.124 225.421 330.187 225.396 330.261 225.396C330.334 225.396 330.397 225.421 330.449 225.471C330.502 225.521 330.528 225.581 330.528 225.651C330.528 225.721 330.502 225.781 330.449 225.831C330.397 225.881 330.334 225.906 330.261 225.906ZM332.128 228.811C331.898 228.811 331.701 228.757 331.535 228.648C331.37 228.54 331.242 228.391 331.153 228.201C331.064 228.011 331.019 227.794 331.019 227.549C331.019 227.301 331.065 227.082 331.156 226.892C331.249 226.7 331.377 226.551 331.542 226.444C331.707 226.336 331.901 226.282 332.121 226.282C332.293 226.282 332.448 226.313 332.586 226.377C332.724 226.441 332.838 226.53 332.926 226.645C333.014 226.759 333.068 226.893 333.09 227.046H332.714C332.685 226.935 332.621 226.836 332.523 226.75C332.425 226.663 332.293 226.619 332.128 226.619C331.981 226.619 331.853 226.657 331.742 226.734C331.633 226.809 331.547 226.916 331.486 227.054C331.425 227.191 331.395 227.352 331.395 227.537C331.395 227.726 331.425 227.89 331.484 228.03C331.545 228.17 331.63 228.279 331.739 228.357C331.85 228.434 331.979 228.473 332.128 228.473C332.225 228.473 332.314 228.456 332.394 228.422C332.473 228.388 332.541 228.339 332.596 228.276C332.651 228.212 332.69 228.135 332.714 228.046H333.09C333.068 228.191 333.016 228.321 332.932 228.436C332.849 228.551 332.739 228.642 332.602 228.71C332.466 228.777 332.308 228.811 332.128 228.811ZM334.665 228.811C334.429 228.811 334.226 228.759 334.055 228.655C333.885 228.55 333.754 228.403 333.661 228.215C333.57 228.026 333.524 227.806 333.524 227.556C333.524 227.305 333.57 227.084 333.661 226.893C333.754 226.701 333.882 226.551 334.047 226.444C334.212 226.336 334.406 226.282 334.627 226.282C334.754 226.282 334.88 226.303 335.004 226.345C335.128 226.388 335.241 226.457 335.343 226.552C335.445 226.647 335.526 226.772 335.587 226.928C335.647 227.084 335.678 227.276 335.678 227.505V227.664H333.792V227.339H335.295C335.295 227.201 335.268 227.078 335.213 226.97C335.159 226.861 335.081 226.776 334.98 226.713C334.88 226.651 334.762 226.619 334.627 226.619C334.477 226.619 334.347 226.656 334.238 226.731C334.13 226.804 334.046 226.9 333.988 227.017C333.93 227.135 333.9 227.262 333.9 227.396V227.613C333.9 227.798 333.932 227.954 333.996 228.083C334.061 228.21 334.15 228.307 334.265 228.374C334.38 228.44 334.513 228.473 334.665 228.473C334.764 228.473 334.853 228.459 334.932 228.432C335.013 228.403 335.083 228.361 335.141 228.304C335.199 228.247 335.245 228.176 335.276 228.091L335.64 228.193C335.601 228.316 335.537 228.424 335.447 228.518C335.357 228.61 335.245 228.682 335.112 228.734C334.98 228.785 334.83 228.811 334.665 228.811ZM336.523 228.785C336.445 228.785 336.377 228.757 336.321 228.701C336.265 228.645 336.237 228.577 336.237 228.499C336.237 228.42 336.265 228.353 336.321 228.296C336.377 228.24 336.445 228.212 336.523 228.212C336.602 228.212 336.669 228.24 336.726 228.296C336.782 228.353 336.81 228.42 336.81 228.499C336.81 228.551 336.797 228.598 336.77 228.642C336.745 228.685 336.71 228.72 336.667 228.747C336.624 228.773 336.577 228.785 336.523 228.785Z" fill="#5E6470"/>
</g>
<path opacity="0.4" d="M198.36 120V108.8H203.656C204.413 108.8 205.059 108.949 205.592 109.248C206.136 109.536 206.547 109.931 206.824 110.432C207.101 110.923 207.24 111.472 207.24 112.08C207.24 112.816 207.08 113.445 206.76 113.968C206.451 114.491 206.024 114.891 205.48 115.168C204.936 115.435 204.328 115.568 203.656 115.568H199.704V120H198.36ZM203.72 114.336C204.392 114.336 204.915 114.123 205.288 113.696C205.672 113.269 205.864 112.731 205.864 112.08C205.864 111.44 205.661 110.939 205.256 110.576C204.851 110.213 204.339 110.032 203.72 110.032H199.704V114.336H203.72ZM210.339 120H209.011V108H210.339V120ZM215.293 120.128C214.333 120.128 213.565 119.899 212.989 119.44C212.423 118.981 212.141 118.363 212.141 117.584C212.141 116.976 212.306 116.501 212.637 116.16C212.978 115.808 213.399 115.563 213.901 115.424C214.413 115.275 215.021 115.163 215.725 115.088L216.253 115.04C216.925 114.976 217.405 114.901 217.693 114.816C217.991 114.731 218.146 114.555 218.157 114.288C218.146 113.755 217.938 113.317 217.533 112.976C217.138 112.635 216.621 112.464 215.981 112.464C215.362 112.464 214.834 112.624 214.397 112.944C213.97 113.253 213.719 113.659 213.645 114.16H212.333C212.386 113.616 212.578 113.131 212.909 112.704C213.239 112.267 213.671 111.931 214.205 111.696C214.749 111.451 215.351 111.328 216.013 111.328C216.706 111.328 217.309 111.456 217.821 111.712C218.343 111.968 218.743 112.325 219.021 112.784C219.309 113.243 219.453 113.771 219.453 114.368V118.496C219.453 118.773 219.597 118.912 219.885 118.912H220.365V120H219.613C219.154 120 218.807 119.899 218.573 119.696C218.338 119.493 218.221 119.195 218.221 118.8V118.544C217.965 119.045 217.591 119.435 217.101 119.712C216.61 119.989 216.007 120.128 215.293 120.128ZM215.485 118.992C216.274 118.992 216.914 118.768 217.405 118.32C217.906 117.861 218.157 117.28 218.157 116.576V115.472C217.997 115.696 217.735 115.851 217.373 115.936C217.01 116.021 216.487 116.101 215.805 116.176C215.303 116.229 214.893 116.293 214.573 116.368C214.263 116.443 214.002 116.576 213.789 116.768C213.575 116.949 213.469 117.211 213.469 117.552C213.469 117.989 213.65 118.341 214.013 118.608C214.386 118.864 214.877 118.992 215.485 118.992ZM225.646 120.176C224.76 120.176 223.998 119.979 223.358 119.584C222.718 119.189 222.232 118.656 221.902 117.984C221.582 117.301 221.422 116.544 221.422 115.712C221.422 114.795 221.603 114.005 221.966 113.344C222.339 112.683 222.84 112.181 223.47 111.84C224.11 111.499 224.819 111.328 225.598 111.328C226.675 111.328 227.56 111.637 228.254 112.256C228.958 112.864 229.368 113.707 229.486 114.784H228.19C228.072 114.069 227.779 113.509 227.31 113.104C226.851 112.688 226.27 112.48 225.566 112.48C224.723 112.48 224.046 112.773 223.534 113.36C223.022 113.936 222.766 114.72 222.766 115.712C222.766 116.405 222.894 117.003 223.15 117.504C223.406 118.005 223.752 118.384 224.19 118.64C224.638 118.896 225.128 119.024 225.662 119.024C226.344 119.024 226.904 118.821 227.342 118.416C227.79 118 228.072 117.424 228.19 116.688H229.486C229.368 117.787 228.974 118.645 228.302 119.264C227.63 119.872 226.744 120.176 225.646 120.176ZM234.973 120.176C234.151 120.176 233.421 119.989 232.781 119.616C232.151 119.243 231.661 118.725 231.309 118.064C230.967 117.392 230.797 116.635 230.797 115.792C230.797 114.864 230.978 114.064 231.341 113.392C231.703 112.709 232.189 112.197 232.797 111.856C233.415 111.504 234.087 111.328 234.813 111.328C235.986 111.328 236.919 111.707 237.613 112.464C238.317 113.221 238.679 114.272 238.701 115.616V115.984H232.125C232.167 116.901 232.439 117.637 232.941 118.192C233.453 118.747 234.13 119.024 234.973 119.024C235.57 119.024 236.077 118.88 236.493 118.592C236.909 118.293 237.202 117.872 237.373 117.328H238.669C238.477 118.203 238.05 118.896 237.389 119.408C236.738 119.92 235.933 120.176 234.973 120.176ZM237.309 114.88C237.191 114.133 236.914 113.547 236.477 113.12C236.039 112.693 235.485 112.48 234.813 112.48C234.141 112.48 233.57 112.693 233.101 113.12C232.642 113.536 232.343 114.123 232.205 114.88H237.309ZM240.495 120V108H241.823V112.608C242.133 112.213 242.533 111.904 243.023 111.68C243.525 111.445 244.058 111.328 244.623 111.328C245.541 111.328 246.277 111.605 246.831 112.16C247.386 112.715 247.663 113.456 247.663 114.384V120H246.335V114.432C246.335 113.845 246.154 113.376 245.791 113.024C245.439 112.672 244.965 112.496 244.367 112.496C243.589 112.496 242.97 112.72 242.511 113.168C242.063 113.616 241.834 114.176 241.823 114.848V120H240.495ZM253.472 120.176C252.587 120.176 251.83 119.984 251.2 119.6C250.582 119.205 250.112 118.672 249.792 118C249.472 117.317 249.312 116.544 249.312 115.68C249.312 114.763 249.494 113.979 249.856 113.328C250.23 112.667 250.731 112.171 251.36 111.84C251.99 111.499 252.694 111.328 253.472 111.328C254.347 111.328 255.094 111.52 255.712 111.904C256.342 112.288 256.816 112.811 257.136 113.472C257.467 114.133 257.632 114.869 257.632 115.68C257.632 116.629 257.451 117.445 257.088 118.128C256.736 118.8 256.246 119.312 255.616 119.664C254.987 120.005 254.272 120.176 253.472 120.176ZM253.472 119.024C254.059 119.024 254.56 118.875 254.976 118.576C255.403 118.277 255.723 117.877 255.936 117.376C256.16 116.864 256.272 116.299 256.272 115.68C256.272 114.72 256.016 113.947 255.504 113.36C254.992 112.773 254.315 112.48 253.472 112.48C252.63 112.48 251.952 112.773 251.44 113.36C250.928 113.947 250.672 114.72 250.672 115.68C250.672 116.384 250.795 116.987 251.04 117.488C251.296 117.989 251.632 118.373 252.048 118.64C252.475 118.896 252.95 119.024 253.472 119.024ZM260.745 120H259.417V108H260.745V120ZM266.387 120.176C265.64 120.176 264.974 119.989 264.387 119.616C263.8 119.232 263.342 118.704 263.011 118.032C262.691 117.36 262.531 116.587 262.531 115.712C262.531 114.859 262.691 114.101 263.011 113.44C263.342 112.768 263.795 112.251 264.371 111.888C264.958 111.515 265.624 111.328 266.371 111.328C267 111.328 267.571 111.456 268.083 111.712C268.606 111.968 269.022 112.325 269.331 112.784V108H270.659V120H269.603L269.459 118.368C269.171 118.923 268.755 119.365 268.211 119.696C267.678 120.016 267.07 120.176 266.387 120.176ZM266.595 119.024C267.128 119.024 267.603 118.885 268.019 118.608C268.435 118.32 268.755 117.925 268.979 117.424C269.214 116.912 269.331 116.331 269.331 115.68C269.331 115.051 269.219 114.496 268.995 114.016C268.771 113.525 268.456 113.147 268.051 112.88C267.646 112.603 267.187 112.464 266.675 112.464C266.142 112.464 265.662 112.603 265.235 112.88C264.819 113.147 264.494 113.531 264.259 114.032C264.024 114.523 263.907 115.083 263.907 115.712C263.907 116.352 264.019 116.923 264.243 117.424C264.478 117.925 264.798 118.32 265.203 118.608C265.608 118.885 266.072 119.024 266.595 119.024ZM276.629 120.176C275.808 120.176 275.077 119.989 274.437 119.616C273.808 119.243 273.317 118.725 272.965 118.064C272.624 117.392 272.453 116.635 272.453 115.792C272.453 114.864 272.634 114.064 272.997 113.392C273.36 112.709 273.845 112.197 274.453 111.856C275.072 111.504 275.744 111.328 276.469 111.328C277.642 111.328 278.576 111.707 279.269 112.464C279.973 113.221 280.336 114.272 280.357 115.616V115.984H273.781C273.824 116.901 274.096 117.637 274.597 118.192C275.109 118.747 275.786 119.024 276.629 119.024C277.226 119.024 277.733 118.88 278.149 118.592C278.565 118.293 278.858 117.872 279.029 117.328H280.325C280.133 118.203 279.706 118.896 279.045 119.408C278.394 119.92 277.589 120.176 276.629 120.176ZM278.965 114.88C278.848 114.133 278.57 113.547 278.133 113.12C277.696 112.693 277.141 112.48 276.469 112.48C275.797 112.48 275.226 112.693 274.757 113.12C274.298 113.536 274 114.123 273.861 114.88H278.965ZM282.104 120V111.52H283.16L283.32 113.136C283.874 112.027 284.856 111.472 286.264 111.472H286.552V112.784H286.264C285.368 112.784 284.669 113.029 284.168 113.52C283.677 114 283.432 114.677 283.432 115.552V120H282.104Z" fill="#707070"/>
<path d="M0 137H467V249H0V137Z" fill="url(#paint0_linear_704_9651)"/>
<defs>
<linearGradient id="paint0_linear_704_9651" x1="240.152" y1="137" x2="240.152" y2="232.5" gradientUnits="userSpaceOnUse">
<stop stop-color="#D1DCDF" stop-opacity="0"/>
<stop offset="1" stop-color="#D1DCDF"/>
</linearGradient>
<clipPath id="clip0_704_9651">
<rect x="64" y="11" width="356" height="238" rx="6.69412" fill="white"/>
</clipPath>
</defs>
</svg>
