<svg width="101" height="78" viewBox="0 0 101 78" fill="none" xmlns="http://www.w3.org/2000/svg">
<path d="M78.319 45.8291V64.1625C78.319 64.8896 78.1718 65.6167 77.8681 66.3622C77.1686 68.0741 75.7236 69.5558 73.5424 70.8167L62.7559 77.0383V58.6312L71.6281 53.5141L73.5424 52.4096C75.7236 51.1487 77.1686 49.667 77.8681 47.9551C78.1626 47.2464 78.3098 46.5286 78.319 45.8291Z" stroke="#77EB3D" stroke-linecap="round" stroke-linejoin="round"/>
<path d="M99.8099 14.0861V14.1321C99.8099 17.6018 97.693 20.5562 93.4778 22.9951C93.2938 23.1055 93.1097 23.2068 92.9164 23.2988C88.7929 25.5445 83.823 26.6581 78.0432 26.6489C72.2082 26.6397 67.2014 25.4893 63.0322 23.1976C62.8758 23.1147 62.7193 23.0319 62.5629 22.9399C58.3016 20.4733 56.1572 17.5006 56.1388 14.0032C56.1204 10.5059 58.228 7.53313 62.4708 5.0942C66.7045 2.64605 71.8492 1.42198 77.9052 1.44039C83.9611 1.44959 89.1151 2.68287 93.3766 5.14942C97.647 7.60676 99.7823 10.5887 99.8099 14.0861Z" stroke="#77EB3D" stroke-linecap="round" stroke-linejoin="round"/>
<path d="M78.3202 45.8292C78.311 46.5286 78.1637 47.2465 77.8692 47.9552C77.1698 49.667 75.7248 51.1488 73.5436 52.4097L71.6292 53.5141L62.757 58.6313L17.8989 32.7325L0.734375 22.8295L11.5209 16.5987C13.7021 15.3378 16.2791 14.5095 19.2335 14.1046C22.197 13.6996 25.0961 13.764 27.9308 14.2886C33.9315 15.4483 39.4905 16.9393 44.6168 18.7524C48.74 20.2065 52.5779 21.8724 56.1397 23.7499C57.014 24.2009 57.8699 24.6702 58.7074 25.158C58.9651 25.3053 59.2228 25.4617 59.4805 25.6182C63.4289 27.9559 66.871 30.5237 69.8161 33.294C72.9545 36.2575 75.5315 39.4695 77.5471 42.9301C77.9336 43.6295 78.1821 44.3382 78.2742 45.0561C78.311 45.3138 78.3202 45.5715 78.3202 45.8292Z" stroke="#77EB3D" stroke-linecap="round" stroke-linejoin="round"/>
<path d="M62.757 58.6311V77.0382L0.734375 41.2364V22.8293L17.8989 32.7324L62.757 58.6311Z" stroke="#77EB3D" stroke-linecap="round" stroke-linejoin="round"/>
<path d="M99.8097 14.132V32.4931C99.8282 35.9812 97.7113 38.954 93.4777 41.4021C89.299 43.8226 84.2187 45.0375 78.2732 45.0559C78.1812 44.338 77.9327 43.6294 77.5461 42.9299C75.5305 39.4694 72.9535 36.2573 69.8151 33.2938C66.87 30.5235 63.4279 27.9557 59.4796 25.618C59.2219 25.4616 58.9642 25.3051 58.7065 25.1579C57.8689 24.6701 57.013 24.2007 56.1387 23.7497V14.0032C56.1571 17.5005 58.3015 20.4733 62.5627 22.9398C62.7192 23.0318 62.8757 23.1147 63.0321 23.1975C67.2013 25.4892 72.2081 26.6396 78.0431 26.6488C83.8229 26.658 88.7928 25.5444 92.9163 23.2987C93.1096 23.2067 93.2936 23.1055 93.4777 22.995C97.6929 20.5561 99.8097 17.6018 99.8097 14.132Z" stroke="#77EB3D" stroke-linecap="round" stroke-linejoin="round"/>
</svg>
