<svg width="106" height="79" viewBox="0 0 106 79" fill="none" xmlns="http://www.w3.org/2000/svg">
<path d="M15.2397 29.695L15.369 46.9448L1.1293 38.8546L1 21.6049L11.5914 27.625L12.4366 28.0993L15.2397 29.695Z" stroke="#77EB3D" stroke-linecap="round" stroke-linejoin="round"/>
<path d="M104.87 37.4402L104.999 54.6037C105.077 60.9602 101.23 66.4284 93.4591 70.9996C85.6191 75.5966 76.2092 77.9253 65.2211 77.9598C54.233 78.0029 44.7888 75.795 36.897 71.3101C28.9449 66.7993 24.9257 61.3742 24.848 55.0436L24.7188 37.7938C24.7619 40.8556 25.7191 43.7018 27.5993 46.341C29.6003 49.1613 32.6623 51.7316 36.7677 54.0603C43.4002 57.8208 51.128 59.9942 59.9598 60.5462C61.6244 60.667 63.3408 60.71 65.0916 60.71C66.7562 60.71 68.3951 60.6411 69.9907 60.529C78.9002 59.908 86.6886 57.6483 93.3297 53.7498C97.2886 51.4211 100.238 48.8508 102.153 46.0564C103.99 43.3913 104.887 40.5193 104.87 37.4402Z" stroke="#77EB3D" stroke-linecap="round" stroke-linejoin="round"/>
<path d="M50.3249 9.08155L43.3128 13.1956L29.0645 5.12272L36.0766 1L50.3249 9.08155Z" stroke="#77EB3D" stroke-linecap="round" stroke-linejoin="round"/>
<path d="M92.9078 21.0876C84.9555 16.5768 75.4855 14.3601 64.4974 14.4378C59.4519 14.4723 54.7428 14.9725 50.3786 15.9644C47.9205 16.5077 45.5831 17.2064 43.3492 18.0689C41.8916 18.6037 40.4858 19.2159 39.1317 19.9058C38.1744 20.3716 37.2515 20.8719 36.3459 21.398C36.3373 21.398 36.3459 21.4067 36.3286 21.4067C34.8452 22.2779 33.4998 23.1834 32.2923 24.1235C31.1797 24.9946 30.1876 25.8916 29.3165 26.8231C28.5317 27.6511 27.8504 28.4963 27.2639 29.376C25.8667 31.4805 25.0386 33.7143 24.7971 36.0775C24.7281 36.6381 24.7109 37.2161 24.7109 37.794C24.7541 40.8558 25.7113 43.702 27.5916 46.3412C29.5925 49.1615 32.6544 51.7317 36.7599 54.0604C43.3924 57.8209 51.1202 59.9944 59.9521 60.5464C61.6167 60.6672 63.333 60.7102 65.0838 60.7102C66.7484 60.7102 68.3873 60.6412 69.9829 60.5291C78.8924 59.9081 86.6806 57.6485 93.3217 53.75C97.2806 51.4213 100.23 48.851 102.145 46.0566C103.982 43.3915 104.879 40.5194 104.862 37.4403V37.3541C104.776 30.9889 100.8 25.5726 92.8991 21.0876H92.9078ZM79.3581 33.1625L69.8018 38.7771L69.9225 47.8074L69.9484 49.7911L66.5071 49.8084L59.8746 49.8515L59.7882 36.4312L67.7836 31.7393L75.313 27.3233L82.4285 31.3598L79.3581 33.1709V33.1625Z" stroke="#77EB3D" stroke-linecap="round" stroke-linejoin="round"/>
<path d="M79.357 33.1619L69.8007 38.7766L69.9213 47.8069L69.9387 49.7906L66.4973 49.8078L59.8648 49.8424L59.7871 36.422L67.7825 31.7388L75.3119 27.3142L82.436 31.3506L79.357 33.1619Z" stroke="#77EB3D" stroke-linecap="round" stroke-linejoin="round"/>
<path d="M22.2522 25.5719L22.3815 42.813L15.3696 46.9444L15.2402 29.6947L21.4243 26.0549L22.2522 25.5719Z" stroke="#77EB3D" stroke-linecap="round" stroke-linejoin="round"/>
<path d="M22.2516 25.5718L21.4236 26.0548L15.2397 29.6946L12.4366 28.0989L11.5914 27.6245L1 21.6044L8.01196 17.4817L11.5309 19.4827L22.2516 25.5718Z" stroke="#77EB3D" stroke-linecap="round" stroke-linejoin="round"/>
<path d="M50.3246 9.08142L50.3764 15.9641C47.9183 16.5074 45.5808 17.2061 43.347 18.0685L43.3125 13.1955L50.3246 9.08142Z" stroke="#77EB3D" stroke-linecap="round" stroke-linejoin="round"/>
<path d="M29.2802 21.4495L29.3233 26.8315C28.5384 27.6595 27.8572 28.5048 27.2708 29.3845C25.8735 31.489 25.0454 33.7227 24.8039 36.086L22.3287 34.6801L22.2596 25.5722L11.539 19.4831L11.4785 11.3412L29.194 21.3979L29.2888 21.4495H29.2802Z" stroke="#77EB3D" stroke-linecap="round" stroke-linejoin="round"/>
<path d="M36.2939 17.318L36.3285 21.4063C34.845 22.2774 33.4996 23.1829 32.2921 24.123C31.1795 24.9941 30.1875 25.8911 29.3164 26.8226L29.2734 21.4407L36.2853 17.318H36.2939Z" stroke="#77EB3D" stroke-linecap="round" stroke-linejoin="round"/>
<path d="M36.2932 17.3177L29.281 21.449L29.1863 21.3974L11.4707 11.3407L18.4915 7.21802L29.1258 13.2554L36.2932 17.3177Z" stroke="#77EB3D" stroke-linecap="round" stroke-linejoin="round"/>
<path d="M43.3139 13.1955L43.3484 18.0686C41.8908 18.6033 40.485 19.2156 39.1309 19.9056L36.3106 18.2928V17.3181L29.1347 13.2472L29.0742 5.11401L43.3225 13.1955H43.3139Z" stroke="#77EB3D" stroke-linecap="round" stroke-linejoin="round"/>
</svg>
