<svg width="101" height="80" viewBox="0 0 101 80" fill="none" xmlns="http://www.w3.org/2000/svg">
<path d="M64.3346 29.5175V50.091C64.3449 52.3255 62.996 54.2305 60.2879 55.7854C57.5798 57.3505 54.295 58.1331 50.4234 58.1228C46.562 58.1228 43.2669 57.3298 40.5382 55.7544C37.8095 54.1789 36.44 52.2741 36.4297 50.0396V29.4456C36.44 31.68 37.8095 33.5849 40.5382 35.1603C43.2669 36.7358 46.562 37.5184 50.4234 37.5287C54.295 37.539 57.5798 36.7564 60.2879 35.1913C62.9857 33.6467 64.3346 31.7417 64.3346 29.5175Z" stroke="#355159" stroke-linecap="round" stroke-linejoin="round"/>
<path d="M90.0456 58.0609V78.6549L65.2812 64.3524V43.7583L90.0456 58.0609Z" stroke="#355159" stroke-linecap="round" stroke-linejoin="round"/>
<path d="M99.8896 52.3768L90.0456 58.0606L65.2812 43.7581L72.067 39.8453L75.0325 38.1256L75.1252 38.0742L78.0908 39.7834L99.8896 52.3768Z" stroke="#355159" stroke-linecap="round" stroke-linejoin="round"/>
<path d="M64.3346 29.4969V29.5175C64.3346 31.7416 62.9858 33.6467 60.288 35.1912C57.5798 36.7564 54.2951 37.539 50.4234 37.5287C46.562 37.5287 43.267 36.7357 40.5383 35.1602C37.8095 33.5848 36.44 31.68 36.4297 29.4455C36.4194 27.211 37.7684 25.3164 40.4765 23.7512C43.1846 22.1861 46.4692 21.4138 50.3409 21.4138C54.2126 21.4241 57.5078 22.217 60.2262 23.7924C62.9549 25.3576 64.3243 27.2624 64.3346 29.4969Z" stroke="#355159" stroke-linecap="round" stroke-linejoin="round"/>
<path d="M35.6471 43.7072L11.0269 57.917L1.12109 52.1919L22.6728 39.7531L25.6486 38.0335L25.7413 37.9819L28.7172 39.7016L35.6471 43.7072Z" stroke="#355159" stroke-linecap="round" stroke-linejoin="round"/>
<path d="M35.4916 15.1943L25.6477 20.8783L0.873047 6.5757L10.717 0.891846L35.4916 15.1943Z" stroke="#355159" stroke-linecap="round" stroke-linejoin="round"/>
<path d="M99.6426 6.75091L75.0327 20.9609L65.127 15.246L89.7369 1.03601L99.6426 6.75091Z" stroke="#355159" stroke-linecap="round" stroke-linejoin="round"/>
<path d="M99.6412 6.75073V27.3448L78.0895 39.7835L75.1239 38.0743L75.0312 38.1257V20.9607L99.6412 6.75073Z" stroke="#355159" stroke-linecap="round" stroke-linejoin="round"/>
<path d="M75.0327 20.9607V38.1257L72.0671 39.8455L65.127 35.8399V15.2458L75.0327 20.9607Z" stroke="#355159" stroke-linecap="round" stroke-linejoin="round"/>
<path d="M99.8889 52.3772V72.9713L90.0449 78.6551V58.0611L99.8889 52.3772Z" stroke="#355159" stroke-linecap="round" stroke-linejoin="round"/>
<path d="M35.6456 43.707V64.3011L11.0254 78.5109V57.9168L35.6456 43.707Z" stroke="#355159" stroke-linecap="round" stroke-linejoin="round"/>
<path d="M11.0269 57.9166V78.5106L1.12109 72.7855V52.1914L11.0269 57.9166Z" stroke="#355159" stroke-linecap="round" stroke-linejoin="round"/>
<path d="M25.6477 20.8784V38.0333L22.6718 39.7529L0.873047 27.1698V6.57581L25.6477 20.8784Z" stroke="#355159" stroke-linecap="round" stroke-linejoin="round"/>
<path d="M35.4904 15.1945V35.7885L28.715 39.7015L25.7392 37.9818L25.6465 38.0334V20.8784L35.4904 15.1945Z" stroke="#355159" stroke-linecap="round" stroke-linejoin="round"/>
</svg>
