<svg width="102" height="80" viewBox="0 0 102 80" fill="none" xmlns="http://www.w3.org/2000/svg">
<path d="M63.0081 60.837V79.4084L47.6309 70.5313V51.9598L56.0251 56.807L63.0081 60.837Z" stroke="#355159" stroke-linecap="round" stroke-linejoin="round"/>
<path d="M43.5169 1.05542L1.48047 25.319L16.867 34.1961L58.8941 9.93255L43.5169 1.05542Z" stroke="#355159" stroke-linecap="round" stroke-linejoin="round"/>
<path d="M89.7602 45.3948L63.0081 60.837L56.0251 56.807L47.6309 51.9598L74.3737 36.5177L82.7774 41.3648L89.7602 45.3948Z" stroke="#355159" stroke-linecap="round" stroke-linejoin="round"/>
<path d="M101.079 12.2262L39.9319 47.5212L32.9397 43.4819L24.5547 38.644L50.4992 23.6569L58.8934 18.819L85.6919 3.33972L101.079 12.2262Z" stroke="#355159" stroke-linecap="round" stroke-linejoin="round"/>
<path d="M89.76 45.3949V63.9663L63.0078 79.4085V60.837L89.76 45.3949Z" stroke="#355159" stroke-linecap="round" stroke-linejoin="round"/>
<path d="M101.08 12.2262V30.7976L82.778 41.3648L74.3743 36.5176L47.6315 51.9598V61.6448L39.9336 66.0926V47.5212L101.08 12.2262Z" stroke="#355159" stroke-linecap="round" stroke-linejoin="round"/>
<path d="M39.9319 47.5213V66.0927L24.5547 57.2156V38.6442L32.9397 43.482L39.9319 47.5213Z" stroke="#355159" stroke-linecap="round" stroke-linejoin="round"/>
<path d="M58.8943 9.93286V18.8193L50.5 23.6571L24.5556 38.6443V48.3293L16.8672 52.7679V34.1964L58.8943 9.93286Z" stroke="#355159" stroke-linecap="round" stroke-linejoin="round"/>
<path d="M16.867 34.1961V52.7675L1.48047 43.8904V25.319L16.867 34.1961Z" stroke="#355159" stroke-linecap="round" stroke-linejoin="round"/>
</svg>
